<svg width="131" height="131" viewBox="0 0 131 131" fill="none" xmlns="http://www.w3.org/2000/svg">
<path id="encabezado" opacity="0.2" d="M81.0857 101.96C86.8698 104.604 98.3518 111.141 99.6453 107.807C100.951 104.407 87.0486 101.19 81.9805 100.343C80.1606 100.022 78.6065 99.6439 77.2257 99.2699C76.8044 99.1232 76.3831 98.9784 75.9667 98.8298C76.8293 98.3627 78.5505 97.4994 81.5464 96.2757C84.9551 94.8196 92.376 93.022 90.805 89.8239C89.1877 86.5434 82.7791 92.3065 80.7688 94.6121C78.5228 97.0451 76.6376 97.8747 75.434 98.6473C73.8662 98.0934 72.2954 97.5482 70.7009 97.0813L67.897 96.3559C68.1643 96.2095 68.4865 96.0359 68.9392 95.8071C70.1824 95.1722 72.1782 94.2462 75.1791 93.079C77.3548 92.2288 80.8037 91.1193 83.5109 89.7461C86.218 88.373 88.1146 86.7166 87.1654 85.1873C86.2161 83.658 83.8807 84.6242 81.3054 86.2161C78.7301 87.8081 75.9477 90.1042 74.5084 91.3686C71.288 94.1891 68.8445 95.2157 67.3209 96.2086L66.7167 96.0531L64.7206 95.5486L62.6908 95.1991L61.5253 94.9996C62.4115 94.4017 64.1567 93.3142 67.2259 91.7749C69.0011 90.8765 71.862 89.6331 73.9887 88.0796C76.1288 86.5418 77.4109 84.7006 76.1549 83.4122C74.8989 82.1238 73.1785 83.2437 71.3012 84.915C69.4238 86.5862 67.3959 88.9023 66.347 90.1681C64.0878 92.8739 62.1462 93.9416 60.9455 94.9008L58.634 94.504L54.5284 94.1259L52.4744 93.9441L50.9905 93.9299C51.9096 93.3986 53.7212 92.4249 56.8358 91.0253C60.4186 89.4068 68.317 86.7968 66.4513 83.7047C64.5855 80.6126 58.2086 86.9418 56.0209 89.3787C53.5373 92.113 51.4696 93.0261 50.2193 93.9213C48.9065 93.9206 47.5908 93.8566 46.2808 93.9288C45.2459 93.9665 44.2131 94.0529 43.1804 94.1392L44.0845 93.4561C45.1862 92.6566 46.9274 91.3922 49.5525 89.734C51.4603 88.5277 54.4974 86.9286 56.8789 85.5765C59.2435 84.189 61.0546 83.0016 60.3893 81.3156C59.7241 79.6296 57.0128 80.3487 54.4806 82.1717C51.9388 83.977 49.6801 86.7101 48.5636 88.1876C45.9811 91.617 43.7683 93.0088 42.4462 94.1915C40.5803 94.3684 38.7245 94.6407 36.8776 94.9714C38.0918 94.0923 39.2569 93.1476 40.3679 92.1416C41.8577 90.8275 44.1021 88.8007 45.6733 87.0886C47.2274 85.3499 48.2759 83.9238 47.1535 82.5025C46.0311 81.0812 43.9211 82.3852 42.3897 84.5305C40.8478 86.658 39.7442 89.3864 39.091 90.8199C38.0802 93.1066 36.7822 94.3635 35.6633 95.2035C33.7601 95.579 31.8648 96.0062 29.9932 96.5367C29.7897 96.5956 29.588 96.6613 29.3845 96.7212C29.9707 96.0038 30.8705 94.8571 32.0973 93.1268C32.9941 91.8653 34.4246 89.941 35.2204 88.2426C36.0162 86.5442 36.2459 85.0436 34.6455 84.2151C33.0451 83.3867 31.9353 84.8128 31.3494 86.7187C30.7636 88.6245 30.614 90.9543 30.5051 92.2119C30.3052 94.708 29.3043 96.0154 28.6231 96.9538C26.6469 97.5691 24.7004 98.2695 22.7942 99.0764C23.2492 98.5201 23.7995 97.8536 24.4718 97.0453C25.3934 95.9446 26.9134 94.3249 27.8305 92.8354C28.7476 91.3459 29.098 89.9688 27.6078 88.9516C27.0818 88.5933 26.5911 88.5232 26.1421 88.6452C27.3977 87.1233 28.6897 85.6302 30.0365 84.1904C32.6826 81.376 35.4769 78.7041 38.4076 76.186C38.4076 76.186 39.0955 76.1057 40.716 76.1056C42.3366 76.1055 44.8886 76.2623 48.5782 76.8951C51.2559 77.3445 55.355 78.3736 58.9482 78.6453C62.5468 78.9434 65.5138 78.3061 65.3537 76.5136C65.1937 74.721 62.3542 74.5149 58.8614 74.4829C55.3686 74.4509 51.1686 74.7903 48.9569 75.0899C44.1019 75.7045 41.0617 75.5039 38.9418 75.7292C40.9167 74.0449 42.9433 72.4211 45.0215 70.8577C45.5268 70.927 46.2093 70.9973 47.1008 71.0311C48.2123 71.0792 49.6328 71.0399 51.3637 71.0241C52.2982 71.01 53.2328 71.0432 54.164 71.1236L57.5675 71.4399C61.1143 71.81 66.4707 72.8963 70.9478 73.6701C75.4282 74.4225 79.1003 74.7519 79.4251 72.9701C79.7457 71.2067 75.8589 70.0032 71.1115 69.4981C66.3657 68.958 60.8319 69.2701 57.9502 69.6279C56.2105 69.8312 54.6576 69.9859 53.2487 70.0817L49.463 70.459C48.1579 70.5718 46.8456 70.5743 45.54 70.4666C47.6857 68.8648 49.8736 67.321 52.1037 65.8352L54.2274 65.9229C56.1899 66.0342 59.2867 66.2289 63.7654 66.7209C67.0174 67.0766 71.9595 67.886 76.0666 68.3555C80.1761 68.7978 83.5155 68.8643 83.7508 67.0704C83.9862 65.2765 80.3731 64.3728 76.0374 64.1833C71.7011 63.9754 66.7215 64.5297 64.1073 64.9054C58.7981 65.6623 55.2577 65.4429 52.7348 65.413C55.7025 63.4629 58.7548 61.6434 61.845 59.8897L62.0178 59.9246C62.4635 60.0056 63.1432 60.1915 64.1129 60.3286C66.0416 60.6716 69.1292 61.0061 73.5953 61.1422L85.6643 61.5876C89.5804 61.7041 92.6039 62.0337 93.0376 60.2624C93.2298 59.391 92.4403 58.6514 91.0046 58.1171C89.5724 57.6081 87.5225 57.3603 85.3555 57.4245C81.0011 57.5554 76.2906 58.7486 73.7856 59.3029C68.4655 60.5552 64.8534 60.0053 62.3944 59.5789C66.2044 57.4377 70.0926 55.439 74.059 53.5827C74.5229 53.563 75.2741 53.5411 76.3833 53.5454C78.4156 53.5548 81.627 53.7077 86.2258 54.4863C92.8813 55.5217 106.423 60.0303 107 56.4062C107.585 52.8921 92.2654 52.1592 86.6929 52.6981C81.3032 53.0737 77.6993 52.9836 75.097 53.1068C76.2469 52.5792 77.3865 52.0291 78.5477 51.525C81.4369 50.2763 84.3712 49.1303 87.3261 48.0361C88.6356 48.239 91.4171 48.7192 96.2084 49.7614C98.7869 50.3306 102.69 51.408 105.937 52.0463C109.186 52.6672 111.818 52.8875 112.263 51.1387C112.708 49.3899 109.829 48.2814 106.335 47.9024C102.841 47.505 98.7929 47.7808 96.6589 47.9757C92.8248 48.3347 90.1728 47.9761 88.2146 47.7162C92.279 46.2425 96.3908 44.9124 100.567 43.7864C101.151 44.0124 101.749 44.1983 102.357 44.3429C103.301 44.5787 104.526 44.7753 106.02 44.985C107.536 45.1698 109.188 45.486 111.288 45.996C114.296 46.6927 118.889 48.0184 122.843 48.6438C126.796 49.2692 130.081 49.1404 130.21 47.3448C130.339 45.5491 127.036 44.8642 123.043 44.4792C119.051 44.0941 114.323 44.1277 111.822 44.2234C108.808 44.2671 106.429 44.2988 104.471 44.1584C103.42 44.0759 102.382 43.884 101.371 43.5856C102.486 43.2919 103.605 43.0117 104.726 42.7447C105.868 42.492 107.129 42.2237 108.554 41.9318C111.797 41.2786 116.827 40.4852 120.926 39.4959C125.024 38.4931 128.182 37.3186 127.762 35.5686C127.343 33.8185 123.607 34.2869 119.47 35.5855C115.32 36.8664 110.734 38.9429 108.328 40.0974C106.603 40.9252 104.835 41.6644 103.034 42.3122C102.102 42.5333 101.166 42.7417 100.239 42.9823C100.463 42.7605 100.733 42.5044 101.058 42.2016C102.317 41.0344 104.404 39.2908 107.714 37.1101C112.454 33.8894 123.406 28.6971 121.296 25.7313C119.229 22.7963 109.776 31.8327 106.772 35.5255C103.444 39.423 100.958 41.4761 99.4711 43.1662C97.5248 43.6829 95.5978 44.2631 93.6745 44.8589C94.398 43.8988 96.018 41.8211 99.0094 38.2787C100.598 36.4084 103.174 33.6581 105.043 31.2045C106.911 28.7508 108.093 26.5465 106.674 25.4295C105.254 24.3124 103.24 26.2671 101.51 29.0048C99.78 31.7425 98.3391 35.2195 97.6215 37.0786C95.9759 41.3481 94.0771 43.4485 93.0364 45.0536C91.2569 45.608 89.493 46.2218 87.7339 46.8436L88.6407 45.6289C89.5617 44.3805 90.9461 42.3534 92.7632 39.2897C94.0902 37.076 96.1066 33.6695 97.4657 30.7937C98.8085 27.9089 99.6297 25.5404 98.0516 24.6559C96.4736 23.7714 94.7105 26.2083 93.5433 29.3768C92.3762 32.5453 91.6386 36.3145 91.1943 38.3198C90.1825 43.0845 88.1522 45.4267 87.0699 47.0739C84.6263 47.9498 82.2029 48.8773 79.7998 49.8563C79.9819 49.4939 80.2315 48.9946 80.5726 48.314C81.4175 46.6484 82.7531 44.0259 84.5808 40.1188C87.3391 34.4873 92.3882 22.4355 88.8439 21.6097C87.084 21.1926 85.886 24.3985 84.9779 28.2922C84.0698 32.186 83.3802 36.7809 82.951 39.2403C82.0027 44.7834 80.1822 47.8831 79.2204 50.089C78.8528 50.2405 78.4776 50.3743 78.1109 50.5288C76.7587 51.0997 75.4271 51.7206 74.089 52.3238C74.2178 51.8867 74.3978 51.291 74.5851 50.4855C75.0896 48.556 75.6808 45.4686 76.4606 41.0208C77.0375 37.7962 78.0657 32.918 79.171 29.1781C79.7126 27.2929 80.2981 25.7126 80.5716 24.4557C80.8834 23.2373 80.87 22.2585 80.1186 21.743C79.4011 21.2456 78.3551 21.7301 77.3529 23.0045C76.3323 24.2697 75.536 26.3034 75.0447 28.5062C74.1043 32.9523 74.4883 37.9455 74.6673 40.5595C75.1506 46.4036 74.2356 50.0581 73.6064 52.5366C70.7731 53.8242 67.9632 55.1665 65.2015 56.601C65.2729 56.4603 65.3453 56.3186 65.4219 56.1595C66.2266 54.5701 67.0762 51.8882 67.9426 48.0443C68.2737 46.6561 68.6905 44.9079 69.2292 43.2063C69.7973 41.3727 70.2703 39.5111 70.6466 37.629C71.3084 34.0928 71.5431 31.3164 69.8031 30.8676C68.0399 30.4164 66.8984 33.562 66.4864 37.249C66.2618 39.1004 66.1673 41.0337 66.0676 42.8687C65.9757 44.765 66.1002 46.4054 66.1596 47.551C66.4943 52.0381 65.53 55.0078 64.5003 56.9629C60.1871 59.2294 55.9747 61.6815 51.8633 64.3193C49.8852 65.5973 47.9358 66.9212 46.0153 68.2908C45.8672 67.3283 45.7465 66.3595 45.6727 65.3817L46.9639 64.663C47.9978 64.0879 49.626 63.1852 51.9621 61.7565C53.6557 60.7284 56.309 59.1309 58.1508 57.3716C59.9925 55.6123 61.0261 53.7788 59.676 52.59C58.3259 51.4011 56.6805 52.7001 55.0736 54.5739C53.4666 56.4478 51.8531 58.9114 50.9408 60.226C48.9463 63.1217 46.9089 64.0936 45.6441 64.9158C45.5142 62.5483 45.5567 60.1746 45.7713 57.8134C45.9923 57.6352 46.3356 57.3648 46.8305 56.9938C47.8162 56.2595 49.3924 55.147 51.8108 53.6846C53.5566 52.6196 56.3957 51.1562 58.5008 49.4935C60.6059 47.8308 61.8973 46.0169 60.662 44.7094C59.4268 43.402 57.5753 44.6218 55.6761 46.4375C53.777 48.2532 51.8082 50.7635 50.8121 52.139C48.8152 54.887 47.0278 56.1719 45.8426 57.1965C45.9455 56.1292 46.0629 55.069 46.2124 54.0161C46.3221 53.2502 46.4775 52.4918 46.6193 51.7303C46.7187 51.6066 47.9525 50.0998 51.7413 46.8813C54.5968 44.4571 61.1753 39.9396 58.4816 37.5154C55.814 35.1091 51.8041 42.6824 50.4842 45.5385C49.1495 48.403 47.6884 49.8138 46.759 50.9202C47.5387 47.061 48.6092 43.2659 49.9611 39.5674C50.2027 38.9562 50.4424 38.3449 50.686 37.7328C51.1606 37.4129 52.4462 36.6203 55.1384 35.3927C56.4298 34.7887 58.5867 33.8964 60.0422 32.4768C61.5257 31.0674 62.0173 29.2708 60.4359 28.4125C58.8441 27.5376 57.9853 28.373 56.9917 29.6572C55.998 30.9414 54.8216 32.8125 54.179 33.8292C53.031 35.6289 51.846 36.3959 50.9892 36.9875C51.5785 35.5296 52.193 34.0829 52.9042 32.6766C53.7786 30.6947 54.8433 28.8082 55.8974 26.9167C56.3418 26.713 57.9915 25.9923 61.6725 24.7447C64.8491 23.6697 71.8054 21.9345 70.0564 18.7841C68.3074 15.6337 62.9473 20.9978 60.993 23.038C59.0661 25.0593 57.4019 25.7175 56.2544 26.2763C56.2975 26.1973 56.3416 26.1193 56.3858 26.0403C57.4333 24.1341 58.665 22.3378 59.835 20.5045C60.229 20.2242 61.3969 19.4258 63.9167 18.0146C65.0774 17.3609 66.967 16.439 68.2459 15.2819C69.5248 14.1248 70.1524 12.7676 68.8281 11.5471C68.3215 11.0784 67.8364 10.9034 67.3772 10.9329C69.048 9.26612 71.2128 7.34489 73.0283 5.82229C74.197 4.85384 75.1792 4.09908 75.7764 3.48193C76.0435 3.21923 76.2722 2.92033 76.4559 2.59402C76.6295 2.27614 76.8081 1.88838 76.8289 1.44269C76.9657 0.57032 75.7555 -0.0565333 74.2394 0.290229C72.818 0.626856 71.3231 1.6503 70.0482 2.92411C67.4748 5.48495 65.6376 9.07217 64.7732 10.9842C63.359 14.1322 62.0836 16.2194 61.1626 17.8322C60.8928 18.1981 60.622 18.563 60.355 18.9318C60.3846 18.7914 60.41 18.6655 60.4481 18.4786C60.6476 17.5168 60.9478 15.9951 61.2287 13.7296C61.7443 10.4466 62.1742 3.41129 58.6141 4.17016C56.8446 4.53033 56.8534 6.27961 57.38 8.2316C57.9065 10.1836 58.9039 12.4084 59.3962 13.6486C60.5873 16.6063 59.8807 18.5151 59.7918 19.74C58.506 21.7502 57.1179 23.6985 55.9497 25.7826L55.7915 26.0531C55.7806 25.8809 55.7699 25.7039 55.7543 25.4607C55.6389 23.7463 55.4218 22.0402 55.1043 20.3514C54.7964 18.6109 54.2307 15.8819 53.1969 13.8625C52.1787 11.8355 50.8047 10.5569 49.2875 11.5187C47.7702 12.4806 48.4284 14.1859 49.6054 15.9599C50.7825 17.7338 52.4672 19.6773 53.3197 20.8008C55.2667 23.3266 55.2283 25.4046 55.4138 26.7078C54.3502 28.5846 53.274 30.4621 52.3853 32.4292C52.1018 32.9785 51.8328 33.5339 51.5735 34.0943C51.5751 33.9913 51.5762 33.9214 51.5782 33.8028C51.5626 32.7162 51.4917 31.0106 51.2569 28.5425C50.9548 24.9285 50.3344 17.5031 46.9254 18.6094C43.485 19.7375 47.9596 26.3456 49.44 28.8193C51.1553 31.5775 51.0818 33.6588 51.164 35.0274C50.5314 36.4505 49.952 37.8959 49.3658 39.3392C49.3505 39.3807 49.3372 39.4223 49.3219 39.4638C48.9666 38.6097 48.2549 36.8443 47.0823 33.7634C46.4425 32.07 45.6088 29.4183 44.6166 27.4121C43.6244 25.406 42.4919 24.0098 40.8364 24.7275C39.1809 25.4451 39.7202 27.511 41.0232 29.5105C42.3262 31.51 44.3182 33.4759 45.4003 34.4991C47.8551 36.8145 48.4736 38.8049 49.1207 40.0436C48.2595 42.4193 47.498 44.8315 46.8615 47.2778L46.8048 47.0514C46.5215 45.9575 45.9949 44.2465 44.9513 41.8664C44.2079 40.1374 42.9845 37.4871 41.5861 35.6115C40.1876 33.7358 38.7133 32.5819 37.2788 33.6636C35.8444 34.7454 36.8157 36.5947 38.4156 38.3007C40.0154 40.0066 42.1774 41.7012 43.303 42.6853C45.7169 44.7571 46.2475 46.8209 46.6366 48.1808C46.1688 50.0711 45.7535 51.9748 45.4526 53.9008C44.7175 58.8449 44.3951 63.8597 45.1906 68.8848C42.6943 70.6928 40.2595 72.5874 37.8863 74.5684C38.2024 73.0848 38.8416 70.4685 40.1307 66.3787C41.7042 61.2655 45.8964 50.9014 42.3704 50.1507C38.8443 49.4001 38.3369 61.424 38.3865 65.7763C38.3992 70.1795 37.6762 72.983 37.3543 75.0097C35.3914 76.6709 33.4837 78.3957 31.6311 80.1843C32.052 78.5391 32.8751 75.5108 34.3745 70.6403C35.2642 67.7093 36.7493 63.1835 37.3457 59.2343C37.9703 55.2884 37.6714 52.0194 35.8744 51.972C34.0773 51.9246 33.5335 55.1527 33.1767 59.0407C32.8345 62.929 32.6978 67.5406 32.6376 70.004C32.5031 75.2065 31.5138 78.4585 31.0353 80.7723C30.2832 81.5133 29.5359 82.2602 28.8048 83.0248C25.5197 86.4545 22.5091 90.1359 19.8009 94.0353C19.5541 92.1857 19.3569 90.3251 19.2092 88.4538C19.8408 87.636 21.0269 86.1334 23.0065 83.7321C24.1982 82.3073 26.1439 80.261 27.5316 78.5177C28.899 76.7605 29.7952 75.2367 28.5246 73.9462C27.254 72.6556 25.4068 74.0319 24.0746 76.1998C22.7424 78.3676 21.9253 81.1492 21.5362 82.6287C20.8901 85.1322 19.9201 86.6413 19.1445 87.754C18.9854 85.5378 18.8908 83.3139 18.839 81.0936C19.1378 80.6816 20.3418 79.0908 23.2233 75.8459C25.6872 73.0676 31.3012 67.66 28.2659 65.7113C25.2305 63.7626 22.6473 71.765 21.7907 74.6995C20.9167 77.6852 19.6277 79.226 18.8211 80.3908C18.8174 80.1964 18.8079 80.0019 18.8043 79.8016C18.7729 77.1159 18.8282 74.4315 18.9702 71.7485C19.488 70.9795 20.3515 69.8555 21.7979 68.393C22.8871 67.2824 24.7719 65.7482 26.0415 64.142C27.3111 62.5358 27.8817 60.8502 26.3684 59.8716C24.8552 58.8929 23.6621 60.0476 22.6123 61.7934C21.5626 63.5392 20.7293 65.9328 20.3821 67.2274C20.0668 68.3946 19.6186 69.522 19.0463 70.5875C19.1785 68.4295 19.3584 66.2732 19.6083 64.1248C19.7443 63.058 19.9093 62.0064 20.0802 60.9499C20.1791 60.8543 20.2887 60.7589 20.4319 60.6388C21.0537 60.1241 22.1357 59.403 23.9049 58.5783C25.1808 57.9702 27.2824 57.2471 28.8524 56.2142C30.427 55.1988 31.4249 53.7087 30.1731 52.4C28.934 51.0953 27.75 51.6807 26.3494 52.8971C24.9791 54.1101 23.5982 55.9788 22.9415 57.0206C21.8997 58.6383 20.9126 59.5145 20.1935 60.2006C20.6237 57.6849 21.155 55.1905 21.7877 52.7176C21.9202 52.5667 22.0627 52.4248 22.2143 52.293C22.8361 51.72 23.9444 50.9323 25.7819 50.0388C27.1063 49.3799 29.3114 48.5875 30.9663 47.4219C32.6401 46.2915 33.6507 44.4994 32.2079 43.3819C30.7904 42.2629 29.781 42.8977 28.3558 44.1876C26.9815 45.4676 25.5041 47.4018 24.8107 48.4848C23.7525 50.0896 22.7635 51.025 22.0485 51.7617C22.3158 50.7671 22.586 49.7725 22.8873 48.7861C23.2875 47.5617 23.7241 46.3531 24.1972 45.1603C24.2566 45.1 24.3042 45.0493 24.3744 44.9814C24.9354 44.4385 25.9002 43.6689 27.5003 42.7657C28.6543 42.1041 30.6251 41.2798 32.0383 40.0685C33.4668 38.871 34.128 37.3035 32.7084 36.1981C31.2888 35.0927 30.2524 35.8242 29.157 37.0776C28.0617 38.331 26.9304 40.2407 26.403 41.3011C25.9662 42.1765 25.4301 42.999 24.8052 43.7523C26.13 40.5852 27.7168 37.5336 29.5491 34.6293L29.5571 34.6158C29.5572 34.611 29.5572 34.6051 29.5573 34.6003C30.2474 33.6572 31.0787 32.5968 32.1029 31.4122C35.5624 27.2846 44.3938 19.9106 41.5612 17.5871C38.8155 15.3078 32.4732 25.957 30.7499 30.1602C29.5086 32.9738 28.3966 35.014 27.5289 36.6393C26.1309 38.9982 24.8878 41.4451 23.8074 43.9646C23.8089 43.8762 23.8042 43.8062 23.8028 43.706C23.7935 42.9586 23.7747 41.5872 23.7406 39.0514C23.7763 35.8665 23.4702 28.9408 20.0017 30.119C18.29 30.6959 18.4967 32.3754 19.2364 34.2152C19.9761 36.055 21.244 38.1132 21.9144 39.2435C23.4316 41.7848 23.2626 43.6303 23.4195 44.831C22.9215 46.0428 22.4599 47.2682 22.0348 48.5071C21.7026 49.5396 21.4024 50.5823 21.108 51.6251C20.8413 50.7676 20.4849 49.5015 20.0568 47.6609C19.7075 46.1899 19.3049 43.859 18.4722 42.0517C17.654 40.2447 16.3259 39.0222 14.8254 40.028C13.325 41.0339 13.7928 42.4029 14.805 44.0119C15.8263 45.5996 17.4325 47.3397 18.3177 48.247C19.9463 49.9252 20.4586 51.3707 20.8801 52.4105C20.5095 53.7717 20.1758 55.1414 19.8682 56.5173L19.7361 56.1964C18.9434 54.365 18.0535 52.577 17.0702 50.8399C15.1391 47.2104 10.7057 39.9208 8.0993 42.4111C5.50777 44.8881 12.9667 49.7233 15.4899 51.7872C18.1576 53.8271 19.0644 55.8737 19.7118 57.2824C19.2348 59.5 18.821 61.7313 18.5023 63.9777C18.4813 64.1377 18.4679 64.2998 18.4478 64.4627C17.7757 63.4995 16.6934 61.8894 15.1022 59.346C12.9773 55.9524 8.98662 48.4444 6.3074 50.8636C3.62818 53.2829 10.8589 58.5021 13.5742 60.3718C16.2191 62.1917 17.4299 63.9322 18.3669 65.1299C18.16 66.8485 17.99 68.5703 17.8571 70.2953C17.4108 69.7051 16.6436 68.6034 15.5514 66.6976C14.2542 64.3999 11.9638 59.0786 9.23525 61.4737C6.53859 63.8266 11.9985 66.7706 14.0855 67.7993C16.3303 68.884 17.0985 70.1694 17.8082 70.9077C17.6547 73.0191 17.5557 75.1327 17.5112 77.2484C17.3054 77.0896 17.0659 76.9001 16.7804 76.6662C15.7068 75.7831 14.07 74.3146 11.8826 71.9617C8.67248 68.5924 2.95342 60.6427 0.475468 63.2634C-2.00249 65.8841 7.05648 71.5117 10.5312 73.21C14.1051 75.0411 16.0084 76.7694 17.5016 77.7846C17.4907 78.4598 17.4672 79.1348 17.4689 79.8102C17.4703 80.3272 17.4854 80.8444 17.4916 81.3654C16.6269 80.6294 15.2036 79.3928 13.0127 77.4392C11.5572 76.1418 9.35556 74.0656 7.2128 72.7493C5.07003 71.4331 3.01862 70.9141 2.22805 72.531C1.43748 74.1478 3.07534 75.3695 5.29226 76.4353C7.50918 77.5011 10.331 78.3813 11.8465 78.8547C14.7749 79.7677 16.3383 81.0776 17.4974 81.9709C17.5179 83.3964 17.5598 84.8223 17.6232 86.2486C16.6608 85.5344 15.0053 84.258 12.4738 82.1678C9.26969 79.5118 2.81945 73.4219 1.0547 76.5662C-0.710041 79.7105 8.0513 82.596 11.3307 83.6031C14.5588 84.5929 16.3291 85.9342 17.6482 86.8145C17.7081 87.9884 17.7895 89.1616 17.8836 90.3341C17.1291 89.8361 15.9998 89.0823 14.3169 88.0591C13.0305 87.2677 11.0255 85.9838 9.11262 85.4486C7.20789 84.8922 5.39974 85.1721 5.27139 86.9716C5.14303 88.7712 6.41424 89.2367 8.2166 89.498C10.0067 89.7329 12.2861 89.7055 13.5248 89.709C15.6848 89.7156 16.9878 90.3809 17.9324 90.9335C18.0695 92.5128 18.2301 94.0936 18.4402 95.6751C18.4397 95.6786 18.4397 95.6822 18.4401 95.6857C18.4556 95.7754 18.4872 95.8615 18.5334 95.9399C17.0896 98.1617 15.7696 100.461 14.5793 102.828C14.4206 101.981 14.1848 100.9 13.7865 99.5113C13.3723 98.0217 12.6375 95.6913 11.5282 94.0642C10.4189 92.4371 9.07111 91.5262 7.67867 92.6602C6.28623 93.7941 6.99471 95.2145 8.2184 96.5743C9.44208 97.9341 11.1792 99.3429 12.086 100.184C13.4141 101.409 13.9255 102.606 14.1968 103.598C13.53 104.97 12.8941 106.357 12.3229 107.778L12.3227 107.79C12.2756 107.912 12.253 108.043 12.2564 108.174C12.2597 108.305 12.2888 108.433 12.3421 108.553C12.3954 108.673 12.4718 108.781 12.5669 108.871C12.662 108.961 12.774 109.032 12.8965 109.079C13.0189 109.126 13.1495 109.148 13.2806 109.145C13.4118 109.142 13.5411 109.113 13.661 109.06C13.7809 109.006 13.8891 108.93 13.9795 108.835C14.0699 108.74 14.1407 108.629 14.1878 108.506C14.7262 107.126 15.3304 105.774 15.9636 104.435C18.4981 102.717 21.2736 101.272 24.1516 100.056C24.5127 100.129 24.8695 100.229 25.2295 100.307C25.24 100.502 25.2469 100.799 25.2285 101.219C25.1982 102.071 24.9985 103.402 24.469 105.375C24.0945 106.8 23.2884 109.079 23.4263 111.277C23.4838 112.36 23.8393 113.383 24.3742 113.975C24.944 114.575 25.6351 114.718 26.4448 114.33C28.0595 113.482 27.8839 112.418 27.5547 110.784C27.2061 109.154 26.6362 106.871 26.2739 105.659C25.5465 103.12 25.7893 101.528 25.6603 100.409C27.2505 100.763 28.8304 101.169 30.4001 101.627C30.4125 102.308 30.3706 104.18 29.7825 107.793C29.4822 109.51 28.9429 112.152 28.7582 114.307C28.6752 115.464 28.8054 116.692 29.3139 117.53C29.8153 118.384 30.6055 118.665 31.4074 118.276C32.9938 117.434 32.9775 116.573 32.9197 114.303C32.8403 111.913 32.025 109.386 31.6116 107.97C30.6767 105.008 30.9053 103.09 30.8207 101.753C32.7766 102.334 34.714 102.982 36.6217 103.714C36.7207 104.084 36.7943 104.46 36.8422 104.84C36.9761 105.834 36.9952 107.43 36.5679 109.767C36.4169 110.617 36.1474 111.69 35.9064 112.866C35.6668 114.196 35.4889 115.078 35.328 116.303C35.1906 117.456 35.2583 118.692 35.7022 119.549C36.1449 120.423 36.8843 120.767 37.7267 120.469C39.3931 119.798 39.4318 118.789 39.4866 116.476C39.4855 115.856 39.4499 115.236 39.3802 114.619C39.294 113.927 39.1797 113.463 39.0725 112.865C38.8551 111.734 38.5992 110.689 38.3945 109.977C37.5653 107.042 37.4981 105.17 37.1155 103.892C38.724 104.521 40.3162 105.192 41.8762 105.925C42.2966 106.126 42.71 106.342 43.1253 106.553C43.1481 106.771 43.1938 107.319 43.2123 108.286C43.2352 109.587 43.1759 111.634 42.8742 114.637C42.7604 115.66 42.5883 117.212 42.4356 118.588C42.3624 119.323 42.3013 120.094 42.2649 120.836C42.2265 121.469 42.1514 122.201 42.1337 122.935C42.0898 124.392 42.2939 125.929 42.9896 126.99C43.6692 128.087 44.7347 128.325 45.348 127.682C45.9964 127.028 46.2265 126.53 46.3356 125.865C46.4266 125.171 46.3768 124.092 46.294 122.703C46.2479 122.059 46.1818 121.147 46.0326 120.432C45.9007 119.798 45.7479 119.062 45.5889 118.295C45.2791 116.913 44.9496 115.661 44.7055 114.794C43.6255 110.926 43.793 108.455 43.5523 106.769C45.4957 107.78 47.3819 108.896 49.2025 110.114C49.3371 110.883 49.6407 113.133 49.5833 117.721C49.5705 119.845 49.3661 123.159 49.7849 125.938C50.1811 128.724 51.3304 130.892 53.0393 130.306C54.7482 129.721 54.4742 127.624 53.8435 125.003C53.1961 122.396 52.0721 119.321 51.4234 117.698C50.1032 114.348 49.9934 112.039 49.6901 110.436C49.7863 110.504 49.8944 110.569 49.9946 110.636C51.7845 111.915 53.4694 113.334 55.0332 114.881C55.6639 115.632 56.5452 116.903 57.395 118.985C58.8065 122.041 59.5706 129.015 62.932 127.834C64.6265 127.232 64.3068 125.256 63.2015 123.2C62.0962 121.145 60.1647 119.107 59.0462 118.172C58.3853 117.604 57.827 117.076 57.342 116.589C57.342 116.589 57.3421 116.584 57.3422 116.582C55.4338 114.372 53.301 112.365 50.9779 110.594C51.189 110.611 51.435 110.633 51.7393 110.665C52.8399 110.78 54.5684 111.03 57.0634 111.584C60.654 112.379 68.1329 114.949 68.4619 111.333C68.5488 110.414 68.048 109.825 67.2153 109.461C67.2311 109.448 67.2487 109.444 67.2646 109.429C68.6171 108.235 67.3014 106.237 65.2723 104.453C63.2433 102.669 60.5557 101.015 59.1092 100.13C56.0664 98.2787 54.7877 96.3466 53.8176 95.0794L54.4489 95.1274L58.5059 95.4465L61.0316 95.8448C61.2857 96.0909 61.6469 96.4562 62.1349 96.9976C63.1635 98.1365 64.6715 100.039 66.6797 102.999L69.2967 106.917C69.7914 107.641 70.3219 108.383 70.9117 109.132C71.4851 109.812 72.0587 110.473 72.6333 111.081C74.9313 113.518 77.1328 115.121 78.4038 113.843C79.6749 112.565 77.9336 110.272 75.4303 108C74.133 106.854 72.8055 105.773 71.5348 104.672C70.2608 103.597 69.0685 102.643 68.2297 101.995C64.9488 99.4519 63.2039 97.3229 61.7806 95.9589L62.5315 96.0779L64.5433 96.3951L66.5234 96.8691L70.4842 97.8328C70.9884 97.9731 71.4842 98.1473 71.9843 98.3011C72.6258 99.0442 74.357 101.117 77.5035 105.357C79.0061 107.355 81.3018 110.539 83.8006 112.728C86.2756 114.945 88.8625 116.016 89.7804 114.476C90.6982 112.936 88.7606 111.278 86.2784 109.391C83.7852 107.522 80.6667 105.413 78.9925 104.275C75.7095 102.042 74.0639 99.9662 72.7923 98.5581C73.3175 98.7259 73.8487 98.8763 74.3718 99.0509C76.0606 99.7108 78.2679 100.647 81.0857 101.96ZM61.0171 19.0057C61.1633 18.7534 61.3375 18.4618 61.5604 18.1049C61.7344 17.8269 61.9411 17.5105 62.1725 17.1673C62.5221 16.6871 62.8697 16.2068 63.2192 15.7334C63.0643 16.037 62.9274 16.3175 62.8165 16.549C62.3845 17.478 61.773 18.3128 61.0171 19.0057ZM23.9629 91.4039C23.3628 93.0462 23.0895 94.9532 22.9495 96.0276C22.7409 97.6685 22.2241 98.7368 21.7124 99.5458C20.1856 100.231 18.6949 100.993 17.2463 101.83C19.1701 98.1832 21.4476 94.712 23.9629 91.4039ZM32.3212 101.165C33.4014 101.174 34.4802 101.246 35.552 101.38C36.8761 101.529 38.9953 101.949 40.8444 101.668C42.699 101.406 44.0552 100.405 43.4112 98.7276C42.7673 97.0507 41.5359 97.1319 40.0071 97.6038C38.4783 98.0757 36.5485 99.0144 35.5239 99.5586C33.5194 100.602 32.1196 100.624 31.1218 100.779C29.4145 100.238 27.6861 99.7565 25.9367 99.335C27.3997 98.7756 28.8815 98.263 30.3729 97.8119C35.1191 96.396 40.0068 95.505 44.9482 95.155C45.5881 95.691 46.7722 96.7878 48.5708 98.8565C48.4555 98.876 48.3415 98.8849 48.2251 98.9121C46.1031 99.3881 44.217 100.82 43.2687 101.585C41.356 103.157 39.7997 103.4 38.7055 103.614C36.9752 102.869 35.2277 102.166 33.4487 101.544C33.072 101.414 32.6941 101.293 32.3163 101.169L32.3212 101.165ZM42.2305 105.212C41.3194 104.764 40.385 104.365 39.4577 103.954L43.6919 103.368C45.1333 103.184 47.2993 103.119 48.8328 103.024C49.8715 102.931 50.7277 102.8 51.3113 102.178C51.7514 102.731 52.2202 103.311 52.7122 103.901C51.2685 104.29 49.8927 104.936 49.0857 105.339C46.797 106.488 45.2421 106.218 44.1833 106.231C43.5335 105.882 42.8836 105.539 42.2257 105.211L42.2305 105.212ZM54.1275 96.2767L57.6508 101.244C58.8673 102.932 60.6719 105.589 62.4437 107.501C62.926 108.03 63.4485 108.52 64.0065 108.968C61.6147 108.964 58.8635 109.444 57.3769 109.779C53.9434 110.536 51.8662 110.105 50.4153 110.153L50.373 110.119C48.6611 108.899 46.8873 107.767 45.0586 106.729C45.8871 106.807 47.1841 106.941 49.0737 107.165C50.45 107.335 52.5286 107.742 54.1691 107.773C54.9275 107.785 55.6087 107.699 56.1455 107.447C57.9442 108.898 59.7953 109.518 60.6243 108.178C61.5798 106.658 60.0987 105.199 57.9216 103.476C55.8053 101.847 53.0512 100.21 51.4708 99.3502C51.2962 99.2101 51.1009 99.0978 50.8919 99.0173C48.2623 97.5115 46.7518 96.0645 45.5762 95.1C45.8268 95.0846 46.0766 95.0517 46.3281 95.0393C47.6794 94.9454 49.0361 95.0042 50.3912 94.9794L52.4248 94.9714L53.2642 95.0345L54.1275 96.2767Z" fill="#7789AE"/>
</svg>
