<svg width="210" height="284" viewBox="0 0 210 284" fill="none" xmlns="http://www.w3.org/2000/svg">
<g id="flor3" clip-path="url(#clip0_33_50)">
<path id="flor3_2" d="M150.007 102.772C149.98 103.046 149.935 103.317 149.872 103.584C147.534 110.115 146.044 116.918 145.44 123.827C145.251 128.372 144.473 132.872 143.126 137.216C141.876 140.558 141.025 144.18 139.554 147.467C137.42 152.171 134.92 156.726 132.538 161.317C130.34 165.653 129.425 170.525 129.901 175.362C130.484 182.559 133.226 188.854 136.455 195.107C138.289 198.624 140.118 202.176 141.644 205.838C143.169 209.499 144.341 213.475 145.737 217.274C146.32 219.589 147.574 221.681 149.344 223.287C149.574 223.54 149.857 223.74 150.172 223.871C150.488 224.003 150.829 224.064 151.171 224.05C151.512 224.035 151.847 223.946 152.15 223.789C152.453 223.631 152.718 223.409 152.926 223.137C154.348 221.673 155.43 219.914 156.095 217.984C157.998 213.159 159.302 208.118 159.977 202.975C160.611 198.199 160.769 193.397 161.001 188.573C161.364 177.461 160.22 166.351 157.599 155.543C156.088 148.902 153.672 142.466 151.59 135.943C150.572 132.756 149.073 129.685 148.352 126.53C147.018 120.403 147.461 114.024 149.631 108.141C150.275 106.296 151.038 104.488 151.668 102.623C152.332 100.429 153.55 98.4429 155.206 96.8563C156.713 95.4917 158.007 93.9141 159.489 92.4919C163.74 88.3174 167.864 84.1574 172.063 79.9743L172.6 80.2765C171.251 83.0604 170.578 86.1223 170.634 89.2149C170.578 89.5585 170.481 89.894 170.343 90.2138C169.734 92.5974 169.11 94.9609 168.52 97.33C166.933 103.669 169.187 108.942 173.396 113.476C179.011 119.154 185.382 124.035 192.328 127.983C193.971 128.91 195.718 129.641 197.533 130.161C200.084 131.033 202.865 130.953 205.36 129.936C206.042 129.607 206.699 129.229 207.327 128.807C206.639 127.825 205.87 126.902 205.029 126.047C203.031 124.274 200.931 122.621 198.737 121.096C192.837 117.199 187.375 112.679 182.445 107.614C179.218 104.238 175.806 101.008 173.933 96.5437C172.592 93.749 171.961 90.6678 172.097 87.5727C172.233 84.4776 173.131 81.4643 174.713 78.7996C176.215 76.4424 178.043 74.3083 180.142 72.4603C186.832 66.0287 193.507 59.577 200.231 53.1513C204.223 49.3597 208.313 45.6199 212.288 41.8255C215.108 39.2306 217.077 35.8464 217.939 32.1153C218.137 30.9235 218.459 29.7346 216.789 28.9776C216.371 29.3519 215.898 29.7348 215.471 30.1609C206.087 39.5347 196.702 48.9142 187.316 58.2995C186.466 59.3128 185.456 60.182 184.327 60.8733C181.239 62.3302 178.03 63.5539 174.878 64.8582C168.721 67.2135 162.282 68.7566 155.724 69.4486C148.11 70.4719 140.985 73.7666 135.282 78.9011C129.19 84.5554 123.508 90.6336 118.278 97.09C117.765 97.563 117.397 98.1714 117.215 98.8449C117.034 99.5183 117.048 100.229 117.254 100.896C117.703 101.324 118.264 101.618 118.872 101.744C119.48 101.87 120.111 101.824 120.693 101.609C123.079 101.089 125.393 100.281 127.585 99.205C132.059 96.5764 136.383 93.5677 140.592 90.7175C146.623 86.5371 152.397 82.1898 158.283 77.9145C160.67 76.1813 163.129 74.5489 165.381 72.6689C169.187 69.3546 173.53 66.7095 178.224 64.8464C179.343 64.4289 180.398 63.8588 181.479 63.3463C180.678 64.6227 179.701 65.7807 178.577 66.7866C166.893 78.0144 155.767 89.7018 145.198 101.849C142.227 105.278 139.501 108.942 136.366 112.184C132.072 116.3 127.329 119.924 122.227 122.986C121.807 123.229 121.351 123.405 120.877 123.507C116.67 124.734 112.253 125.069 107.907 124.493C103.058 123.811 98.2319 122.885 93.4259 121.837C86.7692 120.344 79.8873 120.146 73.1574 121.255C68.3239 122.084 63.531 123.204 58.7322 124.04C57.521 124.264 56.2808 124.342 54.9195 124.506C54.6128 123.249 54.315 122.258 54.1268 121.251C53.0592 115.937 50.5957 111 46.9887 106.947C43.0798 102.322 37.621 100.172 31.8255 98.9778C30.3033 98.7658 28.7545 98.852 27.2657 99.2316C26.9508 99.2826 26.6495 99.3961 26.3795 99.5654C26.1094 99.7347 25.8762 99.9564 25.6935 100.217C25.5109 100.478 25.3825 100.773 25.316 101.084C25.2495 101.396 25.2463 101.717 25.3065 102.03C25.383 102.866 25.6362 103.676 26.0495 104.407C26.9449 105.976 28.0535 107.439 28.946 109.025C31.2595 113.083 33.6075 117.148 35.7999 121.293C36.7439 123.33 38.1877 125.096 39.9976 126.428C44.3771 129.576 48.1206 133.523 51.0303 138.06C52.3556 139.931 53.655 141.85 55.1418 143.606C57.5258 146.607 60.5633 149.027 64.0235 150.681C67.4837 152.336 71.2756 153.182 75.1114 153.156C81.9342 153.062 88.5726 150.94 94.1778 147.06C98.4329 144.359 102.423 141.331 106.444 138.218C109.274 136.062 111.944 133.808 114.688 131.424C118.256 128.467 121.801 125.329 125.379 122.321C127.241 120.749 129.178 119.26 131.1 117.752C131.361 117.57 131.643 117.42 131.939 117.306C128.326 122.562 124.624 127.822 121.055 133.246C115.938 141.032 111.502 149.244 107.797 157.79C106.108 161.483 103.742 164.828 100.822 167.653C96.5418 172 91.2025 175.231 87.1565 179.883C85.5253 181.498 83.7735 182.987 81.9163 184.337C78.861 186.794 76.1678 189.669 73.9159 192.876C68.1201 201.517 64.8985 211.622 64.6248 222.02C64.6306 224.741 64.9747 227.452 65.6492 230.089C66.2226 232.639 67.6064 234.936 69.5941 236.637C71.7011 238.514 73.3251 238.695 75.5591 236.919C76.6209 236.12 77.4902 235.094 78.1036 233.916C79.7219 230.818 81.0686 227.585 82.1285 224.255C84.3864 216.022 86.2692 207.691 88.3396 199.409C89.9428 192.289 92.8159 185.516 96.8215 179.413C99.1782 175.935 101.189 172.187 103.427 168.459C103.912 169.392 103.382 170.227 103.155 170.845C100.996 177.293 99.5029 183.943 98.6991 190.694C97.7305 198.875 98.5242 207.048 98.3372 215.235C98.2459 219.065 98.0882 222.903 97.8643 226.747C97.6907 229.824 97.3066 232.884 97.0811 235.953C96.5974 241.548 97.1941 247.184 98.8387 252.556C100.321 256.712 102.438 260.615 105.115 264.125C106.63 266.216 108.299 268.19 110.11 270.032C111.106 271.01 112.292 271.775 113.596 272.28C114.111 272.541 114.681 272.677 115.259 272.678C115.837 272.679 116.407 272.544 116.923 272.284C117.439 272.024 117.886 271.647 118.229 271.182C118.571 270.718 118.799 270.18 118.895 269.611C119.239 268.04 119.327 266.425 119.157 264.826C118.211 258.255 116.474 251.822 113.982 245.666C111.598 239.36 107.933 233.692 104.81 227.759C102.472 223.534 100.877 218.941 100.096 214.178C98.943 205.635 98.982 196.974 100.212 188.443C100.296 187.988 100.407 187.538 100.542 187.096C100.884 187.458 101.106 187.916 101.178 188.408C102.181 192.912 102.823 197.488 103.101 202.093C103.241 205.169 103.544 208.235 104.01 211.279C104.936 219.058 108.582 226.264 114.306 231.627C118.43 235.49 122.336 239.6 126.394 243.541C128.785 246.235 131.983 248.087 135.513 248.819C139.442 249.473 141.304 248.114 142.077 244.213C142.554 241.304 142.369 238.325 141.534 235.496C140.642 232.038 139.251 228.728 137.404 225.669C135.313 222.027 133.018 218.505 130.532 215.12C126.811 210.571 122.696 206.359 118.235 202.532C112.439 197.167 106.741 191.747 103.133 184.456C102.563 183.54 102.19 182.516 102.04 181.449C101.889 180.381 101.964 179.294 102.26 178.258C103.529 174.262 104.475 170.177 105.859 166.236C107.342 161.786 109.277 157.498 111.633 153.44C117.401 143.853 123.691 134.588 130.475 125.688C136.229 118.143 142.566 111.049 148.667 103.774C149.016 103.365 149.39 102.977 149.785 102.611L150.007 102.772Z" fill="#FFFDFE"/>
<path id="flor3_3" d="M134.048 174.49C134.127 175.089 134.237 175.71 134.298 176.306C134.368 177.276 134.345 178.267 134.487 179.231C135.218 184.666 136.82 189.948 139.233 194.876C141.981 199.739 144.307 204.829 146.184 210.089C146.684 211.787 146.977 213.558 147.362 215.308L146.932 215.432C146.773 215.141 146.646 214.834 146.551 214.516C145.622 210.145 144.057 205.932 141.906 202.012C139.228 196.721 136.248 191.54 134.844 185.751C133.827 182.076 133.517 178.242 133.93 174.452L134.048 174.49Z" fill="#C1BADD"/>
<path id="flor3_4" d="M152.131 152.806C155.575 164.188 158.569 175.602 157.421 187.64C157.284 181.804 156.699 175.987 155.672 170.239C154.577 164.413 153.326 158.667 152.131 152.806Z" fill="#C1BADD"/>
<path id="flor3_5" d="M72.2323 201.506C72.0973 202.318 71.9624 203.13 71.8275 203.941C70.0659 210.13 68.8584 216.463 68.2192 222.866C68.0964 224.461 68.1524 226.05 68.1021 228.171C67.7843 227.409 67.5504 227.103 67.5502 226.784C67.4297 225.328 67.4054 223.865 67.4776 222.406C68.0374 215.715 69.4205 209.119 71.5958 202.767C71.79 202.332 72.0314 201.92 72.3159 201.538L72.2323 201.506Z" fill="#C1BADD"/>
<path id="flor3_6" d="M106.65 238.2C111.569 247.022 115.49 256.283 116.317 266.608C115.007 261.758 113.938 256.841 112.325 252.1C110.712 247.359 108.566 242.831 106.65 238.2Z" fill="#C1BADD"/>
<path id="flor3_7" d="M82.8691 125.425C78.4158 125.572 73.9538 125.558 69.4805 125.933C65.8696 126.256 62.1812 127.045 58.5215 127.661C57.8302 127.808 57.1146 127.798 56.4274 127.632C56.9717 127.4 57.5281 127.196 58.0941 127.022C65.6359 125.168 73.406 124.403 81.1668 124.751C81.7521 124.855 82.3201 125.039 82.8546 125.298L82.8691 125.425Z" fill="#C1BADD"/>
<path id="flor3_8" d="M120.432 209.003C113.044 204.225 108.695 196.793 104.317 189.427C109.214 196.347 113.725 203.557 120.432 209.003Z" fill="#C1BADD"/>
<path id="flor3_9" d="M112 223.026C114.711 226.086 117.37 229.243 120.167 232.211C122.964 235.179 126.433 237.317 128.746 240.63C122.514 235.423 116.315 230.133 112 223.026Z" fill="#C1BADD"/>
<path id="flor3_10" d="M84.492 127.86C81.4865 127.751 78.4723 127.587 75.4754 127.533C72.4786 127.478 69.6145 127.588 66.5975 127.442C67.5172 127.188 68.4569 127.011 69.4064 126.915C72.207 126.865 75.0163 126.871 77.8141 126.945C79.5851 126.991 81.4456 127.141 83.2629 127.336C83.6984 127.461 84.1107 127.655 84.4834 127.912L84.492 127.86Z" fill="#C1BADD"/>
<path id="flor3_11" d="M113.598 260.708L108.036 244.412C110.653 249.545 112.671 254.961 114.051 260.552L113.598 260.708Z" fill="#C1BADD"/>
<path id="flor3_12" d="M70.3789 142.678C66.6337 141.949 63.0346 140.607 59.727 138.706C57.5802 137.604 55.5486 136.237 53.4508 135.054C54.1375 135.202 54.8117 135.403 55.4674 135.655C58.6615 137.198 61.7836 138.853 65.0065 140.329C66.7579 141.135 68.6475 141.645 70.4795 142.286C70.457 142.42 70.4234 142.551 70.3789 142.678Z" fill="#C1BADD"/>
<path id="flor3_13" d="M182.891 118.196C178.001 114.43 174.023 109.613 171.254 104.103C174.688 109.15 178.584 113.868 182.891 118.196Z" fill="#C1BADD"/>
<path id="flor3_14" d="M132.763 85.0674C136.983 80.6514 141.935 76.9953 147.401 74.2595L132.763 85.0674Z" fill="#C1BADD"/>
<path id="flor3_15" d="M31.4302 102.533C37.4132 103.67 44.838 108.223 46.0232 111.686C45.0534 110.779 44.2769 109.993 43.4572 109.254C40.8605 107.029 37.8586 105.324 34.6158 104.234C33.508 103.837 32.4346 103.339 31.2834 102.881C31.3814 102.72 31.3957 102.634 31.4302 102.533Z" fill="#C1BADD"/>
<path id="flor3_16" d="M82.8949 125.27C84.2744 125.307 85.6506 125.423 87.0169 125.617C90.3574 126.173 93.6692 127.007 96.9809 127.735C96.5417 127.832 96.0925 127.876 95.6427 127.868C91.6041 127.196 87.5656 126.525 83.5271 125.854C83.2775 125.758 83.0476 125.618 82.8489 125.439L82.8949 125.27Z" fill="#C1BADD"/>
<path id="flor3_17" d="M71.4515 210.162C71.2592 211.319 71.0668 212.477 70.8773 213.617C70.4122 216.415 69.9471 219.213 69.5021 221.89C68.7595 220.151 69.6807 214.074 71.3534 210.11L71.4515 210.162Z" fill="#C1BADD"/>
<path id="flor3_18" d="M135.804 177.302C135.992 178.097 136.177 178.908 136.345 179.717C136.898 182.489 137.44 185.224 137.829 188.129C137.478 187.448 137.173 186.745 136.915 186.024C135.878 183.244 135.515 180.258 135.856 177.311L135.804 177.302Z" fill="#C1BADD"/>
<path id="flor3_19" d="M153.001 163.618C153.285 164.801 153.675 165.984 153.864 167.205C154.191 169.301 154.389 171.428 154.584 173.572C153.83 172.435 152.983 166.082 153.105 163.635L153.001 163.618Z" fill="#C1BADD"/>
<path id="flor3_20" d="M124.925 234.404C121.792 232.435 119.098 229.842 117.013 226.788L124.925 234.404Z" fill="#C1BADD"/>
<path id="flor3_21" d="M173.482 105.361C175.429 106.483 176.21 108.53 177.319 110.312C175.651 109.001 174.333 107.301 173.482 105.361Z" fill="#C1BADD"/>
<path id="flor3_22" d="M54.8339 137.112L61.2166 140.552L60.9228 141.035C58.6735 140.096 56.6178 138.75 54.8599 137.063L54.8339 137.112Z" fill="#C1BADD"/>
<path id="flor3_23" d="M79.4738 128.517C78.9859 128.719 78.4728 128.855 77.9483 128.92C76.1658 128.943 74.3977 128.88 72.6181 128.886C73.9731 128.117 75.5278 128.074 79.5171 128.577L79.4738 128.517Z" fill="#C1BADD"/>
<path id="flor3_24" d="M72.2341 207.594C71.9694 208.438 71.722 209.284 71.4688 210.165L71.2957 210.136L72.2831 207.62L72.2341 207.594Z" fill="#C1BADD"/>
<path id="flor3_25" d="M70.468 142.355L72.2884 142.747L72.2022 143.265L70.4308 142.686C70.4509 142.577 70.4633 142.467 70.468 142.355Z" fill="#C1BADD"/>
<path id="flor3_26" d="M29.4395 101.882L31.4302 102.533C31.413 102.637 31.3986 102.723 31.3842 102.809L29.4827 101.836L29.4395 101.882Z" fill="#C1BADD"/>
<path id="flor3_27" d="M85.1409 127.808L87.2006 128.151L85.072 128.223L85.1409 127.808Z" fill="#C1BADD"/>
<path id="flor3_28" d="M134.023 171.433L134.004 169.939L134.023 171.433Z" fill="#C1BADD"/>
<path id="flor3_29" d="M133.971 171.424L133.984 172.953C133.978 172.455 133.992 171.942 134.006 171.43L133.971 171.424Z" fill="#C1BADD"/>
<path id="flor3_30" d="M133.984 172.953L134.048 174.49L133.927 174.47L134.001 172.955L133.984 172.953Z" fill="#C1BADD"/>
<path id="flor3_31" d="M87.7401 128.329L89.2428 128.277L87.7401 128.329Z" fill="#C1BADD"/>
<path id="flor3_32" d="M107.447 242.61L107.773 243.214L107.499 243.045C107.467 242.902 107.449 242.756 107.447 242.61Z" fill="#C1BADD"/>
<path id="flor3_33" d="M103.565 187.634L103.666 187.562L103.707 187.746L103.565 187.634Z" fill="#C1BADD"/>
<path id="flor3_34" d="M53.4508 135.054C53.2777 135.025 53.1305 134.841 53.347 135.037L53.4336 135.158L53.4508 135.054Z" fill="#C1BADD"/>
<path id="flor3_35" d="M54.8599 137.063L54.0145 136.692L54.8426 137.06L54.8599 137.063Z" fill="#C1BADD"/>
<path id="flor3_36" d="M54.0145 136.692C53.8414 136.663 53.6942 136.479 53.928 136.677C53.7692 136.456 53.9279 136.678 53.9973 136.796L54.0145 136.692Z" fill="#C1BADD"/>
<path id="flor3_37" d="M97.581 127.87L98.4779 127.718L97.5868 127.836L97.581 127.87Z" fill="#C1BADD"/>
<path id="flor3_38" d="M73.0067 199.522C73.1536 199.281 73.3207 199.024 73.4705 198.765C73.2861 199.019 73.119 199.275 72.9519 199.531L73.0067 199.522Z" fill="#C1BADD"/>
<path id="flor3_39" d="M135.59 176.344L135.804 177.302C135.749 176.991 135.68 176.66 135.607 176.347L135.59 176.344Z" fill="#C1BADD"/>
<path id="flor3_40" d="M72.8687 200.138L72.2953 200.913L72.8687 200.138Z" fill="#C1BADD"/>
<path id="flor3_41" d="M153.036 163.624L152.975 162.709L153.036 163.624Z" fill="#C1BADD"/>
<path id="flor3_42" d="M152.975 162.709C152.879 162.533 152.784 162.358 152.992 162.605C153.035 162.346 152.992 162.605 152.975 162.709Z" fill="#C1BADD"/>
<path id="flor3_43" d="M80.0248 128.733L79.4738 128.517L80.022 128.75L80.0248 128.733Z" fill="#C1BADD"/>
<path id="flor3_44" d="M84.4834 127.912L85.1409 127.808L85.0834 128.154L84.5294 127.849L84.4834 127.912Z" fill="#C1BADD"/>
<path id="flor3_45" d="M52.7764 135.687L52.7043 135.8L52.6523 135.684L52.7764 135.687Z" fill="#C1BADD"/>
<path id="flor3_46" d="M98.4952 127.721L98.5586 127.767L98.5038 127.669L98.4952 127.721Z" fill="#C1BADD"/>
<path id="flor3_47" d="M73.4705 198.765L73.4733 198.642L73.4561 198.745L73.4705 198.765Z" fill="#C1BADD"/>
<path id="flor3_48" d="M135.771 175.788L135.59 176.343C135.622 176.153 135.653 175.963 135.685 175.773L135.771 175.788Z" fill="#C1BADD"/>
<path id="flor3_49" d="M134.341 168.77L134.119 169.354C134.151 169.164 134.182 168.974 134.301 168.799L134.341 168.77Z" fill="#C1BADD"/>
<path id="flor3_50" d="M152.674 161.203L152.581 161.117L152.676 161.079L152.674 161.203Z" fill="#C1BADD"/>
<path id="flor3_51" d="M150.007 102.772C149.98 103.046 149.935 103.317 149.872 103.584C147.534 110.115 146.044 116.918 145.44 123.827C145.251 128.372 144.473 132.872 143.126 137.216C141.876 140.558 141.025 144.18 139.554 147.467C137.42 152.171 134.92 156.726 132.538 161.317C130.34 165.653 129.425 170.525 129.901 175.362C130.484 182.559 133.226 188.854 136.455 195.107C138.289 198.624 140.118 202.176 141.644 205.838C143.169 209.499 144.341 213.475 145.737 217.274C146.32 219.589 147.574 221.681 149.344 223.287C149.574 223.54 149.857 223.74 150.172 223.871C150.488 224.003 150.829 224.064 151.171 224.05C151.512 224.035 151.847 223.946 152.15 223.789C152.453 223.631 152.718 223.409 152.926 223.137C154.348 221.673 155.43 219.914 156.095 217.984C157.998 213.159 159.302 208.118 159.977 202.975C160.611 198.199 160.769 193.397 161.001 188.573C161.364 177.461 160.22 166.351 157.599 155.543C156.088 148.902 153.672 142.466 151.59 135.943C150.572 132.756 149.073 129.685 148.352 126.53C147.018 120.403 147.461 114.024 149.631 108.141C150.275 106.296 151.038 104.488 151.668 102.623C152.332 100.429 153.55 98.4429 155.206 96.8563C156.713 95.4917 158.007 93.9141 159.489 92.4919C163.74 88.3174 167.864 84.1574 172.063 79.9743L172.6 80.2765C171.251 83.0604 170.578 86.1223 170.634 89.2149C170.578 89.5585 170.481 89.894 170.343 90.2138C169.734 92.5974 169.11 94.9609 168.52 97.33C166.933 103.669 169.187 108.942 173.396 113.476C179.011 119.154 185.382 124.035 192.328 127.983C193.971 128.91 195.718 129.641 197.533 130.161C200.084 131.033 202.865 130.953 205.36 129.936C206.042 129.607 206.699 129.229 207.327 128.807C206.639 127.825 205.87 126.902 205.029 126.047C203.031 124.274 200.931 122.621 198.737 121.096C192.837 117.199 187.375 112.679 182.445 107.614C179.218 104.238 175.806 101.008 173.933 96.5437C172.592 93.749 171.961 90.6678 172.097 87.5727C172.233 84.4776 173.131 81.4643 174.713 78.7996C176.215 76.4424 178.043 74.3083 180.142 72.4603C186.832 66.0287 193.507 59.577 200.231 53.1513C204.223 49.3597 208.313 45.6199 212.288 41.8255C215.108 39.2306 217.077 35.8464 217.939 32.1153C218.137 30.9235 218.459 29.7346 216.789 28.9776C216.371 29.3519 215.898 29.7348 215.471 30.1609C206.087 39.5347 196.702 48.9142 187.316 58.2995C186.466 59.3128 185.456 60.182 184.327 60.8733C181.239 62.3302 178.03 63.5539 174.878 64.8582C168.721 67.2135 162.282 68.7566 155.724 69.4486C148.11 70.4719 140.985 73.7666 135.282 78.9011C129.19 84.5554 123.508 90.6336 118.278 97.09C117.765 97.563 117.397 98.1714 117.215 98.8449C117.034 99.5183 117.048 100.229 117.254 100.896C117.703 101.324 118.264 101.618 118.872 101.744C119.48 101.87 120.111 101.824 120.693 101.609C123.079 101.089 125.393 100.281 127.585 99.205C132.059 96.5764 136.383 93.5677 140.592 90.7175C146.623 86.5371 152.397 82.1898 158.283 77.9145C160.67 76.1813 163.129 74.5489 165.381 72.6689C169.187 69.3546 173.53 66.7095 178.224 64.8464C179.343 64.4289 180.398 63.8588 181.479 63.3463C180.678 64.6227 179.701 65.7807 178.577 66.7866C166.893 78.0144 155.767 89.7018 145.198 101.849C142.227 105.278 139.501 108.942 136.366 112.184C132.072 116.3 127.329 119.924 122.227 122.986C121.807 123.229 121.351 123.405 120.877 123.507C116.67 124.734 112.253 125.069 107.907 124.493C103.058 123.811 98.2319 122.885 93.4259 121.837C86.7692 120.344 79.8873 120.146 73.1574 121.255C68.3239 122.084 63.531 123.204 58.7322 124.04C57.521 124.264 56.2808 124.342 54.9195 124.506C54.6128 123.249 54.315 122.258 54.1268 121.251C53.0592 115.937 50.5957 111 46.9887 106.947C43.0798 102.322 37.621 100.172 31.8255 98.9778C30.3033 98.7658 28.7545 98.852 27.2657 99.2316C26.9508 99.2826 26.6495 99.3961 26.3795 99.5654C26.1094 99.7347 25.8762 99.9564 25.6935 100.217C25.5109 100.478 25.3825 100.773 25.316 101.084C25.2495 101.396 25.2463 101.717 25.3065 102.03C25.383 102.866 25.6362 103.676 26.0495 104.407C26.9449 105.976 28.0535 107.439 28.946 109.025C31.2595 113.083 33.6075 117.148 35.7999 121.293C36.7439 123.33 38.1877 125.096 39.9976 126.428C44.3771 129.576 48.1206 133.523 51.0303 138.06C52.3556 139.931 53.655 141.85 55.1418 143.606C57.5258 146.607 60.5633 149.027 64.0235 150.681C67.4837 152.336 71.2756 153.182 75.1114 153.156C81.9342 153.062 88.5726 150.94 94.1778 147.06C98.4329 144.359 102.423 141.331 106.444 138.218C109.274 136.062 111.944 133.808 114.688 131.424C118.256 128.467 121.801 125.329 125.379 122.321C127.241 120.749 129.178 119.26 131.1 117.752C131.361 117.57 131.643 117.42 131.939 117.306C128.326 122.562 124.624 127.822 121.055 133.246C115.938 141.032 111.502 149.244 107.797 157.79C106.108 161.483 103.742 164.828 100.822 167.653C96.5418 172 91.2025 175.231 87.1565 179.883C85.5253 181.498 83.7735 182.987 81.9163 184.337C78.861 186.794 76.1678 189.669 73.9159 192.876C68.1201 201.517 64.8985 211.622 64.6248 222.02C64.6306 224.741 64.9747 227.452 65.6492 230.089C66.2226 232.639 67.6064 234.936 69.5941 236.637C71.7011 238.514 73.3251 238.695 75.5591 236.919C76.6209 236.12 77.4902 235.094 78.1036 233.916C79.7219 230.818 81.0686 227.585 82.1285 224.255C84.3864 216.022 86.2692 207.691 88.3396 199.409C89.9428 192.289 92.8159 185.516 96.8215 179.413C99.1782 175.935 101.189 172.187 103.427 168.459C103.912 169.392 103.382 170.227 103.155 170.845C100.996 177.293 99.5029 183.943 98.6991 190.694C97.7305 198.875 98.5242 207.048 98.3372 215.235C98.2459 219.065 98.0882 222.903 97.8643 226.747C97.6907 229.824 97.3066 232.884 97.0811 235.953C96.5974 241.548 97.1941 247.184 98.8387 252.556C100.321 256.712 102.438 260.615 105.115 264.125C106.63 266.216 108.299 268.19 110.11 270.032C111.106 271.01 112.292 271.775 113.596 272.28C114.111 272.541 114.681 272.677 115.259 272.678C115.837 272.679 116.407 272.544 116.923 272.284C117.439 272.024 117.886 271.647 118.229 271.182C118.571 270.718 118.799 270.18 118.895 269.611C119.239 268.04 119.327 266.425 119.157 264.826C118.211 258.255 116.474 251.822 113.982 245.666C111.598 239.36 107.933 233.692 104.81 227.759C102.472 223.534 100.877 218.941 100.096 214.178C98.943 205.635 98.982 196.974 100.212 188.443C100.296 187.988 100.407 187.538 100.542 187.096C100.884 187.458 101.106 187.916 101.178 188.408C102.181 192.912 102.823 197.488 103.101 202.093C103.241 205.169 103.544 208.235 104.01 211.279C104.936 219.058 108.582 226.264 114.306 231.627C118.43 235.49 122.336 239.6 126.394 243.541C128.785 246.235 131.983 248.087 135.513 248.819C139.442 249.473 141.304 248.114 142.077 244.213C142.554 241.304 142.369 238.325 141.534 235.496C140.642 232.038 139.251 228.728 137.404 225.669C135.313 222.027 133.018 218.505 130.532 215.12C126.811 210.571 122.696 206.359 118.235 202.532C112.439 197.167 106.741 191.747 103.133 184.456C102.563 183.54 102.19 182.516 102.04 181.449C101.889 180.381 101.964 179.294 102.26 178.258C103.529 174.262 104.475 170.177 105.859 166.236C107.342 161.786 109.277 157.498 111.633 153.44C117.401 143.853 123.691 134.588 130.475 125.688C136.229 118.143 142.566 111.049 148.667 103.774C149.016 103.365 149.39 102.977 149.785 102.611L150.007 102.772ZM146.941 169.906C147.119 169.482 147.241 169.037 147.303 168.582C147.46 159.289 147.084 149.997 146.598 140.722C146.355 135.293 146.446 129.855 146.868 124.437C147.704 127.115 148.574 129.797 149.407 132.492C151.281 138.554 153.469 144.544 154.953 150.702C157.878 162.849 160.094 175.092 159.645 187.744C159.601 195.774 158.623 203.772 156.733 211.576C156 214.208 155.078 216.783 153.976 219.283C153.308 220.493 152.523 221.635 151.63 222.691C151.012 222.698 150.403 222.534 149.872 222.217C149.341 221.9 148.908 221.443 148.621 220.895C147.023 218.35 145.81 215.582 145.024 212.683C143.353 208.181 141.76 203.638 139.882 199.208C138.385 195.694 136.45 192.355 134.786 188.883C132.445 183.938 131.176 178.555 131.062 173.088C130.96 169.293 131.823 165.534 133.572 162.163C135.055 159.233 136.506 156.279 138.088 153.4C140.702 148.681 142.688 143.641 143.995 138.408C144.238 137.676 144.523 136.959 144.85 136.26L145.265 136.329C145.26 137.749 145.146 139.185 145.251 140.587C145.446 143.371 145.855 146.154 145.981 148.926C146.257 155.078 146.409 161.227 146.65 167.373C146.723 168.199 146.847 169.02 147.024 169.831L146.941 169.906ZM101.783 183.699C102.378 184.475 102.908 185.299 103.365 186.163C104.949 189.206 106.918 192.032 109.224 194.574C114.092 200.708 120.279 205.641 125.692 211.28C130.087 215.995 133.833 221.274 136.831 226.976C138.427 229.765 139.653 232.749 140.478 235.854C140.866 237.554 141.12 239.281 141.238 241.021C141.282 242.142 141.167 243.265 140.897 244.354C140.216 247.17 139.132 247.912 136.233 247.59C133.152 247.119 130.318 245.629 128.185 243.359C124.414 239.727 120.672 236.058 116.96 232.352C115.04 230.418 113.245 228.38 111.452 226.325C109.288 223.742 107.697 220.731 106.784 217.491C105.153 211.84 104.27 206 104.158 200.121C104.216 199.82 104.306 199.525 104.428 199.243C107.454 205.454 111.464 211.137 116.304 216.074C108.382 206.699 102.984 196.163 101.78 183.716L101.783 183.699ZM109.19 130.794C103.711 133.256 98.1926 135.64 92.5438 137.63C86.1418 139.976 79.3133 140.94 72.5087 140.458C68.3144 139.985 64.2508 138.707 60.5417 136.694C55.3595 134.058 50.2118 131.427 45.0469 128.794C44.5073 128.509 44.0167 128.143 43.1481 127.591L45.0861 127.274C51.9037 126.064 58.7155 124.889 65.533 123.573C73.2186 122.17 80.9045 121.087 88.7017 122.33C92.648 122.986 96.554 123.884 100.463 124.658C105.864 125.963 111.468 126.201 116.959 125.359C117.217 125.365 117.474 125.407 117.72 125.485L117.905 125.977C115.025 127.575 112.223 129.452 109.187 130.811L109.19 130.794ZM99.1411 172.734C98.9712 173.114 98.8504 173.52 98.6661 173.88C98.26 174.611 97.851 175.36 97.3814 176.045C91.818 184.155 88.8397 193.297 86.5048 202.636C84.7603 209.564 82.9821 216.481 81.1703 223.386C80.3036 226.852 78.9248 230.17 77.0792 233.231C76.4795 234.24 75.7283 235.151 74.8517 235.932C74.5774 236.208 74.2492 236.425 73.8875 236.571C73.5258 236.716 73.1381 236.785 72.7482 236.775C72.3584 236.766 71.9747 236.676 71.6207 236.513C71.2666 236.349 70.9498 236.115 70.6895 235.825C68.7411 234.287 67.4125 232.1 66.9468 229.665C66.3306 226.946 66.017 224.168 66.0117 221.381C66.3953 212.312 68.9936 203.477 73.5806 195.642C76.1104 191.52 79.3174 187.853 83.0674 184.794C86.7916 181.651 90.4608 178.409 94.156 175.225C94.2763 175.115 94.4193 175.034 94.5749 174.986C94.7304 174.938 94.8946 174.925 95.0558 174.948C94.6898 175.438 94.2893 175.921 93.9233 176.411C90.8663 180.571 87.6794 184.656 84.7291 188.922C81.1259 194.516 78.5066 200.684 76.9842 207.159C76.9229 207.421 76.8788 207.686 76.8521 207.954L77.2503 208.02C80.7556 194.101 89.2789 183.058 99.1411 172.734ZM100.708 222.693L101.014 222.566C101.233 222.858 101.431 223.164 101.609 223.482C103.062 226.404 104.356 229.423 106.002 232.253C111.38 241.631 116.037 251.28 117.822 262.049C118.173 264.113 118.248 266.214 118.046 268.298C117.731 271.263 115.603 272.294 113.11 270.601C111.068 269.257 109.254 267.595 107.738 265.679C104.566 261.837 102.054 257.497 100.304 252.836C98.886 248.803 98.2133 244.548 98.3189 240.276C98.5281 234.844 98.9884 229.401 99.6447 223.954C101.207 230.539 102.391 237.207 103.19 243.926L103.686 243.831L100.708 222.693ZM110.305 133.607C105.892 137.044 101.461 140.479 96.924 143.807C93.1583 146.619 88.9689 148.816 84.5121 150.317C74.0243 153.596 64.5567 151.81 56.6792 143.773C55.4178 142.481 54.4129 140.929 53.2783 139.516L46.0491 130.575C45.879 130.306 45.7358 130.021 45.6216 129.723C46.1898 129.914 46.7466 130.137 47.2892 130.391C50.3998 132.009 53.5622 133.528 56.5719 135.324C68.3452 142.393 80.7134 142.674 93.3867 138.551C100.118 136.416 106.605 133.58 112.74 130.089C113.107 129.886 113.492 129.719 113.89 129.588C114.286 129.489 114.689 129.426 115.096 129.397C113.283 130.995 111.87 132.429 110.297 133.658L110.305 133.607ZM119.265 97.6801C123.794 91.6564 128.935 86.1167 134.606 81.1494C136.181 79.6612 137.865 78.2918 139.644 77.0526C142.062 75.5067 144.595 74.1476 147.221 72.9872C151.427 71.4159 155.851 70.499 160.337 70.2686C148.689 75.97 138.086 83.5855 128.97 92.797C130.797 91.2193 132.613 89.6042 134.47 88.0668C136.326 86.5294 138.096 84.9777 140.039 83.6677C143.628 81.2292 147.208 78.7359 150.994 76.614C155.739 73.9594 160.719 71.61 165.548 69.2001C166.762 68.677 168.079 68.4348 169.401 68.4916C169.211 68.673 169.035 68.8745 168.83 69.0357C165.45 71.3965 162.087 73.7957 158.741 76.2333C154.123 79.5125 149.545 82.8695 144.898 86.1084C139.386 89.949 133.929 93.8875 128.218 97.4288C125.67 98.723 122.985 99.7293 120.213 100.429C119.465 100.517 118.708 100.487 117.969 100.34C118.333 99.4398 118.763 98.568 119.257 97.7319L119.265 97.6801ZM28.9652 100.135C30.0068 100 31.0644 100.05 32.089 100.282C38.7127 102.057 44.668 104.751 48.5291 110.949C51.0387 114.881 52.7629 119.26 53.6066 123.844C53.0085 124.276 52.3524 124.621 51.6576 124.869C48.7708 125.33 45.8666 125.682 42.945 126.03C42.0696 126.155 41.1768 126 40.3953 125.586C39.6138 125.172 38.984 124.522 38.5966 123.728C37.4818 121.768 36.2458 119.787 35.2779 117.692C33.4636 113.831 31.3306 110.128 28.9009 106.621C28.3238 105.835 27.8137 105.002 27.3761 104.131C26.9755 103.117 26.631 102.082 26.344 101.031C27.1865 100.669 28.0611 100.386 28.9565 100.187L28.9652 100.135ZM202.048 124.93C203.333 125.872 204.427 127.101 205.737 128.206C204.701 129.144 203.344 129.649 201.945 129.617C198.318 129.745 194.747 128.69 191.773 126.612C185.921 122.91 180.472 118.608 175.516 113.775C172.78 111.34 170.794 108.178 169.792 104.659C168.733 100.33 169.719 96.2159 170.78 91.5466C175.857 106.803 185.697 117.367 199.028 124.908C190.956 119.949 184.018 113.353 178.662 105.548C185.599 113.144 193.896 118.978 202.04 124.982L202.048 124.93ZM118.602 139.547C123.442 131.363 128.901 123.56 134.932 116.206C146.241 102.176 158.313 88.7764 171.094 76.0681C180.363 66.9591 189.892 57.8934 199.178 48.7873C204.749 43.3058 210.109 37.5941 215.559 31.986C215.836 31.7125 216.159 31.4821 216.787 30.9121C216.517 33.3315 215.594 35.6319 214.116 37.5678C212.27 39.8386 210.285 41.9924 208.17 44.0165C198.042 53.7281 187.884 63.411 177.694 73.065C173.642 76.8998 169.491 80.5762 165.519 84.5664C161.052 88.9711 156.778 93.6033 152.34 98.0483C146.109 104.29 140.844 111.349 135.286 118.146C131.623 122.631 128.134 127.252 124.676 131.895C122.636 134.645 120.821 137.538 118.877 140.356C118.545 140.851 118.148 141.318 117.785 141.79L117.479 141.597C117.83 140.981 118.196 140.279 118.593 139.599L118.602 139.547Z" fill="#C1BADD"/>
<path id="flor3_52" d="M146.941 169.906C147.277 170.493 147.514 171.132 147.64 171.797C147.649 176.342 147.589 180.876 147.526 185.428C147.498 185.6 147.466 185.79 147.034 185.931C147.03 180.606 147.025 175.28 147.004 169.952L146.941 169.906Z" fill="#C1BADD"/>
</g>
<defs>
<clipPath id="clip0_33_50">
<rect width="184" height="257" fill="white" transform="matrix(-0.986464 -0.163976 -0.163976 0.986464 223.651 30.1716)"/>
</clipPath>
</defs>
</svg>
