<svg width="264" height="368" viewBox="0 0 264 368" fill="none" xmlns="http://www.w3.org/2000/svg">
<g id="flor4" clip-path="url(#clip0_33_310)">
<path id="flor4_2" d="M266.978 246.129C266.496 245.006 266.107 243.981 265.646 242.988C263.23 237.913 260.497 232.994 257.464 228.262C249.964 216.661 241.835 205.479 233.115 194.765C232.938 194.567 232.749 194.381 232.549 194.207L231.456 194.491C226.283 195.835 221.129 197.256 215.92 198.46C210.312 199.759 204.509 199.982 198.818 199.118C193.235 198.231 187.877 196.269 183.042 193.34C177.383 189.915 172.037 185.996 167.068 181.629C165.861 180.586 164.616 179.661 163.393 178.663C163.05 178.385 162.757 178.041 162.394 177.688C166.959 172.227 171.712 167.125 174.979 160.849C178.371 154.736 180.83 148.152 182.277 141.313C181.84 141.893 181.44 142.5 181.08 143.13C180.675 143.71 178.857 146.584 176.906 149.52C176.103 150.882 175.204 152.186 174.216 153.421C173.199 154.73 172.007 155.99 170.603 157.481C167.728 160.526 164.644 163.368 161.374 165.985C159.926 167.148 158.543 168.403 157.117 169.601C156.684 169.972 156.209 170.285 155.684 170.666C154.948 170.205 154.256 169.676 153.618 169.086C151.312 166.642 148.762 164.441 146.008 162.515C138.463 157.38 131.939 150.885 126.771 143.362C123.908 139.199 120.745 135.25 117.309 131.546C111.709 125.484 106.149 119.389 100.631 113.261C92.3548 104.033 86.4847 92.9042 83.5417 80.8628C82.7887 77.9649 82.2296 75.0301 81.5688 72.1217C80.0717 65.5771 78.7525 58.9863 77.0299 52.5139C75.8008 47.0882 74.1248 41.7736 72.0189 36.6245C71.9467 36.36 71.9078 36.0874 71.9031 35.8133C72.56 35.8868 73.1113 35.92 73.641 36.0266C76.6659 36.5974 79.6984 37.3019 82.7267 37.8855C86.1155 38.5517 89.5477 39.0709 92.9211 39.7819C97.2296 40.6976 101.565 41.715 105.797 42.7046C112.472 44.0823 119.033 45.9605 125.426 48.3233C133.897 51.4567 142.028 55.44 149.696 60.2121C150.218 60.5513 150.719 60.9098 151.34 61.3181C148.06 68.2222 143.253 74.0034 139.002 80.4132C139.3 80.382 139.591 80.3062 139.867 80.1886C142.31 79.2546 144.582 77.9215 146.589 76.2436C150.004 73.299 153.175 70.0836 156.072 66.6287C156.258 66.5014 156.458 66.3949 156.668 66.311C158.411 67.7983 160.171 69.3492 162.003 70.8134C166.698 74.519 171.392 78.2246 176.146 81.8468C179.741 84.5762 183.397 87.2445 187.114 89.8517C196.424 96.3335 205.485 103.111 214.257 110.343C217.123 112.705 219.845 115.241 222.632 117.665C227.334 121.709 231.504 126.334 235.041 131.428C238.982 136.964 241.601 143.329 242.699 150.035C243.206 153.554 243.357 157.11 243.664 160.64C243.983 163.797 243.838 166.985 243.232 170.101C241.779 177.186 239.359 184.037 236.04 190.464C235.806 190.918 235.632 191.397 235.397 191.906C235.965 192.627 236.477 193.294 236.99 193.962C249.487 210.253 261.35 226.872 270.37 245.397C270.551 245.887 270.683 246.394 270.763 246.91C269.152 247.708 268.571 247.561 266.978 246.129Z" fill="#FFFDFE"/>
<path id="flor4_3" d="M200.597 135.942C200.852 135.981 201.113 135.978 201.367 135.931C207.122 133.798 212.917 131.763 218.041 128.301C220.03 126.971 221.924 125.488 223.802 123.996C224.723 123.171 225.602 122.299 226.434 121.385L225.553 120.447C224.487 121.565 223.801 122.476 222.942 123.296C221.739 124.468 220.472 125.572 219.147 126.603C214.844 129.695 210.144 132.194 205.175 134.033C203.63 134.665 202.11 135.345 200.584 135.999L200.597 135.942Z" fill="#F1D8E7"/>
<path id="flor4_4" d="M164.429 133.305C164.263 133.427 164.113 133.571 163.984 133.732C162.531 135.963 160.889 138.065 159.076 140.015C155.827 143.849 152.282 147.424 148.476 150.707C146.231 152.666 143.882 154.504 141.44 156.212C140.927 156.59 140.489 157.043 139.926 157.542C140.272 157.669 140.403 157.757 140.45 157.731C143.232 156.052 145.826 154.082 148.19 151.853C149.881 150.057 151.903 148.595 153.66 146.795C155.9 144.449 157.999 141.977 160.081 139.496C161.449 137.865 162.7 136.101 163.984 134.411C164.2 134.057 164.38 133.683 164.521 133.294L164.429 133.305Z" fill="#F1D8E7"/>
<path id="flor4_5" d="M180.382 122.795C184.564 120.352 189.086 118.539 193.103 115.772C197.769 112.556 202.04 108.8 205.826 104.582C205.908 104.48 205.919 104.314 206.006 104.074C205.279 103.938 204.92 104.438 204.554 104.804C203.626 105.724 202.756 106.71 201.832 107.642C196.334 113.289 189.812 117.838 182.615 121.048C181.668 121.333 180.864 121.964 180.36 122.815L180.382 122.795Z" fill="#F1D8E7"/>
<path id="flor4_6" d="M206.743 168.524C205.006 173.535 203.284 178.555 201.531 183.556C199.649 188.496 197.237 193.218 194.335 197.637L194.806 197.936C195.127 197.499 195.471 197.098 195.759 196.643C198.403 192.614 200.524 188.265 202.071 183.7C203.757 178.649 205.331 173.586 206.96 168.522L206.743 168.524Z" fill="#F1D8E7"/>
<path id="flor4_7" d="M189.552 162.625C189.234 162.947 188.944 163.295 188.682 163.665C184.277 170.801 179.089 177.424 173.216 183.41C172.929 183.71 172.663 184.028 172.419 184.363C172.324 184.469 172.329 184.645 172.246 184.951C172.564 184.869 172.857 184.901 172.983 184.76C179.407 178.282 184.942 170.981 189.444 163.046C189.497 162.901 189.522 162.747 189.516 162.593L189.552 162.625Z" fill="#F1D8E7"/>
<path id="flor4_8" d="M217.25 158.779C218.254 158.518 219.258 158.257 220.223 157.897C227.873 155.38 234.387 150.893 240.645 145.996C241.028 145.693 241.398 145.394 240.963 144.869C237.903 147.089 234.892 149.337 231.825 151.477C227.779 154.199 223.416 156.417 218.833 158.082C218.316 158.285 217.822 158.576 217.305 158.832L217.25 158.779Z" fill="#F1D8E7"/>
<path id="flor4_9" d="M116.434 91.9903L110.564 95.8765C105.822 99.1541 100.681 101.812 95.2654 103.787C94.9564 103.93 94.6597 104.098 94.3782 104.289C95.0052 104.926 95.5459 104.501 96.0063 104.341C99.2795 103.235 102.414 101.755 105.349 99.9318C108.832 97.6698 112.114 95.3652 115.491 93.0629C115.858 92.7739 116.202 92.4576 116.521 92.1169L116.434 91.9903Z" fill="#F1D8E7"/>
<path id="flor4_10" d="M127.239 106.157C126.583 106.419 125.947 106.725 125.333 107.073C121.106 109.978 116.587 112.435 111.851 114.403C109.905 115.166 107.91 115.793 105.926 116.458C105.367 116.603 104.795 116.752 104.749 117.673C105.248 117.625 105.742 117.533 106.224 117.398C108.345 116.576 110.477 115.75 112.565 114.855C117.77 112.523 122.681 109.584 127.197 106.1L127.239 106.157Z" fill="#F1D8E7"/>
<path id="flor4_11" d="M106.688 71.0897C106.436 71.1278 106.189 71.192 105.95 71.2813C100.581 74.7933 94.5467 76.7412 88.5227 78.7272C87.2748 79.1465 86.0136 79.5149 84.7657 79.9342C84.4466 80.0629 84.1435 80.2282 83.8625 80.4267L83.945 80.7445C84.3015 80.7534 84.6578 80.7244 85.0081 80.6582C90.3342 79.0831 95.5388 77.123 100.581 74.7933C102.464 73.8968 104.241 72.7432 106.04 71.6786C106.273 71.4913 106.477 71.2692 106.642 71.02L106.688 71.0897Z" fill="#F1D8E7"/>
<path id="flor4_12" d="M161.2 142.651C160.675 142.966 160.184 143.335 159.735 143.751C156.48 147.479 152.841 150.854 148.878 153.818C146.85 155.363 144.833 156.945 142.824 158.512C142.684 158.625 142.569 158.767 142.49 158.928C142.41 159.089 142.366 159.266 142.362 159.446C142.696 159.321 143.019 159.168 143.329 158.992C147.528 156.111 151.466 152.867 155.098 149.298C156.734 147.76 158.196 146.024 159.719 144.366C160.226 143.813 160.699 143.229 161.168 142.633L161.2 142.651Z" fill="#F1D8E7"/>
<path id="flor4_13" d="M154.195 88.5957C155.776 87.0044 157.467 85.5203 158.919 83.7996C161.112 81.1674 163.144 78.387 165.198 75.6414C165.488 75.1561 165.722 74.6401 165.897 74.1028L165.58 73.9274C165.403 74.0795 165.237 74.245 165.085 74.4225C162.155 78.291 159.254 82.1656 156.305 86.0121C155.742 86.769 155.022 87.3904 154.394 88.1097C154.278 88.235 154.283 88.4643 154.237 88.6527L154.195 88.5957Z" fill="#F1D8E7"/>
<path id="flor4_14" d="M223.233 173.656C225.089 173.374 226.929 172.996 228.745 172.522C232.801 171.263 236.704 169.557 240.382 167.436C241.342 166.967 242.196 166.307 242.89 165.495L242.706 165.203C242.453 165.268 242.209 165.359 241.975 165.475C236.461 169.22 230.305 171.92 223.814 173.437C223.613 173.491 223.419 173.564 223.233 173.656Z" fill="#F1D8E7"/>
<path id="flor4_15" d="M129.107 69.8503C129.501 69.5351 129.864 69.1818 130.189 68.7955C131.257 67.1611 132.351 65.5201 133.304 63.9155C134.995 60.7624 136.597 57.6324 138.224 54.4958C138.285 54.3318 138.327 54.1616 138.35 53.9882C137.594 53.8996 137.45 54.4934 137.228 54.8904C136.17 56.9292 135.163 59.0089 134.074 61.0289C132.52 63.875 130.915 66.6801 129.333 69.5201C129.268 69.6621 129.221 69.8111 129.191 69.9642L129.107 69.8503Z" fill="#F1D8E7"/>
<path id="flor4_16" d="M114.89 63.5443C115.107 63.3383 115.303 63.1102 115.473 62.8637C118.029 58.3602 119.783 53.4463 120.655 48.3419C120.724 47.9304 120.822 47.5249 120.923 47.0239L119.978 46.8352C119.766 48.0029 119.511 49.0596 119.384 50.1374C118.81 54.4464 117.435 58.6099 115.329 62.4127C115.16 62.7877 115.025 63.177 114.925 63.5758L114.89 63.5443Z" fill="#F1D8E7"/>
<path id="flor4_17" d="M213.58 135.621C213.736 135.635 213.893 135.617 214.041 135.569C218.328 133.364 222.375 130.721 226.117 127.682C227.229 126.741 228.203 125.633 229.365 124.517C228.441 124.093 228.208 124.818 227.794 125.102C225.996 126.695 224.289 128.428 222.35 129.841C219.818 131.693 217.11 133.279 214.488 134.991C214.202 135.191 213.927 135.407 213.666 135.639L213.58 135.621Z" fill="#F1D8E7"/>
<path id="flor4_18" d="M164.854 96.3007C166.668 94.3505 168.555 92.476 170.279 90.4406C172.242 88.1259 174.063 85.6851 175.94 83.2979C176.052 83.102 176.139 82.8924 176.198 82.6743C175.354 82.6089 175.107 83.175 174.783 83.5984C172.75 86.2164 170.806 88.8654 168.778 91.4547C167.755 92.7383 166.705 93.9201 165.672 95.1656C165.401 95.5321 165.156 95.9175 164.94 96.319L164.854 96.3007Z" fill="#F1D8E7"/>
<path id="flor4_19" d="M222.15 120.3C220.552 117.703 210.698 108.866 207.945 107.41L222.15 120.3Z" fill="#F1D8E7"/>
<path id="flor4_20" d="M157.234 77.8873C156.857 78.1087 156.506 78.3728 156.19 78.6741C153.206 82.3896 149.86 85.7996 146.203 88.8542C145.889 89.1312 145.594 89.4298 145.322 89.7479C145.208 89.7776 145.181 89.9881 144.946 90.4426C150.212 87.0525 153.704 82.3729 157.22 77.8364L157.234 77.8873Z" fill="#F1D8E7"/>
<path id="flor4_21" d="M99.2475 89.4006C99.0423 89.3637 98.8314 89.3722 98.6298 89.4254L88.5843 93.6369C88.7756 94.0078 88.9218 94.309 89.1358 94.7148C89.6752 94.4932 90.161 94.3262 90.6016 94.0896C93.1944 92.7193 95.7723 91.3439 98.3354 89.9632C98.6381 89.7781 98.9298 89.5755 99.2089 89.3563L99.2475 89.4006Z" fill="#F1D8E7"/>
<path id="flor4_22" d="M135.758 126.046C135.493 126.179 135.249 126.352 135.037 126.56C131.759 130.371 127.961 133.701 123.754 136.452C123.422 136.688 123.138 137.006 122.828 137.276L123.141 137.643C124.748 136.465 126.394 135.332 127.962 134.11C130.744 131.808 133.3 129.245 135.593 126.456C135.688 126.35 135.696 126.171 135.739 126.024L135.758 126.046Z" fill="#F1D8E7"/>
<path id="flor4_23" d="M135.539 68.5993C138.445 64.958 140.966 61.0245 143.059 56.8622L142.78 56.6227C142.52 56.7935 142.286 57.0006 142.084 57.2375C139.917 60.9078 137.77 64.6003 135.619 68.2801C135.586 68.3813 135.568 68.4865 135.564 68.5927L135.539 68.5993Z" fill="#F1D8E7"/>
<path id="flor4_24" d="M175.536 96.7818C176.491 95.76 177.514 94.7886 178.38 93.6817C179.957 91.6572 181.384 89.5767 182.957 87.4854C183.057 87.313 183.142 87.1321 183.21 86.9447C182.712 86.4365 182.447 86.7766 182.19 87.1421C181.193 88.5274 180.272 89.8928 179.297 91.2588C178.175 92.8395 177.036 94.4108 175.93 96.0009C175.782 96.2581 175.661 96.5304 175.571 96.8133L175.536 96.7818Z" fill="#F1D8E7"/>
<path id="flor4_25" d="M217.139 186.338C216.711 187.304 216.274 188.232 215.873 189.246C214.77 192.314 213.713 195.397 212.621 198.557C213.449 198.613 213.526 197.915 213.694 197.465C214.489 195.304 215.281 193.131 215.911 190.959C216.407 189.473 216.729 187.842 217.126 186.288L217.139 186.338Z" fill="#F1D8E7"/>
<path id="flor4_26" d="M104.224 97.7954C104.073 97.7837 103.92 97.7959 103.772 97.8314L93.4235 103.017C93.6154 103.442 94.0155 103.311 94.393 103.145C95.7284 102.54 97.0963 102.009 98.3672 101.312C100.344 100.201 102.257 98.9444 104.23 97.7667L104.224 97.7954Z" fill="#F1D8E7"/>
<path id="flor4_27" d="M223.317 183.797C222.813 188.32 221.834 192.776 220.395 197.094C221.774 195.976 223.663 187.113 223.317 183.797Z" fill="#F1D8E7"/>
<path id="flor4_28" d="M160.118 159.323C159.889 159.383 159.577 159.383 159.419 159.505C157.066 161.677 154.742 163.855 152.424 166.058C152.152 166.344 151.911 166.656 151.704 166.992C151.752 167.066 151.81 167.133 151.878 167.191C151.895 167.208 151.916 167.221 151.94 167.229C151.963 167.237 151.987 167.24 152.012 167.237C152.113 167.233 152.213 167.207 152.304 167.161L160.102 159.314L160.118 159.323Z" fill="#F1D8E7"/>
<path id="flor4_29" d="M182.476 179.05L179.032 182.659C177.912 183.832 176.776 184.995 175.672 186.177C175.501 186.407 175.361 186.658 175.255 186.923C175.358 187.005 175.457 187.075 175.547 187.16C176.078 186.77 176.579 186.34 177.045 185.875C178.797 183.791 180.516 181.689 182.195 179.584C182.287 179.404 182.356 179.213 182.4 179.015L182.476 179.05Z" fill="#F1D8E7"/>
<path id="flor4_30" d="M97.8109 41.2113C97.1114 44.7852 96.4203 48.357 95.7377 51.9265C97.1389 48.5462 97.999 44.9663 98.2865 41.3184L97.8109 41.2113Z" fill="#F1D8E7"/>
<path id="flor4_31" d="M84.9592 76.3968C84.8069 75.0796 84.6682 73.8673 84.5164 72.6041L84.3005 71.3034C84.2344 71.0492 84.07 70.8341 83.9691 70.6025L84.2487 70.5298L84.2596 71.3547C84.3653 71.7615 84.4709 72.1682 84.5898 72.6258L85.1591 73.5633L84.4495 69.1615L83.8995 69.9693L82.7013 65.7758L82.3708 65.8617C83.2824 69.3698 84.1907 72.8652 85.1023 76.3732L84.9592 76.3968Z" fill="#F1D8E7"/>
<path id="flor4_32" d="M91.433 58.6492L80.0699 61.602L80.0894 61.9904C80.5384 62.0472 80.9932 62.0387 81.4397 61.9651C84.629 61.0278 87.8145 60.0237 90.9906 59.0355C91.1432 58.9959 91.2367 58.7816 91.3661 58.653L91.433 58.6492Z" fill="#F1D8E7"/>
<path id="flor4_33" d="M160.983 83.806C162.114 82.7821 163.192 81.7004 164.212 80.5654C165.587 78.9125 166.683 77.0465 167.457 75.0408C167.221 75.1297 167.008 75.2686 166.83 75.4479C166.431 75.9995 166.096 76.5887 165.744 77.1685C164.757 79.0604 163.506 80.8019 162.027 82.3407C161.62 82.804 161.265 83.3104 160.968 83.8507L160.983 83.806Z" fill="#F1D8E7"/>
<path id="flor4_34" d="M127.981 67.6053C129.087 65.9611 130.269 64.297 131.275 62.5294C132.281 60.7618 132.961 59.2011 133.786 57.5212C133.905 57.2351 134.006 56.9416 134.087 56.6425C133.846 56.7053 133.689 56.678 133.668 56.7515C131.846 60.1829 130.004 63.6241 128.141 67.0751C128.072 67.2653 128.028 67.4638 128.01 67.6656L127.981 67.6053Z" fill="#F1D8E7"/>
<path id="flor4_35" d="M201.613 189.667C200.268 192.568 198.93 195.476 197.598 198.391L197.965 198.553C199.682 195.823 200.916 192.817 201.613 189.667Z" fill="#F1D8E7"/>
<path id="flor4_36" d="M234.568 153.627C236.353 152.349 238.141 151.084 239.919 149.781C240.552 149.306 241.14 148.776 241.679 148.197C240.365 148.362 237.664 150.502 234.594 153.62L234.568 153.627Z" fill="#F1D8E7"/>
<path id="flor4_37" d="M86.2849 52.7275L78.0302 54.954C79.5612 55.5195 82.3669 54.7769 86.2849 52.7275Z" fill="#F1D8E7"/>
<path id="flor4_38" d="M212.554 115.589C213.652 116.525 214.753 117.473 215.873 118.39C216.377 118.815 216.928 119.16 217.464 119.55C215.295 117.063 212.844 114.836 210.162 112.913L212.344 115.304L212.688 115.689L212.554 115.589Z" fill="#F1D8E7"/>
<path id="flor4_39" d="M198 109.031C197.86 109.067 197.668 108.955 197.563 109.022C194.943 110.843 192.338 112.673 189.725 114.519L189.758 114.647C192.745 113.195 195.49 111.291 197.898 109.003L198 109.031Z" fill="#F1D8E7"/>
<path id="flor4_40" d="M166.801 109.119C165.185 107.599 163.575 106.05 161.933 104.536C161.372 103.976 160.7 103.54 159.959 103.258C160.451 103.741 160.917 104.23 161.428 104.681C162.995 106.065 164.569 107.42 166.155 108.772C166.368 108.901 166.596 109.005 166.833 109.084L166.801 109.119Z" fill="#F1D8E7"/>
<path id="flor4_41" d="M139.394 122.076C140.339 121.22 141.331 120.392 142.23 119.466C143.521 118.167 144.751 116.79 146 115.434C145.039 116.28 144.04 117.083 143.105 117.977C141.925 119.125 140.789 120.343 139.66 121.586C139.552 121.754 139.467 121.936 139.407 122.127L139.394 122.076Z" fill="#F1D8E7"/>
<path id="flor4_42" d="M212.39 112.768C210.43 110.709 208.277 108.842 205.962 107.193C207.867 109.299 210.008 111.178 212.343 112.794L212.39 112.768Z" fill="#F1D8E7"/>
<path id="flor4_43" d="M111.876 117.11L106.721 119.413C106.721 119.413 106.764 119.578 106.685 119.693C106.607 119.809 106.875 119.902 106.91 119.879C108.413 119.19 109.92 118.514 111.414 117.786C111.63 117.73 111.712 117.315 111.856 117.088L111.876 117.11Z" fill="#F1D8E7"/>
<path id="flor4_44" d="M161.176 106.741C162.618 108.008 164.047 109.279 165.502 110.542C166.202 111.147 166.908 111.724 167.618 112.313C165.908 110.013 163.758 108.076 161.293 106.616L161.176 106.741Z" fill="#F1D8E7"/>
<path id="flor4_45" d="M135.087 147.429L137.715 150.179C137.664 149.846 137.553 149.526 137.387 149.233C136.04 147.493 134.67 145.773 133.326 144.047C133.296 143.932 133.098 143.902 132.723 143.66C133.542 144.981 134.214 146.055 134.896 147.166L134.88 147.103L135.221 147.475L135.087 147.429Z" fill="#F1D8E7"/>
<path id="flor4_46" d="M162.477 108.56L160.618 106.628L157.02 103.696L156.846 103.863L157.978 104.926C159.015 105.891 160.018 106.879 161.075 107.812C161.475 108.112 161.901 108.373 162.35 108.593L162.477 108.56Z" fill="#F1D8E7"/>
<path id="flor4_47" d="M130.144 144.385C129.157 142.451 127.969 140.627 126.599 138.942L126.264 139.165L130.154 144.423L130.144 144.385Z" fill="#F1D8E7"/>
<path id="flor4_48" d="M165.404 111.626C166.886 113.222 168.381 114.815 169.888 116.404C169.975 116.477 170.172 116.452 170.316 116.483C168.717 114.822 167.132 113.158 165.537 111.51L165.404 111.626Z" fill="#F1D8E7"/>
<path id="flor4_49" d="M96.5859 41.3533L95.76 47.104L95.9771 47.1561C96.364 45.2509 96.7669 43.3552 97.198 41.4114L96.5859 41.3533Z" fill="#F1D8E7"/>
<path id="flor4_50" d="M216.19 193.234C215.211 194.874 214.512 196.665 214.121 198.534C214.893 197.954 215.751 195.722 216.087 193.152L216.19 193.234Z" fill="#F1D8E7"/>
<path id="flor4_51" d="M178.091 89.3332C179.171 88.2657 180.368 87.1812 181.732 85.904C180.306 86.0032 178.921 87.4621 178.107 89.3426L178.091 89.3332Z" fill="#F1D8E7"/>
<path id="flor4_52" d="M117.588 52.2596C118.342 50.4409 118.859 48.5327 119.125 46.582L118.733 46.4805C118.522 47.4444 118.311 48.4083 118.122 49.3529C117.933 50.2975 117.771 51.2896 117.604 52.269L117.588 52.2596Z" fill="#F1D8E7"/>
<path id="flor4_53" d="M86.4011 39.1288L86.1793 44.0712C86.3615 42.4228 87.1078 40.8041 86.758 39.1447L86.4011 39.1288Z" fill="#F1D8E7"/>
<path id="flor4_54" d="M201.553 194.92L199.977 198.044L200.287 198.194C200.709 197.762 201.039 197.25 201.256 196.687C201.474 196.124 201.575 195.523 201.553 194.92Z" fill="#F1D8E7"/>
<path id="flor4_55" d="M100.793 108.768L103.76 112.665C103.7 112.436 103.812 112.136 103.702 111.975C102.944 110.937 102.151 109.922 101.352 108.935C101.256 108.825 101.014 108.833 100.825 108.787L100.793 108.768Z" fill="#F1D8E7"/>
<path id="flor4_56" d="M139.088 122.413L135.745 125.996L139.076 122.416L139.088 122.413Z" fill="#F1D8E7"/>
<path id="flor4_57" d="M162.344 108.676L165.067 111.32L165.194 111.287L162.493 108.624L162.344 108.676Z" fill="#F1D8E7"/>
<path id="flor4_58" d="M81.7413 55.6588L78.6653 56.4581L78.7776 56.8902C79.7945 56.626 80.9419 56.7078 81.6579 55.599L81.7413 55.6588Z" fill="#F1D8E7"/>
<path id="flor4_59" d="M210.986 115.25L209.687 114.583L209.523 114.735C210.121 115.312 210.731 115.886 211.329 116.463L211.532 116.411L211.235 115.579L210.89 115.193L210.986 115.25Z" fill="#F1D8E7"/>
<path id="flor4_60" d="M101.393 110.919L99.6265 108.664C100.232 109.43 100.822 110.185 101.406 110.916L101.393 110.919Z" fill="#F1D8E7"/>
<path id="flor4_61" d="M103.061 113.267C102.813 112.319 102.207 111.504 101.371 110.993C101.952 111.765 102.52 112.54 103.074 113.264L103.061 113.267Z" fill="#F1D8E7"/>
<path id="flor4_62" d="M130.154 144.423C130.645 145.164 131.139 145.917 131.617 146.661C131.158 145.885 130.711 145.106 130.245 144.304L130.154 144.423Z" fill="#F1D8E7"/>
<path id="flor4_63" d="M84.7364 45.0973C84.7769 44.3134 84.8141 43.5167 84.8419 42.7361L84.7148 42.7691L84.6093 45.1304L84.7364 45.0973Z" fill="#F1D8E7"/>
<path id="flor4_64" d="M118.472 90.6463L116.434 91.9902L116.46 92.0919L118.396 90.612L118.472 90.6463Z" fill="#F1D8E7"/>
<path id="flor4_65" d="M131.801 143.818L132.998 145.448C132.601 144.913 132.201 144.366 131.817 143.828L131.801 143.818Z" fill="#F1D8E7"/>
<path id="flor4_66" d="M188.163 115.455L186.559 116.333L188.16 115.442L188.163 115.455Z" fill="#F1D8E7"/>
<path id="flor4_67" d="M187.058 115.118L185.47 116.005L187.07 115.114L187.058 115.118Z" fill="#F1D8E7"/>
<path id="flor4_68" d="M190.995 160.608C190.213 160.73 190.069 161.378 189.855 161.963L191.04 160.623L190.995 160.608Z" fill="#F1D8E7"/>
<path id="flor4_69" d="M189.725 114.52L188.163 115.455L189.844 114.665L189.725 114.52Z" fill="#F1D8E7"/>
<path id="flor4_70" d="M127.486 72.0215L128.533 70.8269L127.49 72.0342L127.486 72.0215Z" fill="#F1D8E7"/>
<path id="flor4_71" d="M130.92 142.514C131.21 142.954 131.514 143.391 131.801 143.819L130.907 142.518L130.92 142.514Z" fill="#F1D8E7"/>
<path id="flor4_72" d="M91.4075 58.6556L92.7116 58.4525L92.6455 58.1982L91.4207 58.7065L91.4075 58.6556Z" fill="#F1D8E7"/>
<path id="flor4_73" d="M117.24 53.8426L117.588 52.2595L117.269 53.8487L117.24 53.8426Z" fill="#F1D8E7"/>
<path id="flor4_74" d="M224.552 172.987L223.705 173.017L223.744 173.17L224.52 172.968L224.552 172.987Z" fill="#F1D8E7"/>
<path id="flor4_75" d="M177.463 90.3106L178.091 89.3333L177.479 90.2658L177.463 90.3106Z" fill="#F1D8E7"/>
<path id="flor4_76" d="M107.621 70.4536L106.688 71.0897L107.612 70.5238L107.621 70.4536Z" fill="#F1D8E7"/>
<path id="flor4_77" d="M127.205 68.4312L127.981 67.6055L127.221 68.4407L127.205 68.4312Z" fill="#F1D8E7"/>
<path id="flor4_78" d="M128.495 70.8368L129.107 69.8501L128.495 70.8368Z" fill="#F1D8E7"/>
<path id="flor4_79" d="M127.113 72.3084L126.533 73.2599L127.09 72.2195L127.113 72.3084Z" fill="#F1D8E7"/>
<path id="flor4_80" d="M175.169 97.0398L174.627 98.0354C174.796 97.6931 174.98 97.3601 175.165 97.0271L175.169 97.0398Z" fill="#F1D8E7"/>
<path id="flor4_81" d="M127.053 69.2577L126.241 69.9978L127.069 69.2671L127.053 69.2577Z" fill="#F1D8E7"/>
<path id="flor4_82" d="M217.113 186.291L217.348 185.524L217.217 185.49L217.139 186.338L217.113 186.291Z" fill="#F1D8E7"/>
<path id="flor4_83" d="M117.291 53.8836L116.973 54.2783L117.105 54.3663L117.24 53.8427L117.291 53.8836Z" fill="#F1D8E7"/>
<path id="flor4_84" d="M85.1552 73.4964C85.1982 73.6616 85.2444 73.8396 85.2874 74.0048L85.4145 73.9718L85.1906 73.5279L85.1552 73.4964Z" fill="#F1D8E7"/>
<path id="flor4_85" d="M85.0034 76.3582L85.1355 76.8666L85.288 76.827L85.0166 76.4091L85.0034 76.3582Z" fill="#F1D8E7"/>
<path id="flor4_86" d="M216.087 193.152L216.305 192.634L216.229 192.654L216.126 193.25L216.087 193.152Z" fill="#F1D8E7"/>
<path id="flor4_87" d="M99.2089 89.3563L99.8274 89.0735L99.2221 89.4072L99.2089 89.3563Z" fill="#F1D8E7"/>
<path id="flor4_88" d="M112.445 116.745L111.866 117.072L112.426 116.723L112.445 116.745Z" fill="#F1D8E7"/>
<path id="flor4_89" d="M114.513 64.1308L114.89 63.5444L114.52 64.1562L114.513 64.1308Z" fill="#F1D8E7"/>
<path id="flor4_90" d="M112.407 116.7L113.106 116.519L112.427 116.831L112.407 116.7Z" fill="#F1D8E7"/>
<path id="flor4_91" d="M126.231 69.9595L126.022 70.7196L126.005 70.656L126.218 69.9087L126.231 69.9595Z" fill="#F1D8E7"/>
<path id="flor4_92" d="M124.886 71.9373L124.608 72.5387L124.854 71.8644L124.886 71.9373Z" fill="#F1D8E7"/>
<path id="flor4_93" d="M180.909 121.586C180.775 121.54 180.632 121.509 180.909 121.586C180.677 121.579 180.82 121.609 180.909 121.586Z" fill="#F1D8E7"/>
<path id="flor4_94" d="M183.121 178.136L182.891 178.766L183.137 178.145L183.121 178.136Z" fill="#F1D8E7"/>
<path id="flor4_95" d="M189.52 162.606L189.819 161.931L189.517 162.593L189.52 162.606Z" fill="#F1D8E7"/>
<path id="flor4_96" d="M191.282 159.991L190.995 160.608L191.305 159.971L191.282 159.991Z" fill="#F1D8E7"/>
<path id="flor4_97" d="M81.706 55.6271C81.8204 55.5974 81.9645 55.682 81.7949 55.604C81.9602 55.561 81.7949 55.604 81.7314 55.6205L81.706 55.6271Z" fill="#F1D8E7"/>
<path id="flor4_98" d="M127.243 68.4754C127.188 68.7339 127.121 68.9957 127.053 69.2575L127.227 68.466L127.243 68.4754Z" fill="#F1D8E7"/>
<path id="flor4_99" d="M217.807 158.417L218.531 158.12L217.833 158.41L217.807 158.417Z" fill="#F1D8E7"/>
<path id="flor4_100" d="M125.303 71.5576C125.378 71.3212 125.439 71.0881 125.501 70.855L125.303 71.5576Z" fill="#F1D8E7"/>
<path id="flor4_101" d="M103.857 113.875L103.906 113.957L103.825 113.91L103.857 113.875Z" fill="#F1D8E7"/>
<path id="flor4_102" d="M160.099 159.301L160.459 159.018L160.096 159.289L160.099 159.301Z" fill="#F1D8E7"/>
<path id="flor4_103" d="M157.1 87.5558L156.96 87.5921L156.94 87.5158L157.033 87.5595L157.1 87.5558Z" fill="#F1D8E7"/>
<path id="flor4_104" d="M157.22 77.8366L157.22 77.7825L157.243 77.8714L157.22 77.8366Z" fill="#F1D8E7"/>
<path id="flor4_105" d="M164.14 96.8936L164.061 96.9548L164.092 96.8654L164.14 96.8936Z" fill="#F1D8E7"/>
<path id="flor4_106" d="M164.092 96.8653L164.43 96.5469L164.101 96.8493L164.092 96.8653Z" fill="#F1D8E7"/>
<path id="flor4_107" d="M164.43 96.5468L164.854 96.3008L164.433 96.5595L164.43 96.5468Z" fill="#F1D8E7"/>
<path id="flor4_108" d="M154.908 87.8405L154.573 88.1175L154.921 87.8372L154.908 87.8405Z" fill="#F1D8E7"/>
<path id="flor4_109" d="M165.066 111.32L165.404 111.626L165.505 111.6L165.19 111.275L165.066 111.32Z" fill="#F1D8E7"/>
<path id="flor4_110" d="M167.065 109.458L166.801 109.119C166.899 109.221 166.99 109.329 167.075 109.442L167.065 109.458Z" fill="#F1D8E7"/>
<path id="flor4_111" d="M167.11 109.419L167.343 109.793L167.097 109.422L167.11 109.419Z" fill="#F1D8E7"/>
<path id="flor4_112" d="M167.683 110.111L167.311 109.828L167.671 110.169L167.683 110.111Z" fill="#F1D8E7"/>
<path id="flor4_113" d="M173.894 98.6602L173.847 98.7403L173.82 98.6386L173.894 98.6602Z" fill="#F1D8E7"/>
<path id="flor4_114" d="M174.209 98.3611L173.868 98.6668L174.197 98.3644L174.209 98.3611Z" fill="#F1D8E7"/>
<path id="flor4_115" d="M174.174 98.3295L174.591 98.0039L174.174 98.3295Z" fill="#F1D8E7"/>
<path id="flor4_116" d="M175.571 96.8132L175.169 97.0399L175.574 96.8259L175.571 96.8132Z" fill="#F1D8E7"/>
<path id="flor4_117" d="M177.495 90.2751L177.4 90.3812L177.477 90.3613L177.495 90.2751Z" fill="#F1D8E7"/>
<path id="flor4_118" d="M99.8175 89.0353L99.8772 88.9519L99.8937 89.0155L99.8175 89.0353Z" fill="#F1D8E7"/>
<path id="flor4_119" d="M100.803 108.806L100.837 108.676L100.793 108.768L100.803 108.806Z" fill="#F1D8E7"/>
<path id="flor4_120" d="M138.465 150.771L138.495 150.831L138.434 150.806L138.465 150.771Z" fill="#F1D8E7"/>
<path id="flor4_121" d="M182.878 178.715L182.463 178.999L182.878 178.715Z" fill="#F1D8E7"/>
<path id="flor4_122" d="M103.144 113.219L103.474 113.499L103.147 113.231L103.144 113.219Z" fill="#F1D8E7"/>
<path id="flor4_123" d="M183.098 178.101L183.465 177.789L183.115 178.165L183.098 178.101Z" fill="#F1D8E7"/>
<path id="flor4_124" d="M183.465 177.789L183.588 177.689L183.615 177.791L183.526 177.814L183.465 177.789Z" fill="#F1D8E7"/>
<path id="flor4_125" d="M138.434 150.806L138.049 150.526C138.181 150.614 138.302 150.718 138.421 150.809L138.434 150.806Z" fill="#F1D8E7"/>
<path id="flor4_126" d="M138.049 150.526L137.68 150.202L138.058 150.51L138.049 150.526Z" fill="#F1D8E7"/>
<path id="flor4_127" d="M103.474 113.499L103.857 113.875L103.471 113.486L103.474 113.499Z" fill="#F1D8E7"/>
<path id="flor4_128" d="M139.053 122.381L139.394 122.076L139.066 122.378L139.053 122.381Z" fill="#F1D8E7"/>
<path id="flor4_129" d="M103.76 112.665L104.163 112.913L103.712 112.691L103.76 112.665Z" fill="#F1D8E7"/>
<path id="flor4_130" d="M104.163 112.913L104.265 112.887L104.145 112.999L104.119 112.898L104.163 112.913Z" fill="#F1D8E7"/>
<path id="flor4_131" d="M113.093 116.468L113.245 116.428L113.202 116.521L113.178 116.432L113.093 116.468Z" fill="#F1D8E7"/>
<path id="flor4_132" d="M132.274 147.359L132.29 147.423L132.201 147.446L132.274 147.359Z" fill="#F1D8E7"/>
<path id="flor4_133" d="M131.996 147.024L132.312 147.349L131.987 147.04L131.996 147.024Z" fill="#F1D8E7"/>
<path id="flor4_134" d="M131.965 147.06L131.573 146.7C131.71 146.813 131.84 146.933 131.965 147.06Z" fill="#F1D8E7"/>
<path id="flor4_135" d="M135.564 68.5928L135.504 68.6761L135.488 68.6126L135.564 68.5928Z" fill="#F1D8E7"/>
<path id="flor4_136" d="M118.447 90.5989L118.711 90.2588L118.434 90.6022L118.447 90.5989Z" fill="#F1D8E7"/>
<path id="flor4_137" d="M118.711 90.2586L119.059 89.9783L118.727 90.268L118.711 90.2586Z" fill="#F1D8E7"/>
<path id="flor4_138" d="M217.457 119.525L217.54 119.585L217.457 119.525Z" fill="#F1D8E7"/>
<path id="flor4_139" d="M119.396 89.6057L119.081 90.0132L119.413 89.6693L119.396 89.6057Z" fill="#F1D8E7"/>
<path id="flor4_140" d="M119.39 89.6345L119.53 89.5981L119.553 89.6871L119.46 89.6434L119.39 89.6345Z" fill="#F1D8E7"/>
<path id="flor4_141" d="M124.647 72.5289L124.507 72.5652L124.484 72.4763L124.504 72.5525L124.647 72.5289Z" fill="#F1D8E7"/>
<path id="flor4_142" d="M125.365 71.6367L124.925 71.9275L125.365 71.6367Z" fill="#F1D8E7"/>
<path id="flor4_143" d="M125.511 70.8931L125.926 70.7173L125.943 70.7808L125.46 70.9064L125.511 70.8931Z" fill="#F1D8E7"/>
<path id="flor4_144" d="M127.2 106.113L127.422 105.662L127.203 106.126L127.2 106.113Z" fill="#F1D8E7"/>
<path id="flor4_145" d="M127.525 72.0658L127.113 72.3085L127.538 72.0625L127.525 72.0658Z" fill="#F1D8E7"/>
<path id="flor4_146" d="M266.978 246.129C266.496 245.006 266.107 243.981 265.646 242.988C263.23 237.913 260.497 232.994 257.464 228.262C249.964 216.661 241.835 205.479 233.115 194.765C232.938 194.567 232.749 194.381 232.549 194.207L231.456 194.491C226.283 195.835 221.129 197.256 215.92 198.46C210.312 199.759 204.509 199.982 198.818 199.118C193.235 198.231 187.877 196.269 183.042 193.34C177.383 189.915 172.037 185.996 167.068 181.629C165.861 180.586 164.616 179.661 163.393 178.663C163.05 178.385 162.757 178.041 162.394 177.688C166.959 172.227 171.712 167.125 174.979 160.849C178.371 154.736 180.83 148.152 182.277 141.313C181.84 141.893 181.44 142.5 181.08 143.13C180.675 143.71 178.857 146.584 176.906 149.52C176.103 150.882 175.204 152.186 174.216 153.421C173.199 154.73 172.007 155.99 170.603 157.481C167.728 160.526 164.644 163.368 161.374 165.985C159.926 167.148 158.543 168.403 157.117 169.601C156.684 169.972 156.209 170.285 155.684 170.666C154.948 170.205 154.256 169.676 153.618 169.086C151.312 166.642 148.762 164.441 146.008 162.515C138.463 157.38 131.939 150.885 126.771 143.362C123.908 139.199 120.745 135.25 117.309 131.546C111.709 125.484 106.149 119.389 100.631 113.261C92.3548 104.033 86.4847 92.9042 83.5417 80.8628C82.7887 77.9649 82.2296 75.0301 81.5688 72.1217C80.0717 65.5771 78.7525 58.9863 77.0299 52.5139C75.8008 47.0882 74.1248 41.7736 72.0189 36.6245C71.9467 36.36 71.9078 36.0874 71.9031 35.8133C72.56 35.8868 73.1113 35.92 73.641 36.0266C76.6659 36.5974 79.6984 37.3019 82.7267 37.8855C86.1155 38.5517 89.5477 39.0709 92.9211 39.7819C97.2296 40.6976 101.565 41.715 105.797 42.7046C112.472 44.0823 119.033 45.9605 125.426 48.3233C133.897 51.4567 142.028 55.44 149.696 60.2121C150.218 60.5513 150.719 60.9098 151.34 61.3181C148.06 68.2222 143.253 74.0034 139.002 80.4132C139.3 80.382 139.591 80.3062 139.867 80.1886C142.31 79.2546 144.582 77.9215 146.589 76.2436C150.004 73.299 153.175 70.0836 156.072 66.6287C156.258 66.5014 156.458 66.3949 156.668 66.311C158.411 67.7983 160.171 69.3492 162.003 70.8134C166.698 74.519 171.392 78.2246 176.146 81.8468C179.741 84.5762 183.397 87.2445 187.114 89.8517C196.424 96.3335 205.485 103.111 214.257 110.343C217.123 112.705 219.845 115.241 222.632 117.665C227.334 121.709 231.504 126.334 235.041 131.428C238.982 136.964 241.601 143.329 242.699 150.035C243.206 153.554 243.357 157.11 243.664 160.64C243.983 163.797 243.838 166.985 243.232 170.101C241.779 177.186 239.359 184.037 236.04 190.464C235.806 190.918 235.632 191.397 235.397 191.906C235.965 192.627 236.477 193.294 236.99 193.962C249.487 210.253 261.35 226.872 270.37 245.397C270.551 245.887 270.683 246.394 270.763 246.91C269.152 247.708 268.571 247.561 266.978 246.129ZM163.446 177.509L170.559 183.368L172.517 184.949C177.772 189.407 183.64 193.087 189.942 195.875C195.75 198.222 202.013 199.224 208.262 198.808C214.229 198.479 219.959 196.827 225.625 195.287C227.086 194.907 228.561 194.524 230.009 194.039C230.606 193.884 231.168 193.643 231.901 193.385C231.498 192.825 231.21 192.397 230.878 192.008C227.696 188.168 224.545 184.292 221.318 180.49C210.88 168.168 200.069 156.156 188.887 144.453C187.539 143.025 186.286 141.492 185.024 140.029C184.657 139.609 184.245 139.227 183.744 138.706C181.186 153.44 174.09 167.006 163.446 177.509ZM235.572 189.445C237.996 184.557 239.901 179.428 241.256 174.142C242.374 170.532 242.93 166.773 242.905 162.994C242.793 160.16 242.617 157.343 242.4 154.523C242.08 150.13 241.099 145.811 239.491 141.71C237.398 136.481 234.464 131.629 230.806 127.345C226.931 122.857 222.718 118.671 218.203 114.826C216.444 113.275 214.52 111.876 212.69 110.37C205.413 104.35 197.982 98.5201 190.234 93.1387C184.931 89.4419 179.645 85.7545 174.436 81.9518C171.557 79.8507 168.821 77.5221 166.064 75.267C163.307 73.0119 160.877 70.9703 158.325 68.8248C157.738 68.3397 157.081 67.954 156.52 67.5706L156.203 67.7614L155.258 68.8213C151.537 73.1107 147.195 76.8185 142.376 79.8214C141.872 80.0826 141.351 80.3129 140.819 80.5111C139.705 80.9769 138.653 81.2637 138.422 81.4187L138.136 81.1538C138.243 80.7285 138.395 80.3159 138.59 79.9233C139.333 78.6583 140.121 77.4087 140.928 76.1813C143.793 71.8547 146.674 67.5375 149.523 63.2015C149.787 62.7284 150.017 62.2378 150.213 61.7331C149.508 61.265 148.912 60.85 148.297 60.4671C139.728 55.2562 130.614 50.9997 121.118 47.7739C115.504 45.9202 109.791 44.3832 104.005 43.1703C99.8172 42.1962 95.6423 41.2729 91.4294 40.3595C86.3999 39.3326 81.3399 38.4494 76.3176 37.502C75.2007 37.2767 74.1054 36.9778 72.8062 36.6777C73.3144 37.9025 73.8084 38.9682 74.156 40.0448C76.4973 47.2791 78.6605 54.5597 80.2806 61.995C81.4451 67.3641 82.524 72.769 83.7139 78.1315C86.4813 91.1252 92.6317 103.157 101.543 113.011C104.15 115.888 106.813 118.724 109.388 121.637C114.197 127.036 119.417 132.084 123.752 137.905C125.164 139.79 126.668 141.611 127.945 143.599C131.935 149.278 136.727 154.349 142.17 158.655C146.11 161.81 149.934 165.091 153.799 168.32C154.355 168.786 154.878 169.288 155.549 169.832C156.175 169.317 156.751 168.869 157.291 168.389C158.122 167.671 158.856 166.843 159.733 166.194C165.908 161.659 172.594 154.073 177.355 147.748C179.562 143.918 182.152 139.473 182.933 137.886C182.377 137.311 181.917 136.793 181.444 136.332C177.789 132.71 174.137 129.099 170.479 125.464C166.158 121.159 161.89 116.692 157.578 112.371C153.384 108.241 149.159 104.165 144.902 100.142C130.392 86.599 115.864 73.0879 100.235 60.826C98.6659 59.5919 97.1693 58.2712 95.6097 57.021L76.5356 41.7874C75.9901 41.3592 75.4856 40.8797 74.9623 40.4323L75.1858 40.1435C75.6568 40.4418 76.1433 40.6953 76.5954 41.0255C87.6268 49.3803 98.9392 57.4585 109.798 66.0887C127.977 80.5501 145.387 95.9543 161.954 112.238C166.402 116.618 171.091 120.719 175.48 125.182C182.11 131.899 188.586 138.751 195.083 145.584C204.012 154.95 212.663 164.589 221.036 174.498C225.307 179.548 229.457 184.711 233.674 189.817C233.977 190.199 234.324 190.543 234.762 191.026C235.106 190.367 235.353 189.909 235.572 189.445ZM270.042 246.486C269.159 244.708 268.428 243.147 267.653 241.68C260.856 228.88 253.068 216.631 244.361 205.045C236.9 194.921 229.114 185.167 221.021 175.587C212.227 165.208 203.146 155.099 193.777 145.258C187.476 138.605 181.174 131.952 174.721 125.447C170.107 120.798 165.178 116.448 160.51 111.853C143.264 94.8284 124.874 79.1457 106.104 63.8327C105.556 63.3919 104.988 62.983 104.417 62.5615L104.178 62.8408C104.486 63.1406 104.776 63.4723 105.103 63.74C123.427 79.1505 141.13 95.2155 158.211 111.935C162.338 115.964 166.314 120.142 170.378 124.242C175.362 129.27 180.554 134.108 185.336 139.351C196.578 151.599 207.745 163.922 218.71 176.405C228.686 187.748 238.153 199.535 247.01 211.792C253.492 220.456 259.333 229.582 264.486 239.097C265.507 241.043 266.398 243.064 267.325 245.062C267.527 245.59 267.915 246.027 268.415 246.291C268.916 246.556 269.495 246.629 270.045 246.499L270.042 246.486Z" fill="#F1D8E7"/>
<path id="flor4_147" d="M289.462 313.91C290.177 311.188 290.026 308.31 289.032 305.677C283.331 292.604 274.874 280.917 264.24 271.414C261.46 269.014 258.552 266.767 255.53 264.681C255.109 264.394 254.749 264.028 254.471 263.602C254.192 263.176 254.001 262.699 253.908 262.199C252.947 258.5 251.982 254.789 250.843 251.136C249.641 247.221 247.976 243.463 245.885 239.941C244.455 237.518 242.761 235.23 241.315 232.798C238.733 228.448 235.777 224.332 233.673 219.681C231.807 215.58 228.829 212.215 225.909 208.863C219.052 200.844 210.407 194.548 200.671 190.482C200.428 190.382 200.185 190.283 199.933 190.199C199.779 190.16 199.622 190.132 199.464 190.117C197.542 193.425 196.04 197.045 193.585 200.18L195.006 188.209C194.379 187.938 193.912 187.706 193.471 187.523C185.956 184.713 178.422 181.826 170.864 179.164C166.806 177.749 162.617 176.72 158.46 175.603C154.249 174.629 149.865 174.688 145.682 175.775C141.896 176.61 138.084 177.397 134.335 178.425C130.942 179.307 127.663 180.579 124.332 181.703C123.914 181.886 123.519 182.116 123.153 182.389C123.168 186.361 123.194 190.221 123.199 194.155L122.046 194.522C120.188 191.287 120.133 187.475 118.223 184.091C116.6 184.689 115.044 185.121 113.607 185.806C107.516 188.718 101.44 191.654 95.3798 194.613C91.115 196.664 87.2765 199.503 84.0668 202.98C80.198 207.256 76.5032 211.73 72.7498 216.084C70.4716 218.752 68.2353 221.477 66.0437 224.218C62.7658 228.312 59.4784 232.423 56.3032 236.6C54.5472 239.211 52.4792 241.598 50.145 243.709C49.9085 243.921 49.6921 244.154 49.4985 244.406C49.4985 244.406 49.5414 244.571 49.4577 244.824C49.7053 244.787 49.9482 244.724 50.1822 244.635C53.8051 242.87 57.7177 241.775 61.7307 241.404C66.1778 240.764 70.6649 240.33 75.1493 239.938C80.7475 239.492 86.3806 239.833 91.8844 240.949C101.266 242.799 110.445 245.434 119.63 248.041C125.878 250.057 132.314 251.435 138.84 252.154C147.39 252.986 155.982 253.304 164.57 253.107C172.097 252.779 179.606 251.913 187.139 251.923C200.272 251.916 213.417 252.218 226.29 255.495C234.059 257.436 241.517 260.459 248.447 264.473C256.539 268.977 263.763 274.888 269.781 281.928C273.988 287.159 277.781 292.711 281.124 298.533C283.577 302.683 285.604 307.07 287.173 311.628C287.362 312.174 287.595 312.703 287.87 313.211C288.149 313.817 288.149 313.817 289.462 313.91Z" fill="#FFFDFE"/>
<path id="flor4_148" d="M289.462 313.91C290.177 311.188 290.026 308.31 289.032 305.677C283.331 292.604 274.874 280.917 264.24 271.414C261.46 269.014 258.552 266.767 255.53 264.681C255.109 264.394 254.749 264.028 254.471 263.602C254.192 263.176 254.001 262.699 253.908 262.199C252.947 258.5 251.982 254.789 250.843 251.136C249.641 247.221 247.976 243.463 245.885 239.941C244.455 237.518 242.761 235.23 241.315 232.798C238.733 228.448 235.777 224.332 233.673 219.681C231.807 215.58 228.829 212.215 225.909 208.863C219.052 200.844 210.407 194.548 200.671 190.482C200.428 190.382 200.185 190.283 199.933 190.199C199.779 190.16 199.622 190.132 199.464 190.117C197.542 193.425 196.04 197.045 193.585 200.18L195.006 188.209C194.379 187.938 193.912 187.706 193.471 187.523C185.956 184.713 178.422 181.826 170.864 179.164C166.806 177.749 162.617 176.72 158.46 175.603C154.249 174.629 149.865 174.688 145.682 175.775C141.896 176.61 138.084 177.397 134.335 178.425C130.942 179.307 127.663 180.579 124.332 181.703C123.914 181.886 123.519 182.116 123.153 182.389C123.168 186.361 123.194 190.221 123.199 194.155L122.046 194.522C120.188 191.287 120.133 187.475 118.223 184.091C116.6 184.689 115.044 185.121 113.607 185.806C107.516 188.718 101.44 191.654 95.3798 194.613C91.115 196.664 87.2765 199.503 84.0668 202.98C80.198 207.256 76.5032 211.73 72.7498 216.084C70.4716 218.752 68.2353 221.477 66.0437 224.218C62.7658 228.312 59.4784 232.423 56.3032 236.6C54.5472 239.211 52.4792 241.598 50.145 243.709C49.9085 243.921 49.6921 244.154 49.4985 244.406C49.4985 244.406 49.5414 244.571 49.4577 244.824C49.7053 244.787 49.9482 244.724 50.1822 244.635C53.8051 242.87 57.7177 241.775 61.7307 241.404C66.1778 240.764 70.6649 240.33 75.1493 239.938C80.7475 239.492 86.3806 239.833 91.8844 240.949C101.266 242.799 110.445 245.434 119.63 248.041C125.878 250.057 132.314 251.435 138.84 252.154C147.39 252.986 155.982 253.304 164.57 253.107C172.097 252.779 179.606 251.913 187.139 251.923C200.272 251.916 213.417 252.218 226.29 255.495C234.059 257.436 241.517 260.459 248.447 264.473C256.539 268.977 263.763 274.888 269.781 281.928C273.988 287.159 277.781 292.711 281.124 298.533C283.577 302.683 285.604 307.07 287.173 311.628C287.362 312.174 287.595 312.703 287.87 313.211C288.149 313.817 288.149 313.817 289.462 313.91ZM106.572 200.769C107.258 202.571 108.029 204.284 108.561 206.073C109.39 208.897 110.041 211.767 110.781 214.614C111.256 216.444 111.551 218.308 111.95 220.158C112.067 220.511 112.227 220.848 112.428 221.16L112.834 221.055C114.524 213.614 113.977 206.131 112.99 198.68C122.675 194.698 136.992 191.833 142.937 192.73C143.301 195.905 143.675 199.119 144.071 202.313C144.34 205.559 144.828 208.782 145.533 211.961C146.587 210.075 147.467 208.098 148.163 206.053C149.506 201.769 150.686 197.433 151.936 193.105C152.017 192.917 152.116 192.737 152.23 192.568C157.754 192.937 162.856 194.922 167.794 197.058C167.966 205.237 167.131 213.406 165.308 221.381C164.43 225.259 163.813 229.205 163.107 233.12C163.051 233.696 163.039 234.275 163.069 234.853L163.554 234.944C166.185 229.403 168.921 223.902 171.251 218.195C173.581 212.488 174.887 206.395 176.437 200.348C176.906 200.484 177.206 200.542 177.491 200.644C184.678 203.29 192.004 205.544 199.436 207.397C213.802 210.883 225.895 218.365 236.522 228.453C239.771 231.796 242.518 235.594 244.676 239.726C246.971 243.847 248.889 248.167 250.405 252.634C251.507 255.726 251.887 258.965 252.728 262.098C252.737 262.343 252.709 262.588 252.646 262.825C252.172 262.623 251.786 262.492 251.437 262.298C249.869 261.484 248.464 260.52 246.903 259.785C236.848 255.091 226.087 252.088 215.054 250.897C207.622 250.245 200.151 250.176 192.708 250.693C184.137 251.075 175.553 251.46 166.983 251.95C158.974 252.458 151.065 251.84 143.118 251.544C135.968 251.285 129.021 249.508 122.13 247.636C113.872 245.412 105.583 243.278 97.3446 241.023C86.2479 238.004 75.0397 238.42 63.8204 240.047C60.8238 240.472 57.8821 241.318 54.9036 241.97L53.1679 242.34C54.3826 240.749 55.4474 239.468 56.3968 238.109C61.2522 231.251 66.616 224.768 72.4429 218.715C75.4786 215.369 78.909 212.405 82.6591 209.886C89.7402 205.555 97.5101 202.466 105.633 200.755C105.946 200.734 106.26 200.739 106.572 200.769ZM168.669 196.301C162.965 193.984 157.548 191.728 151.514 191.587C150.842 193.702 150.138 195.743 149.543 197.838C148.602 201.163 147.738 204.522 146.83 207.865C146.694 208.262 146.532 208.649 146.343 209.023C145.688 206.317 145.176 203.579 144.809 200.819C144.44 198.201 144.203 195.617 143.854 193.021C143.72 192.539 143.53 192.073 143.29 191.634C136.925 191.65 130.584 192.414 124.397 193.911C124.626 190.039 123.822 186.476 124.181 182.95C124.489 182.75 124.809 182.571 125.141 182.415C128.018 181.423 130.848 180.254 133.775 179.507C138.491 178.281 143.289 177.374 148.057 176.352C151.352 175.624 154.773 175.689 158.038 176.54C162.403 177.672 166.771 178.816 171.034 180.286C178.281 182.799 185.419 185.571 192.602 188.251C193.081 188.424 193.526 188.675 194.031 188.897C193.616 192.519 193.298 195.994 192.983 199.481C192.913 200.205 192.64 201.036 193.495 201.818C193.937 201.387 194.337 200.915 194.689 200.408C196.175 197.878 197.626 195.317 199.077 192.755C199.36 192.275 199.623 191.772 199.891 191.187C209.763 195.228 218.518 201.586 225.414 209.724C229.261 214.084 232.759 218.671 234.633 224.317C234.185 224.063 233.768 223.757 233.392 223.404C230.706 220.972 227.756 218.849 224.597 217.074C222.906 216.156 221.152 215.255 219.488 214.331C212.874 210.607 205.76 207.849 198.364 206.143C191.004 204.289 183.758 202.013 176.66 199.327C176.433 199.236 176.19 199.191 175.81 199.086C175.31 201.075 174.77 202.966 174.361 204.89C172.391 213.062 169.512 220.987 165.779 228.518C165.619 228.789 165.436 229.046 165.231 229.285C166.162 223.778 167.865 218.532 168.148 212.991C168.431 207.449 168.787 201.874 168.669 196.301ZM106.9 199.733C96.6473 201.475 87.5825 205.649 78.7507 210.563C80.0092 208.879 81.3521 207.363 82.727 205.866C85.7597 202.374 89.3141 199.373 93.2642 196.967C100.21 193.085 107.352 189.562 114.661 186.414C115.682 185.959 116.762 185.624 117.978 185.186C119.025 188.537 119.984 191.652 120.985 194.879L111.93 198.046C113.239 204.446 113.507 211.016 112.725 217.501C111.369 211.402 109.418 205.451 106.9 199.733ZM211.316 251.706L211.378 251.527L211.98 251.547C226.832 252.776 240.887 256.79 253.699 264.79C256.21 266.319 258.611 268.021 260.884 269.884C270.858 278.285 279.155 288.494 285.339 299.975C286.392 301.886 287.207 303.926 288.023 305.655L286.803 307.749C286.331 306.718 285.861 305.742 285.421 304.73C283.062 299.761 280.331 294.978 277.252 290.421C270.068 279.029 260.1 269.655 248.288 263.184C239.556 258.198 230.005 254.808 220.083 253.173C217.145 252.728 214.204 252.217 211.265 251.719L211.316 251.706ZM288.724 311.904C287.98 310.421 287.812 308.714 288.253 307.115C289.485 308.775 288.783 310.355 288.673 311.917L288.724 311.904Z" fill="#F1D8E7"/>
<path id="flor4_149" d="M89.6261 205.837C91.5255 214.999 94.4657 223.913 98.3893 232.407C98.2671 231.806 98.1128 231.212 97.9269 230.627C94.798 222.485 92.031 214.222 89.6261 205.837Z" fill="#F1D8E7"/>
<path id="flor4_150" d="M191.241 234.602C192.356 231.951 193.488 229.31 194.597 226.634C196.296 222.071 197.58 217.364 198.433 212.57C198.75 211.022 198.99 209.494 199.304 207.934C199.33 207.609 199.327 207.283 199.295 206.959L198.986 206.918C198.832 207.329 198.701 207.748 198.593 208.173C197.76 212.175 197.113 216.21 196.085 220.141C195.174 223.58 193.775 226.915 192.682 230.279L191.231 234.564L191.241 234.602Z" fill="#F1D8E7"/>
<path id="flor4_151" d="M217.568 242.293C217.931 242.041 218.26 241.741 218.544 241.402C219.853 239.564 221.055 237.652 222.144 235.676C224.193 231.566 225.801 227.251 226.94 222.802C227.041 222.45 227.102 222.089 227.121 221.723C227.148 221.255 227.135 220.784 227.133 220.255L226.483 219.949C226.373 220.1 226.272 220.18 226.263 220.25C226.307 223.916 224.789 227.16 223.702 230.55C222.328 234.869 219.692 238.457 217.552 242.338L217.568 242.293Z" fill="#F1D8E7"/>
<path id="flor4_152" d="M134.669 218.923C134.588 217.41 134.539 215.917 134.407 214.418C134.072 210.57 133.763 206.715 133.31 202.885C133.072 199.846 132.36 196.862 131.202 194.043C131.08 193.776 130.865 193.562 130.598 193.44C130.588 193.752 130.61 194.065 130.664 194.373C131.215 196.495 131.913 198.607 132.315 200.728C133.006 204.795 133.528 208.893 134.139 212.968C134.406 214.934 134.583 216.923 134.805 218.873L134.669 218.923Z" fill="#F1D8E7"/>
<path id="flor4_153" d="M156.375 228.831C156.614 228.588 156.811 228.307 156.96 228.001C159.287 220.971 160.509 213.623 160.581 206.219C160.574 205.854 160.547 205.489 160.501 205.127C160.484 205.063 160.398 204.991 160.118 204.697C159.971 212.902 158.73 221.05 156.427 228.926L156.375 228.831Z" fill="#F1D8E7"/>
<path id="flor4_154" d="M171.574 201.842C171.825 201.358 172.029 200.85 172.184 200.327C172.731 197.471 173.253 194.622 173.738 191.687C174.224 188.752 174.719 185.801 175.218 182.863C175.315 182.419 175.266 181.956 175.078 181.542C174.911 181.791 174.78 182.063 174.69 182.349C174.194 185.191 173.698 188.034 173.24 190.867C172.672 194.528 172.149 198.206 171.609 201.874L171.574 201.842Z" fill="#F1D8E7"/>
<path id="flor4_155" d="M237.784 238.424L239.525 235.515L240.325 234.208L240.489 234.057L240.293 234.189C240.225 234.844 240.078 235.488 239.855 236.108C238.127 239.433 236.336 242.721 234.564 246.031C234.754 245.982 234.996 245.919 235.093 245.771C237.753 242.319 239.819 238.449 241.208 234.318C241.228 234.209 241.236 234.097 241.23 233.986L240.317 232.351L237.825 238.426L237.784 238.424Z" fill="#F1D8E7"/>
<path id="flor4_156" d="M191.241 227.085C192.841 223.962 194.065 220.661 194.886 217.25C195.729 213.965 196.367 210.624 197.091 207.301C197.176 206.914 197.11 206.509 196.905 206.169C196.747 206.427 196.618 206.702 196.521 206.988C195.477 211.588 194.517 216.193 193.396 220.758C192.921 222.316 192.364 223.847 191.725 225.344C191.544 225.927 191.394 226.518 191.276 227.116L191.241 227.085Z" fill="#F1D8E7"/>
<path id="flor4_157" d="M162.309 215.01C162.535 214.292 162.716 213.56 162.853 212.82C163.515 207.124 163.653 201.379 163.264 195.657C163.237 195.452 163.185 195.251 163.109 195.06C163.092 194.996 162.936 194.969 162.734 194.872C162.66 195.108 162.512 195.323 162.527 195.536C162.946 201.985 162.854 208.456 162.251 214.889C162.251 214.889 162.277 214.991 162.29 215.042L162.309 215.01Z" fill="#F1D8E7"/>
<path id="flor4_158" d="M202.137 224.945C204.177 219.841 205.491 214.475 206.041 209.005C205.126 209.243 205.365 209.9 205.264 210.347C204.538 213.874 203.867 217.4 203.125 220.917C202.918 221.893 202.506 222.814 202.238 223.766C202.179 224.156 202.163 224.551 202.191 224.945L202.137 224.945Z" fill="#F1D8E7"/>
<path id="flor4_159" d="M131.538 208.338C131.513 206.988 131.573 205.548 131.42 204.176C130.991 200.591 130.079 197.081 128.709 193.741C128.689 193.665 128.545 193.634 128.218 193.42C128.521 195.123 128.986 196.792 129.609 198.405C130.083 200.007 130.457 201.636 130.727 203.284C131.055 204.963 131.284 206.681 131.548 208.376L131.538 208.338Z" fill="#F1D8E7"/>
<path id="flor4_160" d="M238.957 255.053C239.53 254.6 240.08 254.117 240.603 253.607C242.948 251.196 244.983 248.503 246.66 245.588C247.178 244.813 247.46 243.906 247.474 242.975C247.271 243.028 247.095 242.978 247.076 243.01C246.072 245.662 244.611 248.117 242.76 250.265C241.504 251.853 240.28 253.46 239.043 255.071L238.957 255.053Z" fill="#F1D8E7"/>
<path id="flor4_161" d="M160.269 223.138C159.553 225.292 158.825 227.449 158.138 229.608C157.692 230.973 157.265 232.359 156.924 233.764C156.525 235.381 156.287 237.034 156.212 238.698L156.373 238.222L160.237 223.12L160.269 223.138Z" fill="#F1D8E7"/>
<path id="flor4_162" d="M149.442 189.303C149.582 187.91 149.823 186.49 149.807 185.016C149.792 182.088 149.644 179.169 149.576 176.242C149.547 176.002 149.485 175.767 149.394 175.543L149.069 175.546C149.005 176.006 148.967 176.469 148.955 176.933C149.104 181.06 149.279 185.18 149.454 189.3L149.442 189.303Z" fill="#F1D8E7"/>
<path id="flor4_163" d="M74.3149 233.751C74.2769 233.445 74.1992 233.146 74.0837 232.861C72.0749 229.882 70.0534 226.907 67.964 223.827C67.8723 224.059 67.8484 224.312 67.8952 224.557C67.942 224.802 68.0576 225.029 68.2285 225.21C70.3186 228.032 72.4055 230.841 74.4194 233.683L74.3149 233.751Z" fill="#F1D8E7"/>
<path id="flor4_164" d="M86.7525 207.52C87.3921 211.15 88.3808 214.71 89.7049 218.151C89.4975 216.047 87.5272 208.621 86.7525 207.52Z" fill="#F1D8E7"/>
<path id="flor4_165" d="M177.079 192.637C177.925 189.404 178.483 186.104 178.749 182.773L178.186 182.539C178.138 182.823 178.074 183.098 178.041 183.391C177.68 186.28 177.333 189.175 177.001 192.074C177.019 192.276 177.07 192.473 177.153 192.659L177.079 192.637Z" fill="#F1D8E7"/>
<path id="flor4_166" d="M204.486 199.993C204.309 200.147 204.03 200.274 203.946 200.473C203.064 202.511 202.213 204.577 201.391 206.672C201.367 206.782 201.369 206.895 201.398 207.003C201.426 207.111 201.479 207.212 201.553 207.295C202.764 204.957 203.745 202.508 204.483 199.98L204.486 199.993Z" fill="#F1D8E7"/>
<path id="flor4_167" d="M182.004 204.071C183.082 204.564 184.126 205.134 185.235 205.538C187.271 206.271 189.35 206.911 191.411 207.583L191.516 207.258L185.567 205.249L182.023 204.093L182.004 204.071Z" fill="#F1D8E7"/>
<path id="flor4_168" d="M97.8453 194.285L100.434 199.392C100.159 197.469 99.4281 195.64 98.3019 194.057L97.8453 194.285Z" fill="#F1D8E7"/>
<path id="flor4_169" d="M142.79 250.49C142.363 250.353 141.926 250.244 141.484 250.164C139.584 249.898 137.67 249.636 135.766 249.411C135.316 249.385 134.865 249.394 134.416 249.436L142.828 250.48L142.79 250.49Z" fill="#F1D8E7"/>
<path id="flor4_170" d="M216.556 206.599C217.58 205.363 218.298 203.903 218.65 202.337C217.444 203.438 216.678 204.939 216.492 206.561L216.556 206.599Z" fill="#F1D8E7"/>
<path id="flor4_171" d="M98.549 198.037L97.39 194.986L97.0595 195.072C97.1906 196.205 97.7182 197.255 98.549 198.037Z" fill="#F1D8E7"/>
<path id="flor4_172" d="M216.672 201.304C216.385 202.234 216.097 203.163 215.825 204.102L216.225 204.229C216.557 203.315 216.893 202.414 217.212 201.503L216.672 201.304Z" fill="#F1D8E7"/>
<path id="flor4_173" d="M86.5754 205.585C86.0164 204.373 85.6199 203.527 85.1094 202.397C85.0584 203.768 85.2111 204.094 86.5754 205.585Z" fill="#F1D8E7"/>
<path id="flor4_174" d="M216.482 206.523C215.997 207.477 215.515 208.443 215.046 209.406C215.794 208.574 216.653 207.808 216.546 206.561L216.482 206.523Z" fill="#F1D8E7"/>
<path id="flor4_175" d="M190.199 237.071L191.24 234.602L190.283 237.131L190.199 237.071Z" fill="#F1D8E7"/>
<path id="flor4_176" d="M243.596 254.526L242.474 255.848L243.605 254.51L243.596 254.526Z" fill="#F1D8E7"/>
<path id="flor4_177" d="M215.408 206.205L215.949 205.101L215.706 205.001L215.402 206.18L215.408 206.205Z" fill="#F1D8E7"/>
<path id="flor4_178" d="M185.521 206.848L184.145 206.147L185.534 206.845L185.521 206.848Z" fill="#F1D8E7"/>
<path id="flor4_179" d="M134.713 218.938L134.839 220.832L134.701 218.941L134.713 218.938Z" fill="#F1D8E7"/>
<path id="flor4_180" d="M190.235 237.102L189.585 238.519L190.248 237.099L190.235 237.102Z" fill="#F1D8E7"/>
<path id="flor4_181" d="M186.034 209.605L187.078 209.863L186.034 209.605Z" fill="#F1D8E7"/>
<path id="flor4_182" d="M245.18 252.893L244.321 253.659L245.155 252.899L245.18 252.893Z" fill="#F1D8E7"/>
<path id="flor4_183" d="M243.548 254.497L244.323 253.617L243.561 254.494L243.548 254.497Z" fill="#F1D8E7"/>
<path id="flor4_184" d="M184.22 207.376L184.749 207.795L184.843 207.634L184.192 207.424L184.22 207.376Z" fill="#F1D8E7"/>
<path id="flor4_185" d="M184.183 206.137L183.131 205.746L184.186 206.15L184.183 206.137Z" fill="#F1D8E7"/>
<path id="flor4_186" d="M182.692 206.769L181.648 206.511L182.679 206.772L182.692 206.769Z" fill="#F1D8E7"/>
<path id="flor4_187" d="M183.09 207.154L184.204 207.421C183.84 207.325 183.467 207.246 183.094 207.167L183.09 207.154Z" fill="#F1D8E7"/>
<path id="flor4_188" d="M180.855 203.773L181.953 204.084L180.845 203.789L180.855 203.773Z" fill="#F1D8E7"/>
<path id="flor4_189" d="M187.662 207.621L186.68 207.13L187.662 207.621Z" fill="#F1D8E7"/>
<path id="flor4_190" d="M186.68 207.13L185.521 206.848L186.676 207.118L186.68 207.13Z" fill="#F1D8E7"/>
<path id="flor4_191" d="M190.7 228.555C190.751 228.176 190.805 227.809 190.868 227.426C190.805 227.809 190.751 228.176 190.684 228.546L190.7 228.555Z" fill="#F1D8E7"/>
<path id="flor4_192" d="M180.93 205.001L181.946 205.362L180.933 205.014L180.93 205.001Z" fill="#F1D8E7"/>
<path id="flor4_193" d="M189.322 239.646C189.398 239.26 189.474 238.874 189.537 238.491C189.474 238.874 189.411 239.257 189.335 239.643L189.322 239.646Z" fill="#F1D8E7"/>
<path id="flor4_194" d="M181.959 205.413L183.109 205.711L181.947 205.416L181.959 205.413Z" fill="#F1D8E7"/>
<path id="flor4_195" d="M188.74 241.114L188.959 240.025L188.753 241.11L188.74 241.114Z" fill="#F1D8E7"/>
<path id="flor4_196" d="M147.92 250.703L149.081 250.782L147.953 250.722L147.92 250.703Z" fill="#F1D8E7"/>
<path id="flor4_197" d="M188.425 241.521C188.355 241.878 188.285 242.236 188.199 242.584L188.422 241.508L188.425 241.521Z" fill="#F1D8E7"/>
<path id="flor4_198" d="M187.576 243.37L187.305 244.363L187.576 243.37Z" fill="#F1D8E7"/>
<path id="flor4_199" d="M146.901 250.643L147.895 250.71L146.888 250.646L146.901 250.643Z" fill="#F1D8E7"/>
<path id="flor4_200" d="M145.919 250.572L146.926 250.636L145.919 250.572Z" fill="#F1D8E7"/>
<path id="flor4_201" d="M145.891 250.62L144.906 250.537L145.903 250.617L145.891 250.62Z" fill="#F1D8E7"/>
<path id="flor4_202" d="M144.906 250.537L143.917 250.441L144.89 250.527L144.906 250.537Z" fill="#F1D8E7"/>
<path id="flor4_203" d="M144.063 249.331L144.903 249.533L144.069 249.302L144.063 249.331Z" fill="#F1D8E7"/>
<path id="flor4_204" d="M142.857 250.432L143.949 250.406L142.86 250.444L142.857 250.432Z" fill="#F1D8E7"/>
<path id="flor4_205" d="M143.028 249.315L144.063 249.331L143.031 249.328L143.028 249.315Z" fill="#F1D8E7"/>
<path id="flor4_206" d="M144.903 249.533L145.866 249.69L144.932 249.594L144.903 249.533Z" fill="#F1D8E7"/>
<path id="flor4_207" d="M141.901 249.418L143.028 249.315L141.888 249.421L141.901 249.418Z" fill="#F1D8E7"/>
<path id="flor4_208" d="M181.212 206.19L180.545 206.133L181.269 206.148L181.212 206.19Z" fill="#F1D8E7"/>
<path id="flor4_209" d="M74.3559 233.7L74.8594 234.071C74.6799 233.955 74.4972 233.826 74.3272 233.694L74.3559 233.7Z" fill="#F1D8E7"/>
<path id="flor4_210" d="M75.3362 234.653C75.1816 234.476 75.0144 234.302 74.8471 234.128L75.3107 234.659L75.3362 234.653Z" fill="#F1D8E7"/>
<path id="flor4_211" d="M75.8069 235.263C75.6585 235.057 75.4973 234.855 75.3362 234.653C75.4879 234.871 75.6397 235.089 75.8041 235.304L75.8069 235.263Z" fill="#F1D8E7"/>
<path id="flor4_212" d="M182.354 208.186L181.707 208.097L182.411 208.144L182.354 208.186Z" fill="#F1D8E7"/>
<path id="flor4_213" d="M182.835 208.469L183.42 208.425L182.758 208.434L182.835 208.469Z" fill="#F1D8E7"/>
<path id="flor4_214" d="M187.69 207.573L188.436 207.57L187.69 207.573Z" fill="#F1D8E7"/>
<path id="flor4_215" d="M184.546 208.892L183.871 208.905L184.549 208.905L184.546 208.892Z" fill="#F1D8E7"/>
<path id="flor4_216" d="M185.607 209.214L184.922 209.242L185.61 209.226L185.607 209.214Z" fill="#F1D8E7"/>
<path id="flor4_217" d="M187.479 210.206L187.661 210.227L187.457 210.28L187.479 210.206Z" fill="#F1D8E7"/>
<path id="flor4_218" d="M149.41 189.338L149.552 189.519L149.342 189.492L149.442 189.303L149.41 189.338Z" fill="#F1D8E7"/>
<path id="flor4_219" d="M176.939 193.352L177.079 192.637C177.018 192.87 176.953 193.09 176.875 193.314L176.939 193.352Z" fill="#F1D8E7"/>
<path id="flor4_220" d="M180.524 203.438L179.867 203.419L180.533 203.422L180.524 203.438Z" fill="#F1D8E7"/>
<path id="flor4_221" d="M204.858 198.132L204.759 198.796L204.896 198.177L204.858 198.132Z" fill="#F1D8E7"/>
<path id="flor4_222" d="M180.554 204.705L179.87 204.734L180.602 204.68L180.554 204.705Z" fill="#F1D8E7"/>
<path id="flor4_223" d="M238.957 255.052L238.464 255.506L238.957 255.052Z" fill="#F1D8E7"/>
<path id="flor4_224" d="M238.477 255.557L238.294 255.686L238.261 255.559L238.475 255.598L238.477 255.557Z" fill="#F1D8E7"/>
<path id="flor4_225" d="M204.47 199.983L204.4 199.242C204.462 199.483 204.433 199.735 204.441 199.977L204.47 199.983Z" fill="#F1D8E7"/>
<path id="flor4_226" d="M241.887 256.354L242.417 255.836L241.845 256.297L241.887 256.354Z" fill="#F1D8E7"/>
<path id="flor4_227" d="M191.276 227.116L190.929 227.451L191.302 227.11L191.276 227.116Z" fill="#F1D8E7"/>
<path id="flor4_228" d="M75.7908 235.253L75.8968 235.348L75.7951 235.374L75.7687 235.273L75.7908 235.253Z" fill="#F1D8E7"/>
<path id="flor4_229" d="M184.935 209.293L184.546 208.892L184.932 209.281L184.935 209.293Z" fill="#F1D8E7"/>
<path id="flor4_230" d="M190.745 228.571L190.337 228.88L190.669 228.591L190.745 228.571Z" fill="#F1D8E7"/>
<path id="flor4_231" d="M181.707 208.097L181.585 208.047L181.687 208.021L181.707 208.097Z" fill="#F1D8E7"/>
<path id="flor4_232" d="M190.009 229.915L190.098 229.892L190.028 229.937L190.009 229.915Z" fill="#F1D8E7"/>
<path id="flor4_233" d="M189.813 230.414L190.009 229.915L189.784 230.354L189.813 230.414Z" fill="#F1D8E7"/>
<path id="flor4_234" d="M182.707 206.724L183.09 207.154L182.701 206.753L182.707 206.724Z" fill="#F1D8E7"/>
<path id="flor4_235" d="M181.648 206.511C181.51 206.398 181.362 206.3 181.212 206.19L181.648 206.511Z" fill="#F1D8E7"/>
<path id="flor4_236" d="M204.762 198.809L204.448 199.27L204.771 198.792L204.762 198.809Z" fill="#F1D8E7"/>
<path id="flor4_237" d="M180.57 204.661L180.943 205.052C180.814 204.923 180.699 204.79 180.579 204.645L180.57 204.661Z" fill="#F1D8E7"/>
<path id="flor4_238" d="M204.861 198.145L204.933 198.004L204.962 198.119L204.848 198.149L204.861 198.145Z" fill="#F1D8E7"/>
<path id="flor4_239" d="M180.865 203.811L180.511 203.441L180.855 203.827L180.865 203.811Z" fill="#F1D8E7"/>
<path id="flor4_240" d="M179.428 203.139L179.895 203.371L179.482 203.085L179.428 203.139Z" fill="#F1D8E7"/>
<path id="flor4_241" d="M179.454 203.133L179.345 203.08L179.447 203.053L179.47 203.142L179.454 203.133Z" fill="#F1D8E7"/>
<path id="flor4_242" d="M188.921 240.035L189.284 239.656L188.908 240.039L188.921 240.035Z" fill="#F1D8E7"/>
<path id="flor4_243" d="M186.005 209.653L185.62 209.265L186.005 209.653Z" fill="#F1D8E7"/>
<path id="flor4_244" d="M188.377 241.493L188.74 241.114L188.364 241.496L188.377 241.493Z" fill="#F1D8E7"/>
<path id="flor4_245" d="M188.225 242.577L187.947 242.921L188.228 242.59L188.225 242.577Z" fill="#F1D8E7"/>
<path id="flor4_246" d="M187.922 242.927L187.576 243.37L187.922 242.927Z" fill="#F1D8E7"/>
<path id="flor4_247" d="M188.436 207.569L188.5 207.661L188.408 207.618L188.436 207.569Z" fill="#F1D8E7"/>
<path id="flor4_248" d="M187.038 244.799L187.257 244.335L186.999 244.755L187.038 244.799Z" fill="#F1D8E7"/>
<path id="flor4_249" d="M217.403 242.702L217.568 242.293L217.403 242.702Z" fill="#F1D8E7"/>
<path id="flor4_250" d="M217.212 243.064L217.393 242.664L217.221 243.048L217.212 243.064Z" fill="#F1D8E7"/>
<path id="flor4_251" d="M237.548 238.77L237.784 238.424L237.564 238.779L237.548 238.77Z" fill="#F1D8E7"/>
<path id="flor4_252" d="M237.596 238.798L237.332 239.138L237.583 238.801L237.596 238.798Z" fill="#F1D8E7"/>
<path id="flor4_253" d="M237.083 239.488L237.296 239.107L237.096 239.484L237.083 239.488Z" fill="#F1D8E7"/>
<path id="flor4_254" d="M236.922 239.909L237.083 239.488L236.918 239.897L236.922 239.909Z" fill="#F1D8E7"/>
<path id="flor4_255" d="M236.966 239.925L236.731 240.325L236.947 239.903L236.966 239.925Z" fill="#F1D8E7"/>
<path id="flor4_256" d="M236.731 240.325L236.468 240.774L236.709 240.345L236.731 240.325Z" fill="#F1D8E7"/>
<path id="flor4_257" d="M236.468 240.774L236.389 240.889L236.366 240.8L236.468 240.774Z" fill="#F1D8E7"/>
<path id="flor4_258" d="M183.42 208.425L183.819 208.81L183.42 208.425Z" fill="#F1D8E7"/>
<path id="flor4_259" d="M234.406 246.52L234.506 246.019L234.389 246.457L234.406 246.52Z" fill="#F1D8E7"/>
<path id="flor4_260" d="M245.17 252.854L245.15 252.778L245.218 252.883L245.17 252.854Z" fill="#F1D8E7"/>
<path id="flor4_261" d="M182.383 208.138L182.835 208.469L182.379 208.126L182.383 208.138Z" fill="#F1D8E7"/>
<path id="flor4_262" d="M215.402 206.179L215.343 206.317L215.316 206.215L215.405 206.192L215.402 206.179Z" fill="#F1D8E7"/>
<path id="flor4_263" d="M187.078 209.863L187.479 210.206L187.074 209.85L187.078 209.863Z" fill="#F1D8E7"/>
</g>
<defs>
<clipPath id="clip0_33_310">
<rect width="216.687" height="323.862" fill="white" transform="matrix(-0.967856 0.251505 0.251505 0.967856 209.722 0)"/>
</clipPath>
</defs>
</svg>
