<svg width="194" height="279" viewBox="0 0 194 279" fill="none" xmlns="http://www.w3.org/2000/svg">
<g id="flor5" clip-path="url(#clip0_37_702)">
<path id="flor5_2" d="M147.159 157.924C147.05 157.717 147.128 157.43 147.082 157.208C145.831 151.159 145.351 144.976 145.652 138.806C146.041 134.769 145.903 130.7 145.241 126.699C144.537 123.548 144.241 120.306 143.343 117.222C142.041 112.801 140.393 108.491 138.856 104.159C137.453 100.065 137.243 95.6571 138.251 91.449C139.618 85.2384 142.781 79.9676 146.421 74.8336C148.456 72.0044 150.439 69.0786 152.336 65.9873C154.232 62.8959 155.644 59.5843 157.286 56.3447C158.078 54.3666 159.442 52.6695 161.203 51.47C161.436 51.284 161.706 51.1505 161.996 51.0785C162.285 51.0064 162.586 50.9977 162.879 51.0526C163.172 51.1076 163.449 51.2251 163.693 51.3971C163.936 51.569 164.139 51.7915 164.289 52.0492C165.362 53.5119 166.096 55.1948 166.438 56.9761C167.532 61.4596 168.07 66.0612 168.038 70.6763C168.006 74.971 167.548 79.2254 167.152 83.4646C166.102 93.3047 163.724 102.957 160.082 112.159C157.945 117.841 155.035 123.226 152.413 128.723C151.129 131.404 149.423 133.92 148.412 136.687C146.492 141.948 146.104 147.646 147.292 153.119C147.64 154.82 148.086 156.504 148.427 158.226C148.793 160.251 149.685 162.144 151.012 163.716C152.155 165.087 153.1 166.651 154.188 168.086C157.347 172.288 160.539 176.455 163.74 180.671L164.223 180.417C163.377 177.802 163.154 175.026 163.572 172.309C163.56 171.998 163.522 171.689 163.456 171.385C163.196 169.215 162.944 167.059 162.705 164.896C162.072 159.102 164.71 154.741 168.955 151.261C174.586 146.942 180.782 143.414 187.37 140.776C188.932 140.159 190.561 139.729 192.224 139.493C194.573 139.041 197.006 139.45 199.078 140.645C199.635 141.022 200.165 141.437 200.665 141.888C199.933 142.677 199.136 143.402 198.283 144.055C196.319 145.371 194.284 146.576 192.186 147.663C186.532 150.368 181.188 153.677 176.247 157.534C172.988 160.109 169.6 162.54 167.396 166.251C165.883 168.549 164.96 171.184 164.708 173.924C164.455 176.663 164.881 179.422 165.948 181.958C166.978 184.218 168.325 186.32 169.949 188.2C175.105 194.662 180.144 201.204 185.273 207.681C188.313 211.524 191.456 215.295 194.482 219.144C196.633 221.765 197.959 224.965 198.291 228.339C198.376 229.404 198.439 230.497 196.887 230.96C196.559 230.569 196.182 230.187 195.859 229.74C188.755 220.328 181.641 210.91 174.518 201.485C173.895 200.484 173.111 199.593 172.199 198.848C169.67 197.184 167.026 195.703 164.367 194.161C159.237 191.332 153.76 189.185 148.074 187.776C141.538 185.977 135.691 182.261 131.289 177.106C126.631 171.37 122.375 165.318 118.552 158.995C118.158 158.515 117.91 157.933 117.835 157.317C117.761 156.701 117.865 156.077 118.133 155.518C118.577 155.197 119.101 155.006 119.648 154.968C120.194 154.93 120.74 155.046 121.224 155.302C123.261 156.057 125.197 157.062 126.986 158.295C130.606 161.164 134.028 164.26 137.403 167.399C142.134 171.814 146.742 176.363 151.406 180.849C153.283 182.68 155.248 184.411 157.002 186.341C159.949 189.728 163.448 192.592 167.35 194.812C168.28 195.309 169.143 195.947 170.012 196.529C169.45 195.312 168.728 194.176 167.867 193.149C158.982 181.868 150.624 170.204 142.793 158.158C140.592 154.773 138.645 151.201 136.245 147.973C132.946 143.831 129.197 140.068 125.068 136.752C124.72 136.488 124.335 136.275 123.926 136.12C120.393 134.545 116.572 133.718 112.703 133.69C108.339 133.694 104.022 133.921 99.6372 134.253C93.5958 134.757 87.514 134.091 81.7247 132.292C77.5159 130.982 73.4981 129.467 69.3641 128.065C68.3395 127.724 67.296 127.48 66.0703 127.191C65.6456 128.259 65.3068 129.088 64.9832 129.98C63.3878 134.527 60.6166 138.57 56.9517 141.699C52.9462 145.3 47.8603 146.476 42.6472 146.873C41.2949 146.859 39.9577 146.588 38.7066 146.074C38.4262 145.995 38.1648 145.859 37.9385 145.675C37.7122 145.492 37.5255 145.264 37.3899 145.006C37.2543 144.748 37.1726 144.465 37.1498 144.174C37.1269 143.883 37.1634 143.591 37.2569 143.315C37.4431 142.598 37.763 141.922 38.1997 141.323C39.1849 140.049 40.3397 138.896 41.3176 137.608C43.8654 134.315 46.4059 131.009 48.8195 127.628C49.8996 125.949 51.3811 124.566 53.1301 123.603C57.3856 121.373 61.1746 118.348 64.2922 114.693C65.6912 113.201 67.0684 111.668 68.5951 110.284C71.0607 107.936 74.0279 106.178 77.2725 105.144C80.517 104.111 83.9541 103.828 87.324 104.317C93.3334 105.238 98.9287 107.94 103.387 112.073C106.805 114.96 109.937 118.173 113.103 121.351C115.337 123.592 117.407 125.99 119.511 128.353C122.298 131.448 125.025 134.592 127.805 137.673C129.253 139.289 130.776 140.848 132.263 142.372C132.466 142.566 132.695 142.73 132.942 142.861C130.401 137.788 127.803 132.71 125.3 127.511C121.742 120.032 118.835 112.258 116.614 104.278C115.562 100.819 113.865 97.5888 111.613 94.7594C108.34 90.4058 104.08 86.8876 101.08 82.2845C99.844 80.6488 98.4872 79.108 97.021 77.6749C94.6325 75.1363 92.6131 72.2741 91.0223 69.1727C86.9705 60.8214 85.3712 51.4919 86.4101 42.2678C86.7512 39.8715 87.3877 37.5267 88.305 35.2868C89.1076 33.1029 90.6027 31.2416 92.5621 29.987C94.66 28.5855 96.1109 28.633 97.8559 30.48C98.692 31.3085 99.3295 32.3157 99.7206 33.4259C100.771 36.3528 101.56 39.3672 102.077 42.4335C103.058 49.9631 103.712 57.5411 104.52 65.1091C105.073 71.5787 106.772 77.8984 109.538 83.7734C111.208 87.1206 112.506 90.6635 114.028 94.2298C114.564 93.4732 114.2 92.7486 114.069 92.096C112.967 86.1439 112.467 80.096 112.576 74.0438C112.729 66.7284 114.426 59.605 115.27 52.3663C115.662 48.9567 116.004 45.5551 116.27 42.141C116.473 39.4113 116.551 36.7121 116.704 33.9207C116.963 28.9368 118.17 24.0481 120.262 19.5172C122.07 16.0288 124.412 12.8441 127.204 10.0785C128.789 8.42265 130.494 6.88558 132.304 5.47978C133.311 4.74831 134.451 4.22095 135.661 3.92747C136.153 3.75839 136.679 3.70929 137.194 3.78421C137.71 3.85912 138.2 4.05589 138.624 4.35821C139.047 4.66053 139.393 5.05964 139.632 5.52241C139.871 5.98516 139.995 6.49822 139.996 7.01893C140.111 8.442 139.989 9.87427 139.635 11.2574C138.014 16.9407 135.698 22.4025 132.741 27.5195C129.877 32.7913 125.974 37.3241 122.503 42.1759C119.928 45.6175 117.966 49.4771 116.703 53.5853C114.64 60.9792 113.621 68.6251 113.674 76.3012C113.676 76.7055 113.754 77.1221 113.79 77.5257C114.135 77.2485 114.386 76.8707 114.507 76.4447C115.947 72.5945 117.075 68.6345 117.879 64.6033C118.366 61.8939 118.996 59.2123 119.767 56.5698C121.553 49.8426 125.643 43.9555 131.325 39.9351C135.435 37.0362 139.388 33.9383 143.411 30.9087C145.85 28.8149 148.902 27.5694 152.109 27.3598C155.593 27.2897 157.12 28.688 157.324 32.2251C157.376 34.8481 156.85 37.4503 155.783 39.8472C154.58 42.7853 152.949 45.5289 150.942 47.9889C148.659 50.9478 146.215 53.778 143.619 56.4663C139.79 60.0177 135.653 63.2221 131.257 66.0419C125.511 70.0821 119.837 74.2254 115.78 80.1415C115.164 80.8789 114.71 81.7372 114.446 82.661C114.183 83.5848 114.116 84.5536 114.25 85.5049C114.874 89.1729 115.207 92.8886 115.95 96.5473C116.716 100.646 117.896 104.656 119.474 108.515C123.347 117.679 127.728 126.62 132.595 135.297C136.737 142.645 141.451 149.674 145.925 156.848C146.142 157.262 146.484 157.61 146.77 157.988L147.159 157.924Z" fill="#FFFDFE"/>
<path id="flor5_3" d="M141.861 92.7565C142.003 92.2239 142.167 91.6978 142.289 91.1586C142.481 90.3182 142.582 89.4379 142.816 88.6106C144.12 83.9075 146.175 79.4456 148.9 75.3971C151.911 71.4476 154.574 67.2448 156.859 62.836C157.527 61.3935 157.999 59.8784 158.569 58.417L158.196 58.2433C158.019 58.4846 157.866 58.7421 157.737 59.0123C156.394 62.7503 154.506 66.2695 152.134 69.4557C149.133 73.7961 145.893 78.0159 143.935 82.9348C142.596 86.0516 141.861 89.3948 141.771 92.7862L141.861 92.7565Z" fill="#C1BADD"/>
<path id="flor5_4" d="M155.158 114.112C159.531 104.509 163.602 94.8005 164.02 84.0711C163.188 89.2052 161.964 94.2682 160.359 99.2155C158.687 104.143 156.891 109.1 155.158 114.112Z" fill="#C1BADD"/>
<path id="flor5_5" d="M90.7608 61.3707C90.7323 60.6463 90.7661 59.9067 90.6679 59.1837C89.8704 53.506 89.5777 47.7687 89.7932 42.0393C89.8762 40.6226 90.0855 39.2451 90.3402 37.3509C90.0709 37.7061 89.8491 38.0949 89.6803 38.5074C89.396 39.7728 89.1936 41.0552 89.0745 42.3466C88.7521 48.3147 89.1651 54.2997 90.3043 60.167C90.4208 60.569 90.5829 60.9563 90.7876 61.3213L90.7608 61.3707Z" fill="#C1BADD"/>
<path id="flor5_6" d="M125.508 33.2205C130.92 26.0642 135.505 18.3738 137.464 9.33511C135.713 13.4413 134.181 17.6615 132.183 21.6332C130.186 25.6049 127.766 29.376 125.508 33.2205Z" fill="#C1BADD"/>
<path id="flor5_7" d="M90.8472 129.752C86.9645 129.063 83.0164 128.585 79.1775 127.645C75.991 126.907 72.9078 125.763 69.7519 124.816C69.1521 124.593 68.5079 124.515 67.8722 124.589C68.3373 124.837 68.7892 125.128 69.2674 125.335C75.6772 127.891 82.4219 129.512 89.2936 130.146C89.842 130.132 90.3852 130.037 90.9051 129.862L90.8472 129.752Z" fill="#C1BADD"/>
<path id="flor5_8" d="M134.077 60.6526C127.041 64.0146 122.261 69.9941 117.474 75.9598C122.674 70.4459 127.528 64.6392 134.077 60.6526Z" fill="#C1BADD"/>
<path id="flor5_9" d="M128.419 47.2707C131.187 44.9007 133.906 42.469 136.724 40.1607C139.543 37.8524 142.825 36.4271 145.296 33.7912C139.141 37.6235 133.036 41.5175 128.419 47.2707Z" fill="#C1BADD"/>
<path id="flor5_10" d="M92.5643 127.794C89.9102 127.533 87.243 127.315 84.5875 126.985C81.9319 126.655 79.413 126.183 76.774 125.985C77.5526 126.318 78.3577 126.584 79.181 126.78C81.6579 127.239 84.103 127.504 86.5764 127.789C88.1904 127.979 89.8024 128.065 91.4137 128.117C91.8126 128.057 92.1988 127.932 92.5564 127.745L92.5643 127.794Z" fill="#C1BADD"/>
<path id="flor5_11" d="M134.37 14.235L127.486 27.9386C130.409 23.7302 132.844 19.2027 134.743 14.4436L134.37 14.235Z" fill="#C1BADD"/>
<path id="flor5_12" d="M81.9642 113.013C78.5766 113.196 75.2424 113.937 72.0958 115.205C70.0746 115.915 68.1274 116.832 66.1366 117.667C66.7566 117.619 67.3722 117.525 67.9782 117.386C70.9838 116.405 73.9386 115.328 76.9804 114.416C78.6226 113.923 80.3538 113.7 82.0408 113.36L81.9642 113.013Z" fill="#C1BADD"/>
<path id="flor5_13" d="M177.973 148.353C173.191 151.068 169.09 154.836 165.981 159.372C169.624 155.331 173.639 151.642 177.973 148.353Z" fill="#C1BADD"/>
<path id="flor5_14" d="M129.823 171.434C132.973 175.866 136.872 179.715 141.344 182.808L129.823 171.434Z" fill="#C1BADD"/>
<path id="flor5_15" d="M42.7983 143.642C48.2022 143.373 55.2847 140.268 56.7595 137.346C55.7908 138.048 55.0079 138.636 54.2033 139.182C51.6572 140.863 48.8051 142.026 45.8097 142.606C44.7963 142.822 43.7778 143.128 42.7172 143.421L42.7983 143.642Z" fill="#C1BADD"/>
<path id="flor5_16" d="M90.8499 129.892C92.0569 130.033 93.2709 130.106 94.4861 130.111C97.5013 129.953 100.507 129.676 103.528 129.462C103.152 129.319 102.759 129.224 102.358 129.179C98.7277 129.238 95.0978 129.332 91.4679 129.426C91.2437 129.498 91.0337 129.609 90.8471 129.752L90.8499 129.892Z" fill="#C1BADD"/>
<path id="flor5_17" d="M91.0871 53.6824L90.9754 50.5548L90.7485 43.0867C89.8714 44.5333 89.9466 50.0039 90.934 53.6925L91.0871 53.6824Z" fill="#C1BADD"/>
<path id="flor5_18" d="M143.753 90.4948C144.004 89.7996 144.269 89.1321 144.444 88.4594C145.253 86.08 146.063 83.7006 146.766 81.2188C146.382 81.7816 146.031 82.3659 145.714 82.9687C144.461 85.2963 143.777 87.8876 143.719 90.5303L143.753 90.4948Z" fill="#C1BADD"/>
<path id="flor5_19" d="M157.199 104.661C157.597 103.642 158.092 102.642 158.406 101.597C158.934 99.7881 159.371 97.939 159.752 96.0841C158.94 96.9857 157.427 102.481 157.22 104.667L157.199 104.661Z" fill="#C1BADD"/>
<path id="flor5_20" d="M141.109 38.7551C138.111 40.1103 135.424 42.0673 133.215 44.5045L141.109 38.7551Z" fill="#C1BADD"/>
<path id="flor5_21" d="M168.125 158.527C169.971 157.751 170.913 156.059 172.119 154.669C170.484 155.598 169.11 156.925 168.125 158.527Z" fill="#C1BADD"/>
<path id="flor5_22" d="M67.6452 116.082L73.6646 113.835L73.4326 113.394C71.3412 113.953 69.3688 114.888 67.6118 116.153L67.6452 116.082Z" fill="#C1BADD"/>
<path id="flor5_23" d="M88.2466 126.612C87.8352 126.377 87.3959 126.193 86.9391 126.067C85.4078 125.833 83.8779 125.668 82.2007 125.458C83.3048 126.286 84.6757 126.517 88.2387 126.563L88.2466 126.612Z" fill="#C1BADD"/>
<path id="flor5_24" d="M91.5035 56.016C91.3829 55.2168 91.2339 54.3972 91.1423 53.6532L91.0181 53.7184C91.2012 54.5025 91.3981 55.2792 91.5812 56.0632L91.5035 56.016Z" fill="#C1BADD"/>
<path id="flor5_25" d="M81.9428 113.341L83.6269 113.195L83.5619 112.736L81.9503 113.02L81.9428 113.341Z" fill="#C1BADD"/>
<path id="flor5_26" d="M40.9647 143.972L42.7984 143.643L42.7724 143.392L40.9727 144.021L40.9647 143.972Z" fill="#C1BADD"/>
<path id="flor5_27" d="M93.1173 127.908L94.9776 127.863C94.3549 127.751 93.7323 127.638 93.0617 127.567C93.089 127.679 93.1077 127.793 93.1173 127.908Z" fill="#C1BADD"/>
<path id="flor5_28" d="M141.454 95.4345L141.272 96.7626L141.475 95.441L141.454 95.4345Z" fill="#C1BADD"/>
<path id="flor5_29" d="M141.406 95.4423L141.616 94.0996L141.441 95.4415L141.406 95.4423Z" fill="#C1BADD"/>
<path id="flor5_30" d="M141.616 94.0999L141.861 92.7565L141.778 92.8C141.731 93.2471 141.684 93.6942 141.651 94.134L141.616 94.0999Z" fill="#C1BADD"/>
<path id="flor5_31" d="M95.5141 127.846L96.8291 128.07L95.5068 127.832L95.5141 127.846Z" fill="#C1BADD"/>
<path id="flor5_32" d="M126.764 29.4451L127.116 28.9431L126.868 29.0736C126.868 29.0736 126.835 29.1788 126.764 29.4451Z" fill="#C1BADD"/>
<path id="flor5_33" d="M116.632 77.4406L116.717 77.5016L116.777 77.347L116.632 77.4406Z" fill="#C1BADD"/>
<path id="flor5_34" d="M67.6314 116.09L66.8553 116.321L67.6314 116.09Z" fill="#C1BADD"/>
<path id="flor5_35" d="M104.091 129.395L104.884 129.63L104.12 129.415L104.091 129.395Z" fill="#C1BADD"/>
<path id="flor5_36" d="M143.442 91.3097L143.753 90.4949L143.456 91.3025L143.442 91.3097Z" fill="#C1BADD"/>
<path id="flor5_37" d="M157.247 104.652L157.068 105.451C157.119 105.178 157.19 104.912 157.247 104.652Z" fill="#C1BADD"/>
<path id="flor5_38" d="M157.027 105.473C156.925 105.614 156.824 105.756 156.93 105.524L156.894 105.455L157.027 105.473Z" fill="#C1BADD"/>
<path id="flor5_39" d="M91.545 55.9944C91.6174 56.1323 91.552 56.3428 91.5417 56.5242L91.5522 56.0082L91.545 55.9944Z" fill="#C1BADD"/>
<path id="flor5_40" d="M88.746 126.49L88.2466 126.612L88.7526 126.469L88.746 126.49Z" fill="#C1BADD"/>
<path id="flor5_41" d="M88.7998 126.392L88.9681 126.444L88.8302 126.517L88.7998 126.392Z" fill="#C1BADD"/>
<path id="flor5_42" d="M92.5564 127.745L93.1035 127.915C93.1039 127.813 93.0972 127.71 93.0834 127.609L92.5643 127.793L92.5564 127.745Z" fill="#C1BADD"/>
<path id="flor5_43" d="M95.5003 127.853L94.9653 127.94L95.4865 127.86L95.5003 127.853Z" fill="#C1BADD"/>
<path id="flor5_44" d="M65.6145 117.008L65.5637 116.912L65.5027 116.996L65.6145 117.008Z" fill="#C1BADD"/>
<path id="flor5_45" d="M104.107 129.457L103.55 129.503L104.086 129.451L104.107 129.457Z" fill="#C1BADD"/>
<path id="flor5_46" d="M104.884 129.63L104.932 129.587L104.871 129.672L104.884 129.63Z" fill="#C1BADD"/>
<path id="flor5_47" d="M91.5095 63.9349L91.4978 64.0466L91.4819 63.9494L91.5095 63.9349Z" fill="#C1BADD"/>
<path id="flor5_48" d="M143.529 91.8095L143.442 91.3094C143.522 91.4611 143.497 91.6498 143.536 91.8233L143.529 91.8095Z" fill="#C1BADD"/>
<path id="flor5_49" d="M91.2259 62.6576L91.2022 63.2157L91.2259 62.6576Z" fill="#C1BADD"/>
<path id="flor5_50" d="M141.272 96.7627L141.345 97.2701L141.265 96.7489L141.272 96.7627Z" fill="#C1BADD"/>
<path id="flor5_51" d="M141.412 97.8331L141.283 97.285C141.362 97.4368 141.338 97.6255 141.356 97.7924L141.412 97.8331Z" fill="#C1BADD"/>
<path id="flor5_52" d="M90.8095 61.3625C90.7992 61.544 90.81 61.732 90.8135 61.9062L90.8305 61.3691L90.8095 61.3625Z" fill="#C1BADD"/>
<path id="flor5_53" d="M156.62 106.743L156.524 106.793L156.601 106.841L156.62 106.743Z" fill="#C1BADD"/>
<path id="flor5_54" d="M91.5528 57.0818L91.5149 57.2778L91.4352 57.126L91.5528 57.0818Z" fill="#C1BADD"/>
<path id="flor5_55" d="M91.4904 57.0967C91.4106 56.945 91.4899 56.7273 91.4929 56.5321L91.4969 57.0757L91.4904 57.0967Z" fill="#C1BADD"/>
<path id="flor5_56" d="M147.159 157.924C147.05 157.717 147.128 157.43 147.082 157.208C145.831 151.159 145.351 144.976 145.652 138.806C146.041 134.769 145.903 130.7 145.241 126.699C144.537 123.548 144.241 120.306 143.343 117.222C142.041 112.801 140.393 108.491 138.856 104.159C137.453 100.065 137.243 95.6571 138.251 91.449C139.618 85.2384 142.781 79.9676 146.421 74.8336C148.456 72.0044 150.439 69.0786 152.336 65.9873C154.232 62.8959 155.644 59.5843 157.286 56.3447C158.078 54.3666 159.442 52.6695 161.203 51.47C161.436 51.284 161.706 51.1505 161.996 51.0785C162.285 51.0064 162.586 50.9977 162.879 51.0526C163.172 51.1076 163.449 51.2251 163.693 51.3971C163.936 51.569 164.139 51.7915 164.289 52.0492C165.362 53.5119 166.096 55.1948 166.438 56.9761C167.532 61.4596 168.07 66.0612 168.038 70.6763C168.006 74.971 167.548 79.2254 167.152 83.4646C166.102 93.3047 163.724 102.957 160.082 112.159C157.945 117.841 155.035 123.226 152.413 128.723C151.129 131.404 149.423 133.92 148.412 136.687C146.492 141.948 146.104 147.646 147.292 153.119C147.64 154.82 148.086 156.504 148.427 158.226C148.793 160.251 149.685 162.144 151.012 163.716C152.155 165.087 153.1 166.651 154.188 168.086C157.347 172.288 160.539 176.455 163.74 180.671L164.223 180.417C163.377 177.802 163.154 175.026 163.572 172.309C163.56 171.998 163.522 171.689 163.456 171.385C163.196 169.215 162.944 167.059 162.705 164.896C162.072 159.102 164.71 154.741 168.955 151.261C174.586 146.942 180.782 143.414 187.37 140.776C188.932 140.159 190.561 139.729 192.224 139.493C194.573 139.041 197.006 139.45 199.078 140.645C199.635 141.022 200.165 141.437 200.665 141.888C199.933 142.677 199.136 143.402 198.283 144.055C196.319 145.371 194.284 146.576 192.186 147.663C186.532 150.368 181.188 153.677 176.247 157.534C172.988 160.109 169.6 162.54 167.396 166.251C165.883 168.549 164.96 171.184 164.708 173.924C164.455 176.663 164.881 179.422 165.948 181.958C166.978 184.218 168.325 186.32 169.949 188.2C175.105 194.662 180.144 201.204 185.273 207.681C188.313 211.524 191.456 215.295 194.482 219.144C196.633 221.765 197.959 224.965 198.291 228.339C198.376 229.404 198.439 230.497 196.887 230.96C196.559 230.569 196.182 230.187 195.859 229.74C188.755 220.328 181.641 210.91 174.518 201.485C173.895 200.484 173.111 199.593 172.199 198.848C169.67 197.184 167.026 195.703 164.367 194.161C159.237 191.332 153.76 189.185 148.074 187.776C141.538 185.977 135.691 182.261 131.289 177.106C126.631 171.37 122.375 165.318 118.552 158.995C118.158 158.515 117.91 157.933 117.835 157.317C117.761 156.701 117.865 156.077 118.133 155.518C118.577 155.197 119.101 155.006 119.648 154.968C120.194 154.93 120.74 155.046 121.224 155.302C123.261 156.057 125.197 157.062 126.986 158.295C130.606 161.164 134.028 164.26 137.403 167.399C142.134 171.814 146.742 176.363 151.406 180.849C153.283 182.68 155.248 184.411 157.002 186.341C159.949 189.728 163.448 192.592 167.35 194.812C168.28 195.309 169.143 195.947 170.012 196.529C169.45 195.312 168.728 194.176 167.867 193.149C158.982 181.868 150.624 170.204 142.793 158.158C140.592 154.773 138.645 151.201 136.245 147.973C132.946 143.831 129.197 140.068 125.068 136.752C124.72 136.488 124.335 136.275 123.926 136.12C120.393 134.545 116.572 133.718 112.703 133.69C108.339 133.694 104.022 133.921 99.6372 134.253C93.5958 134.757 87.514 134.091 81.7247 132.292C77.5159 130.982 73.4981 129.467 69.3641 128.065C68.3395 127.724 67.296 127.48 66.0703 127.191C65.6456 128.259 65.3068 129.088 64.9832 129.98C63.3878 134.527 60.6166 138.57 56.9517 141.699C52.9462 145.3 47.8603 146.476 42.6472 146.873C41.2949 146.859 39.9577 146.588 38.7066 146.074C38.4262 145.995 38.1648 145.859 37.9385 145.675C37.7122 145.492 37.5255 145.264 37.3899 145.006C37.2543 144.748 37.1726 144.465 37.1498 144.174C37.1269 143.883 37.1634 143.591 37.2569 143.315C37.4431 142.598 37.763 141.922 38.1997 141.323C39.1849 140.049 40.3397 138.896 41.3176 137.608C43.8654 134.315 46.4059 131.009 48.8195 127.628C49.8996 125.949 51.3811 124.566 53.1301 123.603C57.3856 121.373 61.1746 118.348 64.2922 114.693C65.6912 113.201 67.0684 111.668 68.5951 110.284C71.0607 107.936 74.0279 106.178 77.2725 105.144C80.517 104.111 83.9541 103.828 87.324 104.317C93.3334 105.238 98.9287 107.94 103.387 112.073C106.805 114.96 109.937 118.173 113.103 121.351C115.337 123.592 117.407 125.99 119.511 128.353C122.298 131.448 125.025 134.592 127.805 137.673C129.253 139.289 130.776 140.848 132.263 142.372C132.466 142.566 132.695 142.73 132.942 142.861C130.401 137.788 127.803 132.71 125.3 127.511C121.742 120.032 118.835 112.258 116.614 104.278C115.562 100.819 113.865 97.5888 111.613 94.7594C108.34 90.4058 104.08 86.8876 101.08 82.2845C99.844 80.6488 98.4872 79.108 97.021 77.6749C94.6325 75.1363 92.6131 72.2741 91.0223 69.1727C86.9705 60.8214 85.3712 51.4919 86.4101 42.2678C86.7512 39.8715 87.3877 37.5267 88.305 35.2868C89.1076 33.1029 90.6027 31.2416 92.5621 29.987C94.66 28.5855 96.1109 28.633 97.8559 30.48C98.692 31.3085 99.3295 32.3157 99.7206 33.4259C100.771 36.3528 101.56 39.3672 102.077 42.4335C103.058 49.9631 103.712 57.5411 104.52 65.1091C105.073 71.5787 106.772 77.8984 109.538 83.7734C111.208 87.1206 112.506 90.6635 114.028 94.2298C114.564 93.4732 114.2 92.7486 114.069 92.096C112.967 86.1439 112.467 80.096 112.576 74.0438C112.729 66.7284 114.426 59.605 115.27 52.3663C115.662 48.9567 116.004 45.5551 116.27 42.141C116.473 39.4113 116.551 36.7121 116.704 33.9207C116.963 28.9368 118.17 24.0481 120.262 19.5172C122.07 16.0288 124.412 12.8441 127.204 10.0785C128.789 8.42265 130.494 6.88558 132.304 5.47978C133.311 4.74831 134.451 4.22095 135.661 3.92747C136.153 3.75839 136.679 3.70929 137.194 3.78421C137.71 3.85912 138.2 4.05589 138.624 4.35821C139.047 4.66053 139.393 5.05964 139.632 5.52241C139.871 5.98516 139.995 6.49822 139.996 7.01893C140.111 8.442 139.989 9.87427 139.635 11.2574C138.014 16.9407 135.698 22.4025 132.741 27.5195C129.877 32.7913 125.974 37.3241 122.503 42.1759C119.928 45.6175 117.966 49.4771 116.703 53.5853C114.64 60.9792 113.621 68.6251 113.674 76.3012C113.676 76.7055 113.754 77.1221 113.79 77.5257C114.135 77.2485 114.386 76.8707 114.507 76.4447C115.947 72.5945 117.075 68.6345 117.879 64.6033C118.366 61.8939 118.996 59.2123 119.767 56.5698C121.553 49.8426 125.643 43.9555 131.325 39.9351C135.435 37.0362 139.388 33.9383 143.411 30.9087C145.85 28.8149 148.902 27.5694 152.109 27.3598C155.593 27.2897 157.12 28.688 157.324 32.2251C157.376 34.8481 156.85 37.4503 155.783 39.8472C154.58 42.7853 152.949 45.5289 150.942 47.9889C148.659 50.9478 146.215 53.778 143.619 56.4663C139.79 60.0177 135.653 63.2221 131.257 66.0419C125.511 70.0821 119.837 74.2254 115.78 80.1415C115.164 80.8789 114.71 81.7372 114.446 82.661C114.183 83.5848 114.116 84.5536 114.25 85.5049C114.874 89.1729 115.207 92.8886 115.95 96.5473C116.716 100.646 117.896 104.656 119.474 108.515C123.347 117.679 127.728 126.62 132.595 135.297C136.737 142.645 141.451 149.674 145.925 156.848C146.142 157.262 146.484 157.61 146.77 157.988L147.159 157.924ZM152.632 98.3814C152.74 98.7709 152.798 99.1727 152.803 99.5769C151.831 107.78 150.343 115.938 148.715 124.064C147.85 128.817 147.262 133.617 146.955 138.438C148.01 136.123 149.123 133.919 150.172 131.661C152.571 126.545 155.224 121.542 157.286 116.286C161.337 105.937 164.771 95.4185 165.94 84.207C166.885 77.1112 167.005 69.9298 166.297 62.8065C165.963 60.4066 165.468 58.0318 164.816 55.6983C164.401 54.5459 163.872 53.438 163.236 52.391C162.691 52.3097 162.133 52.3801 161.625 52.5944C161.116 52.8087 160.677 53.1587 160.354 53.6062C158.658 55.6562 157.267 57.9404 156.224 60.3881C154.209 64.1581 152.25 67.9687 150.059 71.6376C148.305 74.5657 146.169 77.2018 144.325 80.1248C141.64 84.1975 139.855 88.7963 139.09 93.614C138.533 96.9441 138.832 100.361 139.959 103.544C140.907 106.32 141.82 109.097 142.865 111.822C144.587 116.288 145.722 120.959 146.239 125.717C146.352 126.394 146.514 127.062 146.726 127.715L147.108 127.672C147.257 126.414 147.35 125.151 147.59 123.898C148.078 121.477 148.803 119.071 149.249 116.636C150.256 111.248 151.13 105.842 152.088 100.463C152.27 99.7503 152.489 99.0478 152.743 98.3582L152.632 98.3814ZM114.585 80.6814C115.207 80.0676 115.776 79.4033 116.288 78.6953C118.037 76.1871 120.105 73.9171 122.44 71.9423C127.458 67.0873 133.5 63.5431 138.941 59.2233C143.393 55.6133 147.335 51.4162 150.659 46.7468C152.421 44.496 153.865 42.0135 154.951 39.3691C155.509 37.9159 155.947 36.4197 156.262 34.8953C156.452 33.9162 156.483 32.913 156.356 31.9239C156.116 29.3565 155.242 28.5655 152.691 28.568C149.925 28.6044 147.252 29.569 145.099 31.3069C141.33 34.0502 137.592 36.8301 133.884 39.6466C131.962 41.1142 130.195 42.6764 128.318 44.3314C126.107 46.3501 124.34 48.8071 123.13 51.5459C121 56.3323 119.508 61.3777 118.692 66.5527C118.7 66.828 118.743 67.1013 118.82 67.3657C122.232 62.2566 126.449 57.7342 131.307 53.9745C123.206 61.2059 117.176 69.8315 114.585 80.6814ZM114.635 128.186C110.124 125.363 105.557 122.569 100.838 120.12C95.4864 117.265 89.5964 115.562 83.5471 115.121C79.8029 115.03 76.0763 115.662 72.5707 116.98C67.6754 118.619 62.8097 120.348 57.9658 122.119C57.4605 122.296 57.0139 122.619 56.1492 122.95L57.8255 123.46C63.6633 125.357 69.5215 127.226 75.3601 129.158C81.9359 131.354 88.5888 133.227 95.5916 133.086C99.0756 133.016 102.687 132.686 106.217 132.468C111.155 131.981 116.141 132.458 120.897 133.874C121.126 133.924 121.361 133.943 121.596 133.929L121.817 133.514C119.399 131.792 117.156 129.801 114.649 128.214L114.635 128.186ZM110.91 89.9707C110.743 89.6534 110.756 89.2419 110.631 88.9028C110.381 88.1994 110.095 87.5095 109.774 86.8358C105.859 79.0167 104.351 70.5845 103.432 62.0011C102.761 55.6758 102.044 49.3631 101.281 43.063C100.945 39.9011 100.133 36.8081 98.8725 33.8891C98.4641 32.9226 97.8998 32.0297 97.2021 31.246C96.9951 30.9596 96.73 30.7201 96.424 30.5433C96.1181 30.3665 95.7782 30.2563 95.4267 30.2199C95.0752 30.1836 94.72 30.2219 94.3844 30.3323C94.0487 30.4428 93.7401 30.6228 93.4789 30.8608C91.5762 31.9776 90.1413 33.7444 89.4384 35.8356C88.5654 38.1599 87.9501 40.5729 87.6035 43.0315C86.8508 51.0587 88.0787 59.1481 91.1795 66.5904C92.9001 70.5305 95.2731 74.152 98.1985 77.3026C101.107 80.5273 103.934 83.8304 106.851 87.0689C106.947 87.1781 107.065 87.2659 107.197 87.3269C107.329 87.3879 107.472 87.4206 107.617 87.4229C107.357 86.9262 107.103 86.4434 106.842 85.9467C104.704 81.877 102.345 77.9233 100.338 73.8021C97.8501 68.4239 96.2984 62.6606 95.7497 56.7603C95.7218 56.5245 95.7147 56.2867 95.7284 56.0497L96.0899 56.0006C97.3472 68.9479 103.517 79.7191 110.925 89.9983L110.91 89.9707ZM118.385 46.0997L118.639 46.2479C118.861 46.0206 119.07 45.7813 119.266 45.5312C120.905 43.1212 122.423 40.6161 124.258 38.2788C130.142 30.6808 135.454 22.7318 138.292 13.4593C138.861 11.7017 139.193 9.87573 139.278 8.03018C139.364 5.37956 137.604 4.20903 135.202 5.40056C133.247 6.33925 131.451 7.57978 129.881 9.07666C126.63 12.0831 123.894 15.6021 121.782 19.4936C120.041 22.8751 118.926 26.544 118.493 30.3226C118.019 35.149 117.76 39.9849 117.67 44.8384C119.833 39.2459 121.675 33.5348 123.188 27.7327L123.616 27.8774L118.385 46.0997ZM115.997 125.886C112.537 122.317 109.064 118.755 105.474 115.307C102.503 112.364 99.0813 109.913 95.3387 108.046C86.5135 103.88 77.9617 104.289 70.0546 110.415C68.8055 111.389 67.7086 112.651 66.532 113.763L59.0678 120.765C58.8944 120.987 58.7338 121.218 58.5868 121.458C59.2387 121.291 59.6837 121.234 60.1404 121.064C63.0952 119.987 66.0391 119.056 68.9004 117.835C80.1314 113.043 91.0381 114.301 101.738 119.488C107.394 122.196 112.752 125.488 117.724 129.309C118.022 129.534 118.339 129.733 118.67 129.903C119.01 130.034 119.36 130.139 119.715 130.217C118.295 128.552 117.206 127.117 115.997 125.886ZM119.507 158.669C122.752 164.531 126.601 170.037 130.991 175.098C132.202 176.599 133.528 178.004 134.958 179.298C136.897 180.947 138.965 182.439 141.14 183.76C144.642 185.676 148.424 187.027 152.346 187.766C142.815 181.296 134.435 173.275 127.555 164.035C128.975 165.665 130.374 167.289 131.834 168.828C133.294 170.367 134.644 171.999 136.199 173.418C139.053 176.002 141.916 178.635 144.988 180.964C148.832 183.892 152.866 186.578 156.873 189.278C157.883 189.886 159.014 190.265 160.185 190.39C160.049 190.194 159.898 190.009 159.735 189.834C157.064 187.33 154.379 184.832 151.7 182.314C148.033 178.854 144.429 175.343 140.728 171.918C136.352 167.845 132.024 163.729 127.389 159.932C125.309 158.474 123.07 157.259 120.714 156.309C120.257 156.075 119.645 156.184 118.724 156.105C118.909 156.965 119.164 157.809 119.485 158.627L119.507 158.669ZM40.3808 145.441C41.2894 145.694 42.2338 145.792 43.175 145.733C49.2034 144.978 54.7956 143.325 58.9406 138.348C61.6229 135.181 63.6721 131.529 64.9769 127.589C64.4937 127.124 63.9401 126.737 63.3367 126.444C60.8607 125.685 58.3506 124.962 55.8151 124.358C55.0603 124.139 54.2555 124.165 53.5167 124.433C52.7779 124.701 52.1433 125.197 51.7044 125.848C50.4969 127.504 49.169 129.064 48.0464 130.781C45.9725 133.943 43.6454 136.932 41.0882 139.718C40.4818 140.341 39.9288 141.015 39.4348 141.731C38.9821 142.444 38.6847 143.252 38.149 144.343C38.8414 144.767 39.5721 145.126 40.3315 145.414L40.3808 145.441ZM195.696 144.728C196.938 144.075 198.028 143.168 199.335 142.306C198.527 141.336 197.371 140.723 196.115 140.6C192.949 140.024 189.682 140.504 186.815 141.965C181.215 144.513 175.895 147.639 170.942 151.29C168.24 153.106 166.11 155.654 164.803 158.636C163.322 162.318 163.704 166.061 164.061 170.292C170.391 157.478 180.371 149.4 193.019 144.357C185.316 147.719 178.408 152.668 172.747 158.88C179.728 153.135 187.738 149.015 195.647 144.701L195.696 144.728ZM124.026 121.668C127.287 129.473 131.135 137.02 135.536 144.244C143.761 158.006 152.749 171.297 162.456 184.057C169.508 193.29 176.779 202.338 183.838 211.551C188.055 217.064 192.08 222.748 196.194 228.367C196.353 228.671 196.643 228.888 197.136 229.456C197.205 227.276 196.679 225.118 195.616 223.213C194.259 220.973 192.768 218.817 191.15 216.758C183.432 206.959 175.61 197.232 167.878 187.44C164.795 183.549 161.589 179.759 158.568 175.819C155.174 171.37 152.042 166.749 148.621 162.314C143.879 156.004 140.131 149.171 136.079 142.498C133.397 138.097 130.895 133.603 128.42 129.094C126.971 126.335 125.696 123.642 124.338 120.923C124.092 120.453 123.838 119.971 123.613 119.543L123.337 119.688C123.511 120.319 123.733 120.977 124.026 121.668Z" fill="#C1BADD"/>
<path id="flor5_57" d="M152.632 98.3814C153.023 97.8951 153.33 97.3471 153.541 96.7598C154.108 92.7472 154.606 88.736 155.104 84.7247C155.129 84.5709 155.042 84.4054 154.731 84.2164L152.75 98.3372L152.632 98.3814Z" fill="#C1BADD"/>
</g>
<defs>
<clipPath id="clip0_37_702">
<rect width="159.315" height="229.785" fill="white" transform="translate(0.563477 74.75) rotate(-27.7178)"/>
</clipPath>
</defs>
</svg>
