<svg width="396" height="396" viewBox="0 0 396 396" fill="none" xmlns="http://www.w3.org/2000/svg">
<g id="flor2" clip-path="url(#clip0_33_111)">
<path id="flor2_2" d="M209.865 166.385C202.568 160.078 196.113 152.76 187.309 148.326C196.82 151.827 203.162 159.343 209.865 166.385Z" fill="#F1D8E7"/>
<path id="flor2_3" d="M197.277 129.953C186.416 140.701 178.228 147.335 173.725 149.478C181.531 143.001 189.407 136.48 197.277 129.953Z" fill="#F1D8E7"/>
<path id="flor2_4" d="M201.07 146.065C210.456 140.782 219.358 134.683 227.674 127.838C224.852 132.186 207.538 144.16 201.07 146.065Z" fill="#F1D8E7"/>
<path id="flor2_5" d="M217.869 146.105C226.398 148.977 233.342 154.38 239.742 160.61C236.21 157.983 232.769 155.207 229.096 152.792C225.422 150.377 221.614 148.336 217.869 146.105Z" fill="#F1D8E7"/>
<path id="flor2_6" d="M261.912 134.414C254.92 139.343 248.16 144.704 239.629 146.807C247.596 143.658 254.517 138.615 261.912 134.414Z" fill="#F1D8E7"/>
<path id="flor2_7" d="M162.742 151.096C169.977 154.668 174.928 160.807 179.935 166.875C177.823 165.427 176.283 163.379 174.489 161.599C172.695 159.819 170.88 157.904 168.909 156.259C166.938 154.613 164.635 153.102 162.48 151.541L162.742 151.096Z" fill="#F1D8E7"/>
<path id="flor2_8" d="M230.321 133.653C224.375 138.314 218.662 143.363 211.057 145.317C217.97 142.232 223.98 137.678 230.321 133.653Z" fill="#F1D8E7"/>
<path id="flor2_9" d="M288.61 138.965C282.883 142.714 276.994 146.074 270.294 147.208C276.317 144.491 282.474 141.724 288.61 138.965Z" fill="#F1D8E7"/>
<path id="flor2_10" d="M257.325 147.646C262.081 148.85 266.476 151.18 270.142 154.438L257.325 147.646Z" fill="#F1D8E7"/>
<path id="flor2_11" d="M97.4517 155.159L101.376 165.277C105.314 175.381 109.45 185.457 113.141 195.611C115.244 201.362 116.633 207.376 118.524 213.213C120.536 219.696 121.914 226.361 122.64 233.112C123.45 239.748 124.089 246.412 124.955 253.048C126.605 266.325 132.426 278.731 141.58 288.481C149.483 297.092 157.09 305.957 164.796 314.71C166.268 316.347 167.574 318.126 168.694 320.022C168.486 319.925 168.291 319.802 168.115 319.655C158.194 308.546 148.275 297.43 138.358 286.306C132.764 280.019 129.143 272.636 126.447 264.722C123.9 257.296 123.254 249.55 122.601 241.84C122.579 241.579 122.58 241.31 122.544 241.049C121.975 236.236 121.631 231.423 120.672 226.717C119.467 220.788 117.915 214.923 116.18 209.129C114.317 203.024 112.271 196.933 110.041 190.941C106.216 180.639 102.108 170.365 98.1841 160.063C96.8926 156.664 95.7778 153.202 94.6843 149.718C101.048 157.55 106.581 166.021 111.194 174.997C114.763 182.067 117.572 189.497 119.571 197.162C121.214 203.727 122.582 210.369 123.893 217.04C125.444 224.743 126.62 232.495 128.361 240.176C130.97 251.426 135.608 261.918 141.235 271.972C146.721 281.786 153.382 290.893 161.073 299.093C163.444 301.519 165.661 304.091 167.712 306.793C169.441 309.368 171.005 312.051 172.393 314.826C172.644 315.457 172.691 316.152 172.526 316.812C169.83 309.873 164.815 304.745 159.928 299.475C147.885 286.513 139.292 271.415 132.537 255.199C129.624 248.117 127.468 240.746 126.103 233.209C124.891 226.623 123.627 220.051 122.312 213.493C119.591 199.728 115.853 186.259 109.265 173.817C105.982 167.607 102.042 161.743 98.3843 155.738C98.1926 155.463 97.9698 155.212 97.7204 154.989L97.4517 155.159Z" fill="#F1D8E7"/>
<path id="flor2_12" d="M163.237 321.41C162.408 320.841 161.622 320.21 160.885 319.525C157.156 315.569 153.377 311.649 149.782 307.573C144.343 301.427 139.088 295.126 133.664 288.966C127.401 281.64 122.547 273.218 119.345 264.125C116.338 255.733 114.172 247.062 112.878 238.241C111.342 228.475 109.651 218.68 108.095 208.893C107.083 203.016 105.597 197.231 103.652 191.595C101.803 185.998 101.128 180.175 100.388 175.349C102.547 182.825 105.249 191.127 107.308 199.593C109.051 206.882 110.425 214.255 111.424 221.683C112.754 231.145 114.05 240.587 116.179 249.928C117.985 258.098 120.796 266.011 124.548 273.486C127.563 279.356 131.357 284.79 135.826 289.643C140.806 295.118 145.439 300.911 150.319 306.47C154.374 311.09 158.576 315.589 162.708 320.146L163.52 321.085L163.237 321.41Z" fill="#F1D8E7"/>
<path id="flor2_13" d="M100.979 206.36C101.31 208.388 101.613 210.416 101.973 212.43C104.523 226.775 106.862 241.135 109.688 255.416C112.648 270.679 120.341 284.616 131.675 295.25C137.41 300.745 143.252 306.12 149.045 311.559C149.815 312.195 150.398 313.027 150.732 313.968C149.44 312.958 148.055 312.04 146.861 310.917C140.002 304.412 132.931 298.09 126.426 291.246C119.338 283.774 114.151 274.707 111.302 264.808C110.06 260.54 109.017 256.201 108.128 251.848C107.24 247.495 106.67 242.852 105.874 238.365C104.225 229.136 102.492 219.921 100.836 210.699C100.639 209.227 100.517 207.746 100.471 206.261C100.626 206.317 100.803 206.338 100.979 206.36Z" fill="#F1D8E7"/>
<path id="flor2_14" d="M108.385 167.917C112.262 171.831 115.644 176.206 118.456 180.943C122.705 187.839 126.086 195.234 128.522 202.96C130.418 209.19 131.572 215.622 131.961 222.124C132.97 239.043 137.308 254.723 147.682 268.492C151.524 273.592 154.624 279.251 158.049 284.67C158.313 285.12 158.477 285.621 158.528 286.14C152.442 275.811 144.319 266.811 139.003 255.994C134.884 247.381 132.433 238.063 131.781 228.534C131.079 220.195 130.341 211.779 127.773 203.737C124.439 193.102 119.409 183.077 112.877 174.049L108.385 167.917Z" fill="#F1D8E7"/>
<path id="flor2_15" d="M224.622 246.648C226.323 250.3 227.374 254.222 227.725 258.237C228.638 269.671 226.978 280.98 225.792 292.267C225.715 293.706 225.431 295.128 224.948 296.486C225.084 293.864 225.156 291.249 225.348 288.627C225.889 281.532 226.593 274.457 227.013 267.354C227.42 260.463 227.028 253.636 224.233 247.164C224.183 247.115 224.183 246.959 224.219 246.91C224.254 246.86 224.402 246.782 224.622 246.648Z" fill="#F1D8E7"/>
<path id="flor2_16" d="M240.733 276.251C246.882 288.411 246.155 301.387 246.091 314.235C245.923 311.762 245.776 309.281 245.579 306.794C245.102 300.857 244.886 294.872 244.02 288.985C243.379 284.752 241.89 280.618 240.733 276.251Z" fill="#F1D8E7"/>
<path id="flor2_17" d="M204.297 219.096C204.953 221.266 205.891 223.336 206.131 225.512C207.049 234.55 206.878 243.666 205.621 252.665C205.507 252.199 205.434 251.724 205.403 251.245C205.548 245.04 205.897 238.827 205.816 232.622C205.755 228.106 205.672 223.527 203.766 219.259L204.297 219.096Z" fill="#F1D8E7"/>
<path id="flor2_18" d="M221.833 241.059C230.18 246.212 238.921 250.697 247.975 254.473C238.518 251.625 229.66 247.079 221.833 241.059Z" fill="#F1D8E7"/>
<path id="flor2_19" d="M239.555 246.887C230.291 243.281 221.375 239.059 214.389 231.621C222.032 238.006 230.723 242.553 239.555 246.887Z" fill="#F1D8E7"/>
<path id="flor2_20" d="M232.677 261.944L251.918 281.016C248.781 279.76 236.731 268.006 232.677 261.944Z" fill="#F1D8E7"/>
<path id="flor2_21" d="M199.917 214.321C201.633 216.674 201.342 219.649 201.397 222.434C201.472 228.462 201.285 234.512 201.218 240.54L200.462 240.533C200.52 237.65 200.656 234.816 200.692 231.954C200.729 229.091 200.766 226.088 200.634 223.169C200.501 220.25 200.135 217.183 199.917 214.321Z" fill="#F1D8E7"/>
<path id="flor2_22" d="M88.3496 127.714C88.8434 128.048 89.3578 128.35 89.8898 128.618C95.9995 131.374 101.805 134.757 107.213 138.715C110.684 141.234 114.52 143.205 118.589 144.561C121.542 145.563 124.475 146.628 127.428 147.644C131.625 149.098 135.739 148.813 140.05 147.963C154.186 145.128 167.214 139.376 180.504 134.224C189.481 130.662 198.891 128.311 208.487 127.233C222.703 125.763 237.062 126.626 250.995 129.79C266.909 133.344 282.865 136.685 298.807 140.083C302.56 140.88 306.34 141.478 310.093 142.218C310.974 142.438 311.84 142.714 312.686 143.044L312.693 143.616C312 144.118 311.241 144.521 310.437 144.812C305.426 145.882 300.958 148.358 296.258 150.233C285.266 154.614 274.309 159.086 263.303 163.41C257.633 165.616 251.601 166.736 245.52 166.713C239.562 166.723 233.597 166.557 227.632 166.503C225.847 166.46 224.061 166.52 222.282 166.683C217.667 167.187 213.073 167.91 208.451 168.308C199.489 169.105 190.485 170.466 181.56 168.499C176.338 167.347 171.216 165.785 166.24 163.829C157.867 160.533 149.671 156.749 141.369 153.27C138.765 152.113 136.062 151.194 133.293 150.525C128.634 149.386 124.067 147.905 119.627 146.094C119.04 145.834 118.383 145.78 117.761 145.939C119.69 147.486 121.625 149.012 123.518 150.579C131.289 156.936 138.777 163.575 146.675 169.649C154.022 175.313 161.751 180.482 169.374 185.786C171.712 187.431 174.234 188.836 176.467 190.602C182.612 195.475 189.586 198.814 196.666 202.047C205.201 205.929 213.673 209.989 221.104 215.752C232.768 224.813 242.373 235.606 247.963 249.455C250.434 255.546 252.148 261.941 254.095 268.23C255.626 273.169 256.959 278.165 258.433 283.118C260.267 289.351 262.165 295.576 264.006 301.816C265.975 308.479 267.865 315.164 269.862 321.813C271.858 328.462 273.911 334.914 275.887 341.471C276.145 342.551 276.333 343.646 276.45 344.75C274.902 345.719 273.97 344.815 273.122 344.094C269.764 341.293 266.446 338.446 263.169 335.555C255.794 329.071 248.334 322.687 241.115 316.033C232.024 307.635 224.121 298.247 219.109 286.758C217.048 282.038 215.34 277.177 213.293 272.457C210.216 265.207 206.742 258.085 203.827 250.758C200.912 243.431 198.62 235.976 196.086 228.564C193.553 221.152 191.239 213.633 188.586 206.313C186.657 201.088 183.099 196.622 178.437 193.576C170.842 188.456 163.276 183.181 155.688 177.983C155.406 177.786 155.074 177.666 154.183 177.214C155.595 180.04 156.732 182.379 157.968 184.661C159.923 188.271 161.264 192.183 161.933 196.235C162.546 199.773 162.12 203.414 160.705 206.716C159.927 208.611 158.894 210.407 158.129 212.315C157.033 215.037 156.077 217.815 155.072 220.571C154.718 221.561 154.371 222.558 154.095 223.314C152.222 224.354 151.289 223.464 150.527 222.22C149.507 220.639 148.859 218.846 148.631 216.977C148.403 215.108 148.601 213.212 149.211 211.429C149.992 209.242 150.895 207.099 151.914 205.011C154.978 198.288 156.664 191.375 155.091 183.963C154.186 179.459 151.72 175.421 148.129 172.56C139.737 165.751 131.5 158.759 123.058 152.028C112.102 143.377 100.933 135.036 88.0872 129.361C84.6038 127.843 80.9649 126.595 77.446 125.254L77.1278 125.741C77.5869 126.201 78.0389 126.653 78.4981 127.112C83.4807 131.84 87.8383 137.186 91.4652 143.02C97.8675 153.11 105.046 162.685 112.935 171.66C119.003 178.675 124.483 186.18 129.319 194.097C133.271 200.575 136.145 207.653 137.831 215.054C139.438 221.823 140.686 228.671 142.378 235.412C145.044 246.266 147.285 257.219 151.372 267.599C154.809 276.424 159.667 284.549 164.412 292.702C167.596 298.178 170.675 303.689 172.693 309.723C173.563 311.898 173.837 314.267 173.488 316.585C173.187 318.274 172.286 319.797 170.95 320.874C169.613 321.95 167.933 322.507 166.219 322.441C163.874 322.515 161.562 321.868 159.598 320.585C147.843 312.323 135.599 304.676 124.954 294.964C116.238 287.07 109.998 276.817 106.99 265.446C105.941 262.132 105.093 258.758 104.452 255.341C103.783 250.684 103.566 245.97 103.258 241.235C102.949 236.501 102.98 231.949 102.318 227.384C100.709 217.169 100.047 206.826 100.342 196.487C100.43 190.081 100.162 183.675 99.539 177.3C99.2304 172.748 98.5544 168.254 97.8783 163.759C96.7458 156.51 94.1216 149.576 90.1717 143.396C86.6325 137.712 82.4001 132.492 77.5719 127.854C75.0989 125.382 72.0821 123.523 68.7618 122.424C64.3455 121.02 59.9363 119.553 55.5412 118.085C54.764 117.831 53.6332 117.86 53.9309 116.163C54.8283 116.396 55.747 116.565 56.6231 116.862C64.0213 119.352 71.3276 121.808 78.6904 124.264C83.7122 125.861 88.9784 126.554 94.2444 126.312C98.4059 126.008 102.289 124.1 105.074 120.991C106.768 119.152 108.205 117.093 109.346 114.869C111.292 111.256 112.926 107.475 114.766 103.799C117.001 99.246 119.774 95.089 124.397 92.613C125.858 91.7756 127.466 91.2276 129.133 90.9991C131.777 90.7432 133.125 92.6578 132.29 95.16C131.935 96.2686 131.428 97.3226 130.783 98.2917C128.598 101.452 126.448 104.647 124.043 107.631C121.023 111.4 117.792 114.984 114.595 118.605C108.634 125.371 100.986 128.089 92.0741 127.507C90.8586 127.423 89.6501 127.374 88.4417 127.311L88.3496 127.714ZM96.7527 154.035C97.0348 155.095 97.19 155.59 97.3028 156.099C98.2123 160.19 99.2985 164.246 99.9465 168.373C100.552 172.246 100.776 176.175 100.965 180.069C101.245 185.129 101.666 190.217 101.466 195.278C101.118 206.234 101.767 217.198 103.406 228.034C104.05 232.533 104.387 237.071 104.416 241.616C104.479 251.09 106.184 260.479 109.455 269.367C113.866 281.533 121.911 292.046 132.499 299.483C140.737 305.457 149.038 311.354 157.339 317.251C158.625 318.216 160.002 319.053 161.45 319.75C162.812 320.398 164.279 320.797 165.782 320.928C170.001 321.188 172.738 318.211 172.189 313.999C172.042 312.308 171.63 310.651 170.969 309.088C168.406 303.697 165.688 298.405 162.906 293.134C159.376 286.436 155.592 279.866 152.175 273.125C148.532 265.919 146.529 258.132 144.681 250.316C142.347 240.416 140.006 230.523 137.771 220.609C136.379 213.974 134.276 207.509 131.499 201.325C127.771 193.356 122.63 186.277 117.291 179.368C110.914 171.124 103.688 163.544 97.8335 154.876C97.497 154.567 97.1355 154.285 96.7527 154.035ZM142.967 152.053L142.889 152.428C143.323 152.702 143.774 152.95 144.238 153.169C154.017 157.108 163.726 161.159 173.491 165.013C178.245 166.847 183.277 167.857 188.373 168.001C197.306 168.321 206.169 167.412 214.996 166.34C220.566 165.625 226.182 165.336 231.796 165.476C237.746 165.643 243.718 165.675 249.676 165.382C256.807 165.032 263.374 162.336 269.913 159.696C277.335 156.691 284.764 153.712 292.201 150.758C298.167 148.366 304.147 146.003 310.325 143.54C309.611 143.349 309.046 143.166 308.438 143.067C292.419 139.775 276.3 136.667 260.308 133.276C244.578 129.921 228.883 126.869 212.642 128.418C203.459 129.134 194.401 131.005 185.684 133.988C179.124 136.309 172.692 138.928 166.21 141.383C159.544 143.924 152.913 146.472 145.902 147.946C143.294 148.491 140.721 149.199 138.127 149.844C139.324 150.329 140.586 150.638 141.872 150.76C152.67 151.956 163.42 150.982 174.114 149.683C181.295 148.817 188.419 147.428 195.558 146.237C202.6 145.139 209.739 144.801 216.852 145.229C226.435 145.578 236.039 146.329 245.615 146.882C256.015 147.386 266.438 147.173 276.81 146.243C284.26 145.646 291.695 144.878 299.13 144.196C298.994 144.381 298.818 144.532 298.614 144.637C298.411 144.743 298.186 144.8 297.957 144.804C292.105 145.429 286.224 145.871 280.407 146.715C272.818 147.81 265.151 148.265 257.488 148.077C246.215 147.793 234.95 147.107 223.685 146.448C212.915 145.804 202.152 145.845 191.493 147.745C183.316 149.169 175.067 150.213 166.848 151.383C160.932 152.205 154.953 152.48 148.988 152.205C146.981 152.122 145.002 152.137 142.967 152.053ZM189.11 203.514C192.505 211.42 194.353 219.66 197.02 227.645C199.482 234.986 201.853 242.377 204.782 249.549C209.066 260.452 213.824 271.177 218.179 282.052C223.225 294.65 231.297 305.07 241.088 314.238C251.21 323.653 261.651 332.736 271.971 341.939C272.939 342.794 274.069 343.472 275.122 344.242C275.243 343.298 275.11 342.339 274.735 341.464C273.874 338.935 272.935 336.441 272.131 333.897C270.602 329.059 269.116 324.207 267.672 319.34C266.296 314.726 264.999 310.091 263.679 305.448C261.761 299.075 259.87 292.659 257.972 286.264C256.145 280.024 254.367 273.763 252.491 267.545C250.868 262.175 249.451 256.713 247.347 251.498C240.635 234.788 229.009 222.129 213.968 212.547C205.978 207.456 197.244 203.729 188.66 199.783C188.235 199.666 187.799 199.596 187.36 199.571C188.186 200.468 188.709 201.048 189.26 201.627C203.912 216.963 216.902 233.806 228.011 251.876C238.349 268.846 246.756 286.814 255.192 304.796C258.587 312.038 261.637 319.443 264.848 326.77L266.606 330.734C266.415 330.826 266.224 330.918 266.026 331.002C264.219 327.371 262.221 323.817 260.612 320.1C254.372 305.63 247.602 291.421 240.5 277.361C231.802 260.178 222.27 243.49 210.221 228.387C204.324 221.004 198.207 213.813 192.154 206.558C191.192 205.493 190.176 204.477 189.11 203.514ZM113.607 117.291L114.002 117.601C117.8 113.126 121.668 108.707 125.352 104.132C127.142 101.797 128.781 99.3504 130.261 96.8078C130.832 95.6896 131.303 94.5234 131.669 93.3229C129.451 91.3028 127.472 92.1802 125.697 93.1494C123.549 94.2602 121.66 95.8139 120.156 97.7079C118.652 99.6019 117.566 101.793 116.971 104.137C115.774 108.54 114.69 112.944 113.571 117.326L113.607 117.291ZM157.5 186.258L156.822 186.358C157.308 189.319 157.829 192.272 158.273 195.233C159.167 201.134 158.338 206.47 152.979 210.162C152.841 210.279 152.713 210.407 152.597 210.544C149.266 213.875 148.968 216.617 151.255 221.436C151.727 222.114 152.285 222.729 152.915 223.265C153.375 222.028 153.701 221.222 153.977 220.452C155.109 217.342 156.142 214.246 157.324 211.185C158.131 209.163 159.136 207.339 159.935 205.31C162.504 198.489 160.423 192.306 157.5 186.258ZM151.219 209.888C157.511 206.421 158.737 199.191 156.647 195.432L151.219 209.888ZM114.559 107.495C111.446 112.868 109.514 118.445 105.003 122.956C110.65 121.745 113.869 115.361 114.559 107.495Z" fill="#F1D8E7"/>
</g>
<defs>
<clipPath id="clip0_33_111">
<rect width="319" height="240.25" fill="white" transform="translate(225.567 395.69) rotate(-135)"/>
</clipPath>
</defs>
</svg>
