<svg width="315" height="362" viewBox="0 0 315 362" fill="none" xmlns="http://www.w3.org/2000/svg">
<g id="flor1" clip-path="url(#clip0_33_133)">
<path id="flor1_2" d="M315 121.559C302.143 122.981 289.469 125.732 277.181 129.769C259.916 135.532 243.719 143.283 229.874 155.384C223.426 161.208 217.883 167.96 213.431 175.417C213.047 176.039 212.717 176.693 212.445 177.371C211.986 178.3 211.873 179.362 212.126 180.367C212.379 181.371 212.982 182.253 213.826 182.856C214.724 183.387 215.787 183.569 216.811 183.37C217.836 183.17 218.751 182.601 219.384 181.772C220.814 180.067 222.143 178.28 223.363 176.419C229.303 167.629 237.015 160.175 246.005 154.531C266.807 141.319 290.502 133.331 315.066 131.247L315.066 128.603C313.94 128.908 312.798 129.15 311.646 129.326C296.736 130.97 282.136 134.724 268.285 140.475C248.734 148.39 231.519 159.457 219.597 177.437C219.206 178.039 218.742 178.59 218.216 179.079C217.44 179.668 216.633 180.216 215.799 180.721C215.108 177.782 215.092 177.765 216.358 175.598C221.056 167.422 227.227 160.185 234.56 154.251C248.981 142.642 265.556 135.303 283.15 130.097C293.575 127.01 304.098 124.317 315.066 124.038L315 121.559Z" fill="#F1EDFF"/>
<path id="flor1_3" d="M122.649 320.539C123.093 324.726 122.468 328.749 125.937 331.606C127.184 332.064 128.523 332.214 129.841 332.043C131.158 331.871 132.414 331.383 133.501 330.621C137.274 328.366 140.772 325.683 143.926 322.624C151.128 314.71 157.87 306.368 164.76 298.175C165.697 297.074 166.519 295.892 167.769 294.234C172.948 309.357 172.274 325.202 177.158 339.209C180.002 340.769 181.63 339.948 182.913 338.306C183.842 337.171 184.616 335.917 185.215 334.578C191.545 319.127 198.238 303.774 202.118 287.469C203.615 281.245 204.009 274.759 204.897 268.388C205.029 267.42 205.094 266.434 205.275 264.628C206.018 265.581 206.71 266.574 207.347 267.6C212.543 277.617 217.673 287.682 222.886 297.698C223.816 299.673 224.934 301.553 226.224 303.314C227.432 304.572 228.759 305.711 230.187 306.713C233.475 305.071 233.738 302.542 233.722 299.997L233.722 275.367C233.633 272.288 233.798 269.207 234.215 266.155C236.517 270.983 238.688 275.892 241.154 280.621C248.8 295.268 260.31 306.533 273.267 316.385C276.899 318.864 280.752 321.002 284.778 322.772C287.863 324.186 291.324 324.566 294.643 323.856C298.113 323.265 299.248 321.212 298.244 317.797C297.865 316.535 297.387 315.305 296.814 314.119C287.787 295.827 282.525 276.352 278.727 256.451C276.063 242.658 273.185 228.898 268.318 215.647C261.741 197.502 249.754 183.496 234.38 172.248C230.833 169.954 227.155 167.87 223.363 166.008C223.905 165.138 224.432 164.136 225.089 163.25C234.232 150.754 238.03 136.583 239.017 121.312C240.184 103.365 236.961 85.9927 233.261 68.6365C230.175 54.3037 228.523 39.7001 228.329 25.0409C228.329 19.77 227.967 14.4826 227.391 9.24456C226.98 5.46789 226.092 1.64203 221.85 0.229886C220.865 0.355832 219.94 0.775937 219.198 1.43512C218.456 2.09433 217.93 2.96191 217.69 3.92443C216.281 7.1286 215.078 10.4193 214.089 13.7765C211.072 25.1119 206.654 36.0279 200.934 46.2722C198.254 51.3296 195.557 56.387 192.894 61.4445C186.049 74.1305 181.974 88.1216 180.94 102.495C180.849 103.668 180.667 104.831 180.397 105.976C180.217 106.469 179.968 106.933 179.657 107.355C178.917 106.222 178.243 105.303 177.651 104.334C168.805 89.5559 156.801 78.2259 140.868 71.3787C130.903 67.093 120.692 63.3328 110.793 58.8829C93.3672 51.0654 76.6154 41.8279 60.7078 31.2641C55.3364 27.6845 49.8554 24.2746 44.2648 21.0344C42.0756 20.0937 39.7941 19.3837 37.4573 18.9161C37.26 21.1821 36.6516 22.8076 37.0791 24.1213C38.0354 27.7942 39.467 31.327 41.3379 34.6302C45.1191 40.7279 49.3512 46.535 53.9991 52.0028C65.7723 65.336 77.3647 78.7842 87.9869 93.0534C95.1007 103.048 104.579 111.132 115.578 116.584C105.91 117.06 96.899 117.405 87.9211 117.963C78.9432 118.521 69.8338 119.096 61.6122 121.641C61.033 122.742 60.9064 124.025 61.2595 125.218C61.6126 126.411 62.4175 127.419 63.5032 128.028C68.4361 131.723 73.4841 135.237 78.5157 138.784C79.8383 139.537 81.0409 140.484 82.0838 141.592C80.4395 141.427 78.7952 141.165 77.1509 141.148C59.8941 140.647 42.6616 142.774 26.0458 147.454C20.077 149.243 14.5357 152.38 8.87925 155.253C6.7024 156.481 4.74165 158.056 3.07484 159.916C-1.03591 164.186 -1.03591 169.769 3.66679 173.381C7.09022 176.102 10.9945 178.157 15.1769 179.44C25.1908 182.215 35.4019 184.366 45.5473 186.55C48.9839 187.322 52.4698 187.782 55.9229 188.471C57.1867 188.838 58.423 189.293 59.6226 189.834C47.6815 194.633 36.8691 201.858 27.871 211.049C25.6922 213.23 23.639 215.532 21.7213 217.946C20.7989 218.943 20.1446 220.157 19.8197 221.475C19.4948 222.793 19.5097 224.172 19.8632 225.482C20.5494 226.589 21.5238 227.488 22.6824 228.084C23.841 228.68 25.1401 228.95 26.4405 228.865C32.2777 228.651 38.0986 228.11 43.9194 227.551C48.392 227.141 52.8316 226.5 57.3041 225.909L57.633 226.911C56.5313 227.765 55.4461 228.651 54.3444 229.44C45.6789 235.318 37.3915 241.656 31.1761 250.228C28.7608 253.36 26.7551 256.786 25.2072 260.425C22.1159 268.438 26.5226 274.398 35.1553 274.71C43.384 274.865 51.5903 273.802 59.5075 271.557C70.1415 268.703 80.5024 264.917 90.4698 260.244C91.4892 259.768 92.558 259.39 94.4161 258.602C93.3309 261.443 92.3607 263.528 91.7195 265.696C89.1814 274.08 85.5315 282.087 80.867 289.505C74.4871 299.866 71.8727 311.705 70.8203 323.79C70.1531 329.611 69.8948 335.471 70.0475 341.327C70.3845 346.43 71.2889 351.481 72.7441 356.384C74.2733 361.77 77.562 363.264 82.61 360.785C86.7233 358.849 90.5161 356.296 93.857 353.215C103.937 343.363 114.016 333.511 121.613 321.458C121.929 321.121 122.276 320.813 122.649 320.539Z" fill="#FFFDFE"/>
<path id="flor1_4" d="M162.359 242.182C164.003 239.308 165.763 236.468 167.292 233.545C168.27 231.371 169.536 229.338 171.057 227.502C170.432 229.768 169.89 232.05 169.183 234.284C163.232 252.355 156.063 270.003 147.725 287.107C146.919 288.749 146.393 290.638 145.751 292.411L145.653 292.329C154.74 276.302 162.351 259.484 168.393 242.083C169.923 237.83 171.271 233.495 172.455 229.144C173.08 226.878 173.655 224.399 171.139 221.755L162.458 242.247L162.359 242.182Z" fill="#F1EDFF"/>
<path id="flor1_5" d="M101.388 194.596C99.3162 195.515 97.2443 196.468 95.1561 197.354C90.8809 199.144 86.5892 200.885 82.2976 202.658L82.2154 202.658C91.6318 199.735 101.043 196.818 110.448 193.906C105.828 193.299 101.404 191.542 96.6853 193.184C82.2318 198.225 67.729 203.036 53.2426 207.962C52.875 208.159 52.5418 208.414 52.2561 208.717L52.1739 208.635C59.3759 206.402 66.578 204.153 73.7965 201.969C81.5741 199.604 89.3681 197.24 97.1786 194.974C98.593 194.706 100.031 194.579 101.47 194.596L102.868 193.906L103.016 194.497L101.388 194.596Z" fill="#F1EDFF"/>
<path id="flor1_6" d="M195.804 190.015C197.078 187.767 198.209 185.442 199.191 183.053C201.345 176.879 203.253 170.622 205.489 163.66C205.973 164.623 206.348 165.636 206.607 166.682C207.183 172.938 205.489 178.849 203.45 184.645C201.559 190.015 199.389 195.286 197.383 200.622C196.824 202.116 196.396 203.66 195.903 205.171C196.413 204.68 196.861 204.129 197.235 203.529C201.477 194.382 205.686 185.187 207.594 175.22C208.613 169.9 209.238 164.416 204.946 159.949L195.87 190.113L195.804 190.015Z" fill="#F1EDFF"/>
<path id="flor1_7" d="M123.553 94.2684C128.848 98.6526 134.225 102.955 139.421 107.405C148.3 115.073 157.064 122.889 165.911 130.606C167.043 131.463 168.235 132.236 169.479 132.922C168.259 131.139 166.93 129.434 165.5 127.815C153.118 115.319 139.191 104.728 124.918 94.4819C124.523 94.2926 124.102 94.1653 123.668 94.1043L123.553 94.2684Z" fill="#F1EDFF"/>
<path id="flor1_8" d="M75.2107 242.297L125.74 216.862L125.51 216.008C124.388 216.213 123.287 216.521 122.221 216.927C115.759 220.08 109.281 223.183 102.917 226.517C94.6957 230.819 86.6551 235.302 78.5651 239.768C77.4009 240.549 76.3012 241.422 75.2764 242.379L75.2107 242.297Z" fill="#F1EDFF"/>
<path id="flor1_9" d="M261.182 273.938C260.097 271.722 259.126 269.456 257.893 267.37C249.869 253.085 242.124 238.684 236.402 223.298C236.057 222.395 235.514 221.558 234.758 219.932C234.462 221.18 234.149 221.706 234.281 222.083C241.088 240.047 250.379 256.763 260.327 273.117C260.61 273.442 260.943 273.719 261.313 273.938L261.182 273.938Z" fill="#F1EDFF"/>
<path id="flor1_10" d="M159.695 287.912C162.392 279.702 165.319 271.377 167.719 263.003C170.416 253.61 172.652 244.086 175.053 234.628C175.159 234.233 175.172 233.819 175.092 233.417C175.012 233.016 174.841 232.638 174.593 232.313C174.155 233.2 173.782 234.116 173.475 235.055C168.991 251.826 164.535 268.602 160.106 285.383C159.944 286.246 159.839 287.118 159.794 287.994L159.695 287.912Z" fill="#F1EDFF"/>
<path id="flor1_11" d="M112.092 94.2684C111.314 93.4156 110.455 92.6403 109.527 91.9532C97.776 84.7612 85.9918 77.6457 74.1748 70.6069C72.9234 69.8293 71.4468 69.4939 69.9818 69.6545C70.5052 70.2195 71.0835 70.731 71.7083 71.1816C84.4791 78.6473 97.2773 86.1021 110.103 93.5459C110.759 93.8469 111.435 94.1047 112.125 94.3176L112.092 94.2684Z" fill="#F1EDFF"/>
<path id="flor1_12" d="M185.544 283.807C189.046 265.745 192.68 247.682 194.554 229.275C190.97 247.354 188.175 265.548 185.544 283.807Z" fill="#F1EDFF"/>
<path id="flor1_13" d="M196.758 151.477C192.06 148.184 186.481 146.376 180.742 146.288C168.99 145.862 157.267 147.702 146.212 151.706C145.797 151.841 145.391 152 144.995 152.183C144.697 152.389 144.416 152.62 144.156 152.872C149.566 151.641 154.762 150.278 160.024 149.309C171.37 147.224 182.699 146.304 193.749 150.951C194.729 151.245 195.738 151.437 196.758 151.526L196.758 151.477Z" fill="#F1EDFF"/>
<path id="flor1_14" d="M99.382 130.738C110.892 135.5 145.324 142.396 150.701 141.033C133.616 137.601 116.483 134.186 99.382 130.738Z" fill="#F1EDFF"/>
<path id="flor1_15" d="M209.304 103.316C208.449 107.552 207.561 111.805 206.739 116.058C204.415 127.935 202.118 139.807 199.849 151.674C199.787 152.493 199.787 153.317 199.849 154.137C203.5 148.636 206.328 132.922 209.271 103.234L209.304 103.316Z" fill="#F1EDFF"/>
<path id="flor1_16" d="M127.302 172.954C111.172 169.424 94.6956 169.243 78.269 168.685C94.6024 170.404 110.936 172.133 127.269 173.874L127.302 172.954Z" fill="#F1EDFF"/>
<path id="flor1_17" d="M234.873 206.024C235.42 207.155 236.035 208.252 236.715 209.308C243.094 218.077 249.672 226.697 255.986 235.515C258.682 239.292 260.82 243.462 263.369 247.748C262.695 240.605 247.534 218.652 234.84 206.106L234.873 206.024Z" fill="#F1EDFF"/>
<path id="flor1_18" d="M167.834 109.983C159.054 96.5672 150.109 83.3161 134.718 75.5986C134.718 76.5838 134.718 76.9944 134.817 77.0601C146.228 83.6281 154.762 93.2175 162.458 103.677C164.102 105.894 165.861 108.045 167.571 110.245L167.834 109.983Z" fill="#F1EDFF"/>
<path id="flor1_19" d="M113.983 270.474C116.532 266.746 119.064 263.003 121.646 259.292L138.516 235.318C139.141 234.431 139.585 233.463 140.161 232.527C139.914 232.346 139.684 232.165 139.437 232.001C138.37 233.096 137.376 234.258 136.461 235.482C129.084 246.528 121.739 257.611 114.427 268.733C114.153 269.253 113.944 269.805 113.803 270.375L113.983 270.474Z" fill="#F1EDFF"/>
<path id="flor1_20" d="M81.2452 254.71C78.0882 256.221 74.8982 257.666 71.7905 259.242C63.6786 263.347 55.5885 267.48 47.5205 271.64C46.6416 272.058 45.9167 272.741 45.4487 273.594C58.1141 268.829 70.1121 262.454 81.1466 254.628L81.2452 254.71Z" fill="#F1EDFF"/>
<path id="flor1_21" d="M214.418 249.292C213.464 243.692 212.576 238.077 211.507 232.494C209.88 224.936 209.015 217.235 208.926 209.505C208.86 208.708 208.705 207.921 208.465 207.157L207.594 207.157C207.349 210.389 207.377 213.635 207.676 216.862C209.452 227.059 211.59 237.19 213.628 247.338C213.839 248.006 214.12 248.65 214.467 249.259L214.418 249.292Z" fill="#F1EDFF"/>
<path id="flor1_22" d="M57.2877 239.489C46.5876 244.118 36.3616 249.771 26.7529 256.369L27.1969 257.321C28.1963 257.017 29.1696 256.632 30.1073 256.172C38.4494 251.257 46.7642 246.33 55.0515 241.393C55.8275 240.809 56.5485 240.155 57.2055 239.439L57.2877 239.489Z" fill="#F1EDFF"/>
<path id="flor1_23" d="M191.792 265.876C194.788 254.554 196.758 242.986 197.679 231.312C197.185 231.147 197.054 231.065 196.955 231.082C196.857 231.098 196.626 231.082 196.577 231.246C196.347 231.605 196.175 231.999 196.067 232.412L191.792 265.876Z" fill="#F1EDFF"/>
<path id="flor1_24" d="M151.013 296.976C149.369 300.342 147.544 303.659 145.965 307.074C143.088 313.298 140.325 319.57 137.513 325.843C137.316 326.302 137.217 326.828 136.971 327.665C140.259 325.35 149.172 305.285 150.931 296.91L151.013 296.976Z" fill="#F1EDFF"/>
<path id="flor1_25" d="M155.486 109.211C157.36 111.789 159.202 114.4 161.126 116.945C165.812 123.234 170.745 129.506 175.513 135.828C176.356 137.122 177.446 138.238 178.72 139.112C172.136 128.33 164.31 118.356 155.403 109.391L155.486 109.211Z" fill="#F1EDFF"/>
<path id="flor1_26" d="M104.216 327.945C100.747 334.201 97.3265 340.473 93.7748 346.68C92.1305 349.685 90.1409 352.575 88.0198 356.007C92.5909 353.708 100.681 339.209 104.183 327.862L104.216 327.945Z" fill="#F1EDFF"/>
<path id="flor1_27" d="M180.052 256.418C176.056 266.631 175.382 277.387 174.329 288.076L175.497 288.257L180.101 256.369L180.052 256.418Z" fill="#F1EDFF"/>
<path id="flor1_28" d="M221.406 141.674C224.695 136.862 225.287 131.148 226.487 125.68C227.127 122.1 227.512 118.478 227.638 114.843C227.615 113.538 227.489 112.236 227.26 110.951C226.651 111.378 226.257 111.526 226.257 111.657C226.487 121.05 224.349 130.147 221.866 139.112C221.684 139.968 221.553 140.835 221.472 141.706L221.406 141.674Z" fill="#F1EDFF"/>
<path id="flor1_29" d="M219.762 216.763L223.215 225.696C225.352 231.262 227.474 236.829 229.644 242.395C230.013 243.47 230.753 244.378 231.732 244.957C231.562 244.01 231.342 243.073 231.075 242.149C228.164 233.315 224.974 224.596 219.663 216.845L219.762 216.763Z" fill="#F1EDFF"/>
<path id="flor1_30" d="M138.566 252.001C136.182 256.5 133.847 261.032 131.397 265.482C128.947 269.932 126.349 274.316 123.29 279.685C123.991 279.317 124.653 278.876 125.263 278.372C130.654 270.556 135.071 262.114 138.418 253.232C138.509 252.801 138.543 252.359 138.516 251.919L138.566 252.001Z" fill="#F1EDFF"/>
<path id="flor1_31" d="M100.78 234.349C110.185 229.784 119.607 225.236 129.851 220.277C128.486 219.916 127.878 219.555 127.565 219.719C118.796 224.328 110.026 228.985 101.256 233.692C101.059 233.807 100.977 234.169 100.845 234.415L100.78 234.349Z" fill="#F1EDFF"/>
<path id="flor1_32" d="M93.4624 206.09C85.2623 208.909 77.3813 212.58 69.9488 217.042L70.2119 217.896C70.8367 217.896 71.5767 218.126 72.0535 217.896C79.0363 214.218 86.0027 210.502 92.9527 206.747C93.1664 206.632 93.2322 206.271 93.3637 206.041L93.4624 206.09Z" fill="#F1EDFF"/>
<path id="flor1_33" d="M136.987 130.294L160.879 140.754L161.372 139.572C153.707 135.357 145.495 132.219 136.971 130.245L136.987 130.294Z" fill="#F1EDFF"/>
<path id="flor1_34" d="M163.543 156.501C153.282 157.831 143.91 160.967 140.901 164.301L163.543 156.501Z" fill="#F1EDFF"/>
<path id="flor1_35" d="M159.005 191.361C158.253 191.738 157.574 192.244 156.998 192.855C153.43 198.373 149.944 203.955 146.458 209.538C146.306 209.8 146.216 210.092 146.193 210.394C146.17 210.695 146.216 210.998 146.327 211.279C149.056 208.34 150.487 204.596 152.592 201.295C154.696 197.995 156.818 194.612 158.922 191.263L159.005 191.361Z" fill="#F1EDFF"/>
<path id="flor1_36" d="M141.016 142.659C133.342 141.849 125.718 141.039 118.143 140.229C125.641 142.215 133.172 143.874 141.016 142.659Z" fill="#F1EDFF"/>
<path id="flor1_37" d="M210.34 137.109L202.48 157.174L203.368 157.503C206.89 151.174 209.251 144.267 210.34 137.109Z" fill="#F1EDFF"/>
<path id="flor1_38" d="M150.043 189.341C152.279 187.059 154.466 184.727 156.752 182.494C159.547 179.768 162.425 177.125 165.368 174.284C161.372 175.187 153.167 183.365 150.109 189.341L150.043 189.341Z" fill="#F1EDFF"/>
<path id="flor1_39" d="M245.446 212.313C246.367 213.775 247.172 215.318 248.225 216.698C251.444 220.958 254.885 225.047 258.534 228.947C254.999 222.802 250.566 217.218 245.38 212.379L245.446 212.313Z" fill="#F1EDFF"/>
<path id="flor1_40" d="M207.068 237.633L205.045 215.942C203.779 219.571 204.897 230.523 207.068 237.633Z" fill="#F1EDFF"/>
<path id="flor1_41" d="M26.0459 262.494L41.0748 253.233L40.6802 252.543L25.3059 261.163L26.0459 262.494Z" fill="#F1EDFF"/>
<path id="flor1_42" d="M122.534 246.435C123.139 246.133 123.693 245.739 124.178 245.269C128.19 240.441 132.137 235.581 136.379 230.376C133.09 231.804 127.516 238.405 122.55 246.533L122.534 246.435Z" fill="#F1EDFF"/>
<path id="flor1_43" d="M123.635 176.567C118.078 176.096 112.52 175.609 106.962 175.105L106.962 175.86C112.504 176.567 118.028 177.256 123.57 177.962L123.635 176.567Z" fill="#F1EDFF"/>
<path id="flor1_44" d="M159.037 217.716C165.483 215.499 169.676 212.297 170.761 208.816C166.979 211.706 163.214 214.546 159.037 217.716Z" fill="#F1EDFF"/>
<path id="flor1_45" d="M79.305 343.396L73.2375 355.268C73.5127 355.499 73.8101 355.702 74.1254 355.875C74.257 355.875 74.5036 355.875 74.5365 355.875L79.6667 343.757C79.5352 343.609 79.4201 343.494 79.305 343.396Z" fill="#F1EDFF"/>
<path id="flor1_46" d="M127.138 207.01C127.368 208.796 128.059 210.491 129.142 211.931C130.226 213.37 131.666 214.503 133.32 215.22L127.056 207.01L127.138 207.01Z" fill="#F1EDFF"/>
<path id="flor1_47" d="M151.013 181.411L157.59 175.368C156.096 175.819 154.725 176.608 153.585 177.673C152.444 178.738 151.564 180.05 151.013 181.509L151.013 181.411Z" fill="#F1EDFF"/>
<path id="flor1_48" d="M209.255 103.217L209.896 97.224L209.304 97.224L209.304 103.316L209.255 103.217Z" fill="#F1EDFF"/>
<path id="flor1_49" d="M113.77 270.342L111.303 274.825L111.303 274.727L114.066 270.539L113.77 270.342Z" fill="#F1EDFF"/>
<path id="flor1_50" d="M184.952 288.979L184.952 287.797L184.82 287.797L184.82 288.979L184.952 288.979Z" fill="#F1EDFF"/>
<path id="flor1_51" d="M169.446 112.84L171.09 115.451L170.992 115.533L169.347 112.922L169.446 112.84Z" fill="#F1EDFF"/>
<path id="flor1_52" d="M169.364 112.84L167.835 109.966L167.571 110.212L169.446 112.84L169.364 112.84Z" fill="#F1EDFF"/>
<path id="flor1_53" d="M263.04 276.451L261.182 273.938L261.264 273.938L263.139 276.434L263.04 276.451Z" fill="#F1EDFF"/>
<path id="flor1_54" d="M120.906 92.5935L123.553 94.2355C122.632 93.7101 121.712 93.2011 120.791 92.692L120.906 92.5935Z" fill="#F1EDFF"/>
<path id="flor1_55" d="M214.467 249.259L215.454 252.543L214.5 249.259L214.467 249.259Z" fill="#F1EDFF"/>
<path id="flor1_56" d="M158.922 191.263L160.567 188.521L158.922 191.279L158.922 191.263Z" fill="#F1EDFF"/>
<path id="flor1_57" d="M122.632 246.533L120.988 249.226L122.632 246.517L122.632 246.533Z" fill="#F1EDFF"/>
<path id="flor1_58" d="M114.69 95.9597C113.819 95.4014 112.947 94.8431 112.092 94.3176L114.74 95.9597L114.69 95.9597Z" fill="#F1EDFF"/>
<path id="flor1_59" d="M109.379 277.272L111.221 274.727L111.221 274.825L109.363 277.37L109.379 277.272Z" fill="#F1EDFF"/>
<path id="flor1_60" d="M167.16 155.565L167.506 155.467L167.21 155.368L167.16 155.565Z" fill="#F1EDFF"/>
<path id="flor1_61" d="M221.472 141.756L220.666 144.432L221.422 141.706L221.472 141.756Z" fill="#F1EDFF"/>
<path id="flor1_62" d="M215.454 252.576L215.454 252.953C215.618 253.364 215.454 252.953 215.322 252.658L215.454 252.576Z" fill="#F1EDFF"/>
<path id="flor1_63" d="M211.441 133.25L211.244 133.25C211.236 133.365 211.236 133.48 211.244 133.595C211.244 133.595 211.458 133.595 211.458 133.595C211.469 133.48 211.463 133.364 211.441 133.25Z" fill="#F1EDFF"/>
<path id="flor1_64" d="M158.807 290.474L159.695 287.912L159.794 287.912L158.824 290.49L158.807 290.474Z" fill="#F1EDFF"/>
<path id="flor1_65" d="M136.905 130.311C136.609 130.311 136.313 130.311 137.02 130.311C136.362 130.081 136.675 130.196 137.02 130.311L136.905 130.311Z" fill="#F1EDFF"/>
<path id="flor1_66" d="M151.753 294.923L152.723 292.46L151.852 294.989L151.753 294.923Z" fill="#F1EDFF"/>
<path id="flor1_67" d="M114.214 139.703L114.493 139.621L114.247 139.523L114.214 139.703Z" fill="#F1EDFF"/>
<path id="flor1_68" d="M95.9125 129.818L95.6001 129.917L95.8796 130.015L95.9125 129.818Z" fill="#F1EDFF"/>
<path id="flor1_69" d="M49.6252 209.719C50.4638 209.407 51.2695 209.079 52.1739 208.767L52.2561 208.849L49.7074 209.768L49.6252 209.719Z" fill="#F1EDFF"/>
<path id="flor1_70" d="M218.841 214.842L217.953 213.2L218.956 214.744L218.841 214.842Z" fill="#F1EDFF"/>
<path id="flor1_71" d="M83.8597 252.789L82.2154 253.676L82.1168 253.676L83.7611 252.888L83.8597 252.789Z" fill="#F1EDFF"/>
<path id="flor1_72" d="M194.9 206.813L195.919 205.171L194.998 206.813L194.9 206.813Z" fill="#F1EDFF"/>
<path id="flor1_73" d="M194.998 191.87L195.804 190.08L195.804 190.163L194.933 191.936L194.998 191.87Z" fill="#F1EDFF"/>
<path id="flor1_74" d="M194.982 206.895L194.127 208.635L194.965 206.878L194.982 206.895Z" fill="#F1EDFF"/>
<path id="flor1_75" d="M139.503 250.375L138.549 252.017L138.451 252.017L139.437 250.375L139.503 250.375Z" fill="#F1EDFF"/>
<path id="flor1_76" d="M193.272 210.54L194.061 208.57L193.19 210.458L193.272 210.54Z" fill="#F1EDFF"/>
<path id="flor1_77" d="M139.503 250.293L139.898 249.669L139.569 250.375L139.503 250.293Z" fill="#F1EDFF"/>
<path id="flor1_78" d="M162.425 242.247L161.537 243.889L161.438 243.807L162.359 242.165L162.425 242.247Z" fill="#F1EDFF"/>
<path id="flor1_79" d="M265.671 281.065L266.493 282.707L265.589 281.065L265.671 281.065Z" fill="#F1EDFF"/>
<path id="flor1_80" d="M151.835 295.022L150.98 296.976L151.835 294.989L151.835 295.022Z" fill="#F1EDFF"/>
<path id="flor1_81" d="M127.056 207.075L127.056 206.878L127.187 207.01L127.056 207.075Z" fill="#F1EDFF"/>
<path id="flor1_82" d="M264.651 280.063L263.763 278.552L263.862 278.454L264.717 279.965L264.651 280.063Z" fill="#F1EDFF"/>
<path id="flor1_83" d="M195.015 191.936C195.015 192.034 195.015 192.166 195.015 192.248C195.015 192.33 194.85 192.248 194.768 192.248L194.982 191.788L195.015 191.936Z" fill="#F1EDFF"/>
<path id="flor1_84" d="M263.106 276.369L263.862 278.454L263.763 278.552L263.04 276.451L263.106 276.369Z" fill="#F1EDFF"/>
<path id="flor1_85" d="M120.034 250.31L119.163 251.952L119.969 250.228L120.034 250.31Z" fill="#F1EDFF"/>
<path id="flor1_86" d="M118.357 90.7709L120.002 91.4605L119.903 91.5755C119.344 91.3292 118.768 91.0993 118.259 90.8694L118.357 90.7709Z" fill="#F1EDFF"/>
<path id="flor1_87" d="M115.71 96.9449C116.253 97.1912 116.812 97.4211 117.354 97.6674L117.272 97.6674L115.628 96.9778L115.71 96.9449Z" fill="#F1EDFF"/>
<path id="flor1_88" d="M160.649 245.728L161.438 243.84L161.537 243.922L160.649 245.745L160.649 245.728Z" fill="#F1EDFF"/>
<path id="flor1_89" d="M148.3 191.903L148.974 190.261L149.073 190.261L148.366 191.903L148.3 191.903Z" fill="#F1EDFF"/>
<path id="flor1_90" d="M180.101 256.369L179.789 255.843L180.38 256.024L180.052 256.418L180.101 256.369Z" fill="#F1EDFF"/>
<path id="flor1_91" d="M152.658 292.46L152.559 291.918L152.904 292.033L152.641 292.493L152.658 292.46Z" fill="#F1EDFF"/>
<path id="flor1_92" d="M174.757 120.672L173.853 119.03L174.691 120.672L174.757 120.672Z" fill="#F1EDFF"/>
<path id="flor1_93" d="M109.445 277.37L108.574 279.226L109.363 277.272L109.445 277.37Z" fill="#F1EDFF"/>
<path id="flor1_94" d="M80.3079 341.688L81.2781 340.161L80.3079 341.688Z" fill="#F1EDFF"/>
<path id="flor1_95" d="M144.781 294.168L145.62 292.329L145.719 292.411L144.798 294.201L144.781 294.168Z" fill="#F1EDFF"/>
<path id="flor1_96" d="M100.845 234.349L99.0366 235.187C99.645 234.908 100.237 234.628 100.845 234.333L100.845 234.349Z" fill="#F1EDFF"/>
<path id="flor1_97" d="M99.0366 235.252L97.1128 236.09L98.9708 235.203L99.0366 235.252Z" fill="#F1EDFF"/>
<path id="flor1_98" d="M172.241 116.255L172.965 117.897L172.241 116.255Z" fill="#F1EDFF"/>
<path id="flor1_99" d="M93.3637 206.008C93.6104 206.008 93.857 206.008 93.6268 206.008L93.4624 206.139L93.3637 206.008Z" fill="#F1EDFF"/>
<path id="flor1_100" d="M82.1003 338.273L81.344 340.243L82.199 338.355L82.1003 338.273Z" fill="#F1EDFF"/>
<path id="flor1_101" d="M82.2976 202.658L81.7385 202.773C81.7385 202.773 81.8536 202.527 81.9194 202.51C81.9852 202.494 82.1167 202.625 82.2154 202.691L82.2976 202.658Z" fill="#F1EDFF"/>
<path id="flor1_102" d="M80.308 341.77L79.2392 343.412C79.3543 343.511 79.4694 343.626 79.6009 343.724L80.2258 341.705L80.308 341.77Z" fill="#F1EDFF"/>
<path id="flor1_103" d="M75.2764 242.379L73.4512 243.183L75.2764 242.362L75.2764 242.379Z" fill="#F1EDFF"/>
<path id="flor1_104" d="M73.4512 243.183C72.8263 243.462 72.185 243.725 71.5602 244.004L73.4018 243.085L73.4512 243.183Z" fill="#F1EDFF"/>
<path id="flor1_105" d="M59.228 238.651L59.7048 238.405L59.3267 238.75L59.228 238.651Z" fill="#F1EDFF"/>
<path id="flor1_106" d="M57.1726 239.407C57.8632 239.16 58.5538 238.914 59.228 238.651L59.3267 238.75L57.2548 239.489L57.1726 239.407Z" fill="#F1EDFF"/>
<path id="flor1_107" d="M219.663 216.845L218.841 214.842L218.841 214.744L219.679 216.763L219.663 216.845Z" fill="#F1EDFF"/>
<path id="flor1_108" d="M49.7074 209.719L48.9346 210.08L49.6252 209.67L49.7074 209.719Z" fill="#F1EDFF"/>
<path id="flor1_109" d="M161.553 187.535L162.326 186.78L161.586 187.552L161.553 187.535Z" fill="#F1EDFF"/>
<path id="flor1_110" d="M160.501 188.521L161.553 187.535L160.484 188.537L160.501 188.521Z" fill="#F1EDFF"/>
<path id="flor1_111" d="M148.974 190.195L150.043 189.342L149.007 190.212L148.974 190.195Z" fill="#F1EDFF"/>
<path id="flor1_112" d="M150.01 182.445L149.829 182.56L149.928 182.363L150.01 182.445Z" fill="#F1EDFF"/>
<path id="flor1_113" d="M147.396 192.921L148.3 191.903L147.33 192.839L147.396 192.921Z" fill="#F1EDFF"/>
<path id="flor1_114" d="M142.973 296.861L142.973 297.157L142.627 296.845L142.94 296.845L142.973 296.861Z" fill="#F1EDFF"/>
<path id="flor1_115" d="M151.753 105.631L150.898 104.777L151.77 105.615L151.753 105.631Z" fill="#F1EDFF"/>
<path id="flor1_116" d="M149.928 182.363L150.997 181.411L151.095 181.509L150.01 182.461L149.928 182.363Z" fill="#F1EDFF"/>
<path id="flor1_117" d="M266.493 282.756L266.756 282.855L266.509 282.756L266.493 282.756Z" fill="#F1EDFF"/>
<path id="flor1_118" d="M264.717 279.965L265.671 281.065C265.342 280.72 265.029 280.359 264.717 279.997L264.717 279.965Z" fill="#F1EDFF"/>
<path id="flor1_119" d="M153.447 107.437L152.74 106.682L153.463 107.421L153.447 107.437Z" fill="#F1EDFF"/>
<path id="flor1_120" d="M245.364 212.379C245.068 212.1 244.755 211.837 244.443 211.558L245.396 212.395L245.364 212.379Z" fill="#F1EDFF"/>
<path id="flor1_121" d="M163.28 185.877L162.375 186.829L163.313 185.91L163.28 185.877Z" fill="#F1EDFF"/>
<path id="flor1_122" d="M243.571 210.556L244.492 211.476L243.588 210.54L243.571 210.556Z" fill="#F1EDFF"/>
<path id="flor1_123" d="M242.667 209.719L243.571 210.622L242.7 209.653L242.667 209.719Z" fill="#F1EDFF"/>
<path id="flor1_124" d="M242.667 209.719L242.355 209.719L242.7 209.391L242.7 209.702L242.667 209.719Z" fill="#F1EDFF"/>
<path id="flor1_125" d="M121.794 101.346L122.123 101.346L121.794 101.69L121.794 101.346Z" fill="#F1EDFF"/>
<path id="flor1_126" d="M120.922 100.41L121.794 101.296L120.906 100.426L120.922 100.41Z" fill="#F1EDFF"/>
<path id="flor1_127" d="M119.969 250.211L120.955 249.144L119.952 250.228L119.969 250.211Z" fill="#F1EDFF"/>
<path id="flor1_128" d="M120.922 100.41L120.643 100.41L120.955 100.081L120.955 100.377L120.922 100.41Z" fill="#F1EDFF"/>
<path id="flor1_129" d="M120.824 92.6921L119.969 91.5755L120.067 91.4606L120.906 92.5936L120.824 92.6921Z" fill="#F1EDFF"/>
<path id="flor1_130" d="M233.985 205.236L234.922 206.024L234.84 206.024L233.886 205.236L233.985 205.236Z" fill="#F1EDFF"/>
<path id="flor1_131" d="M233.048 204.415L233.985 205.236L233.886 205.318L232.966 204.514L233.048 204.415Z" fill="#F1EDFF"/>
<path id="flor1_132" d="M118.39 98.669L118.604 98.7675L118.423 98.9481L118.324 98.7346L118.39 98.669Z" fill="#F1EDFF"/>
<path id="flor1_133" d="M117.404 254.563L117.404 254.234L117.782 254.563L117.469 254.563L117.404 254.563Z" fill="#F1EDFF"/>
<path id="flor1_134" d="M117.371 97.6674L118.39 98.669L117.354 97.6674L117.371 97.6674Z" fill="#F1EDFF"/>
<path id="flor1_135" d="M117.42 89.8514L118.357 90.7544L118.357 90.853L117.502 89.8514L117.42 89.8514Z" fill="#F1EDFF"/>
<path id="flor1_136" d="M117.42 254.563L117.42 254.907L117.042 254.563L117.371 254.563L117.42 254.563Z" fill="#F1EDFF"/>
<path id="flor1_137" d="M232.965 204.514L232.094 203.627L232.965 204.497L232.965 204.514Z" fill="#F1EDFF"/>
<path id="flor1_138" d="M232.094 203.627L231.239 202.707L232.11 203.611L232.094 203.627Z" fill="#F1EDFF"/>
<path id="flor1_139" d="M115.611 97.0435L114.69 95.9597L114.69 95.8611L115.628 96.9449L115.611 97.0435Z" fill="#F1EDFF"/>
<path id="flor1_140" d="M231.239 202.708L230.368 201.739L231.239 202.658L231.239 202.708Z" fill="#F1EDFF"/>
<path id="flor1_141" d="M229.414 200.836L230.433 201.722L229.496 200.819L229.414 200.836Z" fill="#F1EDFF"/>
<path id="flor1_142" d="M229.43 200.836L229.118 200.836L229.447 200.507L229.447 200.786L229.43 200.836Z" fill="#F1EDFF"/>
<path id="flor1_143" d="M220.666 144.432L220.535 144.662L220.65 144.399L220.666 144.432Z" fill="#F1EDFF"/>
<path id="flor1_144" d="M154.302 108.308L153.414 107.437L153.414 107.355L154.318 108.226L154.302 108.308Z" fill="#F1EDFF"/>
<path id="flor1_145" d="M217.953 213.2L217.69 213.085L217.92 213.2L217.953 213.2Z" fill="#F1EDFF"/>
<path id="flor1_146" d="M154.433 108.226L155.486 109.211L155.486 109.293L154.417 108.308L154.433 108.226Z" fill="#F1EDFF"/>
<path id="flor1_147" d="M193.272 195.548L193.272 195.236L193.634 195.548L193.321 195.548L193.272 195.548Z" fill="#F1EDFF"/>
<path id="flor1_148" d="M97.1128 236.09L97.1128 236.369L96.8168 236.024L97.1128 236.024L97.1128 236.09Z" fill="#F1EDFF"/>
<path id="flor1_149" d="M193.272 195.548L193.272 195.844L192.943 195.532L193.272 195.532L193.272 195.548Z" fill="#F1EDFF"/>
<path id="flor1_150" d="M191.496 213.151L191.496 212.855L191.841 213.167L191.545 213.167L191.496 213.151Z" fill="#F1EDFF"/>
<path id="flor1_151" d="M81.1466 254.628L82.1332 253.594L82.2318 253.594L81.2452 254.628L81.1466 254.628Z" fill="#F1EDFF"/>
<path id="flor1_152" d="M191.512 213.167L191.512 213.496L191.151 213.151L191.48 213.151L191.512 213.167Z" fill="#F1EDFF"/>
<path id="flor1_153" d="M152.658 106.682L151.671 105.631L151.671 105.549L152.674 106.616L152.658 106.682Z" fill="#F1EDFF"/>
<path id="flor1_154" d="M174.741 120.672L175.02 120.672L174.691 120.951L174.691 120.672L174.741 120.672Z" fill="#F1EDFF"/>
<path id="flor1_155" d="M173.853 119.063L172.883 117.979L173.82 119.063L173.853 119.063Z" fill="#F1EDFF"/>
<path id="flor1_156" d="M71.5603 244.004L71.4616 244.3L71.4616 244.037L71.5603 244.004Z" fill="#F1EDFF"/>
<path id="flor1_157" d="M172.159 116.337L171.024 115.467L171.123 115.385L172.241 116.255L172.159 116.337Z" fill="#F1EDFF"/>
<path id="flor1_158" d="M169.479 132.954L169.561 133.119L169.397 133.037L169.479 132.954Z" fill="#F1EDFF"/>
<path id="flor1_159" d="M164.168 184.99L164.168 184.662L164.513 185.039L164.168 185.039L164.168 184.99Z" fill="#F1EDFF"/>
<path id="flor1_160" d="M164.168 184.99L163.313 185.877L164.201 185.007L164.168 184.99Z" fill="#F1EDFF"/>
<path id="flor1_161" d="M115.397 116.961C97.9956 116.605 80.6013 117.975 63.4702 121.05C62.7126 121.333 62.0153 121.756 61.4149 122.298C60.3954 125.122 61.9246 126.863 63.684 128.176C68.6169 131.854 73.6814 135.352 78.7294 138.882C79.8969 139.72 81.1795 140.393 82.4127 141.148C77.6113 141.148 72.9908 140.951 68.3867 141.148C54.1635 141.887 39.9402 143.036 26.2925 147.388C20.377 149.541 14.6236 152.114 9.07655 155.089C7.2657 156.075 5.60471 157.313 4.14362 158.767C-1.57857 164.021 -1.26617 170.048 4.96577 174.711C9.82838 178.039 15.353 180.279 21.1622 181.279C32.4586 183.791 43.8043 186.025 55.1336 188.389C56.3997 188.652 57.6494 189.046 59.6555 189.571C58.3071 190.294 57.6494 190.704 56.9423 191C43.7879 196.484 33.0012 205.187 23.53 215.63C21.0471 218.356 18.7286 221.295 19.8632 225.679C22.7901 229.407 27.2133 229.472 31.3734 229.144C37.5066 228.668 43.5741 227.502 49.691 226.747C52.2232 226.435 54.8047 226.385 57.3534 226.205L57.6658 227.108C55.0678 228.947 52.5027 230.803 49.9047 232.609C42.1696 237.747 35.4337 244.245 30.025 251.788C27.8774 254.746 26.156 257.99 24.9112 261.426C22.5105 268.667 26.72 274.349 34.3496 274.727C42.8648 274.986 51.3687 273.923 59.5568 271.574C70.0656 268.74 80.3094 265.004 90.1738 260.408C91.0946 259.981 92.0154 259.521 92.9691 259.127C93.1829 259.045 93.4953 259.242 94.153 259.407C93.15 261.985 91.9497 264.464 91.1933 267.058C88.9854 274.642 85.7077 281.874 81.459 288.536C74.7502 299.078 71.9877 311.179 70.8203 323.544C70.1265 329.538 69.8628 335.574 70.031 341.606C70.3744 346.711 71.2899 351.762 72.7606 356.663C74.2898 361.967 77.6935 363.461 82.6264 360.9C86.9725 358.771 90.9744 356.004 94.4983 352.69C104.364 343.002 114.23 333.33 121.597 321.491C121.728 321.278 122.04 321.179 122.534 320.851C123.257 324.66 122.402 328.946 125.97 331.721C127.231 332.156 128.577 332.285 129.897 332.1C131.218 331.914 132.475 331.419 133.567 330.654C137.33 328.387 140.817 325.693 143.959 322.624C151.178 314.71 157.903 306.368 164.792 298.175C165.713 297.091 166.535 295.925 168.081 293.955C169.314 299.62 170.498 304.349 171.37 309.127C172.915 317.616 174.247 326.155 175.744 334.644C176.155 336.926 176.368 339.701 179.279 340.112C182.189 340.522 183.686 337.977 184.656 335.728C187.769 328.448 190.74 321.119 193.568 313.741C197.448 303.61 201.411 293.495 203.22 282.74C203.861 278.996 204.256 275.203 204.683 271.426C204.914 269.472 204.979 267.485 205.177 264.645C205.764 265.268 206.313 265.926 206.821 266.615C211.644 275.843 216.462 285.077 221.274 294.316C222.754 297.173 224.201 300.063 225.895 302.805C227.03 304.661 228.378 306.5 231.14 306.401C233.656 304.989 233.853 302.526 233.837 299.981L233.837 270.917L233.837 265.318C236.912 271.64 239.28 277.124 242.174 282.313C250.149 296.73 261.675 307.978 274.912 317.501C278.54 319.993 282.511 321.945 286.701 323.298C289.512 324.076 292.462 324.217 295.334 323.708C298.376 323.298 299.313 321.212 298.491 318.174C298.155 316.902 297.698 315.665 297.126 314.48C287.935 295.925 282.656 276.188 278.759 255.975C275.997 241.607 273.004 227.272 267.595 213.561C260.557 196.09 248.767 182.741 233.853 171.952C230.478 169.754 226.975 167.759 223.363 165.975L225.813 162.429C232.554 152.782 236.797 141.617 238.162 129.933C240.074 113.894 239.324 97.6501 235.942 81.8548C233.525 69.9501 231.305 57.9962 229.545 45.993C228.575 39.4249 228.74 32.8568 228.394 26.2888C228.098 20.5745 227.934 14.7946 227.424 9.17892C226.98 4.17074 225.336 1.98687 220.847 0.0492825C219.68 1.13211 218.668 2.36969 217.838 3.72738C216.326 6.89645 215.099 10.1935 214.171 13.5795C210.98 25.2839 206.381 36.5592 200.474 47.1589C196.807 54.0225 193.107 60.8697 189.802 67.8976C184.729 78.6601 181.728 90.2797 180.956 102.15C180.876 103.175 180.738 104.195 180.545 105.204C180.446 105.763 180.249 106.304 179.953 107.355C179.348 106.731 178.798 106.055 178.309 105.336C169.012 88.9675 154.357 76.2929 136.806 69.4411C123.372 63.9403 109.988 58.2753 96.8826 52.0521C82.8568 45.2706 69.3964 37.3801 56.6299 28.4562C52.4953 25.6576 48.214 23.0814 43.8044 20.7387C41.7385 19.9177 39.5877 19.3286 37.3915 18.9818C37.26 21.2642 36.7338 22.8899 37.1613 24.2199C38.1462 27.883 39.5881 31.4081 41.453 34.7123C45.3817 40.9063 49.7503 46.8108 54.5252 52.3805C66.2327 65.5167 77.6606 78.9484 88.2171 93.0861C94.9909 102.575 103.886 110.356 114.197 115.812C114.634 116.155 115.036 116.54 115.397 116.961ZM39.4469 20.8865C41.0912 21.609 42.9164 22.2002 44.5443 23.0705C52.5365 27.4691 59.7838 33.0993 66.0189 39.7533C69.5706 43.4643 72.9579 47.3395 76.6083 50.9684C89.1872 63.4642 103.789 72.3147 121.547 75.3031C129.193 76.6003 136.921 77.5691 144.568 79.2932C150.98 80.7546 157.294 82.9385 162.277 87.6511C168.237 93.3009 173.309 99.8165 177.322 106.978C179.218 110.122 180.298 113.689 180.463 117.355C180.726 126.797 182.107 136.025 186.892 144.432C186.892 144.58 186.728 144.925 186.415 145.812C185.014 144.846 183.684 143.782 182.436 142.626C168.974 127.953 150.264 119.169 130.361 118.176C123.009 117.72 115.905 115.347 109.758 111.296C100.582 105.352 93.4789 97.3719 87.0825 88.7349C78.4433 77.0413 69.1663 65.8312 59.2937 55.1555C55.9268 51.6669 52.7957 47.9587 49.9212 44.0554C46.3037 38.9159 43.0809 33.4808 39.9567 28.0293C39.2216 27.0009 38.785 25.7899 38.6951 24.5296C38.6051 23.2692 38.8653 22.0086 39.4469 20.8865ZM214.04 172.938C209.452 162.478 203.187 154.416 193.634 149.128C191.868 148.072 190.428 146.549 189.474 144.728C187.474 141.159 185.79 137.423 184.442 133.562C182.173 126.78 182.551 119.671 182.387 112.643C182.016 95.1151 186.221 77.7932 194.587 62.3804C197.416 57.0603 200.194 51.7237 203.023 46.4199C208.223 37.0771 212.306 27.1571 215.191 16.8636C216.237 13.0497 217.488 9.29504 218.94 5.61575C219.618 4.33224 220.458 3.14032 221.439 2.06894C222.474 2.51724 223.372 3.23257 224.04 4.14151C224.707 5.05044 225.12 6.12027 225.237 7.24133C227.161 15.5828 226.224 23.9243 224.612 32.1016C223.363 38.4069 221.324 44.5316 219.433 50.722C215.947 62.676 213.875 74.7941 217.312 87.0764C218.956 93.2668 221.488 99.2602 223.889 105.254C227.347 113.612 229.926 122.307 231.584 131.198C234.626 148.816 226.01 161.214 214.04 172.938ZM296.863 320.72C291.93 322.559 291.799 323.002 288.477 321.721C283.616 320.116 278.997 317.856 274.747 315.005C256.66 301.459 242.124 285.022 235.679 262.723C234.963 260.048 234.653 257.281 234.758 254.513C235.002 251.888 235.392 249.279 235.925 246.697C237.002 239.584 237.002 232.349 235.925 225.236C233.71 213.375 228.941 202.136 221.949 192.297C219.985 189.552 218.174 186.702 216.522 183.759C214.914 181.338 214.178 178.443 214.434 175.549L221.718 167.88C222.754 168.159 223.478 168.307 224.152 168.537C230.729 170.77 235.103 175.663 238.951 181.164C248.586 194.875 253.552 210.359 256.939 226.583C262.197 253.103 272.465 278.381 287.195 301.065C290.237 305.712 292.703 310.753 295.301 315.679C295.973 317.303 296.495 318.985 296.863 320.703L296.863 320.72ZM128.716 219.571C115.819 228.298 105.092 239.858 97.3594 253.364C96.3101 254.917 94.8462 256.146 93.1336 256.911C81.8259 262.488 69.9739 266.89 57.7645 270.047C50.5782 272.118 43.1277 273.13 35.6486 273.052C27.427 272.707 24.0233 267.042 27.427 259.735C29.0171 256.6 30.9059 253.625 33.067 250.852C38.7399 243.233 46.2215 237.502 53.7524 231.903C58.3107 228.299 63.6207 225.763 69.2911 224.481C78.6947 222.304 87.9403 219.495 96.9648 216.074C105.482 213.069 113.786 209.506 122.402 205.959C123.603 211.197 124.573 216.123 128.716 219.571ZM130.361 221.722C131.018 228.504 135.721 230.967 141.558 232.313C145.711 233.474 150.085 233.609 154.302 232.707C150.865 239.686 146.952 246.418 144.239 253.594C141.968 259.629 138.049 264.908 132.926 268.832C125.53 274.67 119.38 281.928 114.838 290.178C113.438 292.924 111.873 295.584 110.152 298.142C105.795 304.201 101.372 310.243 96.6688 316.04C94.5292 318.864 91.3868 320.762 87.8882 321.344C86.941 321.115 86.0943 320.584 85.477 319.832C84.8596 319.079 84.5054 318.145 84.4681 317.173C83.6557 313.06 83.6736 308.828 84.5207 304.722C85.3678 300.617 87.0269 296.722 89.401 293.265C94.2728 286.266 97.6327 278.331 99.2668 269.965L101.454 257.879C104.529 241.032 116.022 230.671 129.407 221.755C129.44 221.804 129.637 221.853 130.443 221.804L130.361 221.722ZM62.4015 124.022C63.2401 123.299 63.5196 122.873 63.9142 122.741C64.7328 122.448 65.5825 122.249 66.4465 122.15C77.8251 120.984 89.1708 119.506 100.566 118.866C112.009 118.304 123.48 118.854 134.817 120.508C146.952 122.15 158.297 125.697 168.262 132.938C171.995 135.664 175.464 138.767 179.049 141.706C175.466 141.463 171.902 140.997 168.377 140.311C153.084 138.532 137.64 142.006 124.589 150.163C123.581 150.876 122.421 151.347 121.2 151.537C119.979 151.728 118.73 151.634 117.552 151.263C110.974 149.26 104.282 147.552 97.8198 145.352C86.7713 141.743 76.462 136.182 67.3837 128.932C65.6696 127.406 64.0341 125.795 62.4837 124.104L62.4015 124.022ZM195.903 228.093C196.577 237.19 197.679 245.663 201.115 253.462C203.943 259.866 203.467 266.369 202.842 272.871C201.687 283.497 199.121 293.922 195.212 303.872C191.644 313.314 188.125 322.772 184.426 332.164C183.455 334.644 182.617 337.452 179.493 338.47C178.645 337.741 177.992 336.813 177.593 335.77C177.194 334.726 177.062 333.6 177.207 332.493C177.536 325.925 178.194 319.357 178.473 312.789C178.654 308.585 179.147 304.201 178.226 300.194C176.582 292.805 173.82 285.662 171.649 278.372C167.292 263.594 171.649 250.457 178.67 237.732C186.563 238.651 190.016 232.1 195.903 228.093ZM230.433 303.446L229.414 303.938C226.684 301.918 225.451 298.782 223.938 295.876C219.416 287.157 215.075 278.372 210.422 269.735C203.927 257.617 198.912 245.104 197.777 231.229C197.511 229.721 197.586 228.173 197.999 226.698C198.412 225.223 199.151 223.859 200.162 222.707C207.316 214.644 211.951 204.667 213.497 194.005L214.977 185.466L220.666 193.676C225.806 201.18 229.791 209.41 232.489 218.093C234.779 224.956 234.687 232.39 232.226 239.193C231.19 242.083 230.072 244.94 229.085 247.847C226.158 256.369 224.284 265.006 225.928 274.119C227.441 282.444 228.69 290.835 230.022 299.193C230.236 300.605 230.335 302.033 230.483 303.446L230.433 303.446ZM201.855 157.486C203.499 159.621 205.144 161.558 206.591 163.529C210.831 168.859 213.024 175.527 212.773 182.33C212.247 199.785 206.525 215.006 193.535 227.092C190.606 229.967 187.456 232.607 184.113 234.99C180.709 237.289 177.536 236.188 175.776 232.51C174.88 230.504 174.186 228.414 173.705 226.271C172.117 218.811 171.476 211.181 171.797 203.561C171.848 196.794 173.601 190.149 176.895 184.235C182.818 173.34 191.426 164.134 201.905 157.486L201.855 157.486ZM126.546 330.276C125.896 328.834 125.405 327.325 125.082 325.777C124.556 320.555 125.082 315.514 128.371 311.147C131.66 306.779 134.85 302.789 138.04 298.585C142.429 293.21 145.312 286.767 146.393 279.915C147.248 273.101 147.593 266.204 148.037 259.341C148.678 249.16 151.326 239.637 158.199 231.853C161.109 228.569 163.97 225.203 166.914 222.001C167.952 221.025 169.05 220.114 170.202 219.276C170.77 222.436 171.5 225.566 172.389 228.652C173.376 231.673 174.872 234.53 176.303 237.847C168.224 252.928 164.987 270.126 167.029 287.107C167.245 288.469 167.166 289.861 166.797 291.19C166.428 292.518 165.778 293.752 164.891 294.809C158.676 302.427 152.641 310.194 146.179 317.616C142.987 321.057 139.499 324.211 135.754 327.041C134.521 328.179 133.068 329.052 131.485 329.609C129.901 330.165 128.22 330.392 126.546 330.276ZM113.852 207.568C109.05 209.456 103.641 211.279 98.5104 213.676C88.5295 218.356 78.2033 218.684 67.5646 217.092C63.5172 216.428 59.4124 216.181 55.3145 216.353C48.4299 216.844 41.717 218.727 35.5828 221.886C32.7884 223.147 29.9224 224.244 26.9995 225.17C26.0352 225.576 24.9712 225.683 23.9453 225.478C22.9193 225.273 21.9785 224.766 21.2444 224.021C21.3431 220.835 23.2998 218.619 25.2401 216.468C37.6726 202.45 53.9672 192.404 72.0864 187.585C73.7842 187.235 75.545 187.348 77.1838 187.913C85.265 190.526 93.6264 192.18 102.095 192.839C105.696 193.069 109.281 193.529 112.734 193.873L113.852 207.568ZM114.46 191.443C112.816 191.263 111.566 191.148 110.3 190.951C103.97 189.949 98.3625 187.059 92.7554 184.202C85.6293 180.464 77.7744 178.318 69.7351 177.913C63.0592 177.617 56.2846 177.24 49.9212 174.629C47.8329 173.742 45.7611 172.987 45.3171 170.475C47.0436 166.846 49.0332 164.99 53.7195 162.576C61.1771 158.773 69.3365 156.538 77.6935 156.008C88.3486 155.302 99.0695 155.269 109.758 155.089C112.274 155.204 114.78 155.494 117.256 155.959L116.532 158.028C114.526 163.611 116.631 167.092 122.452 167.289C125.642 167.404 128.848 166.879 132.054 166.682C133.123 166.682 134.208 166.682 135.343 166.682C126.612 173.414 118.999 180.787 114.46 191.443ZM142.233 163.151C141.032 163.283 139.766 163.381 138.516 163.562C133.896 164.268 129.292 165.204 124.655 165.614C121.909 165.844 118.686 165.516 117.584 162.33C116.483 159.145 118.883 157.404 120.873 155.598C122.804 153.8 124.927 152.22 127.204 150.885C138.625 144.065 151.862 140.897 165.138 141.805C176.681 142.708 187.188 147.322 197.054 153.496C198.047 154.183 199.002 154.923 199.915 155.713C199.331 156.459 198.699 157.167 198.024 157.831C188.663 165.46 177.508 170.58 165.615 172.708C162.159 173.374 158.642 173.666 155.124 173.578C147.478 173.348 144.008 170.458 142.233 163.151ZM85.3889 285.367C85.5056 286.084 85.5661 286.808 85.5697 287.534C84.5503 293.15 83.2513 298.733 82.5771 304.382C82.0976 308.465 82.0535 312.588 82.4456 316.68C83.0046 322.411 86.2768 324.398 91.6372 322.526C94.2616 321.589 96.7891 320.401 99.1846 318.979C110.961 311.969 121.201 302.66 129.292 291.607C130.081 290.539 130.936 289.521 131.742 288.47C130.278 294.628 128.075 300.342 126.316 306.204C123.841 314.68 119.562 322.522 113.77 329.192C107.275 336.565 100.615 343.839 93.6433 350.769C90.357 353.898 86.6555 356.561 82.6429 358.683C77.9402 361.294 75.7039 360.21 74.1254 355.071C71.8947 347.895 71.063 340.359 71.6753 332.871C72.0535 328.355 72.5633 323.839 73.1552 319.34C74.4442 308.842 77.6901 298.678 82.7251 289.373C83.3828 288.24 84.205 287.14 85.3889 285.367ZM71.0341 185.598C63.8484 188.619 63.8485 188.619 56.5477 186.993C54.9034 186.616 53.0947 186.353 51.3846 185.959C39.8745 183.348 28.1999 180.885 16.7062 178.012C13.153 177.081 9.77992 175.566 6.7252 173.529C0.345284 169.358 0.147958 163.989 6.36344 159.407C10.6752 156.032 15.9799 154.168 21.4582 154.104C33.1986 154.219 44.9225 154.695 56.6628 155.122C59.1846 155.346 61.6929 155.702 64.1773 156.189C61.6122 157.191 59.9843 157.831 58.3729 158.455C56.7006 159.007 55.0824 159.71 53.5386 160.557C50.6143 162.24 47.8608 164.203 45.3171 166.419C42.308 169.309 42.7026 172.429 46.0241 175.056C47.4222 176.12 48.9534 176.998 50.5789 177.667C53.144 178.767 55.8078 179.621 58.4058 180.639C62.6481 182.264 66.8411 183.939 71.0341 185.598ZM184.162 169.177C184.064 169.933 184.162 170.261 183.982 170.458C177.602 179.391 171.172 188.291 164.825 197.24C159.829 204.372 152.542 209.586 144.173 212.018C139.569 213.414 136.461 212.116 134.767 207.568C134.249 206.209 133.976 204.769 133.962 203.315C134.159 191.197 140.177 182.1 148.596 174.399C161.405 177.338 172.702 173.118 184.162 169.095L184.162 169.177ZM225.829 34.581L226.651 34.6959C226.75 35.4019 226.882 36.0916 226.947 36.7977C227.877 48.312 229.525 59.7572 231.88 71.0667C235.07 86.551 238.359 102.068 237.389 118.045C236.961 125.007 236.501 131.986 234.182 138.718C233.901 138.1 233.723 137.44 233.656 136.764C232.653 130.721 232.209 124.515 230.499 118.702C228.193 111.445 225.492 104.319 222.409 97.3555C218.15 87.0928 216.226 76.3704 218.101 65.5167C219.992 55.0734 223.231 44.8765 225.829 34.581ZM241.713 181.805L242.206 181.394C242.998 181.891 243.756 182.439 244.476 183.036C253.384 191.398 260.427 201.542 265.145 212.806C270.078 224.809 272.824 237.354 275.438 249.965C278.513 264.858 281.259 279.817 286.373 294.217C286.558 294.875 286.7 295.544 286.8 296.221C285.271 295.124 284.034 293.669 283.199 291.984C271.665 271.047 263.313 248.513 258.419 225.121C255.476 210.524 250.971 196.534 242.733 183.956C242.338 183.266 241.997 182.547 241.713 181.805ZM20.4716 152.412L20.2085 151.575C24.8312 149.18 29.841 147.618 35.0073 146.961C45.2513 145.319 55.5776 144.219 65.8874 143.02C75.7974 141.638 85.8963 142.767 95.2547 146.304C100.681 148.422 106.42 149.752 112.027 151.411C114.378 152.1 116.729 152.741 119.064 153.398C118.125 153.869 117.063 154.041 116.022 153.89C107.242 153.578 98.4776 153.053 89.7134 153.036C84.3036 153.036 78.9103 153.956 73.5005 154.186C69.3963 154.388 65.2836 154.344 61.1847 154.054C48.7866 153.102 36.4214 151.263 23.9411 152.412C22.7572 152.593 21.6391 152.495 20.4716 152.495L20.4716 152.412ZM149.648 78.0453C148.887 78.1708 148.118 78.2367 147.346 78.2423C141.608 77.1093 135.836 75.8779 130.147 74.7941C122.386 73.3327 114.542 72.1833 107.127 69.2276C94.2846 64.1374 83.8597 55.7137 74.4213 45.878C72.4317 43.8091 70.475 41.7073 68.5019 39.6219L69.0609 38.9652C70.2777 39.622 71.5109 40.2623 72.7113 40.9684C87.8471 49.9803 103.607 57.904 119.87 64.6792C127.894 67.9632 135.853 71.2474 143.795 74.712C145.806 75.745 147.76 76.885 149.648 78.1274L149.648 78.0453ZM141.674 219.259C142.627 215.088 146.015 213.216 149.237 211.936C156.522 209.062 161.8 204.005 166.355 197.962L170.58 192.346L169.462 216.386C163.346 225.22 149.632 227.19 141.674 219.292L141.674 219.259ZM139.306 266.402C137.661 271.196 136.823 276.418 134.373 280.703C126.851 293.516 116.683 304.582 104.545 313.166C103.482 313.857 102.385 314.493 101.256 315.071C101.385 314.034 101.794 313.052 102.44 312.23C106.732 305.777 111.451 299.554 115.217 292.805C121.164 282.322 129.397 273.309 139.306 266.434L139.306 266.402ZM146.639 173.857C140.274 179.391 135.615 186.618 133.205 194.694C131.442 199.556 131.548 204.898 133.501 209.686C134.107 211.634 134.488 213.645 134.636 215.679L129.999 218.011C125.329 213.84 124.425 208.783 124.951 203.397C126.184 190.852 133.09 181.41 141.904 173.069C142.625 172.571 143.41 172.174 144.239 171.887L146.639 173.857ZM128.124 307.189L145.439 254.645L146.524 254.842C146.524 256.237 146.524 257.617 146.524 258.996C146.294 263.249 145.916 267.485 145.817 271.722C145.455 286.286 137.99 297.321 128.124 307.222L128.124 307.189ZM78.6637 219.571L78.9596 220.491C75.3594 221.516 71.71 222.36 68.025 223.019C58.3071 224.349 48.5564 225.335 38.8221 226.55C35.4348 226.977 32.0804 227.88 28.0683 226.927C32.623 224.908 36.7009 222.855 40.8446 221.213C46.3974 218.852 52.4093 217.764 58.4387 218.028C65.1803 218.455 71.8891 219.095 78.6637 219.571ZM142.561 170.31L141.624 169.522C139.388 172.248 137.3 175.089 134.883 177.634C131.249 181.46 127.467 185.138 123.603 188.718C120.182 191.87 116.631 194.875 115.217 200.359C113.687 189.489 129.16 169.916 141.049 166.747L142.561 170.31ZM234.034 238.816L234.873 239.045C234.725 240.49 234.643 241.919 234.462 243.348C233.47 248.666 232.751 254.031 232.308 259.423C231.93 270.917 232.11 282.263 232.045 293.676L232.045 298.142C230.382 292.521 229.167 286.778 228.411 280.966C227.548 276.216 227.043 271.408 226.898 266.582C227.03 256.812 230.45 247.765 234.034 238.816ZM160.55 225.17C159.047 227.548 156.866 229.423 154.287 230.552C151.708 231.682 148.85 232.015 146.08 231.509C140.21 230.179 133.403 229.867 132.285 221.87C134.34 217.88 134.554 217.798 138.484 218.586C139.842 220.32 141.398 221.891 143.121 223.266C148.465 226.402 154.302 226.599 160.55 225.17ZM60.79 179.194C76.3452 178.258 89.5819 183.414 102.753 191.098C87.6745 190.015 74.3227 185.368 60.79 179.227L60.79 179.194ZM169.314 276.681C171.189 282.329 172.8 288.06 174.971 293.593C178.259 301.804 177.684 310.211 176.336 318.667C176.336 319.11 175.727 319.488 174.954 320.457C173.705 305.35 167.933 291.574 169.281 276.713L169.314 276.681ZM100.484 252.609C97.9514 272.986 92.7883 287.813 86.2932 293.019C89.4832 279.045 92.1141 265.383 100.451 252.641L100.484 252.609ZM117.7 205.877C116.055 198.767 119.459 192.56 126.71 189.456C125.526 193.282 124.244 197.157 123.159 201.065C122.895 202.359 122.216 203.532 121.225 204.406C120.234 205.28 118.985 205.808 117.667 205.909L117.7 205.877Z" fill="#F1EDFF"/>
</g>
<defs>
<clipPath id="clip0_33_133">
<rect width="362" height="315" fill="white" transform="matrix(4.37114e-08 -1 -1 -4.37114e-08 315 362)"/>
</clipPath>
</defs>
</svg>
