<svg width="314" height="318" viewBox="0 0 314 318" fill="none" xmlns="http://www.w3.org/2000/svg">
<g id="flor6" clip-path="url(#clip0_37_1388)">
<path id="flor6_2" d="M102.343 185.191C96.2875 183.491 90.1519 182.373 84.3464 179.87C80.5882 178.301 76.9401 176.481 73.4268 174.421C64.6685 169.309 56.9069 162.655 50.5164 154.781C48.7332 152.578 47.2507 150.129 45.6829 147.743C45.3053 147.1 45.0513 146.392 44.9339 145.656C46.7713 148.993 48.9522 152.13 51.4412 155.015C58.0881 162.983 66.1422 169.663 75.2026 174.721C81.0061 178.057 87.2333 180.594 93.7156 182.264C96.6436 183.029 99.5414 183.88 102.466 184.697C102.405 184.871 102.374 185.031 102.343 185.191Z" fill="#F1D8E7"/>
<path id="flor6_3" d="M258.449 91.0573C242.928 95.2848 231.534 104.625 222.13 116.806C223.341 115.235 224.482 113.61 225.771 112.08C229.932 106.838 234.86 102.255 240.389 98.4845C245.165 95.2438 250.373 92.6919 255.86 90.9041C256.27 90.7102 256.721 90.6226 257.174 90.6493C257.626 90.6761 258.065 90.8164 258.449 91.0573Z" fill="#F1D8E7"/>
<path id="flor6_4" d="M142.659 116.231C142.776 114.166 142.87 112.085 143.051 110.033C143.293 104.668 144.234 99.3575 145.85 94.2359C147.687 89.0782 149.276 83.7656 152.02 78.9377C152.164 78.5738 152.396 78.2515 152.696 78.0001C152.996 77.7487 153.353 77.5763 153.737 77.4983C153.698 77.7633 153.742 78.0177 153.635 78.1563C151.557 81.3944 149.92 84.8943 148.765 88.5642C147.555 92.0699 145.712 95.4186 145.255 99.118L143.135 115.014C143.083 115.416 143.072 115.813 143.041 116.212L142.659 116.231Z" fill="#F1D8E7"/>
<path id="flor6_5" d="M146.896 283.045C145.542 282.764 144.308 282.07 143.363 281.059C140.817 278.509 138.309 275.932 135.919 273.226C129.667 266.312 125.246 257.943 123.06 248.881C127.28 262.739 135.686 273.672 146.896 283.045Z" fill="#F1D8E7"/>
<path id="flor6_6" d="M66.5216 144.906C65.7412 145.464 65.4573 144.638 65.1436 144.304C63.2179 142.286 61.3279 140.223 59.5055 138.119C57.8543 136.323 56.2982 134.442 54.8434 132.483C53.8088 130.865 52.8974 129.172 52.117 127.418C51.7257 126.515 51.3871 125.59 51.1027 124.648C51.2851 124.53 51.5324 124.353 51.8003 124.172C52.2791 122.571 52.2173 120.811 53.6355 118.994C53.6082 119.747 53.7216 120.221 53.5569 120.554C51.6095 124.707 53.1329 128.274 55.4168 131.691C57.9498 135.227 60.7172 138.59 63.7003 141.756C64.6956 142.854 66.0825 143.444 66.5447 144.923L66.5216 144.906Z" fill="#F1D8E7"/>
<path id="flor6_7" d="M119.53 83.275C119.557 83.6459 119.645 83.8425 119.579 83.9759C116.782 90.2356 116.263 96.9071 116.001 103.629C115.931 109.382 116.384 115.13 117.354 120.801C117.463 121.487 117.501 122.183 117.467 122.877C116.008 116.359 115.291 109.698 115.329 103.019C115.408 95.3643 117.282 85.1889 119.53 83.275Z" fill="#F1D8E7"/>
<path id="flor6_8" d="M131.618 118.515C131.422 116.523 131.088 114.424 131.125 112.463C131.027 108.867 131.143 105.267 131.475 101.685C131.939 96.4625 132.973 91.3066 134.557 86.3086C134.963 85.1119 135.489 83.9517 135.95 82.779L136.325 82.8655C136.333 83.2007 136.292 83.5352 136.205 83.8588C134.481 88.507 133.271 93.3303 132.599 98.2421C131.639 104.51 131.319 110.858 131.644 117.191C131.644 117.64 131.612 118.089 131.548 118.534L131.618 118.515Z" fill="#F1D8E7"/>
<path id="flor6_9" d="M239.688 170.328C250.678 172.793 261.666 174.998 272.98 175.06C272.989 175.237 272.987 175.415 272.976 175.591C272.266 175.716 271.547 175.778 270.826 175.776C267.116 175.477 263.391 175.222 259.694 174.786C253.283 173.875 246.943 172.522 240.718 170.735C240.381 170.623 240.048 170.458 239.688 170.328Z" fill="#F1D8E7"/>
<path id="flor6_10" d="M230.087 80.0697C229.762 80.3719 229.695 80.5781 229.529 80.5789C226.061 81.3888 222.807 82.9313 219.985 85.1028C215.904 87.8506 211.83 90.6288 207.764 93.4371C206.758 94.2143 205.689 94.9059 204.569 95.505C206.232 94.135 207.829 92.659 209.579 91.3921C214.037 88.2349 218.549 85.1745 223.07 82.1027C224.698 80.9757 226.576 80.2612 228.541 80.0205C229.057 80.0012 229.574 80.0177 230.087 80.0697Z" fill="#F1D8E7"/>
<path id="flor6_11" d="M195.878 195.811C205.352 203.819 215.896 210.468 227.207 215.566C226.431 215.282 225.62 215.043 224.86 214.716C217.592 211.563 210.687 207.632 204.266 202.991C201.51 200.983 198.891 198.793 196.427 196.436L195.878 195.811Z" fill="#F1D8E7"/>
<path id="flor6_12" d="M256.238 101.359C248.844 106.177 241.609 111.264 235.428 117.734C232.565 120.796 230.065 124.177 227.977 127.811C227.616 128.398 227.179 129.038 226.84 129.55C226.84 129.55 226.771 129.496 226.566 129.523C228.695 125.384 231.324 121.522 234.394 118.024C237.755 114.412 241.49 111.166 245.536 108.342C248.086 106.514 250.639 104.706 253.23 102.946C254.202 102.361 255.206 101.831 256.238 101.359Z" fill="#F1D8E7"/>
<path id="flor6_13" d="M84.0887 132.478C76.544 124.823 68.0675 110.062 67.6632 103.895C68.6956 106.402 69.6488 108.941 70.7897 111.404C71.9306 113.867 73.2484 116.41 74.6437 118.829C76.039 121.249 77.5402 123.602 79.1357 125.881C80.7312 128.16 82.4308 130.28 84.0887 132.478Z" fill="#F1D8E7"/>
<path id="flor6_14" d="M134.609 227.581C132.683 222.288 131.321 216.807 130.544 211.228C129.301 204.087 128.773 196.839 128.966 189.592C128.955 188.976 129.106 188.369 129.403 187.83C129.386 189.142 129.358 190.446 129.361 191.756C129.411 202.45 130.812 213.094 133.531 223.436C133.898 224.824 134.195 226.231 134.521 227.624L134.609 227.581Z" fill="#F1D8E7"/>
<path id="flor6_15" d="M117.396 107.244C117.548 107.721 117.657 108.212 117.721 108.71C117.976 117.145 119.518 125.493 122.292 133.463C123.701 137.586 125.221 141.612 126.879 146.056C125.701 143.307 124.503 140.966 123.514 138.473C121.507 133.329 119.933 128.026 118.807 122.62C117.877 117.991 117.371 113.288 117.297 108.567C117.316 108.107 117.368 107.648 117.452 107.195L117.396 107.244Z" fill="#F1D8E7"/>
<path id="flor6_16" d="M253.553 140.813C263.111 144.348 272.891 146.783 283.533 145.996C283.279 146.31 282.944 146.549 282.565 146.688C282.185 146.827 281.775 146.861 281.378 146.785C274.965 147.01 268.561 146.141 262.439 144.217C259.403 143.258 256.394 142.192 253.37 141.17L253.553 140.813Z" fill="#F1D8E7"/>
<path id="flor6_17" d="M203.49 223.643C203.163 223.561 202.845 223.446 202.541 223.298C196.335 219.708 190.759 215.126 186.034 209.734C184.423 207.738 182.982 205.612 181.726 203.376C180.38 201.032 179.171 198.612 178.103 196.128C178.712 197.297 179.351 198.452 179.901 199.65C182.982 206.147 187.594 211.798 193.342 216.119C196.196 218.317 199.147 220.389 202.046 222.53C202.497 222.877 202.959 223.234 203.409 223.581L203.49 223.643Z" fill="#F1D8E7"/>
<path id="flor6_18" d="M149.171 100.202C149.617 98.9063 150.074 97.6197 150.499 96.3269C151.135 94.0813 151.887 91.8698 152.75 89.7013C154.176 86.5834 155.846 83.5796 157.527 80.5847C158.421 78.9713 159.514 77.4566 160.552 75.918C160.883 75.4532 161.336 75.0886 161.861 74.8642C159.123 78.7761 157.133 83.0799 154.717 87.1477C152.301 91.2155 151.622 96.1606 149.171 100.202Z" fill="#F1D8E7"/>
<path id="flor6_19" d="M172.545 265.409C171.639 264.84 170.68 264.34 169.816 263.693C165.569 260.443 161.771 256.644 158.523 252.395C156.125 249.437 154.074 246.213 152.41 242.788C153.883 245.082 155.127 247.22 156.581 249.205C158.107 251.252 159.74 253.217 161.473 255.092C163.17 256.918 164.958 258.657 166.829 260.305C168.73 261.972 170.785 263.463 172.778 265.035L172.545 265.409Z" fill="#F1D8E7"/>
<path id="flor6_20" d="M192.19 88.9146C186.071 97.3835 182.785 107.097 179.92 117.006C182.158 106.835 185.586 97.176 192.19 88.9146Z" fill="#F1D8E7"/>
<path id="flor6_21" d="M215.793 146.541C205.954 150.23 195.738 153.02 185.941 157.275C186.649 156.383 187.63 155.748 188.734 155.468C190.705 155.514 192.23 154.276 193.99 153.736C196.87 152.843 199.643 151.609 202.517 150.675C206.926 149.23 211.364 147.916 215.793 146.541Z" fill="#F1D8E7"/>
<path id="flor6_22" d="M158.273 246.531C161.07 249.736 163.493 252.947 166.366 255.695C169.24 258.443 172.453 260.605 175.468 263.002C172.16 262.921 161.926 253.213 158.273 246.531Z" fill="#F1D8E7"/>
<path id="flor6_23" d="M220.998 228.81C220.401 228.777 219.806 228.712 219.215 228.614C215.69 227.835 212.316 226.481 209.231 224.605C206.056 222.665 203.1 220.387 200.415 217.812C201.247 218.453 202.15 219.002 202.988 219.611C206.3 222.196 209.917 224.365 213.758 226.067C215.798 226.884 217.93 227.439 220.031 228.082L221.097 228.443L220.998 228.81Z" fill="#F1D8E7"/>
<path id="flor6_24" d="M194.711 92.7168C196.439 90.4752 197.967 88.0618 199.789 85.9119C202.501 82.7977 205.572 80.0152 208.938 77.6223C209.318 77.3588 209.719 77.126 210.137 76.9259C210.276 76.8414 210.435 76.7936 210.598 76.787C210.761 76.7804 210.922 76.8153 211.068 76.8884L209.23 78.2708C204.006 82.1666 199.366 86.7887 195.45 91.997C195.22 92.2545 194.969 92.4923 194.7 92.7079L194.711 92.7168Z" fill="#F1D8E7"/>
<path id="flor6_25" d="M287.754 133.873C284.871 135.536 272.706 135.002 266.732 133.051C273.708 133.749 280.665 134.781 287.754 133.873Z" fill="#F1D8E7"/>
<path id="flor6_26" d="M144.548 164.899C136.537 168.379 128.767 172.388 121.289 176.9C128.444 171.834 136.273 167.795 144.548 164.899Z" fill="#F1D8E7"/>
<path id="flor6_27" d="M261.472 92.1528C254.667 94.814 248.249 98.3708 242.385 102.729C248.091 98.0477 254.169 93.9836 261.472 92.1528Z" fill="#F1D8E7"/>
<path id="flor6_28" d="M226.72 212.852C229.534 213.787 232.298 214.885 235.132 215.651C237.585 216.158 240.064 216.531 242.558 216.768C243.268 216.874 244.003 216.924 244.74 216.995L244.744 217.348C244.384 217.46 244.014 217.532 243.638 217.564C238.141 217.434 232.729 216.179 227.736 213.875C227.333 213.589 226.982 213.237 226.696 212.834L226.72 212.852Z" fill="#F1D8E7"/>
<path id="flor6_29" d="M247.161 182.162C250.524 182.912 253.848 183.76 257.238 184.402C260.629 185.044 263.747 185.514 267.011 186.058C267.171 186.089 267.35 186.024 267.502 186.161C267.004 186.808 266.355 186.694 265.757 186.657C263.79 186.458 261.836 186.145 259.905 185.721C255.61 184.676 251.336 183.483 247.071 182.351L247.161 182.162Z" fill="#F1D8E7"/>
<path id="flor6_30" d="M90.5206 165.642C90.2458 165.606 89.9757 165.54 89.715 165.445C83.6527 162.619 77.8784 159.213 72.4731 155.273C71.8522 154.689 71.2971 154.039 70.8177 153.335C76.8129 157.805 83.1874 161.743 89.8682 165.103C90.1128 165.237 90.335 165.408 90.5269 165.61L90.5206 165.642Z" fill="#F1D8E7"/>
<path id="flor6_31" d="M96.6392 180.668L113.178 184.536C110.984 185.184 100.315 182.709 96.6392 180.668Z" fill="#F1D8E7"/>
<path id="flor6_32" d="M258.734 126.226C262.719 121.268 267.842 117.702 273.578 114.296C270.785 116.416 268.232 118.224 265.84 120.229C263.448 122.234 261.269 124.441 259.004 126.544L258.734 126.226Z" fill="#F1D8E7"/>
<path id="flor6_33" d="M203.449 160.435L217.467 170.443C215.424 170.25 205.093 162.843 203.449 160.435Z" fill="#F1D8E7"/>
<path id="flor6_34" d="M119.886 248.388C120.349 249.389 120.779 250.383 121.244 251.405C121.899 252.363 122.272 253.486 122.32 254.645C122.285 255.097 122.663 255.61 122.899 256.068C123.763 257.684 124.535 259.348 125.21 261.052C122.5 257.399 121.057 253.01 119.286 248.736L119.921 248.414L119.886 248.388Z" fill="#F1D8E7"/>
<path id="flor6_35" d="M70.8445 153.3C70.2544 153.803 69.8707 153.25 69.5009 152.965C65.3391 149.824 61.5882 146.174 58.3365 142.098C58.0192 141.743 57.7658 141.336 57.5877 140.895C57.8246 141.032 58.0422 141.199 58.2348 141.394C61.3649 145.176 64.8825 148.621 68.73 151.671C69.4348 152.214 70.4272 152.408 70.7911 153.369L70.8445 153.3Z" fill="#F1D8E7"/>
<path id="flor6_36" d="M132.496 127.127C133.018 129.555 133.491 132 134.125 134.404C135.172 138.304 136.341 142.187 137.449 146.079C137.66 146.739 137.75 147.433 137.714 148.125C137.002 145.919 136.181 143.758 135.611 141.533C134.508 137.277 133.546 132.981 132.589 128.727C132.512 128.224 132.491 127.714 132.527 127.206L132.496 127.127Z" fill="#F1D8E7"/>
<path id="flor6_37" d="M119.909 248.405C118.73 246.672 117.949 244.699 117.621 242.628C116.921 238.756 116.155 234.852 115.602 230.909C116.985 236.762 117.97 242.677 119.886 248.388L119.909 248.405Z" fill="#F1D8E7"/>
<path id="flor6_38" d="M227.811 144.421C221.357 147.588 214.4 149.353 207.591 151.546C214.336 149.181 221.076 146.806 227.811 144.421Z" fill="#F1D8E7"/>
<path id="flor6_39" d="M163.042 267.92C158.43 271.971 154.018 276.287 148.05 278.465C153.711 275.849 158.198 271.627 163.042 267.92Z" fill="#F1D8E7"/>
<path id="flor6_40" d="M175.049 246.051C177.055 247.726 178.989 249.493 181.073 251.042C183.156 252.592 185.363 253.887 187.657 255.379C186.558 255.359 185.499 254.959 184.661 254.249C181.957 252.166 179.306 250.013 176.679 247.878C176.044 247.389 175.544 246.746 174.983 246.185L175.049 246.051Z" fill="#F1D8E7"/>
<path id="flor6_41" d="M179.728 246.527C183.043 249.394 186.278 252.365 190.506 253.928C187.908 254.192 182.045 250.116 179.728 246.527Z" fill="#F1D8E7"/>
<path id="flor6_42" d="M185.676 133.649C185.371 138.36 185.559 143.09 186.237 147.762C185.024 143.155 184.833 138.338 185.676 133.649Z" fill="#F1D8E7"/>
<path id="flor6_43" d="M66.486 144.952L76.4448 154.301L76.2489 154.555C75.3245 153.843 74.3886 153.121 73.5444 152.305C71.8229 150.74 70.0926 149.185 68.4655 147.545C67.7547 146.713 67.105 145.831 66.5216 144.906L66.486 144.952Z" fill="#F1D8E7"/>
<path id="flor6_44" d="M180.883 123.308C181.788 118.743 183.173 114.286 185.014 110.011C183.571 114.681 182.228 119.005 180.883 123.308Z" fill="#F1D8E7"/>
<path id="flor6_45" d="M173.132 154.017C171.066 150.197 171.001 146.004 170.956 141.808C171.201 145.949 171.932 150.046 173.132 154.017Z" fill="#F1D8E7"/>
<path id="flor6_46" d="M274.04 116.659C276.847 114.588 279.891 112.86 283.108 111.511C282.479 112.518 278.215 114.922 274.04 116.659Z" fill="#F1D8E7"/>
<path id="flor6_47" d="M65.1101 107.064L70.4 118.506C67.2059 113.283 65.026 108.823 65.1101 107.064Z" fill="#F1D8E7"/>
<path id="flor6_48" d="M253.855 137.768L264.431 141.129C260.714 140.766 257.103 139.68 253.803 137.931L253.855 137.768Z" fill="#F1D8E7"/>
<path id="flor6_49" d="M146.278 156.104L149.546 164.459C148.197 163.365 146.993 160.411 146.278 156.104Z" fill="#F1D8E7"/>
<path id="flor6_50" d="M147.452 129.296L148.738 141.059C147.853 137.19 147.379 133.239 147.324 129.271L147.452 129.296Z" fill="#F1D8E7"/>
<path id="flor6_51" d="M187.745 148.004C186.641 144.846 186.283 141.475 186.697 138.155C187.053 141.437 187.403 144.72 187.745 148.004Z" fill="#F1D8E7"/>
<path id="flor6_52" d="M153.135 269.475C155.562 267.663 158.058 265.737 160.53 263.867L160.762 264.045C160.053 264.678 159.338 265.342 158.595 265.948C157.852 266.554 156.859 267.318 155.976 267.963C155.092 268.608 154.263 269.11 153.421 269.677L153.135 269.475Z" fill="#F1D8E7"/>
<path id="flor6_53" d="M131.226 197.151L132.466 208.161C131.589 204.543 131.133 200.837 131.107 197.115L131.226 197.151Z" fill="#F1D8E7"/>
<path id="flor6_54" d="M272.641 177.101C271.138 177.785 267.687 177.556 264.678 176.49L272.641 177.101Z" fill="#F1D8E7"/>
<path id="flor6_55" d="M226.732 212.788C226.47 212.77 226.157 212.842 225.925 212.737L218.48 209.303C218.631 209.106 218.729 208.979 218.807 209.021C221.189 210.064 223.571 211.107 225.935 212.174C226.233 212.35 226.509 212.562 226.755 212.806L226.732 212.788Z" fill="#F1D8E7"/>
<path id="flor6_56" d="M126.752 171.626C130.402 169.78 133.837 167.473 137.811 166.282C134.118 168.064 130.431 169.846 126.752 171.626Z" fill="#F1D8E7"/>
<path id="flor6_57" d="M279.878 136.256C282.148 135.968 284.447 135.992 286.71 136.328C284.449 136.737 282.13 136.713 279.878 136.256Z" fill="#F1D8E7"/>
<path id="flor6_58" d="M262.796 93.3021L254.678 96.7883L254.587 96.5712L262.472 92.8865L262.796 93.3021Z" fill="#F1D8E7"/>
<path id="flor6_59" d="M210.58 146.447C213.162 145.502 215.733 144.555 218.293 143.606L218.411 143.955C215.815 144.839 213.219 145.731 210.625 146.629L210.58 146.447Z" fill="#F1D8E7"/>
<path id="flor6_60" d="M157.087 270.679C156.574 271.195 156.029 271.679 155.455 272.128C154.015 273.136 152.515 274.079 151.029 275.052L150.809 274.717C152.93 273.381 155.038 272.04 157.131 270.694L157.087 270.679Z" fill="#F1D8E7"/>
<path id="flor6_61" d="M133.278 165.809C135.325 164.753 137.352 163.7 139.39 162.655L139.494 162.736L133.382 165.889L133.278 165.809Z" fill="#F1D8E7"/>
<path id="flor6_62" d="M147.324 129.271C147.243 127.846 147.13 126.415 147.058 124.979C147 124.364 147.103 123.745 147.356 123.183L147.452 129.296L147.324 129.271Z" fill="#F1D8E7"/>
<path id="flor6_63" d="M286.643 115.358L282.344 117.57L282.228 117.481L286.377 114.987L286.643 115.358Z" fill="#F1D8E7"/>
<path id="flor6_64" d="M142.67 122.095L142.617 117.838L142.929 117.839L142.904 122.054L142.67 122.095Z" fill="#F1D8E7"/>
<path id="flor6_65" d="M247.114 182.366L243.544 181.456L243.629 181.154L247.161 182.162L247.114 182.366Z" fill="#F1D8E7"/>
<path id="flor6_66" d="M117.807 103.197C117.83 104.338 117.885 105.485 117.844 106.614C117.83 106.823 117.533 107.018 117.372 107.226C117.51 105.877 117.624 104.51 117.763 103.181L117.807 103.197Z" fill="#F1D8E7"/>
<path id="flor6_67" d="M233.984 178.234L236.37 178.912L236.477 178.774L234.051 178.194L233.984 178.234Z" fill="#F1D8E7"/>
<path id="flor6_68" d="M186.294 127.183L186.907 125.096L187.122 125.152L186.587 127.28L186.294 127.183Z" fill="#F1D8E7"/>
<path id="flor6_69" d="M185.911 129.926L185.74 132.538L185.26 132.444C185.495 131.613 185.731 130.782 185.955 129.941L185.911 129.926Z" fill="#F1D8E7"/>
<path id="flor6_70" d="M173.406 182.843L174.189 186.153L173.403 182.822L173.406 182.843Z" fill="#F1D8E7"/>
<path id="flor6_71" d="M147.059 121.37C147.064 120.693 147.082 120.026 147.079 119.36L147.286 119.354L147.315 121.42L147.059 121.37Z" fill="#F1D8E7"/>
<path id="flor6_72" d="M179.038 119.751C179.188 119.222 179.326 118.684 179.431 118.213L179.656 118.257L179.246 119.912L179.038 119.751Z" fill="#F1D8E7"/>
<path id="flor6_73" d="M194.7 92.7077C194.341 93.3887 194.006 94.0145 193.591 94.7443L193.302 94.5218C193.774 93.9094 194.246 93.297 194.718 92.6846L194.7 92.7077Z" fill="#F1D8E7"/>
<path id="flor6_74" d="M132.528 127.133L131.993 124.696L132.35 124.64L132.496 127.127L132.528 127.133Z" fill="#F1D8E7"/>
<path id="flor6_75" d="M149.907 237.839L149.179 236.395L149.898 237.851L149.907 237.839Z" fill="#F1D8E7"/>
<path id="flor6_76" d="M176.565 192.365L177.256 193.69L176.493 192.292L176.565 192.365Z" fill="#F1D8E7"/>
<path id="flor6_77" d="M131.575 118.5L131.99 120.661L131.61 120.7L131.609 118.526L131.575 118.5Z" fill="#F1D8E7"/>
<path id="flor6_78" d="M131.083 197.097L130.818 195.051L131.128 195.032L131.141 197.142L131.083 197.097Z" fill="#F1D8E7"/>
<path id="flor6_79" d="M150.885 240.25L151.412 241.264L150.894 240.239L150.885 240.25Z" fill="#F1D8E7"/>
<path id="flor6_80" d="M203.481 223.655L205.093 224.454L204.862 224.755L203.441 223.66L203.481 223.655Z" fill="#F1D8E7"/>
<path id="flor6_81" d="M126.868 168.751L128.057 168.14L128.115 168.184L127.004 168.838L126.868 168.751Z" fill="#F1D8E7"/>
<path id="flor6_82" d="M173.438 182.849L172.812 180.985L173.134 180.902L173.452 182.878L173.438 182.849Z" fill="#F1D8E7"/>
<path id="flor6_83" d="M137.131 234.441L136.576 233.369L137.137 234.482L137.131 234.441Z" fill="#F1D8E7"/>
<path id="flor6_84" d="M251.8 136.922L253.89 137.722L253.757 137.896L251.742 136.878L251.8 136.922Z" fill="#F1D8E7"/>
<path id="flor6_85" d="M129.669 183.781C129.64 184.2 129.611 184.62 129.562 185.043L129.323 185.042L129.423 183.812L129.669 183.781Z" fill="#F1D8E7"/>
<path id="flor6_86" d="M175.379 189.316L175.826 190.194L175.379 189.316Z" fill="#F1D8E7"/>
<path id="flor6_87" d="M134.557 227.578L135.3 229.863L134.554 227.557L134.557 227.578Z" fill="#F1D8E7"/>
<path id="flor6_88" d="M135.3 229.863L136.186 231.558L135.998 231.634L135.355 229.887L135.3 229.863Z" fill="#F1D8E7"/>
<path id="flor6_89" d="M138.312 237.45L137.865 236.572L138.312 237.45Z" fill="#F1D8E7"/>
<path id="flor6_90" d="M117.85 103.212C117.814 102.686 117.756 102.163 117.71 101.649L118.066 101.665L117.807 103.197L117.85 103.212Z" fill="#F1D8E7"/>
<path id="flor6_91" d="M219.63 171.649L220.522 172.189L220.397 172.351L219.468 171.837L219.63 171.649Z" fill="#F1D8E7"/>
<path id="flor6_92" d="M157.131 270.694C157.531 270.413 157.92 270.124 158.344 269.788L158.483 269.895L157.167 270.575L157.131 270.694Z" fill="#F1D8E7"/>
<path id="flor6_93" d="M99.2952 169.788L98.6569 169.517L98.7815 169.355L99.4198 169.626L99.2952 169.788Z" fill="#F1D8E7"/>
<path id="flor6_94" d="M97.3865 168.944L96.565 168.624L96.6809 168.234L97.3865 168.944Z" fill="#F1D8E7"/>
<path id="flor6_95" d="M174.189 186.152L174.944 187.563L174.872 187.655L174.304 186.241L174.189 186.152Z" fill="#F1D8E7"/>
<path id="flor6_96" d="M95.1816 167.982L94.497 167.675L94.6156 167.306L95.3695 167.666L95.1816 167.982Z" fill="#F1D8E7"/>
<path id="flor6_97" d="M236.945 169.467L237.37 169.537L237.306 169.763L236.945 169.467Z" fill="#F1D8E7"/>
<path id="flor6_98" d="M92.0888 166.427L90.5205 165.642L92.0799 166.439L92.0888 166.427Z" fill="#F1D8E7"/>
<path id="flor6_99" d="M251.788 136.913L250.556 136.553L250.7 136.222L251.8 136.922L251.788 136.913Z" fill="#F1D8E7"/>
<path id="flor6_100" d="M117.451 219.26L117.49 218.516L117.691 218.542L117.62 219.28L117.451 219.26Z" fill="#F1D8E7"/>
<path id="flor6_101" d="M117.772 222.453L117.59 221.135L117.894 221.147L117.716 222.429L117.772 222.453Z" fill="#F1D8E7"/>
<path id="flor6_102" d="M117.716 222.429L117.843 224.368C117.772 223.742 117.713 223.126 117.663 222.498L117.716 222.429Z" fill="#F1D8E7"/>
<path id="flor6_103" d="M117.888 224.31L118.313 225.669L118.03 225.727L117.952 224.322L117.888 224.31Z" fill="#F1D8E7"/>
<path id="flor6_104" d="M147.829 232.243L147.482 231.57L147.843 232.272L147.829 232.243Z" fill="#F1D8E7"/>
<path id="flor6_105" d="M185.943 129.933L185.938 128.529L186.331 128.593L185.906 129.885L185.943 129.933Z" fill="#F1D8E7"/>
<path id="flor6_106" d="M148.323 233.968L148.631 234.573L148.337 233.997L148.323 233.968Z" fill="#F1D8E7"/>
<path id="flor6_107" d="M92.0647 166.482L93.33 166.776L93.192 167.075L92.0888 166.427L92.0647 166.482Z" fill="#F1D8E7"/>
<path id="flor6_108" d="M254.458 205.959C254.034 206.847 253.555 207.708 253.024 208.537C249.773 213.094 246.007 217.26 241.8 220.954C238.487 223.744 234.535 225.672 230.297 226.564C226.498 227.418 222.773 228.576 219.159 230.026C216.806 230.867 214.583 232.037 212.559 233.502C211.954 233.912 211.271 234.192 210.553 234.326C209.835 234.461 209.097 234.446 208.385 234.283C199.885 233.344 192.02 229.334 186.268 223.005C183.313 219.791 180.7 216.278 178.471 212.524C176.689 209.654 175.053 206.697 173.568 203.664C172.465 201.168 171.573 198.584 170.902 195.939C169.882 192.483 169.32 189.03 168.308 185.635C167.809 184.152 167.03 182.777 166.015 181.585C164.668 179.94 163.013 180.009 161.5 181.495C160.354 182.677 159.608 184.189 159.366 185.817C158.698 190.321 158.741 194.903 159.494 199.394C160.483 205.68 162.596 211.737 165.733 217.275C170.94 226.531 177.79 234.76 185.948 241.56C189.611 244.952 194.145 247.259 199.043 248.224C199.981 248.394 201.187 248.31 201.779 249.668C201.183 250.03 200.559 250.344 199.914 250.607C195.597 252.052 191.45 253.963 187.548 256.308C183.68 258.557 179.974 261.097 176.174 263.472C170.432 267.076 165.537 271.757 160.269 275.966C156.428 278.842 152.202 281.165 147.715 282.866C144.705 284.092 141.561 284.964 138.349 285.464C135.882 285.973 133.338 285.985 130.866 285.5C128.394 285.015 126.044 284.043 123.952 282.64C121.83 281.188 119.683 279.792 117.536 278.396C114.41 276.222 111.841 273.341 110.039 269.987C106.475 263.933 104 257.302 102.725 250.394C101.335 242.639 99.6771 234.825 99.6753 226.869C99.6701 222.095 99.8286 217.301 100.234 212.568C100.64 207.835 101.491 202.93 102.157 198.122C102.225 197.604 102.221 197.084 102.285 196.379C100.747 196.914 99.35 197.788 98.1966 198.937C96.0725 200.523 94.1465 202.354 92.0366 203.969C90.2124 205.381 88.2104 206.545 86.3364 207.974C85.1457 208.898 84.1977 210.009 83.0533 210.968C79.7027 213.764 76.3033 216.503 72.9527 219.298C71.5205 220.298 69.9141 221.021 68.2162 221.431C67.9173 221.532 67.4826 221.307 66.8308 221.174C67.2036 220.586 67.6094 220.019 68.0461 219.477C69.318 218.137 70.5579 216.79 71.9133 215.533C72.9235 214.58 74.1869 213.896 75.1277 212.89C80.4468 207.229 86.6704 202.689 92.8541 198.08C94.6632 196.712 96.6802 195.504 98.4705 194.232C98.7473 194.04 99.0125 193.839 99.5428 193.438C98.924 193.237 98.5382 193.069 98.1425 192.985C93.7152 191.968 89.2415 191.154 84.8811 189.931C74.9395 187.132 66.4122 181.685 58.535 175.156C54.5284 171.954 50.9399 168.261 47.8536 164.164C44.5989 160.094 42.3598 155.308 41.3214 150.201C40.1973 143.295 41.1477 136.828 46.1971 131.493C48.8618 128.855 50.8041 125.577 51.8375 121.973C52.2547 120.577 52.9157 119.266 53.79 118.101C57.3743 112.928 61.5844 108.218 66.3246 104.078C70.1371 100.899 74.5505 98.519 79.302 97.0811C81.0888 96.3847 82.8324 95.5821 84.5235 94.6777C85.0431 94.4335 85.5484 94.16 86.2299 93.8012C86.4119 94.261 86.5436 94.7391 86.6228 95.2271C86.7481 101.087 88.1391 106.762 89.2846 112.469C90.4195 118.117 92.1382 123.631 94.4132 128.923C95.4891 131.446 96.4067 134.032 97.6383 136.472C101.768 144.663 107.418 151.502 115.739 155.758C117.203 156.473 118.724 157.065 120.285 157.53C121.042 157.694 121.816 157.765 122.59 157.74C122.741 157.38 122.763 156.979 122.652 156.605C122.541 156.231 122.304 155.907 121.981 155.687C119.013 152.9 116.347 149.808 114.025 146.464C113.029 145.096 112.14 143.654 111.365 142.15C108.397 136.355 106.209 130.194 104.86 123.825C102.643 112.909 103.385 101.599 107.009 91.0656C107.546 89.5871 108.209 88.1578 108.993 86.7939C109.487 85.7941 110.232 84.9399 111.156 84.3151C112.079 83.6903 113.15 83.3163 114.261 83.2299C117.854 82.941 121.448 82.5062 125.045 82.4974C133.266 82.4095 141.422 81.0397 149.22 78.4376C154.601 76.5504 160.132 75.1202 165.754 74.1619C168.356 73.8472 170.985 73.8343 173.591 74.1235C174.008 74.2032 174.42 74.3059 174.826 74.4313C174.597 75.0421 174.315 75.6319 173.984 76.1942C173.094 77.3496 172.083 78.5415 171.143 79.7138C170.894 80.0373 170.645 80.3609 170.404 80.6729C167.409 84.709 164.893 89.0804 162.909 93.6987C159.451 101.758 157.526 110.391 157.234 119.156C157.08 122.456 157.487 125.759 158.438 128.922C159.003 130.448 159.675 131.931 160.449 133.362C160.611 133.753 160.905 134.075 161.281 134.27C161.656 134.465 162.088 134.521 162.501 134.428C163.783 133.646 164.761 132.452 165.276 131.041C165.896 129.535 166.387 127.979 166.742 126.39C167.765 120.88 168.787 115.37 169.545 109.822C170.581 102.41 172.841 95.2221 176.231 88.5499C179.124 82.8055 183.127 77.6913 188.008 73.5023C188.712 72.8115 189.557 72.2824 190.486 71.9518C191.415 71.6212 192.405 71.4971 193.387 71.5881C195.881 71.7834 198.358 72.1539 200.8 72.6967C206.927 74.3049 212.937 76.0633 218.966 77.7987C222.435 78.8128 225.989 79.5112 229.585 79.8853C232.681 80.0698 235.715 80.8335 238.53 82.1369C239.459 82.6197 240.345 83.1797 241.18 83.811C241.653 84.2423 242.081 84.7199 242.457 85.2366C241.415 85.7774 240.624 86.2544 239.776 86.614C236.188 88.14 232.512 89.4694 228.992 91.1946C225.812 92.7405 222.805 94.6592 219.73 96.4515C215.972 98.6731 212.415 101.219 209.099 104.06C203.599 108.586 198.941 114.049 195.341 120.196C193.062 123.836 192.07 128.136 192.525 132.407C192.61 133.285 192.952 134.119 193.506 134.805C194.061 135.491 194.805 136 195.646 136.267C196.973 136.766 198.444 136.721 199.738 136.142C202.102 135.184 204.098 133.497 205.437 131.326C207.685 127.644 209.854 123.92 211.989 120.17C217.018 111.484 223.419 103.668 230.944 97.0258C234.287 94.1957 238.112 91.991 242.237 90.5174C247.406 88.3635 253.209 88.3049 258.42 90.3539C259.837 90.8507 261.208 91.4698 262.518 92.2042C266.105 94.3601 269.615 96.6404 272.945 98.7463C273.18 99.9951 272.691 100.391 271.952 100.633C266.784 102.566 261.811 104.987 257.102 107.862C253.754 109.664 250.849 112.186 248.595 115.247C247.575 116.803 246.666 118.429 245.877 120.113C245.581 120.664 245.48 121.298 245.592 121.913C245.704 122.527 246.021 123.086 246.492 123.497C246.928 123.897 247.483 124.143 248.073 124.198C248.662 124.253 249.253 124.114 249.756 123.802C252.824 122.389 255.443 120.157 257.323 117.35C258.597 115.686 260.059 114.174 261.679 112.844C266.489 108.664 272.359 105.891 278.643 104.83C280.248 106.934 281.964 108.951 283.784 110.872C285.751 112.682 287.854 114.339 290.074 115.829C292.269 117.354 294.583 118.676 297.014 120.181C296.72 120.563 296.474 121.073 296.173 121.559C293.874 124.849 291.747 128.256 289.8 131.767C288.11 135.543 286.625 139.409 285.353 143.347C284.442 145.867 283.545 148.417 282.85 150.993C282.571 151.946 282.036 152.804 281.303 153.473C280.57 154.143 279.667 154.597 278.692 154.788C274.974 155.993 271.1 156.649 267.193 156.736C262.827 156.834 258.444 156.882 254.088 156.657C248.568 156.472 243.17 154.987 238.331 152.324C236.145 151.099 233.856 150.054 231.606 148.984C230.218 148.32 228.641 148.16 227.148 148.532C226.835 148.539 226.529 148.625 226.257 148.78C225.986 148.936 225.757 149.156 225.592 149.423C225.427 149.689 225.332 149.992 225.313 150.304C225.295 150.617 225.355 150.929 225.488 151.212C226.133 153.905 227.759 156.26 230.047 157.818C233.287 160.226 236.901 162.084 240.745 163.316C250.974 166.602 261.596 168.512 272.329 168.998C273.3 169.028 274.27 169.131 275.29 169.217C275.255 171.972 274.663 174.692 273.55 177.212C271.11 182.63 267.886 187.66 263.982 192.139C263.198 193.072 262.105 193.694 260.902 193.891C255.862 194.934 250.659 194.914 245.627 193.833C238.417 192.376 231.407 190.066 224.745 186.951C217.721 183.647 210.977 179.781 204.577 175.39C202.995 174.336 201.538 173.048 199.887 172.108C198.779 171.475 197.568 171.041 196.31 170.825C195.887 170.721 195.445 170.718 195.021 170.814C194.596 170.911 194.199 171.104 193.862 171.38C193.525 171.655 193.256 172.005 193.077 172.402C192.898 172.799 192.813 173.233 192.83 173.668C192.815 174.885 193.018 176.095 193.429 177.241C194.947 181.124 197.605 184.456 201.054 186.798C204.698 189.477 208.603 191.841 212.425 194.289C221.294 199.962 231.213 202.67 241.437 204.433C244.988 205.034 248.621 205.218 252.205 205.585L254.458 205.959ZM291.398 120.826L291.566 121.158C290.999 121.442 290.411 121.685 289.809 121.885C287.382 122.501 284.967 123.126 282.527 123.64C268.53 126.537 254.402 129.076 240.677 132.956C234.535 134.503 228.56 136.654 222.841 139.376C217.904 141.889 212.633 143.425 207.53 145.459C207.476 145.529 207.296 145.5 207.196 145.534C203.224 146.579 199.451 148.202 195.424 149.151C191.837 150.139 188.32 151.366 184.896 152.824C181.31 154.204 177.77 155.693 174.255 157.22C171.309 158.486 168.42 159.869 165.503 161.194C159.249 164.054 152.921 166.746 146.766 169.812C140.191 173.087 133.796 176.704 127.343 180.203C125.401 181.266 123.513 182.426 121.625 183.586C118.313 185.638 115.007 187.706 111.707 189.791C109.544 191.164 107.394 192.545 105.291 194.055C104.587 194.558 104.048 195.257 103.742 196.066C103.3 197.501 102.997 198.975 102.836 200.468C102.076 204.768 101.601 209.114 101.413 213.476C101.438 216.718 100.871 219.964 100.761 223.212C100.487 231.766 101.957 240.135 103.491 248.516C104.774 256.486 107.673 264.109 112.011 270.917C113.466 273.317 115.373 275.411 117.626 277.084C120.18 278.812 122.763 280.526 125.361 282.197C128.185 284.002 131.502 284.877 134.849 284.701C136.19 284.585 137.522 284.381 138.836 284.09C142.858 283.398 146.78 282.223 150.52 280.589C155.145 278.5 159.408 275.686 163.147 272.254C167.326 268.463 171.818 265.031 176.575 261.995C178.893 260.54 181.185 259.047 183.491 257.583C187.817 254.823 192.39 252.472 197.152 250.56C197.756 250.325 198.294 249.985 199.231 249.51L197.111 248.963C193.736 248.233 190.576 246.731 187.879 244.575C185.639 242.702 183.336 240.744 181.16 238.717C174.921 232.932 169.572 226.254 165.289 218.903C162.973 214.916 161.157 210.659 159.88 206.229C157.955 199.772 157.366 192.99 158.149 186.297C158.413 184.077 159.45 182.021 161.078 180.489C161.452 180.099 161.906 179.796 162.408 179.6C162.911 179.403 163.45 179.319 163.989 179.352C164.528 179.385 165.053 179.535 165.528 179.791C166.002 180.048 166.416 180.404 166.739 180.836C167.863 182.238 168.752 183.812 169.372 185.498C170.436 188.896 171.092 192.347 171.957 195.812C172.496 198.122 173.214 200.387 174.104 202.586C177.169 209.263 181.161 215.475 185.961 221.038C191.77 227.957 200.04 232.348 209.025 233.284C209.825 233.38 210.635 233.261 211.373 232.938C214.175 231.691 216.907 230.224 219.824 229.139C223.101 227.829 226.441 226.684 229.832 225.709C233.976 224.707 237.84 222.78 241.135 220.073C245.189 216.393 248.87 212.321 252.122 207.915C252.327 207.65 252.532 207.384 252.852 206.968C251.937 206.889 251.524 206.828 251.118 206.829C246.86 206.713 242.623 206.175 238.471 205.223C229.753 203.441 221.217 201.137 213.559 196.378C209.692 193.988 205.817 191.61 202.045 189.072C198.581 186.785 195.67 183.755 193.521 180.203C192.25 178.298 191.592 176.05 191.636 173.76C191.633 173.187 191.754 172.619 191.99 172.096C192.227 171.574 192.574 171.108 193.007 170.732C193.44 170.356 193.95 170.078 194.5 169.917C195.051 169.756 195.63 169.716 196.198 169.799C197.463 169.96 198.691 170.339 199.827 170.92C200.958 171.619 202.05 172.38 203.097 173.2C206.332 175.287 209.558 177.386 212.834 179.395C221.814 185.025 231.603 189.245 241.862 191.908C248.594 193.615 255.384 194.409 262.367 192.515C265.775 188.654 268.711 184.402 271.115 179.847C272.524 177.289 273.503 174.516 274.013 171.64C274.116 171.148 274.113 170.649 274.179 170.11C272.152 170.04 270.288 170.022 268.434 169.919C259.893 169.192 251.446 167.619 243.217 165.222C239.434 164.194 235.813 162.644 232.459 160.615C229.026 158.693 226.34 155.671 224.836 152.035C223.882 149.735 224.583 148.157 227 147.553C228.595 147.116 230.291 147.245 231.801 147.918C234.252 149.015 236.685 150.135 239.035 151.411C241.788 152.962 244.767 154.071 247.864 154.697C256.782 156.297 265.914 156.286 274.828 154.665C277.099 154.327 279.295 153.602 281.321 152.523C282.329 149.303 283.389 146.087 284.341 142.844C286.251 135.664 289.509 128.913 293.941 122.951C294.573 122.131 295.124 121.248 295.648 120.473C292.381 118.379 289.118 116.473 286.056 114.28C282.981 112.097 280.423 109.265 278.564 105.985C278.274 105.961 277.982 105.971 277.694 106.014C272.85 107.092 268.275 109.143 264.248 112.042C262.781 113.094 261.438 114.308 260.245 115.661C258.728 117.919 256.776 119.852 254.502 121.345C254.349 121.431 254.216 121.548 254.11 121.688C252.874 123.321 251.088 124.45 249.083 124.867C248.475 125.068 247.823 125.099 247.198 124.957C246.574 124.815 246 124.505 245.538 124.061C245.077 123.616 244.746 123.054 244.581 122.435C244.416 121.816 244.423 121.164 244.602 120.549C244.777 119.875 245.012 119.218 245.304 118.586C247.593 113.746 251.388 109.777 256.12 107.272C260.3 104.858 264.801 102.912 269.108 100.835C269.977 100.4 270.823 99.947 271.76 99.472C270.732 98.6797 269.773 97.9407 268.76 97.2712C265.304 94.7712 261.533 92.7387 257.545 91.2265C253.758 89.7734 249.611 89.5401 245.685 90.5592C240.62 91.7988 235.922 94.226 231.98 97.6403C224.583 104.166 218.267 111.823 213.268 120.326C210.979 124.253 208.725 128.206 206.347 132.082C204.779 134.501 202.459 136.337 199.744 137.306C198.37 137.83 196.854 137.839 195.475 137.331C194.095 136.824 192.947 135.834 192.241 134.545C191.607 133.104 191.321 131.534 191.407 129.962C191.547 126.331 192.606 122.794 194.484 119.683C200.041 110.081 207.963 102.834 217.178 96.8969C218.993 95.7359 220.897 94.6986 222.712 93.5376C227.077 90.8434 231.702 88.5957 236.517 86.8284L241.127 85.0035C240.083 84.3277 239.438 83.8496 238.734 83.4729C235.902 82.0738 232.819 81.257 229.666 81.0709C225.66 80.6532 221.703 79.8496 217.852 78.6712C212.143 76.9983 206.441 75.2935 200.666 73.8269C197.988 73.2865 195.279 72.9152 192.555 72.7152C191.915 72.668 191.273 72.7621 190.674 72.9908C190.074 73.2195 189.532 73.5772 189.087 74.0385C184.118 78.3017 180.058 83.5217 177.15 89.3875C173.685 96.3984 171.4 103.934 170.39 111.689C169.707 116.686 168.862 121.559 167.852 126.526C167.416 128.455 166.773 130.33 165.936 132.121C165.471 133.058 164.827 133.894 164.039 134.582C162.453 136.067 160.988 135.914 159.826 134.171C158.803 132.547 157.99 130.801 157.405 128.973C156.262 125.086 155.848 121.021 156.183 116.984C156.791 108.536 158.852 100.258 162.277 92.5118C164.039 88.8951 166.008 85.3826 168.173 81.9918C168.501 81.5184 168.876 81.0795 169.293 80.6818C170.72 79.0198 171.963 77.2154 173.375 75.1914C171.836 75.1102 170.694 74.967 169.515 75.0159C168.234 75.0465 166.955 75.1497 165.686 75.3251C159.955 76.3119 154.318 77.7839 148.836 79.725C141.238 82.2487 133.293 83.5701 125.287 83.6413C122.043 83.6459 118.785 84.0267 115.536 84.1567C112.287 84.2867 110.261 86.2239 108.978 89.0839C108.818 89.4582 108.647 89.8236 108.499 90.2068C105.289 98.8821 104.093 108.174 105.002 117.379C105.646 123.818 107.238 130.127 109.728 136.101C112.332 142.918 116.449 149.055 121.769 154.051C122.43 154.622 123.015 155.277 123.509 155.999C123.753 156.26 123.912 156.59 123.963 156.944C124.015 157.298 123.956 157.659 123.796 157.979C123.636 158.299 123.382 158.563 123.067 158.733C122.753 158.904 122.394 158.975 122.038 158.935C121.285 159.004 120.526 158.926 119.803 158.705C118.177 158.218 116.59 157.61 115.054 156.887C107.644 152.946 101.618 146.831 97.7846 139.365C94.5734 133.4 92.014 127.107 90.1508 120.594C87.7861 112.793 86.2368 104.769 85.5278 96.6484C85.4616 96.2763 85.3688 95.9095 85.2503 95.5507C84.413 95.992 83.7048 96.3855 82.9682 96.7202C81.6034 97.3443 80.2467 98.0299 78.8251 98.5366C74.8248 99.8193 71.088 101.812 67.7936 104.418C62.6927 108.686 58.2004 113.632 54.442 119.119C53.5175 120.525 52.8018 122.057 52.3173 123.669C51.5482 126.061 50.3335 128.287 48.7371 130.227C48.1318 131.013 47.5264 131.799 46.8642 132.467C42.7183 136.749 41.8026 142.12 42.0366 147.695C42.3827 152.251 43.9417 156.631 46.5518 160.381C49.6207 165.141 53.3859 169.413 57.722 173.056C64.1485 178.75 71.4336 183.394 79.3082 186.815C83.4736 188.48 87.7793 189.77 92.1741 190.67C94.6238 191.195 97.1039 191.632 99.5573 192.105C100.092 192.239 100.651 192.248 101.19 192.129C101.729 192.01 102.232 191.768 102.662 191.421C103.841 190.489 105.095 189.816 106.336 189.042C110.862 186.084 115.249 183.019 119.962 180.224C126.623 176.358 133.363 172.645 140.182 169.084C146.905 165.592 153.782 162.402 160.689 159.197C164.737 157.289 168.853 155.507 172.984 153.755C177.584 151.775 182.147 149.988 186.734 148.145C190.027 146.834 193.298 145.432 196.659 144.321C203.51 142.049 210.402 139.939 217.269 137.79C219.774 137.131 222.231 136.298 224.621 135.298C229.813 132.721 235.311 130.813 240.983 129.619C245.783 128.695 250.55 127.599 255.368 126.818C264.729 125.303 274.126 123.981 283.505 122.515C286.096 122.044 288.745 121.378 291.398 120.826ZM259.114 127.716L259.051 127.391C258.764 127.381 258.477 127.387 258.19 127.409C250.984 128.375 243.845 129.787 236.814 131.637C235.459 131.87 234.116 132.176 232.794 132.553C230.624 133.386 228.561 134.485 226.42 135.376C223.698 136.52 220.918 137.619 218.122 138.595C216.182 139.273 214.146 139.693 212.172 140.271C210.716 140.678 209.266 141.126 207.842 141.612C203.001 143.259 198.138 144.815 193.336 146.603C188.534 148.39 183.491 150.49 178.605 152.506C173.276 154.643 168.051 156.86 162.837 159.158C158.784 160.952 154.751 162.817 150.836 164.864C140.913 170.047 131.019 175.313 121.152 180.662C118.355 182.19 115.8 183.904 113.146 185.652C110.136 187.624 107.166 189.662 104.211 191.657C100.74 194.011 97.2417 196.305 93.8345 198.744C88.9135 202.186 84.2396 205.968 79.847 210.063C78.5974 211.255 77.1088 212.207 75.8246 213.372C74.5403 214.537 73.7035 215.623 72.6096 216.732C71.6991 217.651 70.7513 218.523 69.5872 219.651C70.5174 219.662 71.4153 219.31 72.0914 218.671C76.1313 215.818 79.4665 212.182 83.4228 209.246C86.4305 207.015 89.2721 204.546 92.2141 202.209C96.7526 198.578 101.488 195.2 106.399 192.091C110.832 189.301 115.251 186.482 119.686 183.712C121.563 182.544 123.491 181.451 125.393 180.32C128.456 178.519 131.457 176.633 134.572 174.908C137.687 173.183 141.064 171.476 144.358 169.853C148.17 167.965 152.021 166.145 155.924 164.402C161.11 162.044 166.35 159.784 171.556 157.424C176.762 155.064 181.831 152.764 187.176 150.917C193.685 148.658 200.191 146.452 206.854 144.663C210.646 143.72 214.303 142.299 217.736 140.434C218.68 140.029 219.659 139.711 220.66 139.482C221.105 139.341 221.538 139.164 221.954 138.951C226.251 136.741 230.776 135.004 235.447 133.769C242.195 131.823 249.042 130.249 255.848 128.514L259.114 127.716Z" fill="#F1D8E7"/>
<path id="flor6_109" d="M149.75 175.499C150.518 176.082 151.137 176.84 151.555 177.71C151.973 178.58 152.179 179.536 152.156 180.501C152.128 181.372 152.021 182.239 151.836 183.091C151.283 186.199 150.738 189.297 150.062 192.348C149.754 193.824 149.298 195.276 148.894 196.733C148.799 197.07 148.647 197.389 148.444 197.675C147.75 198.743 147.125 199.937 145.585 199.928C144.044 199.92 143.408 198.786 142.849 197.6C141.956 195.63 141.467 193.502 141.412 191.34C141.356 189.178 141.736 187.027 142.528 185.015C143.407 182.493 144.519 180.058 145.849 177.741C146.225 177.04 146.79 176.459 147.479 176.063C148.168 175.666 148.955 175.471 149.75 175.499ZM149.059 176.587C148.481 176.753 147.949 177.05 147.506 177.456C147.062 177.862 146.719 178.365 146.502 178.925C145.535 180.777 144.65 182.691 143.828 184.618C142.771 187.097 142.37 189.807 142.664 192.486C142.896 194.091 143.275 195.671 143.796 197.206C143.875 197.612 144.079 197.983 144.381 198.265C144.683 198.548 145.067 198.727 145.477 198.777C145.92 198.772 146.349 198.62 146.697 198.345C147.045 198.07 147.293 197.689 147.402 197.259C147.99 195.991 148.449 194.666 148.772 193.306C149.548 189.669 150.238 186.002 150.907 182.338C151.083 181.425 151.119 180.491 151.016 179.567C151.011 178.93 150.822 178.307 150.47 177.775C150.119 177.242 149.62 176.823 149.036 176.569L149.059 176.587Z" fill="#F1D8E7"/>
</g>
<defs>
<clipPath id="clip0_37_1388">
<rect width="213.092" height="237.101" fill="white" transform="translate(144.708) rotate(37.6129)"/>
</clipPath>
</defs>
</svg>
