<svg width="190" height="191" viewBox="0 0 190 191" fill="none" xmlns="http://www.w3.org/2000/svg">
<path id="hoja2" opacity="0.3" d="M118.977 148.011C127.456 151.723 144.317 160.966 146.121 156.084C147.94 151.106 127.636 146.751 120.241 145.637C117.585 145.213 115.315 144.699 113.297 144.188C112.681 143.984 112.064 143.783 111.455 143.577C112.699 142.877 115.183 141.58 119.514 139.729C124.44 137.53 135.196 134.741 132.835 130.124C130.405 125.388 121.215 133.925 118.344 137.327C115.132 140.92 112.409 142.171 110.675 143.324C108.381 142.554 106.083 141.798 103.751 141.156L99.6546 140.166C100.04 139.947 100.505 139.687 101.158 139.343C102.952 138.39 105.835 136.996 110.174 135.227C113.32 133.939 118.312 132.243 122.219 130.182C126.126 128.12 128.847 125.666 127.43 123.463C126.013 121.259 122.637 122.72 118.927 125.097C115.217 127.474 111.223 130.88 109.158 132.754C104.538 136.934 101.006 138.485 98.8128 139.965L97.9299 139.753L95.0135 139.066L92.0517 138.605L90.3512 138.342C91.6266 137.451 94.1405 135.828 98.5705 133.516C101.133 132.167 105.266 130.291 108.325 127.98C111.402 125.692 113.225 122.983 111.367 121.138C109.509 119.293 107.032 120.963 104.34 123.438C101.647 125.914 98.7504 129.332 97.254 131.199C94.03 135.189 91.2298 136.788 89.5051 138.212L86.1324 137.689L80.1493 137.235L77.1564 137.019L74.9967 137.033C76.3217 136.238 78.9349 134.779 83.4342 132.669C88.6095 130.23 100.041 126.247 97.254 121.791C94.4665 117.336 85.336 126.695 82.2098 130.292C78.6599 134.329 75.6726 135.706 73.8743 137.038C71.964 137.068 70.0481 137.006 68.1435 137.142C66.6385 137.221 65.1378 137.371 63.637 137.521L64.9365 136.505C66.5209 135.316 69.0249 133.435 72.8058 130.961C75.5536 129.161 79.9353 126.763 83.369 124.739C86.7772 122.665 89.3847 120.895 88.3771 118.457C87.3695 116.019 83.4413 117.129 79.7993 119.841C76.1431 122.528 72.9206 126.558 71.3306 128.734C67.6532 133.785 64.466 135.862 62.5699 137.614C59.859 137.915 57.165 138.355 54.4853 138.879C56.2314 137.572 57.9047 136.17 59.4976 134.68C61.6346 132.733 64.8529 129.731 67.0991 127.203C69.3197 124.636 70.8119 122.536 69.1454 120.495C67.4788 118.453 64.4391 120.4 62.261 123.557C60.0673 126.689 58.5255 130.685 57.6086 132.786C56.1915 136.138 54.3322 137.997 52.7238 139.246C49.9632 139.837 47.2154 140.503 44.5045 141.319C44.2097 141.409 43.9178 141.509 43.623 141.601C44.4591 140.544 45.7416 138.854 47.4861 136.307C48.7615 134.451 50.7979 131.617 51.916 129.127C53.0341 126.637 53.3332 124.448 50.985 123.28C48.6368 122.112 47.0553 124.213 46.2476 127C45.4398 129.787 45.2768 133.181 45.1479 135.013C44.9155 138.65 43.4898 140.576 42.5205 141.958C39.6594 142.899 36.8435 143.964 34.0887 145.183C34.7377 144.363 35.5228 143.38 36.4822 142.188C37.7973 140.565 39.9711 138.172 41.2706 135.983C42.5701 133.795 43.0477 131.782 40.8554 130.337C40.0817 129.828 39.366 129.738 38.7156 129.926C40.5068 127.682 42.3519 125.479 44.2778 123.352C48.0621 119.195 52.0655 115.241 56.2708 111.509C56.2708 111.509 57.2699 111.376 59.628 111.337C61.9861 111.299 65.7032 111.468 71.0868 112.302C74.9938 112.893 80.9826 114.294 86.2174 114.605C91.4608 114.954 95.7631 113.958 95.4882 111.353C95.2133 108.748 91.0767 108.515 85.9935 108.55C80.9103 108.586 74.8068 109.178 71.5956 109.666C64.5454 110.674 60.1169 110.454 57.0375 110.831C59.8717 108.334 62.7825 105.924 65.7698 103.6C66.5067 103.689 67.5015 103.775 68.7996 103.804C70.418 103.848 72.4841 103.757 75.0023 103.693C76.3618 103.651 77.7226 103.677 79.0794 103.773L84.0393 104.153C89.209 104.608 97.0286 106.063 103.562 107.084C110.099 108.074 115.45 108.467 115.881 105.867C116.306 103.293 110.622 101.633 103.702 101.01C96.7835 100.335 88.7385 100.919 84.5537 101.507C82.027 101.844 79.7709 102.105 77.7232 102.278L72.2234 102.916C70.327 103.11 68.4174 103.145 66.5152 103.019C69.5998 100.638 72.7472 98.34 75.9575 96.1256L79.0496 96.2034C81.908 96.3194 86.4187 96.53 92.9473 97.1409C97.6876 97.5821 104.898 98.644 110.885 99.2308C116.875 99.778 121.736 99.7964 122.037 97.1805C122.337 94.5646 117.058 93.3344 110.745 93.1605C104.43 92.9597 97.1973 93.883 93.4022 94.4911C85.6945 95.717 80.5376 95.4809 76.8658 95.4964C81.1385 92.5892 85.5372 89.8701 89.9926 87.2457L90.2449 87.2924C90.8953 87.3998 91.8887 87.6544 93.303 87.8311C96.1174 88.285 100.618 88.6993 107.12 88.7926L124.692 89.1574C130.393 89.2352 134.801 89.6439 135.39 87.0562C135.649 85.7836 134.483 84.726 132.382 83.9822C130.286 83.2752 127.297 82.9627 124.145 83.1069C117.812 83.3996 110.986 85.2463 107.354 86.1117C99.6418 88.0588 94.3729 87.3433 90.7848 86.7805C96.2785 83.5754 101.889 80.5759 107.617 77.7818C108.292 77.7422 109.384 77.6927 110.999 77.6729C113.956 77.639 118.633 77.7861 125.343 78.8112C135.051 80.1616 154.861 86.4044 155.617 81.1174C156.385 75.9903 134.076 75.2833 125.98 76.1981C118.147 76.8712 112.9 76.8245 109.117 77.0649C110.778 76.2702 112.423 75.4431 114.101 74.6823C118.276 72.7975 122.518 71.0611 126.792 69.3996C128.703 69.664 132.761 70.2975 139.758 71.7016C143.523 72.4694 149.228 73.9456 153.967 74.7983C158.71 75.6255 162.545 75.8842 163.151 73.3291C163.758 70.774 159.542 69.2285 154.449 68.7591C149.356 68.2628 143.472 68.7591 140.371 69.0928C134.801 69.705 130.933 69.2455 128.078 68.9132C133.957 66.6734 139.909 64.6415 145.96 62.9051C146.814 63.2202 147.689 63.4768 148.578 63.6729C149.957 63.9939 151.744 64.2512 153.923 64.5213C156.132 64.7546 158.544 65.176 161.612 65.8689C166.006 66.812 172.72 68.6332 178.488 69.4505C184.255 70.2678 189.031 70.0034 189.177 67.3875C189.323 64.7716 184.5 63.8525 178.682 63.3859C172.863 62.9192 165.984 63.079 162.347 63.277C157.962 63.4113 154.501 63.5131 151.649 63.3548C150.118 63.2595 148.602 63.0045 147.125 62.594C148.741 62.1406 150.361 61.7065 151.987 61.2917C153.643 60.8972 155.472 60.4773 157.538 60.0191C162.242 58.9926 169.543 57.72 175.483 56.1844C181.424 54.629 185.991 52.8459 185.339 50.3092C184.687 47.7725 179.263 48.5417 173.274 50.5284C167.265 52.4896 160.64 55.6188 157.167 57.3552C154.675 58.6002 152.121 59.7173 149.515 60.7021C148.164 61.0457 146.806 61.3709 145.463 61.7428C145.785 61.4148 146.172 61.0358 146.636 60.5876C148.442 58.8597 151.438 56.2734 156.203 53.0227C163.024 48.225 178.839 40.4126 175.699 36.1466C172.622 31.9244 159.079 45.2952 154.795 50.7391C150.043 56.4884 146.475 59.5341 144.351 62.0284C141.53 62.8259 138.74 63.7153 135.956 64.6274C136.986 63.2134 139.294 60.1521 143.564 54.9273C145.831 52.1686 149.516 48.1062 152.177 44.492C154.839 40.8778 156.507 37.6426 154.415 36.0504C152.323 34.4582 149.438 37.3499 146.985 41.3741C144.532 45.3984 142.517 50.4916 141.516 53.2136C139.222 59.4648 136.508 62.5658 135.032 64.9257C132.455 65.7741 129.903 66.7088 127.358 67.6547L128.649 65.866C129.96 64.0278 131.927 61.0457 134.499 56.5449C136.378 53.2927 139.232 48.2886 141.142 44.072C143.028 39.8428 144.168 36.377 141.851 35.1271C139.534 33.8771 137.025 37.4644 135.401 42.1023C133.777 46.7403 132.792 52.2421 132.193 55.1705C130.833 62.1274 127.933 65.5832 126.397 68.0054C122.862 69.3374 119.357 70.7439 115.883 72.2248C116.14 71.6931 116.491 70.9607 116.972 69.9624C118.162 67.519 120.044 63.6715 122.612 57.9434C126.493 49.6842 133.558 32.029 128.381 30.9105C125.81 30.3449 124.142 35.038 122.912 40.7251C121.682 46.4122 120.787 53.1146 120.22 56.7033C118.97 64.7914 116.394 69.3445 115.046 72.5769C114.514 72.8059 113.972 73.0096 113.442 73.2429C111.488 74.1054 109.564 75.0401 107.632 75.9493C107.809 75.3101 108.057 74.4391 108.31 73.2627C108.999 70.4432 109.787 65.9367 110.817 59.4465C111.581 54.7407 112.963 47.6183 114.483 42.1504C115.227 39.3945 116.042 37.0812 116.411 35.2458C116.836 33.4656 116.793 32.0417 115.688 31.3093C114.632 30.6023 113.121 31.3319 111.693 33.2097C110.238 35.0748 109.127 38.0526 108.463 41.2695C107.199 47.7612 107.875 55.0178 108.197 58.8172C109.037 67.3097 107.792 72.649 106.934 76.2702C102.842 78.2103 98.7844 80.2294 94.7995 82.3816C94.9001 82.1751 95.0022 81.9672 95.1098 81.7339C96.2435 79.4023 97.4169 75.4798 98.5875 69.8662C99.0367 67.8386 99.6021 65.2849 100.346 62.7962C101.13 60.1148 101.774 57.3949 102.278 54.6473C103.158 49.4862 103.434 45.4408 100.892 44.8285C98.3154 44.2134 96.7282 48.8174 96.2152 54.192C95.9318 56.8914 95.8397 59.7066 95.7376 62.3791C95.6484 65.1406 95.868 67.5247 95.9814 69.1903C96.5737 75.7117 95.2402 80.0555 93.7877 82.9245C87.5646 86.3238 81.4927 89.9908 75.572 93.9255C72.7236 95.8315 69.9182 97.8036 67.1557 99.8416C66.9177 98.4446 66.7193 97.0377 66.5889 95.6166L68.451 94.5405C69.9418 93.6794 72.29 92.3276 75.6556 90.1939C78.0959 88.6583 81.9193 86.2715 84.558 83.6683C87.1967 81.0651 88.6577 78.3729 86.6652 76.6746C84.6728 74.9764 82.309 76.9051 80.0147 79.6695C77.7204 82.4339 75.4303 86.0565 74.1336 87.9909C71.2994 92.2513 68.3575 93.7134 66.5365 94.9393C66.2918 91.4975 66.2979 88.0425 66.5549 84.6015C66.8723 84.3371 67.3655 83.9355 68.0769 83.3841C69.494 82.2925 71.7614 80.6367 75.2461 78.452C77.7615 76.8613 81.8584 74.6654 84.8825 72.1965C87.9066 69.7277 89.7432 67.058 87.9151 65.1845C86.087 63.3109 83.4214 65.1293 80.7006 67.8159C77.9797 70.5025 75.1738 74.2016 73.7567 76.2264C70.9154 80.2719 68.3447 82.1836 66.6442 83.7022C66.7689 82.1468 66.9148 80.6013 67.1076 79.0657C67.2493 77.9487 67.4576 76.8415 67.6461 75.7301C67.7878 75.5477 69.5478 73.3263 74.9853 68.554C79.0836 64.9597 88.55 58.2318 84.5736 54.7675C80.6354 51.3287 74.9782 62.4427 73.1247 66.6296C71.2498 70.8292 69.1567 72.9162 67.8303 74.548C68.8744 68.9141 70.3429 63.3668 72.2234 57.9533C72.5606 57.0582 72.8951 56.1632 73.2352 55.2667C73.9182 54.7902 75.7704 53.6066 79.659 51.7571C81.5239 50.8479 84.6416 49.499 86.7262 47.3992C88.8518 45.3135 89.525 42.6877 87.2037 41.4759C84.8669 40.2401 83.6369 41.4759 82.2212 43.3679C80.8054 45.2598 79.1375 48.01 78.2263 49.5046C76.598 52.1502 74.8918 53.2941 73.6589 54.1751C74.4822 52.0399 75.3424 49.9203 76.3443 47.8573C77.5702 44.953 79.0751 42.1829 80.5645 39.4058C81.2065 39.099 83.5901 38.0116 88.917 36.1098C93.5142 34.471 103.596 31.783 100.977 27.2398C98.3579 22.6966 90.6842 30.6277 87.8882 33.6424C85.1319 36.6287 82.7256 37.6256 81.069 38.4655C81.13 38.3496 81.1923 38.235 81.2547 38.1191C82.7341 35.3208 84.4843 32.678 86.1437 29.9829C86.7106 29.5658 88.3913 28.3766 92.0248 26.2641C93.6984 25.2856 96.4264 23.8999 98.2601 22.1861C100.094 20.4724 100.975 18.4829 99.0197 16.738C98.2714 16.0678 97.5615 15.8245 96.894 15.8783C99.2861 13.4137 102.391 10.5673 104.997 8.30914C106.675 6.87251 108.086 5.75121 108.941 4.83918C109.323 4.45065 109.649 4.01035 109.909 3.53123C110.154 3.06461 110.405 2.49618 110.425 1.84715C110.603 0.57455 108.828 -0.309199 106.63 0.230949C104.569 0.754129 102.418 2.27842 100.593 4.16187C96.9082 7.94856 94.3191 13.2115 93.106 16.014C91.1221 20.6279 89.3152 23.6949 88.0129 26.0633C87.6289 26.6021 87.2434 27.1394 86.8636 27.6824C86.9033 27.4773 86.9373 27.2935 86.9883 27.0206C87.2562 25.6165 87.6572 23.3951 88.0129 20.092C88.686 15.3028 89.1466 5.05552 83.984 6.24328C81.4176 6.80888 81.4715 9.35408 82.2835 12.1821C83.0955 15.0101 84.5991 18.2241 85.3445 20.0171C87.1471 24.293 86.1636 27.0871 86.063 28.8715C84.2391 31.8268 82.2651 34.6944 80.6141 37.7543L80.3902 38.1516C80.3704 37.9013 80.3505 37.644 80.3222 37.2905C80.1141 34.7986 79.7582 32.3212 79.2565 29.8712C78.7676 27.3458 77.8805 23.388 76.3288 20.4738C74.7997 17.5482 72.7704 15.7199 70.5852 17.1551C68.4 18.5903 69.3976 21.0563 71.152 23.61C72.9064 26.1637 75.4034 28.9521 76.6703 30.5669C79.5626 34.1967 79.5555 37.2212 79.856 39.1131C78.3524 41.869 76.8304 44.6263 75.5834 47.5095C75.1837 48.3155 74.8054 49.1299 74.4412 49.9515C74.4412 49.8016 74.4412 49.6998 74.4412 49.5273C74.393 47.9464 74.2498 45.4662 73.8502 41.8803C73.3259 36.6287 72.2489 25.8385 67.3145 27.5282C62.3347 29.2505 69.0008 38.7611 71.213 42.3257C73.7737 46.2991 73.7156 49.3293 73.8672 51.3188C72.9801 53.4044 72.1709 55.5212 71.3518 57.6351C71.3306 57.6959 71.3122 57.7567 71.2909 57.8175C70.7538 56.5831 69.6768 54.0308 67.8983 49.5753C66.9276 47.1263 65.6522 43.2873 64.1614 40.3914C62.6706 37.4955 60.9899 35.4905 58.5978 36.5736C56.2057 37.6567 57.0389 40.6502 58.9818 43.5291C60.9247 46.408 63.8694 49.2218 65.468 50.6853C69.0944 53.9969 70.041 56.8786 71.0117 58.6659C69.8143 62.143 68.7628 65.6709 67.8941 69.2455L67.8062 68.9174C67.3683 67.3324 66.562 64.855 64.9875 61.4162C63.8652 58.9176 62.0229 55.0899 59.944 52.3934C57.8651 49.6969 55.6927 48.0524 53.6308 49.6602C51.5688 51.2679 53.0256 53.9361 55.3936 56.3809C57.7617 58.8257 60.9473 61.2408 62.6082 62.6464C66.1694 65.6044 66.9899 68.595 67.588 70.5648C66.9517 73.3263 66.3919 76.1062 65.9994 78.9158C65.0457 86.1272 64.6942 93.432 65.9696 100.725C62.3796 103.415 58.8812 106.229 55.4744 109.167C55.8996 107.001 56.7682 103.179 58.5482 97.1974C60.7178 89.7202 66.5747 74.5409 61.4263 73.5313C56.2779 72.5217 55.8216 90.0299 55.9959 96.3618C56.1178 102.769 55.1315 106.865 54.7106 109.822C51.8934 112.285 49.1578 114.839 46.5041 117.486C47.078 115.082 48.2046 110.656 50.2722 103.534C51.498 99.2477 53.5528 92.6274 54.328 86.8668C55.1442 81.1104 54.6327 76.3607 52.0166 76.3339C49.4006 76.307 48.685 81.017 48.257 86.6829C47.8503 92.3488 47.7596 99.0625 47.7299 102.648C47.6562 110.222 46.2929 114.977 45.6509 118.355C44.5739 119.451 43.504 120.555 42.4582 121.685C37.7584 126.753 33.4641 132.18 29.6148 137.918C29.2123 135.232 28.8817 132.53 28.6228 129.81C29.5227 128.605 31.2133 126.391 34.0376 122.85C35.7382 120.749 38.5214 117.726 40.4997 115.157C42.4482 112.568 43.7166 110.329 41.8375 108.481C39.9584 106.633 37.3027 108.679 35.4151 111.865C33.5275 115.051 32.4037 119.117 31.8723 121.279C30.9908 124.937 29.6148 127.156 28.5123 128.793C28.2289 125.572 28.039 122.338 27.9114 119.109C28.3366 118.502 30.0513 116.159 34.168 111.37C37.6881 107.269 45.7303 99.269 41.2678 96.5046C36.8053 93.7402 33.2341 105.445 32.0565 109.735C30.8548 114.1 29.0154 116.373 27.8689 118.086C27.859 117.804 27.8406 117.521 27.8307 117.23C27.722 113.322 27.7395 109.415 27.8831 105.508C28.6186 104.376 29.8486 102.721 31.919 100.559C33.4779 98.9169 36.1846 96.6403 37.9942 94.2733C39.8039 91.9063 40.5947 89.4402 38.3698 88.0517C36.1449 86.6631 34.4359 88.3713 32.9493 90.9363C31.4627 93.5013 30.3064 97.0037 29.8316 98.8957C29.4001 100.602 28.7744 102.252 27.9667 103.816C28.1084 100.673 28.3196 97.5312 28.6327 94.3991C28.8056 92.8438 29.021 91.3095 29.2449 89.7683C29.3867 89.6269 29.544 89.4855 29.7494 89.3073C30.6422 88.5438 32.1996 87.4691 34.7547 86.2276C36.597 85.3128 39.6381 84.2113 41.8984 82.6714C44.1658 81.157 45.5829 78.9653 43.7307 77.0904C41.897 75.221 40.1879 76.1006 38.1785 77.9034C36.2129 79.7006 34.2474 82.4522 33.3163 83.9836C31.8383 86.362 30.4226 87.66 29.3923 88.6753C29.9592 85.0045 30.6739 81.3625 31.5364 77.7493C31.7257 77.5266 31.9297 77.3168 32.1472 77.1215C33.0386 76.2731 34.6328 75.1009 37.2857 73.7576C39.1974 72.7678 42.3873 71.563 44.7681 69.8281C47.1772 68.144 48.6056 65.5125 46.48 63.9204C44.3911 62.3254 42.9372 63.2728 40.8937 65.1831C38.9239 67.0778 36.8195 69.927 35.836 71.5192C34.3338 73.8792 32.9167 75.2635 31.8935 76.3523C32.2592 74.8987 32.629 73.4451 33.0442 72.0028C33.5979 70.2117 34.2049 68.4428 34.8652 66.696C34.9503 66.607 35.0183 66.532 35.1189 66.4316C35.9224 65.6285 37.3084 64.486 39.6154 63.1342C41.2791 62.1444 44.1275 60.8986 46.1554 59.1029C48.206 57.3269 49.1314 55.0305 47.0397 53.4553C44.9481 51.8801 43.4572 52.9689 41.8927 54.8184C40.3282 56.6679 38.7269 59.4733 37.9843 61.0287C37.3693 62.3128 36.6085 63.5221 35.7169 64.633C37.5703 59.9934 39.8077 55.5158 42.4057 51.2467L42.4171 51.2269C42.4171 51.2198 42.4171 51.2113 42.4171 51.2043C43.3991 49.8157 44.5839 48.2532 46.0463 46.5055C50.9836 40.4183 63.6611 29.481 59.4849 26.1665C55.4362 22.9143 46.4573 38.5588 44.0482 44.7154C42.308 48.8386 40.7378 51.8335 39.5134 54.2189C37.5344 57.6841 35.783 61.2738 34.2701 64.9653C34.2701 64.8366 34.2615 64.7348 34.2573 64.5892C34.2261 63.5018 34.1666 61.5067 34.0575 57.8175C34.0348 53.1824 33.4269 43.1119 28.4074 44.9077C25.9303 45.7872 26.2704 48.2264 27.3899 50.8861C28.5095 53.5458 30.4027 56.511 31.4046 58.1399C33.672 61.8022 33.4694 64.4916 33.7259 66.2351C33.0296 68.0101 32.3867 69.804 31.7972 71.6168C31.338 73.1269 30.9256 74.6512 30.5218 76.1755C30.1136 74.934 29.5652 73.1001 28.8992 70.4318C28.3564 68.2995 27.7159 64.9172 26.4617 62.307C25.2288 59.6967 23.2675 57.949 21.1078 59.4479C18.9481 60.9467 19.661 62.9277 21.1716 65.2453C22.695 67.5317 25.0729 70.026 26.3824 71.3255C28.7915 73.7293 29.5709 75.8206 30.2086 77.3237C29.7013 79.3132 29.2478 81.314 28.8326 83.3233L28.6327 82.8595C27.4363 80.2131 26.0995 77.6322 24.628 75.1277C21.7328 69.8917 15.1106 59.3885 11.3765 63.0734C7.66362 66.7385 18.6307 73.5992 22.3507 76.5431C26.2803 79.4489 27.6478 82.4056 28.6228 84.4403C27.9809 87.6784 27.431 90.9348 27.0201 94.2111C26.9931 94.4444 26.9776 94.6805 26.952 94.9181C25.9516 93.5324 24.3389 91.2148 21.9638 87.5511C18.7923 82.6629 12.8092 71.8317 8.96737 75.4148C5.12556 78.9978 15.7695 86.4228 19.7644 89.0797C23.6558 91.6659 25.4584 94.1701 26.85 95.8909C26.5893 98.3965 26.3824 100.906 26.2293 103.419C25.5661 102.571 24.4239 100.986 22.79 98.2382C20.8485 94.9251 17.3907 87.2358 13.4766 90.785C9.60791 94.2719 17.6217 98.4276 20.6827 99.8756C23.9747 101.401 25.1225 103.254 26.1726 104.311C25.9988 107.387 25.9043 110.465 25.8892 113.545C25.5859 113.318 25.2331 113.048 24.8122 112.715C23.2293 111.455 20.8131 109.356 17.575 105.984C12.8248 101.157 4.31638 89.723 0.772164 93.5946C-2.77205 97.4661 10.5418 105.442 15.6378 107.832C20.8811 110.413 23.6912 112.883 25.8878 114.325C25.8878 115.308 25.8694 116.291 25.8878 117.273C25.902 118.026 25.936 118.778 25.9572 119.536C24.6818 118.485 22.5816 116.719 19.3478 113.928C17.1994 112.074 13.9471 109.105 10.7983 107.24C7.64945 105.375 4.65224 104.668 3.5398 107.039C2.42736 109.41 4.8393 111.149 8.09017 112.648C11.341 114.147 15.4677 115.362 17.6841 116.015C21.9666 117.275 24.2723 119.144 25.9799 120.417C26.0432 122.491 26.1377 124.564 26.2633 126.638C24.8462 125.622 22.4073 123.803 18.6746 120.821C13.95 117.032 4.42125 108.321 1.92712 112.938C-0.567015 117.555 12.2494 121.548 17.045 122.937C21.7654 124.301 24.3729 126.211 26.3129 127.461C26.4277 129.168 26.5737 130.873 26.7381 132.577C25.6285 131.87 23.9676 130.8 21.4947 129.35C19.6043 128.229 16.6567 126.408 13.8607 125.674C11.076 124.909 8.45154 125.359 8.30699 127.98C8.16245 130.602 10.0231 131.249 12.6519 131.587C15.2622 131.887 18.5783 131.794 20.3809 131.77C23.524 131.729 25.4357 132.666 26.8231 133.448C27.0597 135.743 27.3304 138.039 27.6734 140.336C27.6727 140.341 27.6727 140.346 27.6734 140.351C27.698 140.481 27.746 140.606 27.8151 140.719C25.7663 143.986 23.8995 147.363 22.2231 150.835C21.9723 149.606 21.6038 148.038 20.9916 146.027C20.3539 143.869 19.2302 140.496 17.5778 138.154C15.9254 135.812 13.9429 134.519 11.9433 136.201C9.94377 137.884 11.008 139.934 12.8205 141.884C14.633 143.834 17.1938 145.843 18.5329 147.045C20.4942 148.797 21.2666 150.526 21.6846 151.965C20.7465 153.977 19.8537 156.01 19.0558 158.09V158.108C18.9902 158.287 18.9604 158.477 18.9683 158.668C18.9763 158.858 19.0217 159.045 19.102 159.218C19.1824 159.391 19.296 159.546 19.4366 159.675C19.5771 159.804 19.7417 159.904 19.921 159.97C20.1003 160.035 20.2908 160.065 20.4816 160.057C20.6724 160.049 20.8598 160.004 21.033 159.924C21.2062 159.844 21.362 159.73 21.4913 159.59C21.6206 159.45 21.7209 159.286 21.7866 159.107C22.5377 157.085 23.3852 155.104 24.2751 153.141C27.9228 150.582 31.9275 148.414 36.0868 146.577C36.614 146.675 37.1355 146.812 37.6612 146.917C37.6811 147.199 37.6981 147.632 37.6811 148.244C37.657 149.484 37.3976 151.426 36.6735 154.309C36.1619 156.392 35.0424 159.726 35.2946 162.922C35.4037 164.495 35.9451 165.976 36.7373 166.826C37.5804 167.685 38.5894 167.876 39.7586 167.294C42.0883 166.021 41.8077 164.477 41.2905 162.107C40.7449 159.743 39.862 156.434 39.3065 154.679C38.1884 151.003 38.5044 148.68 38.2904 147.055C40.6126 147.533 42.9211 148.087 45.2159 148.717C45.2499 149.706 45.2329 152.431 44.462 157.703C44.0652 160.208 43.3425 164.066 43.1242 167.205C43.0307 168.89 43.2489 170.675 44.0085 171.882C44.7582 173.112 45.9145 173.504 47.0723 172.919C49.361 171.656 49.317 170.403 49.1796 167.101C49.0081 163.626 47.7625 159.968 47.1276 157.917C45.6977 153.629 45.9854 150.833 45.8309 148.889C48.6907 149.689 51.5249 150.586 54.3181 151.607C54.4707 152.143 54.5867 152.688 54.6652 153.24C54.8835 154.684 54.9487 157.005 54.3818 160.416C54.182 161.656 53.815 163.224 53.4919 164.941C53.1744 166.882 52.9364 168.169 52.7309 169.955C52.558 171.636 52.6855 173.433 53.3516 174.671C54.0162 175.932 55.1003 176.415 56.319 175.962C58.7281 174.946 58.7607 173.477 58.7862 170.11C58.77 169.207 58.7038 168.306 58.5878 167.41C58.4461 166.406 58.269 165.733 58.0989 164.864C57.756 163.224 57.3592 161.71 57.0446 160.679C55.7692 156.427 55.6275 153.705 55.0408 151.854C57.396 152.732 59.7286 153.671 62.0158 154.701C62.6323 154.983 63.2388 155.287 63.8482 155.586C63.8864 155.903 63.9658 156.699 64.0154 158.106C64.0792 159.997 64.0409 162.978 63.6725 167.354C63.5308 168.845 63.3168 171.109 63.1269 173.114C63.0376 174.186 62.9667 175.308 62.9313 176.389C62.8902 177.31 62.7981 178.378 62.7896 179.446C62.7598 181.567 63.0929 183.799 64.1302 185.326C65.1449 186.907 66.7008 187.228 67.578 186.278C68.5063 185.311 68.8294 184.581 68.9725 183.611C69.0887 182.599 68.9909 181.031 68.8379 179.012C68.7557 178.075 68.6381 176.749 68.4042 175.713C68.1973 174.794 67.9578 173.726 67.7084 172.613C67.2252 170.61 66.7164 168.795 66.3409 167.54C64.6786 161.936 64.8643 158.337 64.4745 155.89C67.3261 157.315 70.097 158.895 72.7746 160.624C72.9886 161.739 73.4832 165.007 73.5073 171.684C73.5384 174.775 73.3188 179.603 73.9933 183.637C74.6353 187.681 76.3585 190.809 78.8314 189.916C81.3043 189.024 80.8565 185.98 79.8772 182.18C78.8739 178.402 77.1663 173.954 76.1842 171.608C74.1847 166.765 73.9707 163.407 73.4917 161.082C73.6334 161.178 73.7921 161.27 73.9395 161.365C76.574 163.184 79.059 165.21 81.3709 167.424C82.3062 168.503 83.6184 170.331 84.9038 173.34C87.0294 177.754 88.3048 187.884 93.1684 186.087C95.62 185.171 95.1084 182.303 93.4518 179.338C91.7952 176.373 88.9369 173.453 87.2873 172.118C86.3124 171.308 85.4876 170.553 84.7705 169.856C84.7705 169.856 84.7705 169.847 84.7705 169.845C81.9418 166.674 78.7913 163.804 75.3694 161.281C75.6769 161.301 76.0354 161.327 76.479 161.366C78.0832 161.508 80.6042 161.831 84.2476 162.579C89.491 163.651 100.434 167.216 100.828 161.946C100.933 160.607 100.19 159.761 98.9701 159.252C98.9928 159.232 99.0183 159.225 99.0409 159.204C100.981 157.435 99.0197 154.558 96.0253 152.01C93.0309 149.462 89.0814 147.117 86.9557 145.865C82.4847 143.242 80.5787 140.46 79.1375 138.639L80.0572 138.694L85.968 139.063L89.6525 139.584C90.0281 139.936 90.5623 140.459 91.285 141.235C92.8084 142.868 95.0475 145.602 98.039 149.86L101.939 155.501C102.676 156.543 103.465 157.611 104.341 158.687C105.191 159.662 106.042 160.611 106.892 161.482C110.293 164.973 113.534 167.254 115.353 165.365C117.173 163.476 114.585 160.18 110.889 156.933C108.975 155.296 107.018 153.753 105.143 152.182C103.264 150.647 101.507 149.286 100.271 148.364C95.4372 144.74 92.8481 141.683 90.7451 139.732L91.8406 139.888L94.7754 140.302L97.6678 140.945L103.454 142.255C104.191 142.447 104.916 142.689 105.648 142.901C106.598 143.967 109.166 146.942 113.844 153.038C116.078 155.911 119.493 160.49 123.18 163.616C126.834 166.785 130.623 168.282 131.922 166.02C133.222 163.757 130.364 161.39 126.707 158.702C123.036 156.041 118.448 153.046 115.985 151.429C111.156 148.257 108.713 145.275 106.829 143.256C107.598 143.488 108.374 143.694 109.139 143.936C111.612 144.856 114.846 146.167 118.977 148.011ZM87.8287 27.7743C88.0356 27.4038 88.2822 26.9754 88.5982 26.4508C88.8448 26.0421 89.1381 25.5769 89.4669 25.0721C89.9643 24.3651 90.4589 23.6581 90.9563 22.961C90.738 23.4064 90.5453 23.8179 90.3894 24.1573C89.7826 25.5192 88.9124 26.7484 87.8287 27.7743ZM35.6092 133.991C34.7745 136.395 34.4217 139.176 34.2431 140.743C33.9781 143.136 33.2511 144.702 32.5256 145.891C30.3199 146.924 28.1687 148.068 26.0805 149.32C28.7943 143.968 32.0267 138.864 35.6092 133.991ZM48.0005 147.998C49.5726 147.986 51.144 148.066 52.7068 148.236C54.6369 148.421 57.7305 148.982 60.4145 148.53C63.107 148.106 65.057 146.617 64.0806 144.192C63.1042 141.767 61.3144 141.914 59.1008 142.636C56.8873 143.359 54.1012 144.77 52.6232 145.586C49.7308 147.151 47.6944 147.216 46.2461 147.465C43.7492 146.718 41.2229 146.058 38.6674 145.486C40.7831 144.637 42.9272 143.857 45.0869 143.165C51.9599 140.994 59.0512 139.582 66.2332 138.957C67.177 139.722 68.9257 141.29 71.5913 144.258C71.4241 144.289 71.2583 144.305 71.0897 144.347C68.0131 145.09 65.3022 147.218 63.9403 148.353C61.1939 150.685 58.935 151.075 57.3479 151.413C54.8126 150.37 52.2533 149.387 49.6501 148.524C49.0988 148.343 48.5461 148.176 47.9934 148.004L48.0005 147.998ZM62.5147 153.654C61.1783 153.025 59.8094 152.466 58.4504 151.89L64.5978 150.938C66.6909 150.635 69.8412 150.491 72.0703 150.316C73.5796 150.156 74.8224 149.945 75.6571 149.028C76.3103 149.821 77.0061 150.655 77.736 151.501C75.6443 152.102 73.6575 153.073 72.4926 153.678C69.1893 155.405 66.9205 155.048 65.3801 155.092C64.4264 154.599 63.4726 154.115 62.5076 153.654H62.5147ZM79.6165 140.374L84.8598 147.519C86.6695 149.947 89.3577 153.77 91.9808 156.512C92.6951 157.269 93.4669 157.97 94.2893 158.609C90.8089 158.66 86.8169 159.423 84.6614 159.945C79.6831 161.127 76.6505 160.549 74.5404 160.652L74.478 160.604C71.9584 158.869 69.3507 157.264 66.6654 155.796C67.8728 155.89 69.7632 156.055 72.5181 156.337C74.5248 156.552 77.5588 157.095 79.9467 157.102C81.0506 157.102 82.0397 156.96 82.8149 156.581C85.4663 158.65 88.1745 159.508 89.3493 157.54C90.704 155.304 88.5146 153.217 85.3062 150.761C82.1886 148.439 78.1427 146.123 75.8228 144.909C75.5655 144.709 75.2786 144.55 74.9726 144.438C71.1109 142.308 68.879 140.238 67.1458 138.862C67.51 138.834 67.8728 138.78 68.2384 138.756C70.2026 138.588 72.178 138.642 74.1492 138.574L77.1082 138.515L78.3312 138.587L79.6165 140.374Z" fill="#7789AE"/>
</svg>
