<svg width="190" height="191" viewBox="0 0 190 191" fill="none" xmlns="http://www.w3.org/2000/svg">
<path id="hoja1" opacity="0.3" d="M70.3834 148.011C61.9048 151.723 45.0439 160.966 43.2399 156.083C41.4203 151.106 61.7248 146.751 69.1193 145.637C71.775 145.213 74.0452 144.699 76.0632 144.188C76.6797 143.984 77.2961 143.783 77.9055 143.577C76.6612 142.877 74.177 141.58 69.8463 139.729C64.9204 137.53 54.1645 134.741 56.5254 130.124C58.9557 125.388 68.1458 133.925 71.0169 137.327C74.2281 140.92 76.9518 142.171 78.6849 143.324C80.9792 142.554 83.2778 141.798 85.609 141.156L89.7058 140.166C89.3204 139.947 88.8556 139.687 88.2023 139.343C86.4082 138.39 83.5258 136.996 79.1866 135.227C76.0406 133.939 71.048 132.243 67.141 130.182C63.234 128.12 60.5132 125.666 61.9303 123.463C63.3474 121.259 66.723 122.72 70.433 125.097C74.143 127.474 78.1379 130.88 80.2026 132.754C84.8224 136.934 88.3539 138.485 90.5476 139.965L91.4305 139.753L94.3469 139.066L97.3087 138.605L99.0092 138.342C97.7338 137.451 95.2199 135.828 90.7899 133.516C88.2278 132.167 84.094 130.291 81.0359 127.98C77.9579 125.692 76.1355 122.983 77.9933 121.138C79.8512 119.293 82.3283 120.963 85.0208 123.438C87.7134 125.914 90.61 129.332 92.1064 131.199C95.3304 135.189 98.1306 136.788 99.8553 138.212L103.228 137.689L109.211 137.235L112.204 137.019L114.364 137.033C113.039 136.238 110.426 134.779 105.926 132.669C100.751 130.23 89.319 126.247 92.1064 121.791C94.8939 117.336 104.024 126.695 107.151 130.292C110.7 134.329 113.688 135.706 115.486 137.038C117.396 137.068 119.312 137.006 121.217 137.142C122.722 137.221 124.223 137.371 125.723 137.521L124.424 136.505C122.84 135.316 120.335 133.435 116.555 130.961C113.807 129.161 109.425 126.763 105.991 124.739C102.583 122.665 99.9757 120.895 100.983 118.457C101.991 116.019 105.919 117.129 109.561 119.841C113.217 122.528 116.44 126.558 118.03 128.734C121.707 133.785 124.894 135.862 126.79 137.614C129.501 137.915 132.195 138.355 134.875 138.879C133.129 137.572 131.456 136.17 129.863 134.68C127.726 132.733 124.507 129.731 122.261 127.203C120.041 124.636 118.548 122.536 120.215 120.495C121.882 118.453 124.921 120.4 127.099 123.557C129.293 126.689 130.835 130.685 131.752 132.786C133.169 136.138 135.028 137.997 136.637 139.246C139.397 139.837 142.145 140.503 144.856 141.319C145.151 141.409 145.443 141.509 145.737 141.601C144.901 140.544 143.619 138.854 141.874 136.307C140.599 134.451 138.562 131.617 137.444 129.127C136.326 126.637 136.027 124.448 138.375 123.28C140.724 122.112 142.305 124.213 143.113 127C143.921 129.787 144.084 133.181 144.213 135.013C144.445 138.65 145.871 140.576 146.84 141.958C149.701 142.899 152.517 143.964 155.272 145.183C154.623 144.363 153.838 143.38 152.878 142.188C151.563 140.565 149.389 138.172 148.09 135.983C146.79 133.795 146.313 131.782 148.505 130.337C149.279 129.828 149.994 129.738 150.645 129.926C148.854 127.682 147.009 125.479 145.083 123.352C141.298 119.195 137.295 115.241 133.09 111.509C133.09 111.509 132.09 111.376 129.732 111.337C127.374 111.299 123.657 111.468 118.274 112.302C114.367 112.893 108.378 114.294 103.143 114.605C97.8996 114.954 93.5973 113.958 93.8722 111.353C94.1471 108.748 98.2837 108.515 103.367 108.55C108.45 108.586 114.554 109.178 117.765 109.666C124.815 110.674 129.243 110.454 132.323 110.831C129.489 108.334 126.578 105.924 123.591 103.6C122.854 103.689 121.859 103.775 120.561 103.804C118.942 103.848 116.876 103.757 114.358 103.693C112.999 103.651 111.638 103.677 110.281 103.773L105.321 104.153C100.151 104.608 92.3318 106.063 85.7988 107.084C79.2617 108.074 73.9106 108.467 73.4798 105.867C73.0547 103.293 78.7388 101.633 85.6585 101.01C92.5769 100.335 100.622 100.919 104.807 101.507C107.333 101.844 109.589 102.105 111.637 102.278L117.137 102.916C119.033 103.11 120.943 103.145 122.845 103.019C119.761 100.638 116.613 98.34 113.403 96.1256L110.311 96.2034C107.452 96.3194 102.942 96.53 96.4131 97.1409C91.6728 97.5821 84.4625 98.644 78.4752 99.2308C72.485 99.778 67.6243 99.7964 67.3238 97.1805C67.0234 94.5646 72.3022 93.3344 78.6155 93.1605C84.9301 92.9597 92.1631 93.883 95.9582 94.491C103.666 95.717 108.823 95.4809 112.495 95.4964C108.222 92.5892 103.823 89.8701 99.3678 87.2457L99.1155 87.2924C98.4651 87.3998 97.4717 87.6544 96.0574 87.8311C93.243 88.285 88.7422 88.6993 82.2405 88.7926L64.6682 89.1574C58.9671 89.2352 54.5599 89.6439 53.9703 87.0562C53.711 85.7836 54.8773 84.726 56.9789 83.9822C59.0748 83.2752 62.0635 82.9627 65.2152 83.1069C71.5483 83.3996 78.3746 85.2463 82.0066 86.1117C89.7186 88.0588 94.9875 87.3433 98.5756 86.7805C93.0819 83.5754 87.471 80.5759 81.743 77.7818C81.0685 77.7422 79.9759 77.6927 78.3618 77.6729C75.4043 77.639 70.7278 77.7861 64.0177 78.8112C54.309 80.1616 34.4991 86.4044 33.7438 81.1174C32.9757 75.9903 55.284 75.2833 63.38 76.1981C71.2138 76.8712 76.46 76.8245 80.2437 77.0649C78.5829 76.2702 76.9376 75.443 75.2597 74.6823C71.0849 72.7975 66.842 71.0611 62.568 69.3996C60.6577 69.664 56.5991 70.2975 49.6028 71.7016C45.8375 72.4694 40.1321 73.9456 35.3933 74.7983C30.6502 75.6255 26.8155 75.8842 26.2089 73.3291C25.6024 70.774 29.8184 69.2285 34.9115 68.7591C40.0046 68.2628 45.8885 68.7591 48.9891 69.0928C54.5598 69.705 58.4272 69.2455 61.2827 68.9132C55.403 66.6734 49.4511 64.6415 43.4 62.9051C42.5461 63.2202 41.6716 63.4768 40.7826 63.6729C39.4037 63.9939 37.6168 64.2512 35.4372 64.5213C33.2279 64.7546 30.816 65.176 27.7479 65.8689C23.3549 66.812 16.6406 68.6332 10.8729 69.4505C5.1052 70.2678 0.329485 70.0034 0.183522 67.3875C0.0375585 64.7716 4.86003 63.8525 10.6787 63.3859C16.4974 62.9192 23.3761 63.079 27.0139 63.277C31.3984 63.4113 34.859 63.5131 37.7117 63.3548C39.242 63.2595 40.7581 63.0045 42.2351 62.594C40.6196 62.1406 38.9989 61.7065 37.373 61.2917C35.7178 60.8972 33.8883 60.4773 31.8222 60.0191C27.1187 58.9926 19.8177 57.72 13.8772 56.1844C7.9366 54.629 3.36923 52.8459 4.02111 50.3092C4.67298 47.7725 10.0977 48.5417 16.0865 50.5284C22.0951 52.4896 28.7201 55.6188 32.1934 57.3552C34.6854 58.6001 37.2396 59.7173 39.8459 60.7021C41.1964 61.0457 42.554 61.3709 43.8974 61.7428C43.5757 61.4147 43.1889 61.0358 42.7241 60.5876C40.9187 58.8596 37.9229 56.2734 33.1571 53.0227C26.3365 48.2249 10.5214 40.4126 13.6618 36.1466C16.7383 31.9244 30.2817 45.2951 34.5657 50.739C39.3173 56.4884 42.8856 59.5341 45.0099 62.0284C47.8299 62.8259 50.6203 63.7153 53.4049 64.6274C52.3747 63.2134 50.0662 60.152 45.7964 54.9273C43.529 52.1686 39.8445 48.1062 37.1831 44.492C34.5218 40.8778 32.8538 37.6426 34.9455 36.0504C37.0372 34.4582 39.9224 37.3499 42.3755 41.3741C44.8285 45.3984 46.8436 50.4916 47.8441 53.2135C50.1384 59.4648 52.8522 62.5657 54.3289 64.9257C56.9052 65.7741 59.4574 66.7088 62.0026 67.6547L60.7116 65.866C59.4007 64.0278 57.4338 61.0457 54.8617 56.5449C52.9826 53.2927 50.1285 48.2886 48.2182 44.072C46.332 39.8428 45.1927 36.377 47.5097 35.1271C49.8267 33.8771 52.335 37.4644 53.959 42.1023C55.583 46.7403 56.5679 52.2421 57.1674 55.1705C58.5278 62.1274 61.4272 65.5832 62.9634 68.0054C66.4986 69.3374 70.0032 70.7439 73.477 72.2248C73.2205 71.6931 72.869 70.9607 72.3886 69.9624C71.1983 67.519 69.3163 63.6715 66.7485 57.9434C62.867 49.6842 55.8027 32.029 60.9794 30.9105C63.5501 30.3449 65.218 35.038 66.4481 40.7251C67.6781 46.4122 68.5738 53.1146 69.1406 56.7033C70.3905 64.7914 72.9668 69.3445 74.3145 72.5769C74.8459 72.8059 75.3887 73.0096 75.9187 73.2429C77.8729 74.1054 79.7959 75.0401 81.7289 75.9493C81.5517 75.3101 81.3037 74.4391 81.0501 73.2627C80.3614 70.4431 79.5734 65.9367 78.5432 59.4465C77.7794 54.7407 76.3977 47.6183 74.8771 42.1504C74.1331 39.3945 73.3183 37.0812 72.9498 35.2458C72.5247 33.4656 72.5672 32.0417 73.6726 31.3093C74.7283 30.6023 76.239 31.3319 77.6674 33.2097C79.1228 35.0747 80.2338 38.0526 80.897 41.2695C82.1611 47.7612 81.4851 55.0178 81.1635 58.8172C80.3231 67.3097 81.5687 72.649 82.4261 76.2702C86.5187 78.2102 90.576 80.2294 94.5609 82.3816C94.4603 82.1751 94.3583 81.9672 94.2506 81.7339C93.1169 79.4023 91.9435 75.4798 90.7729 69.8662C90.3237 67.8386 89.7583 65.2849 89.0143 62.7962C88.2308 60.1148 87.5861 57.3949 87.0828 54.6473C86.2027 49.4862 85.9264 45.4408 88.4687 44.8285C91.045 44.2134 92.6322 48.8174 93.1452 54.192C93.4286 56.8914 93.5207 59.7066 93.6228 62.3791C93.712 65.1406 93.4924 67.5246 93.379 69.1903C92.7867 75.7117 94.1202 80.0555 95.5727 82.9245C101.796 86.3238 107.868 89.9908 113.788 93.9255C116.637 95.8315 119.442 97.8036 122.205 99.8416C122.443 98.4446 122.641 97.0377 122.772 95.6166L120.909 94.5405C119.419 93.6794 117.07 92.3276 113.705 90.1939C111.264 88.6583 107.441 86.2715 104.802 83.6683C102.164 81.0651 100.703 78.3729 102.695 76.6746C104.688 74.9764 107.051 76.9051 109.346 79.6695C111.64 82.4339 113.93 86.0565 115.227 87.9909C118.061 92.2513 121.003 93.7134 122.824 94.9393C123.069 91.4975 123.062 88.0425 122.806 84.6015C122.488 84.3371 121.995 83.9355 121.284 83.3841C119.866 82.2925 117.599 80.6367 114.114 78.452C111.599 76.8613 107.502 74.6653 104.478 72.1965C101.454 69.7277 99.6172 67.058 101.445 65.1845C103.273 63.3109 105.939 65.1293 108.66 67.8159C111.381 70.5025 114.187 74.2016 115.604 76.2264C118.445 80.2719 121.016 82.1836 122.716 83.7022C122.592 82.1468 122.446 80.6013 122.253 79.0657C122.111 77.9487 121.903 76.8415 121.714 75.7301C121.573 75.5477 119.813 73.3263 114.375 68.554C110.277 64.9597 100.81 58.2318 104.787 54.7675C108.725 51.3287 114.382 62.4427 116.236 66.6296C118.111 70.8292 120.204 72.9162 121.53 74.548C120.486 68.9141 119.017 63.3668 117.137 57.9533C116.8 57.0582 116.465 56.1632 116.125 55.2667C115.442 54.7902 113.59 53.6066 109.701 51.7571C107.836 50.8479 104.719 49.499 102.634 47.3992C100.509 45.3135 99.8354 42.6877 102.157 41.4759C104.493 40.2401 105.724 41.4759 107.139 43.3679C108.555 45.2598 110.223 48.01 111.134 49.5046C112.762 52.1502 114.469 53.2941 115.702 54.1751C114.878 52.0399 114.018 49.9203 113.016 47.8573C111.79 44.953 110.285 42.1829 108.796 39.4058C108.154 39.099 105.77 38.0116 100.443 36.1098C95.8462 34.471 85.7648 31.783 88.3837 27.2398C91.0025 22.6966 98.6762 30.6277 101.472 33.6424C104.229 36.6287 106.635 37.6256 108.291 38.4655C108.23 38.3496 108.168 38.235 108.106 38.1191C106.626 35.3208 104.876 32.678 103.217 29.9829C102.65 29.5658 100.969 28.3766 97.3356 26.2641C95.662 25.2856 92.9341 23.8999 91.1003 22.1861C89.2665 20.4724 88.3851 18.4829 90.3407 16.738C91.089 16.0678 91.7989 15.8245 92.4664 15.8783C90.0743 13.4137 86.9694 10.5673 84.3633 8.30913C82.6854 6.87251 81.274 5.7512 80.4195 4.83917C80.037 4.45065 79.7111 4.01035 79.4516 3.53122C79.2064 3.0646 78.9556 2.49618 78.9357 1.84715C78.7572 0.574548 80.5328 -0.309201 82.7308 0.230947C84.7913 0.754128 86.9425 2.27842 88.7677 4.16187C92.4522 7.94856 95.0413 13.2115 96.2544 16.014C98.2383 20.6279 100.045 23.6949 101.348 26.0633C101.732 26.6021 102.117 27.1394 102.497 27.6824C102.457 27.4773 102.423 27.2935 102.372 27.0206C102.104 25.6165 101.703 23.3951 101.348 20.092C100.674 15.3028 100.214 5.05552 105.376 6.24328C107.943 6.80888 107.889 9.35408 107.077 12.1821C106.265 15.0101 104.761 18.2241 104.016 20.0171C102.213 24.293 103.197 27.0871 103.297 28.8715C105.121 31.8268 107.095 34.6944 108.746 37.7543L108.97 38.1516C108.99 37.9013 109.01 37.644 109.038 37.2905C109.246 34.7986 109.602 32.3212 110.104 29.8712C110.593 27.3458 111.48 23.388 113.032 20.4738C114.561 17.5482 116.59 15.7199 118.775 17.1551C120.96 18.5903 119.963 21.0564 118.208 23.61C116.454 26.1637 113.957 28.9521 112.69 30.5669C109.798 34.1967 109.805 37.2212 109.504 39.1131C111.008 41.869 112.53 44.6263 113.777 47.5095C114.177 48.3155 114.555 49.1299 114.919 49.9515C114.919 49.8016 114.919 49.6998 114.919 49.5273C114.967 47.9464 115.111 45.4662 115.51 41.8803C116.035 36.6287 117.112 25.8385 122.046 27.5282C127.026 29.2505 120.36 38.7611 118.147 42.3258C115.587 46.2991 115.645 49.3293 115.493 51.3188C116.38 53.4044 117.189 55.5212 118.009 57.6351C118.03 57.6959 118.048 57.7567 118.07 57.8175C118.607 56.5831 119.684 54.0308 121.462 49.5753C122.433 47.1263 123.708 43.2873 125.199 40.3914C126.69 37.4955 128.371 35.4905 130.763 36.5736C133.155 37.6567 132.321 40.6502 130.379 43.5291C128.436 46.408 125.491 49.2218 123.892 50.6853C120.266 53.9969 119.319 56.8786 118.349 58.6659C119.546 62.143 120.598 65.6709 121.466 69.2455L121.554 68.9174C121.992 67.3324 122.798 64.855 124.373 61.4162C125.495 58.9176 127.337 55.0899 129.416 52.3934C131.495 49.6969 133.668 48.0525 135.73 49.6602C137.792 51.2679 136.335 53.9361 133.967 56.3809C131.599 58.8257 128.413 61.2408 126.752 62.6464C123.191 65.6044 122.37 68.5951 121.772 70.5648C122.409 73.3263 122.968 76.1062 123.361 78.9158C124.315 86.1272 124.666 93.432 123.391 100.725C126.981 103.415 130.479 106.229 133.886 109.167C133.461 107.001 132.592 103.179 130.812 97.1975C128.643 89.7202 122.786 74.5409 127.934 73.5313C133.082 72.5217 133.539 90.0299 133.364 96.3618C133.243 102.769 134.229 106.865 134.65 109.822C137.467 112.285 140.203 114.839 142.856 117.486C142.282 115.082 141.156 110.656 139.088 103.534C137.862 99.2478 135.808 92.6274 135.032 86.8668C134.216 81.1104 134.728 76.3607 137.344 76.3339C139.96 76.307 140.675 81.017 141.103 86.6829C141.51 92.3488 141.601 99.0625 141.631 102.648C141.704 110.222 143.068 114.977 143.709 118.355C144.786 119.451 145.856 120.555 146.902 121.685C151.602 126.753 155.896 132.18 159.746 137.918C160.148 135.232 160.479 132.53 160.738 129.81C159.838 128.605 158.147 126.391 155.323 122.85C153.622 120.749 150.839 117.726 148.861 115.157C146.912 112.568 145.644 110.329 147.523 108.481C149.402 106.633 152.058 108.679 153.945 111.865C155.833 115.051 156.957 119.117 157.488 121.279C158.37 124.937 159.746 127.156 160.848 128.793C161.132 125.572 161.321 122.338 161.449 119.109C161.024 118.502 159.309 116.159 155.192 111.37C151.672 107.269 143.63 99.269 148.093 96.5046C152.555 93.7402 156.126 105.445 157.304 109.735C158.506 114.1 160.345 116.373 161.491 118.086C161.501 117.804 161.52 117.521 161.53 117.23C161.638 113.322 161.621 109.415 161.477 105.508C160.742 104.376 159.512 102.721 157.441 100.559C155.883 98.9169 153.176 96.6403 151.366 94.2733C149.557 91.9063 148.766 89.4402 150.991 88.0517C153.216 86.6631 154.925 88.3713 156.411 90.9363C157.898 93.5013 159.054 97.0037 159.529 98.8957C159.96 100.602 160.586 102.252 161.394 103.816C161.252 100.673 161.041 97.5312 160.728 94.3992C160.555 92.8438 160.339 91.3096 160.115 89.7683C159.974 89.6269 159.816 89.4855 159.611 89.3073C158.718 88.5438 157.161 87.4691 154.606 86.2276C152.763 85.3128 149.722 84.2113 147.462 82.6714C145.195 81.157 143.777 78.9653 145.63 77.0904C147.463 75.2211 149.172 76.1006 151.182 77.9034C153.147 79.7006 155.113 82.4523 156.044 83.9836C157.522 86.362 158.938 87.66 159.968 88.6753C159.401 85.0045 158.687 81.3625 157.824 77.7493C157.635 77.5266 157.431 77.3168 157.213 77.1215C156.322 76.2731 154.728 75.1009 152.075 73.7576C150.163 72.7678 146.973 71.563 144.592 69.8281C142.183 68.144 140.755 65.5125 142.88 63.9204C144.969 62.3254 146.423 63.2728 148.467 65.1831C150.437 67.0778 152.541 69.927 153.524 71.5192C155.027 73.8792 156.444 75.2635 157.467 76.3523C157.101 74.8987 156.731 73.4451 156.316 72.0028C155.763 70.2117 155.156 68.4428 154.495 66.696C154.41 66.607 154.342 66.532 154.242 66.4316C153.438 65.6285 152.052 64.486 149.745 63.1342C148.081 62.1444 145.233 60.8986 143.205 59.1029C141.154 57.3269 140.229 55.0305 142.321 53.4553C144.412 51.8802 145.903 52.9689 147.468 54.8184C149.032 56.668 150.634 59.4733 151.376 61.0287C151.991 62.3128 152.752 63.5222 153.643 64.633C151.79 59.9934 149.553 55.5158 146.955 51.2467L146.943 51.2269C146.943 51.2198 146.943 51.2113 146.943 51.2043C145.961 49.8157 144.777 48.2532 143.314 46.5055C138.377 40.4183 125.699 29.481 129.876 26.1666C133.924 22.9143 142.903 38.5589 145.312 44.7154C147.052 48.8386 148.623 51.8335 149.847 54.2189C151.826 57.6841 153.577 61.2738 155.09 64.9653C155.09 64.8366 155.099 64.7348 155.103 64.5892C155.134 63.5018 155.194 61.5067 155.303 57.8175C155.326 53.1825 155.934 43.1119 160.953 44.9077C163.43 45.7872 163.09 48.2264 161.97 50.8861C160.851 53.5458 158.958 56.511 157.956 58.1399C155.688 61.8022 155.891 64.4916 155.635 66.2351C156.331 68.0101 156.974 69.804 157.563 71.6168C158.022 73.1269 158.435 74.6512 158.839 76.1755C159.247 74.934 159.795 73.1001 160.461 70.4318C161.004 68.2995 161.645 64.9172 162.899 62.307C164.132 59.6967 166.093 57.949 168.253 59.4479C170.412 60.9467 169.699 62.9277 168.189 65.2453C166.665 67.5317 164.287 70.026 162.978 71.3255C160.569 73.7293 159.79 75.8206 159.152 77.3237C159.659 79.3132 160.113 81.314 160.528 83.3233L160.728 82.8595C161.924 80.2132 163.261 77.6322 164.732 75.1277C167.628 69.8917 174.25 59.3885 177.984 63.0734C181.697 66.7385 170.73 73.5992 167.01 76.5431C163.08 79.4489 161.713 82.4056 160.738 84.4403C161.38 87.6784 161.929 90.9348 162.34 94.2111C162.367 94.4444 162.383 94.6805 162.408 94.9181C163.409 93.5324 165.022 91.2148 167.397 87.5511C170.568 82.6629 176.551 71.8317 180.393 75.4148C184.235 78.9979 173.591 86.4228 169.596 89.0797C165.705 91.6659 163.902 94.1701 162.51 95.8909C162.771 98.3965 162.978 100.906 163.131 103.419C163.794 102.571 164.937 100.986 166.57 98.2382C168.512 94.9252 171.97 87.2358 175.884 90.785C179.752 94.2719 171.739 98.4276 168.678 99.8756C165.386 101.401 164.238 103.254 163.188 104.311C163.362 107.387 163.456 110.465 163.471 113.545C163.774 113.318 164.127 113.048 164.548 112.715C166.131 111.455 168.547 109.356 171.785 105.984C176.536 101.157 185.044 89.7231 188.588 93.5946C192.132 97.4661 178.819 105.442 173.723 107.832C168.479 110.413 165.669 112.883 163.473 114.325C163.473 115.308 163.491 116.291 163.473 117.273C163.458 118.026 163.424 118.778 163.403 119.536C164.679 118.485 166.779 116.719 170.013 113.928C172.161 112.074 175.413 109.105 178.562 107.24C181.711 105.375 184.708 104.668 185.821 107.039C186.933 109.41 184.521 111.149 181.27 112.648C178.019 114.147 173.893 115.362 171.676 116.015C167.394 117.275 165.088 119.144 163.381 120.417C163.317 122.491 163.223 124.564 163.097 126.638C164.514 125.622 166.953 123.803 170.686 120.821C175.41 117.032 184.939 108.321 187.433 112.938C189.927 117.555 177.111 121.548 172.315 122.937C167.595 124.301 164.988 126.211 163.047 127.461C162.933 129.168 162.787 130.873 162.622 132.577C163.732 131.87 165.393 130.8 167.866 129.35C169.756 128.229 172.704 126.408 175.5 125.674C178.284 124.909 180.909 125.359 181.053 127.98C181.198 130.602 179.337 131.249 176.709 131.587C174.098 131.887 170.782 131.794 168.98 131.77C165.836 131.729 163.925 132.666 162.537 133.448C162.301 135.743 162.03 138.039 161.687 140.336C161.688 140.341 161.688 140.346 161.687 140.351C161.662 140.481 161.614 140.606 161.545 140.719C163.594 143.986 165.461 147.363 167.137 150.835C167.388 149.606 167.757 148.038 168.369 146.027C169.006 143.869 170.13 140.496 171.783 138.154C173.435 135.812 175.418 134.519 177.417 136.201C179.417 137.884 178.352 139.934 176.54 141.884C174.727 143.834 172.167 145.843 170.827 147.045C168.866 148.797 168.094 150.526 167.676 151.965C168.614 153.977 169.507 156.01 170.305 158.09L170.305 158.108C170.37 158.287 170.4 158.477 170.392 158.668C170.384 158.858 170.339 159.045 170.258 159.218C170.178 159.391 170.064 159.546 169.924 159.675C169.783 159.804 169.619 159.904 169.439 159.97C169.26 160.035 169.07 160.065 168.879 160.057C168.688 160.049 168.501 160.004 168.327 159.924C168.154 159.844 167.998 159.73 167.869 159.59C167.74 159.45 167.639 159.286 167.574 159.107C166.823 157.085 165.975 155.104 165.085 153.141C161.438 150.582 157.433 148.414 153.274 146.577C152.746 146.675 152.225 146.812 151.699 146.917C151.679 147.199 151.662 147.632 151.679 148.244C151.703 149.484 151.963 151.426 152.687 154.309C153.198 156.392 154.318 159.726 154.066 162.922C153.957 164.495 153.415 165.976 152.623 166.826C151.78 167.685 150.771 167.876 149.602 167.294C147.272 166.021 147.553 164.477 148.07 162.107C148.616 159.743 149.498 156.434 150.054 154.679C151.172 151.003 150.856 148.68 151.07 147.055C148.748 147.533 146.439 148.087 144.145 148.717C144.111 149.706 144.128 152.431 144.898 157.703C145.295 160.208 146.018 164.066 146.236 167.205C146.33 168.89 146.111 170.675 145.352 171.882C144.602 173.112 143.446 173.504 142.288 172.919C139.999 171.656 140.043 170.403 140.181 167.101C140.352 163.626 141.598 159.968 142.233 157.917C143.663 153.629 143.375 150.833 143.529 148.889C140.67 149.689 137.835 150.586 135.042 151.607C134.89 152.143 134.774 152.688 134.695 153.24C134.477 154.684 134.412 157.005 134.979 160.416C135.178 161.656 135.545 163.224 135.869 164.941C136.186 166.882 136.424 168.169 136.63 169.955C136.802 171.636 136.675 173.433 136.009 174.671C135.344 175.932 134.26 176.415 133.041 175.962C130.632 174.946 130.6 173.477 130.574 170.11C130.59 169.207 130.657 168.306 130.773 167.41C130.914 166.406 131.091 165.733 131.261 164.864C131.604 163.224 132.001 161.71 132.316 160.679C133.591 156.427 133.733 153.705 134.32 151.854C131.964 152.732 129.632 153.671 127.345 154.701C126.728 154.983 126.122 155.287 125.512 155.586C125.474 155.903 125.395 156.699 125.345 158.106C125.281 159.997 125.319 162.978 125.688 167.354C125.83 168.845 126.044 171.109 126.234 173.114C126.323 174.186 126.394 175.308 126.429 176.389C126.47 177.31 126.562 178.378 126.571 179.446C126.601 181.567 126.268 183.799 125.23 185.326C124.216 186.907 122.66 187.228 121.782 186.278C120.854 185.311 120.531 184.581 120.388 183.611C120.272 182.599 120.369 181.031 120.523 179.012C120.605 178.075 120.722 176.749 120.956 175.713C121.163 174.794 121.403 173.726 121.652 172.613C122.135 170.61 122.644 168.795 123.02 167.54C124.682 161.936 124.496 158.337 124.886 155.89C122.034 157.315 119.263 158.895 116.586 160.624C116.372 161.74 115.877 165.007 115.853 171.684C115.822 174.775 116.042 179.603 115.367 183.637C114.725 187.681 113.002 190.809 110.529 189.916C108.056 189.024 108.504 185.98 109.483 182.18C110.486 178.402 112.194 173.954 113.176 171.608C115.176 166.765 115.39 163.407 115.869 161.082C115.727 161.178 115.568 161.27 115.421 161.365C112.786 163.184 110.301 165.21 107.99 167.424C107.054 168.503 105.742 170.331 104.457 173.34C102.331 177.754 101.056 187.884 96.192 186.087C93.7404 185.171 94.252 182.303 95.9086 179.338C97.5652 176.373 100.424 173.453 102.073 172.118C103.048 171.308 103.873 170.553 104.59 169.856C104.59 169.856 104.59 169.847 104.59 169.845C107.419 166.674 110.569 163.804 113.991 161.281C113.684 161.301 113.325 161.327 112.881 161.366C111.277 161.508 108.756 161.831 105.113 162.579C99.8694 163.651 88.9264 167.216 88.5325 161.946C88.4276 160.607 89.1702 159.761 90.3903 159.252C90.3676 159.232 90.3421 159.225 90.3195 159.204C88.3794 157.435 90.3407 154.558 93.3351 152.01C96.3295 149.462 100.279 147.117 102.405 145.865C106.876 143.242 108.782 140.46 110.223 138.639L109.303 138.694L103.392 139.063L99.7079 139.584C99.3323 139.936 98.7981 140.459 98.0754 141.235C96.5519 142.868 94.3129 145.602 91.3214 149.86L87.4214 155.501C86.6845 156.543 85.8952 157.611 85.0194 158.687C84.1691 159.662 83.3189 160.611 82.4686 161.482C79.0675 164.973 75.8266 167.254 74.007 165.365C72.1874 163.476 74.7751 160.18 78.4709 156.933C80.3855 155.296 82.3425 153.753 84.2173 152.182C86.0964 150.647 87.8537 149.286 89.0894 148.364C93.9232 144.74 96.5123 141.683 98.6153 139.732L97.5198 139.888L94.585 140.302L91.6926 140.945L85.9065 142.255C85.1696 142.447 84.4441 142.689 83.7128 142.901C82.762 143.967 80.1941 146.942 75.5162 153.038C73.2828 155.911 69.8676 160.49 66.1802 163.616C62.5269 166.785 58.7375 168.282 57.438 166.02C56.1385 163.757 58.9968 161.39 62.653 158.702C66.3248 156.041 70.912 153.046 73.3749 151.429C78.2045 148.257 80.6476 145.275 82.531 143.256C81.7629 143.488 80.9863 143.694 80.2211 143.936C77.7482 144.856 74.5143 146.167 70.3834 148.011ZM101.532 27.7743C101.325 27.4038 101.078 26.9754 100.762 26.4508C100.516 26.0421 100.222 25.5769 99.8935 25.0721C99.3961 24.3651 98.9015 23.6581 98.4041 22.961C98.6224 23.4064 98.8151 23.8179 98.971 24.1573C99.5779 25.5192 100.448 26.7484 101.532 27.7743ZM153.751 133.991C154.586 136.395 154.939 139.176 155.117 140.743C155.382 143.136 156.109 144.702 156.835 145.891C159.041 146.924 161.192 148.068 163.28 149.32C160.566 143.968 157.334 138.864 153.751 133.991ZM141.36 147.998C139.788 147.986 138.216 148.066 136.654 148.236C134.723 148.421 131.63 148.982 128.946 148.53C126.253 148.106 124.303 146.617 125.28 144.192C126.256 141.767 128.046 141.914 130.26 142.636C132.473 143.359 135.259 144.77 136.737 145.586C139.63 147.151 141.666 147.216 143.114 147.465C145.611 146.718 148.137 146.058 150.693 145.486C148.577 144.637 146.433 143.857 144.273 143.165C137.401 140.994 130.309 139.582 123.127 138.957C122.183 139.722 120.435 141.29 117.769 144.258C117.936 144.289 118.102 144.305 118.271 144.347C121.347 145.09 124.058 147.218 125.42 148.353C128.166 150.685 130.425 151.075 132.013 151.413C134.548 150.37 137.107 149.387 139.71 148.524C140.262 148.343 140.814 148.176 141.367 148.004L141.36 147.998ZM126.846 153.654C128.182 153.025 129.551 152.466 130.91 151.89L124.763 150.938C122.669 150.635 119.519 150.491 117.29 150.316C115.781 150.156 114.538 149.945 113.703 149.028C113.05 149.821 112.354 150.655 111.624 151.501C113.716 152.102 115.703 153.073 116.868 153.678C120.171 155.405 122.44 155.048 123.98 155.092C124.934 154.599 125.888 154.115 126.853 153.654L126.846 153.654ZM109.744 140.374L104.501 147.519C102.691 149.947 100.003 153.77 97.3796 156.512C96.6653 157.269 95.8935 157.97 95.0711 158.609C98.5515 158.66 102.544 159.423 104.699 159.945C109.677 161.127 112.71 160.549 114.82 160.652L114.882 160.604C117.402 158.869 120.01 157.264 122.695 155.796C121.488 155.89 119.597 156.055 116.842 156.337C114.836 156.552 111.802 157.095 109.414 157.102C108.31 157.102 107.321 156.96 106.545 156.581C103.894 158.65 101.186 159.508 100.011 157.54C98.6564 155.304 100.846 153.217 104.054 150.761C107.172 148.439 111.218 146.123 113.538 144.909C113.795 144.709 114.082 144.55 114.388 144.438C118.249 142.308 120.481 140.238 122.215 138.862C121.85 138.834 121.488 138.78 121.122 138.756C119.158 138.588 117.182 138.642 115.211 138.574L112.252 138.515L111.029 138.587L109.744 140.374Z" fill="#7789AE"/>
</svg>
