<svg width="24" height="24" viewBox="0 0 24 24" fill="none" xmlns="http://www.w3.org/2000/svg">
<g id="instagram">
<path id="instagram_2" d="M17.0001 2H7.00006C4.23864 2 2.00006 4.23858 2.00006 7V17C2.00006 19.7614 4.23864 22 7.00006 22H17.0001C19.7615 22 22.0001 19.7614 22.0001 17V7C22.0001 4.23858 19.7615 2 17.0001 2Z" stroke="#C1BADD" stroke-width="2" stroke-linecap="round" stroke-linejoin="round"/>
<path id="instagram_3" d="M16.0001 11.37C16.1235 12.2022 15.9813 13.0522 15.5938 13.799C15.2063 14.5458 14.5932 15.1514 13.8417 15.5297C13.0902 15.9079 12.2385 16.0396 11.4079 15.9059C10.5772 15.7723 9.80983 15.3801 9.21491 14.7852C8.61999 14.1902 8.22781 13.4229 8.09414 12.5922C7.96048 11.7615 8.09214 10.9099 8.4704 10.1584C8.84866 9.40685 9.45426 8.79374 10.2011 8.40624C10.9479 8.01874 11.7978 7.87658 12.6301 8C13.479 8.12588 14.2649 8.52146 14.8718 9.1283C15.4786 9.73515 15.8742 10.5211 16.0001 11.37Z" stroke="#C1BADD" stroke-width="2" stroke-linecap="round" stroke-linejoin="round"/>
<path id="instagram_4" d="M17.5001 6.5H17.5101" stroke="#C1BADD" stroke-width="2" stroke-linecap="round" stroke-linejoin="round"/>
</g>
</svg>
