<svg width="24" height="24" viewBox="0 0 24 24" fill="none" xmlns="http://www.w3.org/2000/svg">
<g id="linkedin">
<path id="linkedin_2" d="M16.0001 8C17.5914 8 19.1175 8.63214 20.2427 9.75736C21.3679 10.8826 22.0001 12.4087 22.0001 14V21H18.0001V14C18.0001 13.4696 17.7893 12.9609 17.4143 12.5858C17.0392 12.2107 16.5305 12 16.0001 12C15.4696 12 14.9609 12.2107 14.5858 12.5858C14.2108 12.9609 14.0001 13.4696 14.0001 14V21H10.0001V14C10.0001 12.4087 10.6322 10.8826 11.7574 9.75736C12.8826 8.63214 14.4088 8 16.0001 8V8Z" stroke="#C1BADD" stroke-width="2" stroke-linecap="round" stroke-linejoin="round"/>
<path id="linkedin_3" d="M6.00006 9H2.00006V21H6.00006V9Z" stroke="#C1BADD" stroke-width="2" stroke-linecap="round" stroke-linejoin="round"/>
<path id="linkedin_4" d="M4.00006 6C5.10463 6 6.00006 5.10457 6.00006 4C6.00006 2.89543 5.10463 2 4.00006 2C2.89549 2 2.00006 2.89543 2.00006 4C2.00006 5.10457 2.89549 6 4.00006 6Z" stroke="#C1BADD" stroke-width="2" stroke-linecap="round" stroke-linejoin="round"/>
</g>
</svg>
