<svg width="249" height="92" viewBox="0 0 249 92" fill="none" xmlns="http://www.w3.org/2000/svg">
<g id="logo1">
<g id="logo1_2">
<path d="M61.5151 91V85.332H61.1511C60.4751 88.764 56.1591 90.48 48.0991 90.48C46.5911 90.48 45.5511 90.48 44.9271 90.428C42.7951 90.376 41.7551 88.244 41.7551 84.032V74.724H43.3151H45.0311C48.5151 74.724 50.7511 74.984 51.8431 75.504C52.9351 75.972 53.5591 77.376 53.6631 79.664H53.9231V69.212H53.6631C53.4551 71.448 52.9871 72.852 52.2071 73.424C51.4271 73.996 49.9711 74.256 47.8391 74.256H44.5111H43.3151H41.7551V55.328C48.8791 55.328 53.5591 55.744 55.7431 56.576C57.5111 57.252 58.6551 58.448 59.1751 60.216H59.4871V54.808H35.4631C36.1391 54.964 36.7111 55.276 37.1791 55.64C38.1671 56.524 38.6871 59.488 38.6871 64.636V79.456C38.6871 85.748 38.1671 89.336 37.1791 90.116C36.6071 90.584 35.9311 90.844 35.2551 91H61.5151Z" fill="white"/>
<path d="M74.2872 91.52C78.2912 91.52 81.1512 89.96 82.9192 86.788H82.5032C80.9432 89.492 78.4992 90.844 75.1192 90.844C68.6712 90.844 66.7472 83.876 66.7472 78.78C66.7472 75.92 67.1632 73.476 68.2032 70.824C69.2952 68.172 71.6352 66.508 74.7552 66.508C76.5752 66.508 77.9272 67.392 78.8632 69.212C79.2272 69.732 79.6432 70.564 80.0072 70.98C80.4232 71.344 80.7872 71.5 81.3592 71.5C82.5032 71.5 83.0752 71.032 83.0752 70.148C83.0752 67.028 77.0432 66.248 74.7032 66.248C70.9592 66.248 68.0992 67.444 66.1752 69.836C64.2512 72.228 63.2632 75.348 63.2632 79.144C63.2632 82.576 64.2512 85.488 66.2272 87.932C68.2552 90.324 70.9072 91.52 74.2872 91.52Z" fill="white"/>
<path d="M83.6634 53.3C84.9634 53.56 85.9514 54.184 86.6274 55.172C87.3034 56.68 87.6154 65.78 87.6154 82.576C87.6154 86.372 87.3554 88.712 86.8874 89.7C86.4714 90.376 85.7954 90.844 84.9114 91H93.3354C92.4514 90.844 91.8274 90.428 91.4634 89.752C90.9954 88.972 90.7874 86.788 90.7874 83.252L90.8394 76.024L90.7874 71.188C91.5674 70.096 92.7634 69.108 94.3234 68.224C95.9354 67.34 97.5474 66.872 99.1594 66.872C101.811 66.872 103.683 68.276 104.515 70.356C105.347 72.384 105.607 74.152 105.607 76.076L105.659 82.212C105.659 86.32 105.399 88.816 104.879 89.7C104.567 90.324 103.943 90.74 103.007 91H111.483C110.547 90.74 109.923 90.324 109.611 89.752C109.091 88.816 108.831 86.476 108.831 82.68V75.348C108.831 69.784 105.763 66.092 99.4714 66.092C96.2994 66.092 92.8154 68.068 90.7874 70.2L90.5794 52.884C88.9674 52.884 86.6274 53.04 83.6634 53.3Z" fill="white"/>
<path d="M123.593 66.768C126.349 66.768 128.533 68.536 129.573 71.032C130.665 73.528 131.237 75.868 131.289 78.104H115.585C115.845 75.764 116.365 73.476 117.561 70.98C118.757 68.484 120.889 66.768 123.593 66.768ZM134.773 78.624C134.721 75.244 133.629 72.384 131.601 69.94C129.573 67.496 126.817 66.248 123.333 66.248C119.589 66.248 116.729 67.496 114.701 70.044C112.725 72.592 111.737 75.608 111.737 79.196C111.737 82.628 112.829 85.54 115.065 87.932C117.301 90.324 120.265 91.52 123.957 91.52C128.325 91.52 132.693 89.128 134.409 85.176H134.097C132.017 88.556 128.273 90.844 124.737 90.844C118.601 90.844 115.533 86.788 115.533 78.624H134.773Z" fill="white"/>
<path d="M132.496 66.82C134.108 67.444 135.096 68.12 135.876 69.732C136.5 70.824 136.656 71.084 137.124 72.488L137.696 73.84L144.976 91.156H147.94L153.556 76.96C154.856 73.684 155.896 71.292 156.728 69.784C157.612 68.276 158.6 67.288 159.744 66.872L151.268 66.82C151.632 66.872 152.88 67.184 153.452 67.392L154.388 67.86C155.064 68.224 155.324 68.796 155.272 69.628C155.116 70.928 153.868 74.308 151.632 79.82C149.396 85.332 148.2 88.452 147.94 89.18C147.888 88.972 147.368 87.88 146.432 85.852C145.548 83.824 144.664 81.9 143.78 80.028C142.948 78.104 142.168 76.128 141.44 73.996C140.712 71.864 140.348 70.356 140.348 69.42C140.348 68.016 140.972 67.132 142.168 66.82H132.496Z" fill="white"/>
<path d="M169.02 66.768C171.776 66.768 173.96 68.536 175 71.032C176.092 73.528 176.664 75.868 176.716 78.104H161.012C161.272 75.764 161.792 73.476 162.988 70.98C164.184 68.484 166.316 66.768 169.02 66.768ZM180.2 78.624C180.148 75.244 179.056 72.384 177.028 69.94C175 67.496 172.244 66.248 168.76 66.248C165.016 66.248 162.156 67.496 160.128 70.044C158.152 72.592 157.164 75.608 157.164 79.196C157.164 82.628 158.256 85.54 160.492 87.932C162.728 90.324 165.692 91.52 169.384 91.52C173.752 91.52 178.12 89.128 179.836 85.176H179.524C177.444 88.556 173.7 90.844 170.164 90.844C164.028 90.844 160.96 86.788 160.96 78.624H180.2Z" fill="white"/>
<path d="M180.315 66.664C181.563 66.924 182.551 67.548 183.227 68.536C183.487 69.16 183.747 69.94 183.799 71.136C183.955 72.332 184.007 73.112 184.007 74.932V79.82V82.576C184.007 86.372 183.747 88.712 183.227 89.7C182.863 90.376 182.187 90.844 181.303 91H189.727C188.843 90.844 188.219 90.428 187.855 89.752C187.387 88.972 187.179 86.788 187.179 83.252V80.288L187.283 78.26C187.335 76.544 187.543 75.348 187.751 73.736C188.271 70.824 189.363 68.432 191.391 68.432H191.547C192.743 68.432 193.731 68.744 194.407 69.42C195.083 70.096 195.603 70.408 195.967 70.46C197.059 70.46 197.891 69.68 197.943 68.588C197.995 67.548 196.331 66.612 194.823 66.456C190.819 66.456 188.271 68.536 187.231 72.696L187.179 66.248C185.515 66.248 183.227 66.404 180.315 66.664Z" fill="white"/>
<path d="M198.052 66.664C199.3 66.924 200.288 67.548 200.964 68.536C201.224 69.16 201.484 69.94 201.536 71.136C201.692 72.332 201.744 73.112 201.744 74.932V79.82V82.576C201.744 86.372 201.484 88.712 200.964 89.7C200.6 90.376 199.924 90.844 199.04 91H207.464C206.58 90.844 205.956 90.428 205.592 89.752C205.124 88.972 204.916 86.788 204.916 83.252V80.288L205.02 78.26C205.072 76.544 205.28 75.348 205.488 73.736C206.008 70.824 207.1 68.432 209.128 68.432H209.284C210.48 68.432 211.468 68.744 212.144 69.42C212.82 70.096 213.34 70.408 213.704 70.46C214.796 70.46 215.628 69.68 215.68 68.588C215.732 67.548 214.068 66.612 212.56 66.456C208.556 66.456 206.008 68.536 204.968 72.696L204.916 66.248C203.252 66.248 200.964 66.404 198.052 66.664Z" fill="white"/>
<path d="M218.804 68.536C219.064 69.16 219.273 69.94 219.429 71.136C219.585 72.332 219.636 73.112 219.636 74.932V79.82V82.576C219.636 86.372 219.376 88.712 218.856 89.7C218.492 90.376 217.817 90.844 216.933 91H225.356C224.42 90.792 223.797 90.376 223.485 89.752C223.069 88.972 222.86 86.788 222.86 83.252L222.912 76.024L222.86 66.248C221.144 66.248 218.856 66.404 215.944 66.664C217.244 66.924 218.18 67.548 218.804 68.536ZM216.673 61.412C218.389 61.36 220.052 60.788 221.612 59.8C223.172 58.812 224.264 57.512 224.888 56.004L220.729 55.692C220.313 57.564 218.389 59.748 216.517 60.996L216.673 61.412Z" fill="white"/>
<path d="M226.636 83.668C226.636 88.036 230.692 91.052 238.232 91H248.164C247.228 90.792 246.604 90.376 246.292 89.752C245.876 88.92 245.668 86.892 245.668 83.668L245.72 74.308C245.72 71.76 244.992 69.732 243.484 68.276C241.82 66.924 239.844 66.248 237.504 66.248C235.06 66.248 228.664 67.236 228.664 70.46C228.664 71.5 229.184 72.02 230.224 72.02C231.628 72.02 232.408 70.616 232.824 69.316C233.24 68.016 234.696 66.612 237.036 66.612C239.376 66.612 241.04 67.6 241.716 69.42C242.392 71.136 242.548 72.592 242.548 74.828V76.804C241.092 76.284 239.584 76.024 238.076 76.024C234.696 76.024 231.94 76.752 229.808 78.26C227.676 79.768 226.636 81.536 226.636 83.668ZM238.492 76.44C239.688 76.44 240.988 76.648 242.496 77.064L242.444 83.304C242.444 86.58 242.184 88.816 241.612 89.908C241.144 90.428 240 90.688 238.232 90.688C231.628 90.688 230.12 86.632 230.12 83.668C230.12 81.796 230.744 80.132 232.044 78.676C233.344 77.168 235.528 76.44 238.492 76.44Z" fill="white"/>
</g>
<g id="logo1_3">
<path d="M59.1022 0.723997C58.8942 0.827996 58.7902 0.879995 58.7382 0.879995C58.6342 0.879995 58.5302 0.879995 58.4782 0.827995C58.3222 0.983996 57.9062 1.036 57.2302 1.036C57.0742 1.08799 57.0222 1.244 56.9702 1.244C56.9702 1.348 56.5542 1.244 56.3982 1.244H56.2942L56.1382 1.4C56.0342 1.452 55.7222 1.504 55.2542 1.504L54.9422 1.816H54.6302C54.4222 1.816 53.6422 2.18 53.5902 2.33599C53.2262 2.284 52.6022 2.752 52.3422 2.752C52.1862 2.908 51.6662 3.116 51.5102 3.324C51.0942 3.324 50.1062 3.844 49.4302 4.416C48.7542 4.988 47.6622 5.82 47.4542 5.976C47.2462 5.924 46.2582 6.548 44.5422 7.84799C44.3342 8.42 44.1262 8.68 43.8662 8.68L43.8142 8.628C43.7622 8.57599 43.7622 8.57599 43.7102 8.57599C43.5022 8.836 42.7222 9.512 42.5142 9.512C42.3062 9.668 41.6822 10.448 41.2662 10.604C41.0062 10.864 38.9262 12.476 39.1342 12.736C38.7702 12.736 37.8342 13.568 36.3782 15.284V15.388L36.4822 15.336C36.4822 15.336 36.5862 15.336 36.5862 15.388C36.5862 15.492 36.5342 15.544 36.4822 15.544C36.4302 15.492 36.3782 15.492 36.3262 15.492C36.1702 15.492 35.5982 15.804 35.4422 15.96C35.4422 16.116 34.8182 16.792 33.6222 17.988C32.4262 19.184 31.7502 19.756 31.5422 19.704C31.4382 19.6 31.5942 19.08 31.5942 18.768C31.5942 18.716 31.7502 18.508 31.7502 18.352V17.936V17.78C31.7502 17.624 31.3862 17.468 31.3862 17.312L31.4382 17.208C31.4902 17.208 31.6462 17.26 30.9702 16.636H30.9182C30.7622 16.792 30.6582 16.844 30.6062 16.844L30.5542 16.792H30.3982C29.9302 17.208 29.7222 17.832 29.7222 18.716C29.7222 18.768 29.8782 18.976 29.8782 19.028C29.8782 19.288 29.4102 20.016 29.4102 20.224C29.4102 20.276 29.4622 20.432 29.4622 20.484C29.4622 20.848 28.9942 21.472 28.9942 21.732V21.836C29.0462 21.888 29.0462 21.94 29.0462 21.992C28.8382 22.356 28.6302 23.136 28.5782 23.344C28.2142 23.604 28.0582 23.812 28.0062 23.864L27.7982 24.28C27.6422 24.436 27.2782 24.748 26.6022 25.164C26.5502 25.216 26.4462 25.216 26.2902 25.216C26.2902 25.528 25.7182 26.256 24.6262 27.4C23.5342 28.544 22.9622 29.272 22.8582 29.532C22.8062 29.584 22.4942 29.896 21.8182 30.468C21.1942 31.04 20.8822 31.352 20.8822 31.456L20.9862 31.56H20.9342C20.6742 31.56 20.2582 31.872 19.7382 32.548C19.9462 32.704 16.5142 36.292 16.3582 36.5C16.1502 36.708 15.9422 37.696 15.6302 37.696C15.5782 37.696 15.4222 37.592 15.2662 37.592L15.1622 37.8C15.0062 38.06 14.6942 38.476 14.3302 38.528C14.1742 38.684 14.3822 38.736 14.3822 38.892C14.3822 38.996 14.2782 39.1 14.0702 39.256C14.0182 39.36 13.2902 40.348 11.7822 42.168C10.2742 43.988 9.54616 44.924 9.49416 44.924C9.44216 44.924 9.33816 44.924 9.28616 44.872C9.18216 45.236 8.71416 45.912 7.93416 46.9C7.15416 47.888 6.73816 48.46 6.73816 48.512L5.02216 51.32C4.97016 51.476 4.03416 52.256 4.03416 52.464V52.568L4.08615 52.672C4.08615 52.776 3.98216 52.932 3.82616 53.088C3.67016 53.192 3.20216 53.972 2.47416 55.48C1.74616 56.988 1.33016 57.82 1.22616 57.872V58.236C1.01816 58.496 0.966155 59.224 0.810156 59.432L0.446156 59.9V60.004C0.446156 60.056 0.550156 60.42 0.550156 60.576L0.498155 60.732C0.498155 60.784 0.550156 60.888 0.706156 61.044L0.654156 61.096C0.602155 61.148 0.602156 61.2 0.602156 61.252C0.602156 61.408 1.07016 61.356 1.07016 61.616C1.07016 61.668 0.966155 61.928 0.966155 62.084C0.966155 62.24 1.22615 62.344 1.69415 62.344C1.69415 62.292 1.74616 62.292 1.90216 62.292C2.31816 62.396 2.57816 62.396 3.20216 62.24C3.41016 62.188 3.67016 61.824 3.93016 61.772C4.19016 61.564 4.91816 61.2 5.12616 61.044C5.69816 60.576 7.72616 59.12 7.98616 58.496C8.09016 58.34 8.45416 58.028 9.02616 57.56C9.59816 57.144 9.96216 56.884 10.1182 56.728C10.1182 56.364 10.5342 56.156 10.7422 55.948C10.7422 55.792 11.0022 55.636 11.0022 55.48C11.0022 55.376 10.7942 55.324 11.1582 55.116C11.3662 54.96 11.7302 54.804 11.7822 54.752C12.1462 54.388 12.4062 54.024 12.4582 53.764C12.7702 53.296 13.1342 52.932 13.6022 52.568C13.6542 52.516 13.6542 52.204 13.7062 52.152C13.8622 51.996 14.9542 51.008 15.1102 50.8C15.1102 50.748 15.1102 50.696 15.0582 50.696V50.332C15.0582 50.228 15.2662 49.968 15.6822 49.604C16.0982 49.24 16.3062 49.032 16.3582 48.928C16.6182 48.356 16.9822 47.784 17.5022 47.264C17.9702 46.744 18.1782 46.328 18.2302 46.068C18.2822 45.86 19.0622 45.184 19.1142 45.132C19.1662 44.768 19.3222 44.56 19.5822 44.404L19.6342 44.352L19.6862 43.988C19.6862 43.832 19.8942 43.52 20.2582 43C20.6222 42.532 20.8302 42.22 20.8302 42.168L20.7782 42.064V41.908C21.0382 41.648 21.1942 41.544 21.2462 41.544H21.4022V41.128L21.4542 41.024L21.6622 40.608L22.4942 39.776C22.9102 39.36 23.1182 38.008 23.1702 37.852C23.2222 37.644 23.8462 37.54 24.0022 37.384C24.2102 37.176 24.4182 36.032 24.5742 35.824C24.9382 35.668 25.4582 34.524 25.7182 34.264C25.7182 34.212 25.7182 34.16 25.6662 34.108C25.6142 34.108 25.6142 34.056 25.6142 33.9C25.6142 33.328 25.7182 33.068 25.9782 33.068L26.0822 33.12H26.1862L26.2382 33.068V32.808C26.2382 32.756 26.4982 32.756 26.4982 32.6C26.5502 32.288 26.7582 31.768 27.1742 31.04C27.5902 30.26 27.7982 29.844 27.7982 29.74C27.7982 29.688 27.7462 29.636 27.6942 29.584L27.6422 29.48C27.6422 29.428 27.6942 29.428 27.7462 29.428L27.8502 29.48C27.8502 29.48 27.8502 29.48 27.9022 29.48L28.0582 29.064C28.2662 28.44 28.5262 27.608 28.6822 27.452L28.8902 27.192C28.8902 27.036 29.0982 26.516 29.5142 25.528C29.3582 25.268 29.8782 24.332 30.2942 23.552L30.6062 23.032C30.6062 22.876 30.5542 22.616 30.5542 22.564C30.5542 22.408 30.6062 22.356 30.6582 22.356L30.8142 22.408C30.8662 22.408 31.5942 21.628 31.8022 21.42C31.8542 21.368 32.0102 21.368 32.0622 21.212L32.3222 20.64C32.3222 20.484 32.3742 20.38 32.4262 20.38L32.4782 20.432L32.5302 20.484C32.5822 20.484 32.5822 20.484 32.6342 20.432C32.6862 20.276 33.5702 19.912 33.5702 19.548C33.5702 19.496 33.5182 19.392 33.5182 19.34C33.5702 19.34 33.6222 19.444 33.6742 19.444C34.0902 19.236 35.3902 17.78 35.4422 17.78C35.4942 17.78 35.5982 17.52 35.8062 17.52C36.0142 17.26 36.0142 17.156 36.1702 16.896C36.3782 16.636 36.7422 16.376 37.2102 16.168C37.4702 16.064 37.8342 15.752 38.1982 15.18C38.6142 14.608 38.9262 14.244 39.0822 14.088C39.4462 14.14 39.7582 13.88 40.1222 13.36C40.3822 13.36 41.0062 13.048 41.0062 12.788C41.0062 12.736 40.9542 12.528 40.9542 12.476C40.9542 12.424 41.0062 12.372 41.0582 12.32L41.4742 12.112C41.5262 12.06 41.8382 11.54 42.0462 11.54C42.0982 11.54 42.2542 11.644 42.3062 11.644C42.4622 11.644 42.9822 10.812 43.3462 10.76C43.6062 10.708 43.7102 10.552 43.7102 10.188L44.1262 9.824L44.4902 9.46C45.1662 9.304 46.1542 8.68 46.4142 8.056C46.6222 7.9 46.8302 7.84799 46.9862 7.84799C47.0382 7.84799 47.0902 7.796 47.0902 7.744C47.0382 7.744 47.0382 7.692 46.9862 7.64L46.9342 7.588C46.9342 7.536 47.1942 7.38 47.7662 7.068C48.3382 6.756 48.5982 6.6 48.6502 6.6L48.8062 6.65199C48.9622 6.65199 49.0142 6.288 49.0662 6.288C49.1182 6.34 49.1702 6.34 49.2222 6.34C49.2742 6.34 49.3262 6.34 49.3782 6.288C49.4302 6.288 49.8982 5.924 49.8982 5.872C49.8982 5.82 49.7942 5.56 49.7942 5.508C49.7942 5.404 49.8462 5.352 49.8982 5.352H50.4702L50.9902 4.832C51.0422 4.78 51.1462 4.78 51.3542 4.78C51.4062 4.78 51.5622 4.832 51.6142 4.832C51.8742 4.832 52.2902 4.624 52.8622 4.156C53.4342 3.688 53.8502 3.48 54.0062 3.48C54.0582 3.48 54.2142 3.636 54.2662 3.636C54.8902 3.636 55.3062 3.48 55.5142 3.22C55.5142 2.908 55.5662 2.752 55.6702 2.752C55.8262 2.752 55.9302 2.908 55.9822 2.908C56.1382 2.908 56.3982 2.7 56.5542 2.7L56.6582 2.752H56.7622C57.0222 2.752 57.9062 2.388 58.1142 2.388C58.2702 2.388 58.4262 2.44 58.6342 2.54399C59.0502 2.388 59.3102 2.232 59.4142 2.07599C59.6742 2.18 59.7262 2.388 60.1422 2.18H60.3502L60.5062 2.284C60.5582 2.284 60.6622 2.18 60.8182 2.024H60.9222C61.0782 2.18 61.1822 1.92 61.4422 2.024L61.5462 2.07599L63.3662 2.284C63.6262 2.33599 64.5102 2.96 64.9262 2.96C65.1342 2.908 64.9782 2.752 65.8622 3.376L66.2262 3.74C66.3822 3.896 67.3182 4.312 67.3182 4.52V4.936L67.6822 5.3C67.7342 5.352 67.8382 5.612 67.9942 5.768V6.236C67.9942 6.444 68.3062 6.496 68.3582 6.548C68.4622 7.224 68.4622 7.64 68.4102 7.744C68.4102 7.796 68.4102 7.848 68.4622 7.9C68.4622 8.056 68.2022 8.368 68.2022 8.524C68.2022 8.57599 68.2542 8.628 68.3062 8.68C68.4102 8.888 68.2022 9.2 68.2022 9.564L68.1502 10.604L67.9942 10.916C68.2022 11.176 67.7342 11.384 67.9942 11.8C67.9942 11.956 67.8902 12.164 67.6302 12.424L67.2662 12.788C67.2662 12.944 67.5782 13.1 67.5782 13.256C67.5782 13.62 67.4222 13.984 67.0582 14.452V14.868C67.0582 15.024 66.6942 15.232 66.6942 15.44C66.6942 15.492 66.7462 15.7 66.7462 15.752C66.7462 16.116 66.3822 16.48 66.3822 16.532C66.4342 16.948 66.2262 17.728 65.6542 18.82C65.6022 18.872 65.0822 19.34 65.0302 19.496C65.0302 19.548 65.1862 19.704 65.1862 19.756C65.1862 20.016 64.9782 20.328 64.5622 20.744C64.1462 21.16 63.9382 21.42 63.9382 21.472L64.1462 21.732C64.1462 22.096 63.5222 22.564 63.5222 22.98L63.0542 23.448C62.8982 23.604 62.3782 24.488 62.3782 24.54L62.4822 24.592C62.5342 24.644 62.5342 24.696 62.5342 24.748C62.5342 24.956 62.2222 25.008 62.1182 25.112C61.8582 25.476 61.5462 26.048 61.0782 26.932C60.6622 27.764 60.2982 28.388 59.9862 28.752C59.1542 29.428 58.7382 29.948 58.7382 30.312C58.7382 30.364 58.7902 30.364 58.8422 30.416L58.9462 30.468C58.9462 30.78 58.6862 30.624 58.5822 30.728C58.4262 30.988 57.8542 31.716 57.6982 32.08C57.6982 32.184 56.3982 33.484 56.3982 33.744L56.4502 33.848C56.5022 33.848 56.5022 33.848 56.5022 33.9L56.1382 34.368C55.5662 35.044 54.8902 35.98 54.8382 36.188L54.7342 36.396C54.3702 36.552 53.7982 37.176 52.9662 38.216C52.1862 39.204 51.6662 39.828 51.4582 40.036C51.3022 40.192 51.2502 40.556 51.0422 40.712C51.0422 40.764 50.8342 41.024 50.4182 41.44C50.0542 41.856 49.8462 42.168 49.7942 42.324C49.4302 42.324 49.2742 43.052 48.9102 43.052C48.8582 43.052 48.8582 43.052 48.8062 43H48.7542C48.5982 43 48.4942 43.104 48.4942 43.312L48.5462 43.468C48.5462 43.52 48.5462 43.572 48.5982 43.572C48.5982 43.832 47.9742 44.3 47.6102 44.3C47.6622 44.716 47.2982 45.236 46.6222 45.86C45.9462 46.484 45.3742 46.952 44.8542 47.212C44.8022 47.212 44.8022 47.212 44.8022 47.264V47.472L44.6982 47.524C44.6462 47.576 44.5942 47.628 44.5942 47.68V47.888C44.3862 47.888 44.2302 48.356 43.8142 48.408L43.6062 48.616C43.6062 48.616 43.1902 48.408 43.4502 48.668L43.5022 48.72C43.5022 48.98 43.1902 49.5 42.9302 49.5H42.7222V49.552C42.6702 49.708 42.3062 50.072 41.6302 50.696C40.9542 51.372 40.5382 51.684 40.3822 51.736C40.1742 51.84 40.0702 52.048 40.0702 52.412C40.0702 52.568 40.1222 52.672 40.2262 52.672C40.2782 52.672 40.4342 52.516 40.4862 52.516C40.5382 52.516 40.5902 52.516 40.5902 52.568C40.5902 52.62 40.5382 52.672 40.4862 52.672H40.3302C40.2782 52.672 40.2782 52.724 40.2782 52.776C40.2782 53.088 40.4862 53.244 40.9022 53.244C41.0582 53.244 41.3702 53.14 41.5262 53.14C41.5782 53.14 41.7342 53.244 41.7862 53.244C42.2022 53.244 43.1382 52.204 44.1782 50.748L44.9582 49.656C45.1142 49.396 45.7902 49.136 45.9462 48.98C45.9982 48.824 45.9982 48.564 46.0502 48.512C46.3102 48.2 46.8822 47.576 47.8702 46.588C48.8582 45.652 49.3782 45.184 49.4302 45.236L49.5862 45.08L49.9502 44.664C50.0542 44.508 50.1582 44.404 50.2102 44.404L52.7062 41.752C52.7062 41.7 52.8102 41.284 53.0182 41.128C53.4342 40.972 53.8502 40.66 54.3182 40.192C54.4222 39.828 54.5782 39.62 54.7862 39.516L55.2022 39.1L55.3062 38.944C55.6702 38.84 55.9302 38.58 56.1902 38.164C56.3982 38.112 56.7102 37.436 57.0742 37.436C57.1262 37.384 57.1262 37.176 57.1782 37.124C57.4382 36.708 58.8942 36.032 58.8942 35.408C58.8942 35.356 59.2062 35.252 59.2062 35.096C59.2062 35.044 59.1022 34.836 59.1022 34.784C59.1542 34.784 59.4142 34.992 59.5702 34.992C59.6222 34.94 59.6222 34.94 59.6742 34.94V34.524C59.6742 34.472 59.7262 34.42 59.8302 34.42H59.9862C60.1422 34.42 60.2462 34.368 60.2462 34.212V34.004C60.1422 33.952 60.0902 33.9 60.0902 33.848C60.0902 33.796 60.1422 33.744 60.2462 33.744L60.3502 33.796C60.4022 33.796 60.6102 33.536 60.6622 33.536L60.8702 33.588C60.9222 33.588 60.9222 33.588 60.9742 33.536C60.9742 33.484 60.8702 33.328 60.8702 33.276L60.9222 33.172H61.3902L62.0142 32.86L62.0662 32.756C61.9622 32.756 61.9102 32.704 61.9102 32.6C61.9102 32.444 62.4302 32.08 62.4822 31.872C62.5342 31.716 63.0022 31.456 63.1582 31.196C63.3662 31.144 63.6262 30.884 63.9902 30.468C64.2502 30.468 64.3542 30.416 64.3542 30.26C64.3542 30.208 64.3022 30.104 64.3022 30.052C64.3022 29.844 64.4062 29.74 64.6662 29.74L64.7702 29.792C64.8222 29.376 64.8222 29.376 65.2382 29.324L65.3422 29.272V28.96L66.0182 28.388C67.0062 27.608 68.2022 26.568 68.3582 26.36C68.5142 26.152 68.8262 25.996 68.9822 25.84C69.2422 25.476 70.2302 24.592 70.5942 24.124C71.2182 23.448 74.2862 21.316 74.3902 20.432L74.4942 20.38L74.7022 20.276L74.8062 20.068C74.8582 19.912 74.9622 19.86 75.0142 19.86L75.0662 19.912H75.2222C75.2742 19.912 75.3782 19.86 75.4822 19.756V19.444L75.5862 19.392C75.6382 19.392 75.7422 19.392 75.7942 19.34L75.9502 19.288L76.2622 18.976C76.7302 18.976 77.2502 18.56 77.8742 17.676C78.6022 16.948 79.0182 16.584 79.0702 16.584H79.2262L79.2782 16.636C79.4862 16.636 80.4742 15.908 80.4742 15.752C80.4742 15.544 80.0582 15.7 80.9942 15.076C81.8262 14.608 82.9182 13.932 83.1262 13.776C83.3862 13.516 83.5942 13.36 83.7502 13.36H83.8542L83.9062 13.412C83.9582 13.412 84.4262 13.1 85.3102 12.476C86.1942 11.8 86.6102 11.436 86.6102 11.28C86.6622 11.228 86.9222 11.124 87.4422 10.916C87.9622 10.656 88.2222 10.552 88.2742 10.552L88.8982 10.5C88.9502 10.5 89.0542 10.448 89.1062 10.292C89.2622 10.604 89.5742 10.5 89.5742 10.916C89.5742 11.124 89.3662 11.28 89.3662 11.436C89.3142 11.488 89.3142 11.592 89.3142 11.748V11.852C88.8982 12.164 88.4302 13.88 88.2742 14.452C88.2222 14.608 87.8582 14.712 87.8582 14.764C87.8062 14.816 87.6502 15.284 87.2862 16.22C87.2862 16.376 86.5062 17.416 86.5062 17.416L86.0902 17.832C85.9342 17.988 85.8302 18.508 85.6222 18.716C85.5702 18.768 85.5702 18.82 85.5702 18.872V18.976L84.9982 19.6C84.9462 19.964 84.6342 20.64 84.0622 21.576C83.4902 22.46 83.0222 23.084 82.6582 23.448C82.6062 23.5 82.6062 23.552 82.6062 23.656L82.3461 24.28C82.1902 24.436 82.1382 24.54 82.1382 24.644L81.6702 25.112C81.5662 25.164 81.5142 25.268 81.5142 25.32C81.5142 25.372 81.6182 25.528 81.6182 25.58L81.5662 25.632L81.1502 26.048C80.9942 26.204 80.6822 26.724 80.2662 27.608C79.9022 28.492 79.6422 28.96 79.4862 29.116L79.2262 29.376L78.8102 30.156C78.6542 30.988 78.2902 31.716 77.6142 32.288C77.6142 32.548 77.3542 33.016 76.8862 33.692C76.4182 34.368 76.2102 34.732 76.2102 34.888L76.2622 34.992C76.3142 34.992 76.3142 34.992 76.3142 35.044C76.3142 35.408 75.6902 36.032 75.6382 36.188L75.3782 36.448C75.3262 36.812 75.1182 37.228 74.8582 37.592C74.6502 37.8 74.3382 38.32 74.1822 38.476C74.1822 38.528 74.1822 38.632 74.1302 38.736L73.7662 39.308C73.7142 39.516 73.3502 40.088 72.6742 41.076C71.9982 42.012 71.6862 42.584 71.6862 42.74V43C71.5822 43.052 71.5302 43.104 71.5302 43.156L71.2182 43.728C71.1662 43.78 71.1142 43.78 71.0622 43.78C70.9582 43.832 70.9062 43.884 70.9062 43.988C70.9062 44.04 71.0102 44.196 71.0102 44.248C71.0102 44.768 70.1262 46.328 69.8142 46.744C69.6582 47.108 69.4502 47.992 69.2942 48.356C69.2942 48.408 69.2942 48.46 69.3462 48.512V48.564C69.3462 48.824 69.1382 49.396 68.9822 49.656V50.28L68.9302 50.384V50.852C68.8782 50.904 68.8782 51.06 68.8782 51.216C68.8782 52.048 69.2942 52.516 70.1262 52.568C70.2822 52.724 70.4382 52.828 70.4902 52.828C70.7502 52.828 70.9062 52.62 70.9062 52.152C70.9062 51.996 70.9582 51.944 71.1142 51.944L71.2702 51.996C71.4262 51.788 71.8942 51.84 71.9462 51.788C72.2062 51.58 72.6742 51.112 73.3502 50.384C74.0262 49.708 74.3382 49.24 74.3382 49.032C74.3382 48.616 74.1822 48.408 73.9222 48.408C73.5062 48.408 72.5702 49.448 72.3102 49.448H72.2062L71.8422 49.656L71.3742 50.176C71.1142 50.54 70.8542 50.748 70.6982 50.748C70.6462 50.696 70.5942 50.644 70.5422 50.488C70.5422 50.332 70.5422 50.28 70.4902 50.228V49.604C70.4902 49.396 70.9062 49.032 70.9062 48.772C70.8542 48.668 70.8542 48.616 70.8542 48.564C70.8542 48.304 71.1662 47.472 71.1662 47.108L71.2182 47.056C71.7902 46.796 72.2062 45.184 72.3622 44.976C72.4142 44.924 72.6222 44.352 73.0382 43.312C73.5062 42.324 73.8702 41.544 74.1822 40.972C74.5462 40.4 74.8582 39.932 75.2222 39.672V39.36L75.4822 38.892C75.6382 38.736 75.7422 38.58 75.7422 38.32C76.1062 37.956 76.5222 37.332 77.0942 36.448C77.0422 36.396 76.9902 36.292 76.9902 36.188L77.4582 35.72V35.408C77.4582 35.356 77.7702 34.836 78.3422 33.9C78.9662 32.964 79.2782 32.392 79.3302 32.184C79.3302 32.028 80.1102 31.664 80.1102 31.404C80.1102 31.352 79.9542 31.196 79.9542 31.144C80.3702 30.78 81.0462 29.74 81.0462 29.324L81.2542 28.96C81.3062 28.7 81.4101 28.544 81.5662 28.388C81.7742 27.868 82.1902 27.14 82.7622 26.204C83.3862 25.268 83.8022 24.592 84.0102 24.176L84.3222 23.76C84.5822 23.448 84.7382 23.24 84.7902 23.084C84.8422 23.084 84.8422 23.032 84.8942 22.928L85.4662 22.356C85.5182 22.096 85.7782 21.68 86.2462 21.056C86.7142 20.38 86.9222 19.86 86.8702 19.496C87.1302 19.08 87.7542 18.924 87.6502 18.3C87.8062 17.884 88.6382 17.052 88.6902 17C88.8462 16.844 88.8982 16.116 89.1062 15.908C90.6662 13.62 91.4462 11.748 91.4462 10.292C91.4462 9.876 91.3942 9.51199 91.2382 9.252C90.8222 8.732 90.3542 8.472 89.8862 8.472C89.5222 8.472 89.3662 8.524 89.2102 8.524C88.6382 8.524 87.3902 9.408 86.9222 9.408H86.8182C86.6622 9.408 86.6102 9.408 86.5582 9.356C86.5062 9.408 85.9862 10.084 85.8302 10.136C85.5702 10.396 81.6182 12.84 81.8262 13.048L81.4622 13.308C80.9942 13.672 80.3702 14.036 80.3182 14.088L79.4862 14.816C79.2782 14.868 79.1222 15.44 78.8622 15.44C78.8102 15.44 78.6542 15.388 78.6022 15.388L77.5622 16.428C77.4582 16.636 77.1982 16.792 76.7822 16.896C76.5222 17.156 75.7942 17.884 74.4942 19.08C73.2462 20.224 72.6222 20.796 72.5702 20.796L72.4662 20.744H72.3622C72.1022 20.744 71.9982 20.848 71.9982 21.056C71.9982 21.16 71.9982 21.212 72.0502 21.264C72.0502 21.576 71.7902 21.888 71.2182 22.2L70.3342 22.772C70.0222 22.772 70.1262 22.98 69.8662 22.824H69.8142C69.7102 22.824 69.6582 22.824 69.6582 22.876C69.6582 23.084 70.1782 23.136 70.1782 23.292C70.1782 23.396 70.1262 23.448 69.9702 23.448C69.9182 23.396 69.8662 23.344 69.8142 23.344L65.3942 27.556C65.3422 27.608 65.1342 27.764 64.9782 27.972C64.6142 28.18 64.7182 28.232 64.7702 28.284V28.336C64.7702 28.388 64.5102 28.596 63.9382 29.064C63.3662 29.532 63.1062 29.792 63.1062 29.896C63.1062 30 63.1062 30.052 63.1582 30.104C63.1582 30.312 62.4302 30.312 62.4302 30.572C62.3782 30.572 62.3782 30.624 62.4302 30.728C62.4302 30.728 59.5182 32.808 59.3102 33.536C59.2582 33.536 59.2582 33.588 59.2582 33.64C59.2582 33.64 59.2582 33.64 59.2062 33.692L58.4782 34.472V34.628C58.4782 34.836 58.4262 34.94 58.3742 34.94C58.3222 34.94 58.2702 34.94 58.2182 34.888H58.1142C57.6982 34.888 57.4902 35.772 57.2302 35.772C57.0222 35.668 56.9182 35.72 56.6062 35.876C56.6062 35.408 57.3342 34.524 57.8022 34.524V34.368C57.7502 34.368 57.7502 34.316 57.7502 34.212C57.7502 34.056 57.8542 33.848 58.1142 33.588C58.3742 33.432 58.8942 32.704 59.7782 31.352C60.6622 30 61.1822 29.116 61.2862 28.752L61.7542 28.232C62.2742 27.712 62.5342 27.348 62.5342 27.192L62.4822 27.088C62.4302 27.088 62.4302 27.088 62.4302 27.036C62.6382 26.828 63.7822 24.644 63.8862 24.644L63.9382 24.696C64.4062 24.904 63.9902 24.28 64.4582 24.072V23.76C64.6142 23.604 65.1862 22.564 65.1862 22.356C65.1862 22.304 65.1862 22.252 65.1342 22.2L65.0822 22.148L65.1342 22.044C65.3942 21.784 66.1742 20.9 66.1742 20.38L66.1222 20.328C65.8622 20.276 66.3302 19.86 66.5902 19.6C66.7462 19.34 66.9542 18.924 67.2142 18.248C67.4742 17.572 67.6302 17.104 67.6302 16.844C67.8382 16.636 67.9942 16.48 68.0462 16.324C68.0462 15.908 68.4622 14.972 68.4622 14.608C68.4622 14.556 68.3062 14.4 68.3062 14.348C68.3062 14.14 68.6702 13.932 68.6702 13.724V13.62C68.5662 13.568 68.5142 13.516 68.5142 13.412C68.5142 13.256 68.9302 13.1 68.9302 12.944C68.8782 12.32 69.5022 10.76 69.5022 10.188V9.668C69.5542 9.616 69.5542 9.564 69.5542 9.512V9.408L69.5022 9.304C69.5022 8.888 69.6582 7.84799 69.6582 7.484V7.12C69.4502 6.912 69.5022 6.86 69.5542 6.808L69.6062 6.704C69.6062 6.34 69.0342 5.612 69.0342 5.248C69.0342 5.092 69.2422 4.676 68.9822 4.936L68.9302 4.884L68.5662 4.52C68.3582 4.364 68.2542 3.74 68.2022 3.584C67.7342 2.856 66.4862 2.284 65.8622 1.816C65.8102 1.764 65.8102 1.4 65.6542 1.4H65.0822C64.9262 1.4 64.7182 1.296 64.5622 1.296C64.4582 1.296 64.0422 0.983997 63.9382 0.879995C63.7302 0.827996 63.4182 0.827995 63.0022 0.827995C62.6382 0.827995 62.5862 0.619995 62.3782 0.723997L62.3262 0.775996C62.1182 0.775996 61.7022 0.619995 61.4942 0.619995C61.4422 0.619995 61.2862 0.671997 61.1302 0.671997C60.9742 0.671997 60.8182 0.671998 60.7142 0.619995H59.9862C59.8302 0.619995 59.4662 0.775996 59.2582 0.775996L59.1022 0.723997ZM86.6102 9.772V9.824C86.5582 9.824 86.5062 9.824 86.4542 9.772H86.6102ZM84.4782 11.904H84.5302V11.956L84.4782 11.904ZM39.8622 12.32V12.372V12.32ZM66.3822 18.508C66.3822 18.456 66.4342 18.404 66.5382 18.404C66.5382 18.508 66.5382 18.56 66.4862 18.56C66.4342 18.56 66.3822 18.56 66.3822 18.508ZM69.8662 23.812C69.7622 23.812 69.7622 23.76 69.8142 23.708L69.8662 23.812ZM29.0462 25.424H28.9942H29.0462ZM26.7062 25.684V25.736V25.684ZM26.9662 26.672C27.0182 26.672 27.2262 26.516 27.2782 26.516V26.568L27.1742 26.62C27.1222 26.672 27.1222 26.828 27.1222 27.14L26.7062 28.128C26.7582 28.596 25.8222 29.584 25.8222 30V30.52C25.2502 31.092 24.9902 31.404 24.9902 31.508C25.1982 31.716 25.1462 32.08 24.7822 32.392L24.8342 32.496C24.8342 32.496 24.8342 32.496 24.8342 32.548C24.8342 32.756 24.3142 33.016 24.3142 33.172C24.3142 33.224 24.3662 33.432 24.3662 33.484C24.3662 33.744 24.2102 34.108 23.8462 34.628C23.4822 35.096 23.2742 35.46 23.2222 35.616C23.1702 35.824 22.4942 36.396 22.4942 36.448V37.072L22.2862 37.436C22.2862 37.8 21.8182 38.06 21.7662 38.216C21.2982 38.84 20.9862 39.308 20.8302 39.568C20.8302 39.724 20.5702 40.036 20.1022 40.4C20.1542 40.66 19.9462 40.972 19.9462 41.128L19.5302 41.648C19.2702 42.116 18.8022 42.584 19.0622 42.532L19.1142 42.584C19.1142 42.792 18.5422 43.312 18.4902 43.364C18.4902 43.624 18.0222 44.144 17.9702 44.3L17.6062 44.716C17.6582 45.08 16.9822 45.496 16.9822 45.704C16.9822 45.756 17.0862 46.016 17.0862 46.068C17.0862 46.224 16.0982 46.692 16.0982 47.056C16.1502 47.056 16.1502 47.108 16.1502 47.16C16.1502 47.264 16.0982 47.316 15.9942 47.316L15.8902 47.264C15.8902 47.264 15.8902 47.264 15.8382 47.264C15.6822 47.264 15.4742 47.524 15.2142 48.044C14.9542 48.564 14.7462 48.876 14.5902 48.928C14.5902 49.032 14.4342 49.344 14.0702 49.812L13.3942 50.748C11.9382 52.204 10.9502 53.4 10.3782 54.388C10.2222 54.544 8.19416 56.78 8.09016 56.78V56.728H7.98616C7.98616 57.196 6.79016 57.872 6.73816 57.924V57.976C6.68616 58.028 6.68616 58.028 6.68616 58.08C6.68616 58.132 6.68616 58.184 6.63416 58.184H6.37416L4.86616 59.64L4.65816 59.536C4.50216 59.536 4.19016 59.744 3.72216 60.16C3.25416 60.576 2.83816 60.784 2.57816 60.784C2.42216 60.784 2.31815 60.732 2.26616 60.68L2.37016 60.576V60.264C2.37016 60.212 2.26616 60.212 2.21416 60.264H2.16216C1.85016 60.264 2.26616 59.848 2.26616 59.692V59.536C2.16216 59.172 2.42216 59.276 2.42216 58.912C2.42216 58.86 2.37016 58.652 2.37016 58.6C2.37016 58.444 2.73416 58.132 2.73416 58.08C2.89016 57.716 3.56616 56.52 4.81416 54.388C4.81416 54.232 4.60616 54.128 4.60616 53.92C4.60616 53.868 5.12616 53.192 5.17816 52.984C5.23016 52.776 5.75016 52.516 5.80216 52.256L6.01016 52.048C6.06216 51.996 6.06216 51.996 6.06216 51.944V51.476L6.11416 51.424C6.58216 50.956 7.46616 49.5 8.09016 48.928C8.09016 48.72 8.55816 48.252 8.55816 48.044C8.50616 48.044 8.50616 47.992 8.50616 47.888C8.55816 47.784 8.87016 47.42 9.44216 46.848L9.49416 46.796V46.484L9.85816 46.12C10.2742 45.704 10.7942 45.028 10.7942 44.56C10.7942 44.508 10.7942 44.508 10.8462 44.456C11.2102 44.456 11.4182 44.404 11.4182 44.3V43.988C11.6782 43.884 12.0942 43.52 12.5622 42.896C12.6142 42.844 12.6142 42.792 12.6142 42.636C12.7702 42.532 12.8742 42.376 12.9262 42.168C12.7182 41.96 12.8742 41.96 12.9782 41.96L13.0822 42.012C13.4982 42.012 14.3822 40.816 14.3822 40.4C14.5382 40.296 14.6422 40.14 14.6942 39.932C14.9022 39.776 15.2142 39.412 15.3702 39.204C15.6302 38.476 15.8902 38.112 16.1502 38.112H16.5142L16.6182 37.904L16.7742 37.54L16.8782 37.332C17.7102 36.864 18.1782 36.448 18.2822 36.136C18.2302 35.72 18.9582 34.836 19.4262 34.472L19.7382 34.368V34.212L19.5302 34.108C19.4782 34.108 19.4782 34.056 19.4782 34.004C19.4782 33.952 19.5302 33.744 19.5822 33.536C19.6342 33.536 19.6342 33.796 19.6862 33.796C19.8942 33.796 19.9462 33.952 20.1022 33.952C20.2582 33.9 20.5182 33.224 20.9862 32.964C21.1422 32.912 21.4022 32.6 21.8702 32.028C22.3382 31.456 22.5982 31.196 22.6502 31.144L23.3262 30.416C23.6382 30.104 23.8982 29.792 24.0542 29.48L24.4182 29.064L26.2382 27.192L26.7582 26.62C26.8102 26.62 26.8622 26.62 26.9142 26.672H26.9662ZM28.1102 26.62V26.672V26.62ZM23.0142 29.532V29.584V29.532ZM59.8302 30.416C59.6742 30.416 59.6742 30.312 59.8822 30.312C59.8822 30.364 59.8822 30.416 59.8302 30.416ZM26.8622 31.248V31.3V31.248ZM19.7902 33.016L19.7382 33.068V33.016H19.7902ZM55.5142 35.876C55.4622 35.824 55.4622 35.772 55.6182 35.772C55.6702 35.772 55.6702 35.772 55.6702 35.824C55.6702 35.928 55.6702 35.98 55.6182 35.98C55.5662 35.98 55.5142 35.928 55.5142 35.876ZM23.9502 35.876H24.0022C24.0022 35.928 24.0022 35.928 23.9502 35.98V35.876ZM56.5542 36.084C56.5542 36.396 56.1902 36.916 56.1902 36.552C56.2942 36.292 56.3982 36.136 56.5542 36.084ZM54.8902 36.5H54.9422V36.552L54.8902 36.5ZM10.0142 45.288H10.0662H10.0142ZM14.3302 50.592H14.4342V50.696H14.2782L14.3302 50.592ZM1.43416 57.976C1.43416 57.82 1.53816 57.768 1.79815 57.768H1.90216V57.82C1.69416 57.924 1.53816 57.976 1.43416 57.976ZM4.71016 59.848H4.81416L4.71016 59.9V59.848Z" fill="#F1D8E7"/>
<path d="M80.4672 39.88C80.5192 39.828 80.6233 39.776 80.7793 39.776C80.7793 39.932 80.7272 39.984 80.5712 39.984C80.5192 39.984 80.4672 39.932 80.4672 39.88ZM80.8313 39.568C80.8313 39.412 80.9873 39.308 81.2473 39.308C81.4033 39.308 81.5073 39.36 81.5073 39.464C81.5073 39.516 81.5072 39.568 81.4552 39.568L81.0913 39.724C81.0913 39.776 81.0912 39.776 81.0392 39.776C80.8832 39.776 80.8313 39.724 80.8313 39.568ZM81.0913 38.58C81.0913 38.476 81.2473 38.424 81.6113 38.424C81.6633 38.424 81.6633 38.476 81.6633 38.58V38.684C81.5073 38.684 81.3512 38.84 81.2992 38.84C81.1432 38.84 81.0913 38.736 81.0913 38.58ZM82.0273 37.644C82.0273 37.54 82.1313 37.488 82.3913 37.488C82.4433 37.488 82.4952 37.54 82.4952 37.592V37.644L82.3393 37.748H82.2873C82.1313 37.748 82.0273 37.696 82.0273 37.644ZM82.6512 36.76C82.7032 36.76 82.7553 36.812 82.7553 36.864C82.7553 36.916 82.7032 36.968 82.5992 37.072C82.5992 36.916 82.3913 36.916 82.3913 37.072C82.2873 37.072 82.2352 37.02 82.2352 36.864C82.2872 36.916 82.3393 36.916 82.3913 36.916L82.4952 36.76L82.5472 36.812L82.5992 36.76H82.6512ZM83.7432 35.408C83.7432 35.252 84.1592 35.252 84.1592 35.46C84.1592 35.512 84.1073 35.564 84.0553 35.564C83.8473 35.564 83.7432 35.512 83.7432 35.408ZM84.6792 33.588C84.4712 33.588 83.6913 34.42 83.5353 34.68L82.3913 35.824C82.3913 35.876 82.3913 35.928 82.4433 35.98C82.3913 36.084 82.1832 36.396 81.7672 36.864C81.3512 37.332 81.1433 37.696 81.1433 38.008H81.1953C81.1433 38.216 79.9992 39.152 79.9992 39.776L80.0512 39.88C80.0512 39.88 80.0512 39.88 80.0512 39.932L79.6872 40.4L79.6353 40.92C79.5833 41.076 79.1673 41.388 79.1673 41.44L79.2192 41.544C79.3752 41.7 79.1153 41.7 79.1153 41.908V42.376C79.1153 42.532 78.9072 42.844 78.9072 42.896C79.1152 43.364 79.2713 43.468 79.4793 43.78H79.7912C79.7912 43.884 79.7913 43.936 79.8433 43.936V43.988C79.9993 43.988 79.9992 43.78 80.1552 43.78C80.2592 43.78 80.3633 43.832 80.4153 43.988H80.4672C80.7272 43.988 80.9872 43.572 80.9872 43.312C80.9872 43.104 80.3113 43.208 80.3113 43C80.3113 42.948 80.4672 42.844 80.4672 42.792V42.272V42.012C80.4672 41.96 80.4153 41.908 80.3633 41.856C80.4153 41.7 80.6753 41.596 80.7273 41.44V41.336C80.7273 41.18 80.6232 41.076 80.6232 40.92C80.6232 40.868 81.0913 40.712 81.0913 40.556C81.0913 40.504 81.0392 40.504 80.9872 40.452L80.9352 40.4V40.348C81.3512 40.036 81.8193 39.464 82.2873 38.58C82.8073 37.696 83.1712 37.124 83.4312 36.864L83.8472 36.448C83.8992 36.396 83.9513 36.292 84.1073 36.188C83.9513 35.98 84.3152 35.408 84.5752 35.408V35.356H84.4193V35.304L85.0952 34.68L85.6153 34.16C86.0313 34.212 86.7072 33.484 86.7072 33.068C86.7072 32.652 86.3433 32.184 85.9272 32.184C85.8753 32.184 85.4592 32.548 84.6792 33.276V33.588ZM86.0833 18.092C85.6153 18.092 85.6673 18.716 85.9272 19.132L86.1353 19.444C86.1353 19.756 86.3432 19.912 86.7072 19.912V19.86H86.8633C87.2273 19.86 87.6432 20.744 87.7992 20.744C87.9552 20.744 88.5793 20.224 88.5793 20.016V19.964C88.3193 19.6 87.7473 19.184 87.6433 18.768C87.3313 18.612 87.2272 18.716 87.1232 18.352L86.0833 18.092ZM87.1232 19.08C86.9672 19.08 86.9153 19.028 86.9153 18.976C87.0713 18.976 87.1232 19.028 87.1232 19.08ZM84.7313 34.212V34.16H84.8353C84.8353 34.212 84.7833 34.212 84.7313 34.212ZM84.3153 34.42H84.2112C84.2112 34.368 84.2633 34.316 84.3153 34.316V34.42ZM84.5752 34.576C84.5752 34.68 84.5752 34.732 84.5232 34.784C84.3672 34.784 84.3672 34.576 84.5752 34.576ZM84.6792 35.252L84.6272 35.304C84.6272 35.356 84.6272 35.356 84.6792 35.356L84.7313 35.304L84.6792 35.252ZM82.9632 35.772V35.824V35.772ZM83.5353 35.928C83.4833 35.928 83.4833 35.824 83.5353 35.824V35.928ZM82.8593 35.98H82.8073C82.8593 35.928 82.8593 35.928 82.8593 35.876V35.98ZM83.3272 36.032C83.2232 35.928 83.4832 35.98 83.4832 36.032C83.4832 36.084 83.4312 36.136 83.3792 36.136C83.3272 36.084 83.3272 36.084 83.3272 36.032ZM82.8593 36.292C82.7553 36.292 82.7033 36.24 82.7033 36.188L82.8073 36.032L82.8593 36.292ZM83.7952 36.136C83.7952 36.188 83.7952 36.292 83.7432 36.344C83.6912 36.344 83.6392 36.292 83.7952 36.136ZM82.5992 36.604L82.5472 36.656V36.604H82.5992ZM81.6113 38.268C81.6113 38.112 81.7152 38.112 81.7152 38.268C81.7152 38.32 81.7153 38.32 81.6633 38.32L81.6113 38.268ZM82.2873 38.216V38.268V38.216ZM80.0512 42.064C79.9992 42.064 79.9473 42.012 79.9473 41.908C79.9993 41.908 80.0512 41.96 80.0512 42.064Z" fill="#F1D8E7"/>
<path d="M91.7175 32.08C91.7175 32.028 91.7695 32.028 91.8735 32.028C91.9255 32.028 91.9775 32.184 92.0295 32.236C91.9775 32.288 91.9255 32.288 91.8735 32.288C91.7695 32.288 91.7175 32.236 91.7175 32.08ZM99.5175 26.1C99.5695 26.048 99.6215 26.048 99.6735 26.048H99.8295V26.1L99.7775 26.152C99.7775 26.204 99.5695 26.256 99.5175 26.1ZM102.638 30.728C102.586 30.728 102.534 30.52 102.742 30.52L102.794 30.572C102.794 30.676 102.742 30.728 102.638 30.728ZM86.2055 43.936C86.2575 43.884 86.4655 43.884 86.5175 43.936C86.3615 44.092 86.2055 44.092 86.2055 43.936ZM88.2855 35.668C88.2855 35.616 88.3375 35.616 88.4935 35.564L88.5975 35.616L88.7015 35.668C88.5975 35.772 88.4935 35.824 88.3895 35.824C88.3375 35.824 88.2855 35.772 88.2855 35.668ZM88.5975 37.072C88.4935 37.072 88.4415 37.02 88.4415 36.968C88.6495 36.968 88.7535 36.968 88.7535 37.02V37.072H88.5975ZM91.1975 33.172C91.1975 32.808 91.6135 32.86 91.6135 33.016C91.6135 33.172 91.5095 33.276 91.3015 33.276C91.2495 33.276 91.1975 33.224 91.1975 33.172ZM89.6375 47.732C89.6375 47.576 89.7935 47.472 90.0535 47.472C90.1055 47.472 90.1575 47.524 90.1575 47.576C90.1575 47.732 90.0015 47.836 89.7415 47.836H89.6375V47.732ZM101.182 23.864C100.818 24.124 100.194 24.436 99.3615 24.8C99.0495 25.06 98.7895 25.216 98.6335 25.32H98.7895C98.8415 25.32 98.8935 25.528 98.6855 25.528V25.476H98.5815C98.3735 25.528 97.5415 26.1 96.0855 27.296C94.6295 28.492 93.8495 29.168 93.7455 29.376L90.8335 32.288C90.0015 33.12 89.4815 33.744 89.4815 33.952H89.5335C89.5335 34.004 89.5335 34.004 89.5855 34.004L88.7535 34.836C88.7535 34.992 88.7535 35.044 88.7015 35.096C88.5455 35.148 87.9215 35.72 87.9215 35.772V35.824L87.9735 35.876C87.9215 35.928 87.9215 35.928 87.9215 35.98C87.8695 36.032 87.8175 36.084 87.6615 36.136L86.4135 38.216C86.3615 38.58 85.6855 38.788 85.9975 38.84V38.892C85.9975 38.944 85.7895 39.516 85.7895 39.672C85.5295 39.828 85.4255 40.14 85.4255 40.556V40.66L85.4775 40.712C85.4775 40.868 85.1655 41.128 85.1655 41.336C85.1655 41.336 85.1655 41.388 85.2175 41.44C85.2695 41.648 85.0615 42.272 85.0615 42.428C85.0615 42.584 85.1135 42.688 85.1655 42.844L85.2175 42.896C85.2175 43.052 84.9575 43.312 84.9575 43.364C84.9575 43.52 85.2695 43.832 85.2695 44.04V44.56V44.768C85.2175 44.768 85.2175 44.82 85.2175 44.872C85.2175 45.028 85.2695 45.08 85.4255 45.08C85.4255 45.028 85.4775 45.028 85.5815 45.028L85.6335 45.08C85.6335 45.132 85.6335 45.132 85.5815 45.132L85.4775 45.184C85.4775 45.496 85.7895 45.912 86.4135 46.484C87.0375 47.056 87.5055 47.368 87.8695 47.472C88.1295 47.628 89.3775 48.096 89.9495 48.252L90.6255 48.304H92.9655C93.0175 48.304 93.3815 48.044 93.5895 48.044H94.5255C94.7335 48.044 95.0975 47.732 95.4615 47.732C99.2055 46.432 101.702 45.34 102.898 44.508C103.886 43.832 104.666 43.416 105.134 43.208L106.798 42.116C107.682 41.492 108.358 40.972 108.774 40.608L109.19 40.192C109.242 40.14 109.294 40.14 109.45 40.14H109.762C109.918 40.14 110.074 39.464 110.334 39.308C110.386 39.256 110.802 38.632 110.802 38.58V38.528L110.49 38.372H110.438L109.918 38.84L108.098 40.348C107.734 40.608 107.11 40.972 106.33 41.44L104.718 42.428C103.21 43.52 102.43 44.04 102.378 44.04C99.4135 45.548 97.2295 46.432 95.9295 46.588C94.1095 46.796 93.0175 46.952 92.6015 47.108H91.8735C91.8215 47.108 91.7695 47.108 91.7175 47.16C91.1455 47.108 90.3655 46.848 89.4295 46.484C88.5455 46.12 87.9215 45.808 87.6095 45.444L86.9855 44.508C86.9855 44.456 87.1935 44.404 87.1935 44.248C87.1935 44.196 87.1415 44.144 87.0375 44.092V44.04C86.9855 44.04 86.9855 44.092 86.9335 44.144V44.196L86.5695 44.04C86.7255 43.988 86.8295 43.936 86.8815 43.936L86.9335 44.04H86.9855C86.9855 43.884 87.0375 43.624 87.0375 43.572C87.0375 43.312 86.8295 42.844 86.8295 42.636V42.584C86.9855 42.532 87.0895 42.376 87.0895 42.168C87.0895 42.116 86.8295 41.856 86.8295 41.648C86.8295 41.44 87.3495 41.544 87.3495 41.388C87.3495 41.336 87.2975 41.336 87.2455 41.284L87.1935 41.232C87.1935 41.18 87.2455 41.128 87.2975 41.076V40.764L87.3495 40.66L87.2455 40.556C87.2455 40.504 87.2975 40.452 87.3495 40.4C87.4015 40.348 87.4535 40.244 87.4535 40.192C87.4015 40.088 87.4015 40.036 87.4015 39.984C87.4015 39.828 87.6615 39.828 87.6615 39.776C87.6615 39.568 87.2975 39.568 87.2975 39.516C87.3495 39.464 87.7135 39.36 87.7135 39.204C87.7135 39.152 87.5575 38.892 87.5575 38.736L87.6615 38.684H87.9735C88.1295 38.684 88.3895 37.696 88.4415 37.644C88.5455 37.644 88.6495 37.592 88.7535 37.488C88.9615 37.124 89.0655 36.864 89.1175 36.604C89.2735 36.448 89.6895 35.772 89.8975 35.564V35.356C89.8975 35.096 90.8855 34.576 90.8855 34.42L90.7295 34.368C90.7815 34.212 91.0935 33.9 91.6655 33.432C92.2375 32.964 92.5495 32.6 92.5495 32.392C92.4975 32.34 92.4975 32.288 92.4975 32.236C92.4975 32.184 92.8095 32.132 92.8095 31.976C92.8095 31.82 92.4455 31.56 92.4455 31.352C92.4455 31.196 92.7575 31.248 92.7575 31.3V31.664C92.7575 31.716 92.8095 31.716 92.8615 31.716C93.1215 31.716 93.3815 31.508 93.6415 31.144C93.6415 30.832 93.7455 30.676 93.9535 30.676C94.1615 30.676 94.2135 30.884 94.4215 30.676L94.4735 30.416C94.6295 30.26 95.1495 30 95.3055 29.792C95.3055 29.636 95.3575 29.532 95.4095 29.48C95.6175 29.376 95.8255 29.324 96.0335 29.272L95.9815 29.168C95.9295 29.168 95.9295 29.168 95.9295 29.116C95.9295 28.96 96.0855 28.908 96.4495 28.908C96.6055 28.856 97.4375 28.128 97.4375 28.076V28.024C97.3855 27.972 97.3335 27.92 97.3335 27.868H97.3855C97.4375 27.868 97.4895 27.972 97.6455 27.92L99.0495 26.984L99.1535 26.88H99.4135C99.5695 26.88 100.194 26.152 100.35 26.152H100.714L101.39 25.736C101.858 25.424 102.222 25.268 102.378 25.268C102.43 25.268 102.586 25.32 102.742 25.32L102.794 25.268L102.846 25.216H103.054L103.158 25.32C103.21 25.372 103.21 25.424 103.21 25.476C103.262 25.476 103.262 25.476 103.314 25.424L103.366 25.32H103.47C103.73 25.32 104.146 25.684 104.146 25.944V26.1C104.146 26.152 104.302 26.308 104.302 26.464C104.302 27.296 103.262 28.596 102.95 29.22C102.846 29.324 102.43 29.428 102.43 29.532L102.482 29.688L101.702 30.26C101.234 30.572 100.974 30.728 100.87 30.728C100.714 30.728 100.558 30.52 100.506 30.52C100.35 30.52 100.298 30.624 100.298 30.78C100.298 30.832 100.298 30.884 100.35 30.936L100.402 30.988C100.402 31.144 100.246 31.248 100.246 31.3C100.298 31.3 100.402 31.196 100.454 31.196C100.922 31.196 100.246 31.56 100.246 31.716C100.246 31.872 100.298 31.924 100.454 31.924H100.61L100.87 32.236C101.026 32.444 101.182 32.548 101.338 32.548C101.494 32.548 101.546 32.08 101.754 32.08H102.43V31.976C102.378 31.976 102.326 31.924 102.326 31.872L102.43 31.82C102.638 31.768 102.586 31.664 102.534 31.612V31.56C102.534 31.508 103.106 31.352 103.106 31.144C103.106 31.092 103.106 31.092 103.054 31.04V30.936C103.054 30.78 103.47 30.26 104.354 29.272C105.238 28.284 105.654 27.712 105.654 27.504V27.244C105.654 27.192 106.278 26.516 106.278 26.256C106.278 26.1 106.226 25.84 106.226 25.684C105.966 25.268 105.498 24.436 105.134 24.072C104.666 24.072 104.198 23.864 103.782 23.448H103.574C103.366 23.448 102.898 23.396 102.69 23.396C102.326 23.396 101.598 23.916 101.182 23.864ZM97.9575 26.88V26.932V26.88ZM95.6175 28.596V28.544C95.6695 28.544 95.6695 28.544 95.6695 28.596L95.6175 28.648V28.596ZM92.4455 32.08V32.132V32.08ZM91.9255 32.444H91.9775H91.9255ZM90.2615 34.264C90.2615 34.316 90.3135 34.368 90.3655 34.368C90.3655 34.316 90.3135 34.264 90.2615 34.264ZM89.3255 35.512H89.4295L89.3255 35.616C89.1695 35.616 89.1695 35.512 89.3255 35.512ZM87.7655 37.956C87.7135 37.956 87.6615 37.904 87.6615 37.852H87.8175L87.7655 37.956ZM86.9335 38.892V38.84H86.9855C86.9855 38.892 86.9855 38.892 86.9335 38.892ZM87.2975 38.944C87.2455 38.944 87.1935 38.892 87.1415 38.84C87.2455 38.84 87.2975 38.892 87.2975 38.944ZM86.6215 39.984L86.5695 40.088C86.5175 40.088 86.5175 40.036 86.5175 39.984H86.6215ZM85.4775 41.232L85.5295 41.18L85.6335 41.232L85.5815 41.284L85.5295 41.232H85.4775Z" fill="#F1D8E7"/>
<path d="M117.947 34.576C117.999 34.524 118.051 34.524 118.103 34.524L118.311 34.316C118.311 34.368 118.259 34.472 118.259 34.524C118.259 34.628 118.311 34.68 118.415 34.68C118.259 34.68 117.999 34.576 117.947 34.576C117.843 34.576 117.791 34.576 117.791 34.628L117.427 34.94L117.271 35.096L117.219 35.2L117.271 35.252V35.304C117.063 35.304 116.647 35.928 116.647 35.616H116.543C116.491 35.616 116.439 35.616 116.387 35.668L116.231 35.2C116.023 34.628 115.503 33.952 114.931 33.952C114.879 33.952 114.671 34.004 114.515 34.004C114.463 34.056 113.943 34.16 113.891 34.16C113.111 34.524 112.331 35.2 111.447 36.188C111.447 36.5 110.511 36.812 110.667 36.968L110.719 37.02C110.147 36.656 108.951 38.944 108.743 39.152C108.743 39.36 108.587 39.724 108.587 39.88C108.587 39.984 108.587 40.036 108.639 40.036C108.639 40.088 108.743 40.556 108.795 40.712C108.743 40.764 108.691 40.816 108.691 40.972C108.743 41.128 108.899 41.648 109.055 41.856C109.107 41.908 109.835 42.22 109.887 42.376C110.043 42.376 110.355 42.584 110.511 42.584C110.719 42.48 110.927 42.48 111.031 42.584L111.083 42.532L111.187 42.428L111.291 42.48C111.499 42.532 111.759 42.064 111.915 42.064H112.019L112.071 42.116C112.227 42.116 112.331 42.116 112.383 42.064C112.435 42.064 112.435 41.856 112.487 41.856L112.591 41.96C112.695 41.96 112.955 41.7 113.423 41.232C113.891 40.712 114.203 40.452 114.359 40.452C114.411 40.4 114.515 40.348 114.567 40.348L114.671 40.4C114.827 40.556 114.931 40.296 115.295 40.296C115.295 40.348 115.295 40.348 115.243 40.4C115.087 40.4 115.087 40.608 115.295 40.66C115.295 40.868 115.503 41.336 115.555 41.336C115.555 41.544 115.971 42.22 116.179 42.22H116.387C116.439 42.376 116.647 42.428 116.907 42.428L116.959 42.376H117.167C117.323 42.428 117.479 42.48 117.635 42.48C117.791 42.48 118.051 42.272 118.207 42.272C118.259 42.272 118.259 42.272 118.311 42.22L118.415 42.168C118.467 42.22 118.519 42.22 118.571 42.22C118.831 42.22 119.039 42.116 119.299 41.96V41.856C119.299 41.804 119.351 41.752 119.403 41.7C119.455 41.7 119.455 41.7 119.507 41.752H119.559C119.611 41.752 119.611 41.752 119.663 41.7C119.663 41.648 119.715 41.596 119.767 41.596L119.871 41.648C119.871 41.7 119.871 41.7 119.923 41.7C120.287 41.7 121.067 40.816 121.483 40.816C121.535 40.816 121.535 40.816 121.587 40.868L121.639 40.92C121.691 40.92 123.511 39.62 123.823 39.516C123.875 39.516 124.083 39.412 124.499 39.204C124.759 38.996 125.591 38.632 125.643 38.58C125.799 38.528 126.475 37.436 126.943 37.436C126.943 37.488 126.943 37.488 126.995 37.488C127.047 37.54 127.151 37.54 127.307 37.384C127.515 37.176 128.711 36.24 129.075 35.616C129.283 35.304 129.387 34.94 129.387 34.524C129.387 34.368 129.335 34.264 129.231 34.264L128.971 34.524L127.515 35.616L127.567 35.72V35.824V35.98C127.671 35.72 126.631 36.188 126.319 36.396C126.319 36.604 125.903 36.708 125.903 36.864C125.695 37.072 124.707 37.488 124.707 37.748C124.707 37.8 124.707 37.8 124.759 37.852V37.904C124.759 37.956 124.447 38.06 123.823 38.268C123.251 38.476 122.939 38.684 122.887 38.84C122.887 38.892 122.783 38.944 122.627 38.996H122.211C122.159 38.996 121.743 39.256 120.911 39.828C120.131 40.348 119.559 40.608 119.299 40.608H119.195L119.143 40.556C118.779 40.66 117.947 41.388 117.531 40.816H117.219C116.751 40.816 116.491 40.608 116.491 40.244C116.491 40.036 116.855 39.62 116.855 39.412V39.308L116.803 39.256C116.803 39.1 116.959 38.84 117.219 38.372L117.739 37.696C118.415 36.864 119.299 35.72 119.507 35.512V35.2C119.195 35.252 119.819 34.992 119.975 34.732C119.975 34.68 119.923 34.576 119.819 34.368H119.663C119.455 34.368 119.351 34.316 119.351 34.16H119.403L119.559 34.212C119.611 34.264 119.663 34.108 119.663 34.056C119.663 33.796 119.143 33.536 118.883 33.536C118.727 33.536 117.895 34.004 117.895 34.16V34.42C117.895 34.472 117.895 34.524 117.947 34.576ZM119.715 34.264V34.212V34.264ZM118.623 34.316C118.623 34.368 118.571 34.42 118.467 34.42C118.467 34.368 118.519 34.316 118.623 34.316ZM118.727 34.472L118.675 34.42L118.727 34.472ZM117.895 34.888V34.94V34.888ZM114.775 35.096C114.775 35.044 114.827 34.992 114.879 34.992C114.879 35.044 114.827 35.096 114.775 35.096ZM112.851 35.304C112.799 35.304 112.799 35.252 112.799 35.2C112.851 35.252 112.851 35.252 112.851 35.304ZM117.271 35.512C117.271 35.46 117.323 35.46 117.375 35.46C117.375 35.512 117.323 35.512 117.271 35.512ZM113.423 35.46V35.564V35.46ZM114.723 35.564H114.879C114.983 35.668 115.035 35.928 115.451 35.928L115.555 35.824H115.711C115.867 35.824 116.231 35.98 116.283 35.98L116.387 35.928L116.335 36.032V36.136H116.647C116.491 36.188 116.439 36.292 116.439 36.396C116.439 36.448 116.491 36.448 116.491 36.5C116.543 36.864 115.659 37.228 115.815 37.54L115.399 38.112C115.399 38.164 115.347 38.216 115.295 38.268L115.399 38.372L115.295 38.424C115.087 38.476 115.087 38.684 115.243 38.736L113.839 39.464L113.631 39.516C113.267 39.568 113.007 39.672 113.007 39.828L113.059 39.932C113.059 40.244 112.591 40.556 111.603 40.816C111.551 40.972 111.031 40.972 110.979 41.024H110.823C110.615 41.024 110.407 40.92 110.251 40.712C110.303 40.66 110.355 40.556 110.355 40.504L110.303 40.452C110.147 40.296 110.407 40.296 110.407 40.088C110.459 40.14 110.563 40.14 110.615 40.036L110.511 40.088C110.511 40.088 110.511 40.088 110.459 40.088C110.303 40.088 110.251 40.036 110.251 39.932C110.251 39.88 110.303 39.88 110.355 39.828L110.459 39.776C110.459 39.724 110.407 39.724 110.355 39.672H110.251C110.303 39.62 110.407 39.568 110.459 39.568C110.511 39.568 110.511 39.62 110.511 39.672V39.62C110.563 39.568 110.615 39.568 110.667 39.568H110.771L110.823 39.62L111.239 38.788L111.291 38.684C111.291 38.736 111.291 38.788 111.343 38.788C111.499 38.788 112.175 38.06 112.175 37.852C112.123 37.852 112.123 37.852 112.071 37.8C112.071 37.748 112.123 37.644 112.123 37.592C112.383 37.488 112.747 37.124 113.267 36.552C113.839 35.98 114.203 35.616 114.411 35.564H114.723ZM117.011 36.032C117.011 35.98 116.907 35.772 116.907 35.72C117.011 35.72 117.063 35.772 117.063 35.876C117.063 35.928 117.063 35.98 117.011 36.032ZM117.271 35.772V35.824H117.219L117.271 35.772ZM117.375 35.928C117.375 35.824 117.427 35.772 117.479 35.772C117.479 35.876 117.427 35.928 117.375 35.928ZM116.387 35.928C116.387 35.876 116.439 35.876 116.491 35.876C116.491 35.928 116.439 35.928 116.387 35.928ZM118.259 35.876H118.207H118.259ZM112.695 36.032C112.695 35.928 112.747 35.876 112.799 35.876V35.98C112.799 36.032 112.747 36.032 112.695 36.032ZM112.487 35.928C112.695 35.928 112.695 36.136 112.539 36.136C112.487 36.136 112.487 36.084 112.487 35.928ZM118.571 36.032V36.084V36.032ZM116.595 36.448C116.595 36.396 116.959 36.084 117.011 36.084C116.959 36.136 116.959 36.188 116.959 36.24C116.907 36.292 116.907 36.292 116.959 36.344C117.011 36.396 117.011 36.396 117.011 36.448L116.699 36.76C116.647 36.76 116.647 36.76 116.647 36.708L116.699 36.656C116.751 36.604 116.751 36.604 116.751 36.552C116.699 36.552 116.647 36.5 116.595 36.448ZM113.683 36.136V36.24C113.631 36.24 113.579 36.188 113.579 36.136H113.683ZM127.411 36.188V36.24V36.188ZM127.255 36.76C127.047 36.708 126.943 36.552 126.943 36.292L127.255 36.448V36.552V36.76ZM112.123 36.344V36.396V36.344ZM126.683 36.968C126.683 36.916 126.735 36.864 126.839 36.864C126.891 36.864 126.891 36.916 126.891 36.968H126.683ZM112.747 36.864V36.916V36.864ZM116.491 36.864H116.543H116.491ZM126.579 36.968C126.579 37.02 126.579 37.02 126.631 37.02H126.579V36.968ZM116.075 37.228H116.127V37.332H116.075V37.228ZM125.383 37.436C125.435 37.436 125.487 37.488 125.487 37.54C125.435 37.54 125.383 37.488 125.383 37.436ZM111.187 37.644V37.696H111.135L111.187 37.644ZM117.583 37.748C117.531 37.748 117.479 37.748 117.479 37.696H117.635C117.635 37.748 117.635 37.748 117.583 37.748ZM115.919 37.904C115.867 37.904 115.867 37.852 115.867 37.748H116.075L115.919 37.904ZM111.863 38.008V38.06V38.008ZM115.919 38.06V38.112V38.06ZM111.499 38.268H111.551H111.499ZM124.031 38.476V38.528V38.476ZM124.967 38.632C124.967 38.684 124.759 38.736 124.759 38.528C124.915 38.528 124.967 38.58 124.967 38.632ZM111.395 38.632C111.395 38.58 111.447 38.58 111.551 38.58C111.551 38.632 111.499 38.632 111.395 38.632ZM115.399 38.528V38.58V38.528ZM115.503 38.684H115.451H115.503ZM111.135 38.736V38.788V38.736ZM115.503 38.736H115.555V38.788L115.503 38.736ZM116.179 38.736V38.788V38.736ZM116.439 38.736V38.788V38.736ZM115.763 38.892V38.944V38.892ZM122.991 39.36C122.939 39.36 122.939 39.36 122.939 39.308L122.991 39.36ZM114.723 39.412C114.671 39.412 114.619 39.36 114.619 39.308C114.671 39.308 114.723 39.36 114.723 39.412ZM123.147 39.308V39.36V39.308ZM123.199 39.36V39.412V39.36ZM114.827 39.568C114.827 39.516 115.035 39.464 115.035 39.672C114.879 39.672 114.827 39.62 114.827 39.568ZM122.731 39.62C122.575 39.62 122.523 39.568 122.523 39.516H122.575C122.627 39.568 122.783 39.568 122.835 39.516V39.568C122.835 39.62 122.783 39.62 122.731 39.62ZM115.191 39.516C115.243 39.516 115.243 39.516 115.295 39.568C115.295 39.62 115.295 39.62 115.243 39.672C115.191 39.672 115.191 39.672 115.191 39.62V39.516ZM113.579 40.036C113.475 40.036 113.423 39.984 113.475 39.828C113.527 39.828 113.579 39.88 113.579 39.932V40.036ZM121.743 39.932C121.743 39.88 121.795 39.88 121.847 39.88C121.899 39.88 121.951 39.932 122.003 40.088L122.107 40.244C121.847 40.14 121.743 40.036 121.743 39.932ZM109.835 39.88C109.835 39.984 109.887 40.036 109.939 40.036C109.991 40.036 109.991 40.036 110.043 39.984L110.147 40.192C110.147 40.244 109.991 40.4 110.043 40.452C109.991 40.452 109.679 40.244 109.679 40.088L109.835 39.88ZM113.787 39.88H113.839H113.787ZM113.215 40.244H113.267H113.215ZM116.283 40.296C116.283 40.348 116.179 40.348 116.179 40.296H116.283ZM109.627 40.348V40.452V40.4V40.348ZM115.295 40.452C115.347 40.452 115.347 40.452 115.347 40.4L115.399 40.452L115.347 40.504L115.295 40.452ZM113.631 40.608H113.683V40.66H113.631V40.608ZM119.767 40.764V40.816V40.764ZM111.707 41.232V41.284V41.232ZM115.659 41.284H115.555H115.659ZM111.031 41.284V41.336V41.284ZM115.711 41.44V41.492V41.44ZM109.471 41.596H109.523C109.471 41.648 109.471 41.648 109.471 41.7V41.596ZM118.987 41.7V41.752V41.7ZM110.719 41.752V41.804V41.752ZM109.835 41.856V41.908V41.856ZM110.147 41.804V41.856V41.804ZM110.719 41.96C110.771 41.908 110.771 41.908 110.823 41.908V42.064C110.771 42.064 110.719 42.012 110.719 41.96Z" fill="#F1D8E7"/>
<path d="M129.626 38.788C129.626 38.736 129.626 38.684 129.678 38.684C129.73 38.684 129.782 38.736 129.782 38.84L129.73 38.892C129.678 38.944 129.626 38.892 129.626 38.788ZM130.666 37.696C130.666 37.54 130.718 37.488 130.822 37.488C130.874 37.488 130.926 37.54 130.978 37.592C130.926 37.696 130.874 37.748 130.77 37.748L130.718 37.696H130.666ZM131.134 33.952C131.706 33.328 132.382 32.912 133.058 32.704C133.11 32.704 133.214 32.444 133.266 32.444H133.63C133.786 32.444 134.15 31.872 134.514 31.872C134.618 31.872 134.67 31.924 134.67 31.976C134.618 32.028 134.566 32.08 134.41 32.132C134.358 32.132 134.358 32.132 134.306 32.08H134.254C134.046 32.08 134.41 32.34 134.41 32.548C134.41 32.652 134.202 32.808 133.838 32.964C133.786 33.068 133.786 33.276 133.786 33.536C133.63 33.9 133.058 34.108 133.058 34.576C133.006 34.524 132.902 34.576 132.85 34.732C132.85 34.784 132.85 34.836 132.798 34.836L132.746 34.784H132.694C132.642 34.784 132.642 34.784 132.642 34.836L132.59 35.356C132.382 35.668 131.966 36.032 131.394 36.448C131.186 36.656 129.626 38.32 128.43 39.412C127.338 40.504 127.442 40.296 127.234 40.14C126.818 39.88 127.39 39.776 127.39 39.308V39.204L127.338 39.152C127.494 38.996 127.546 38.788 127.442 38.632C127.442 38.372 128.274 37.332 128.534 37.176V36.968C128.586 36.916 128.95 36.604 129.574 35.928C130.198 35.252 130.51 34.836 130.51 34.732L130.458 34.68C130.146 34.628 130.77 34.212 131.134 33.952ZM131.29 37.332C131.082 37.332 131.134 37.02 131.186 37.02C131.29 37.02 131.342 37.072 131.342 37.228L131.29 37.332ZM131.81 31.976C131.81 31.924 131.862 31.924 131.966 31.924L132.07 31.976C132.07 32.08 132.018 32.132 131.966 32.132C131.862 32.132 131.81 32.08 131.81 31.976ZM132.85 31.456C132.902 31.456 132.902 31.456 132.902 31.404L132.954 31.3H133.214C133.266 31.3 133.266 31.352 133.266 31.508C133.214 31.56 133.162 31.56 133.058 31.56L132.85 31.612C132.694 31.612 132.642 31.56 132.642 31.456L132.694 31.352C132.746 31.352 132.798 31.404 132.85 31.456ZM132.954 34.888H133.006C133.058 34.888 133.11 34.94 133.11 34.992C133.11 35.252 132.902 35.2 132.902 35.148V35.044L132.954 34.888ZM133.422 30.988C133.422 30.936 133.526 30.884 133.734 30.884C133.734 31.092 133.682 31.196 133.63 31.196H133.578L133.422 31.04V30.988ZM133.786 31.82C133.786 31.664 133.838 31.612 133.89 31.612C134.098 31.612 134.098 31.924 133.838 31.924C133.786 31.924 133.786 31.872 133.786 31.82ZM134.254 30.936C134.254 30.884 134.306 30.832 134.358 30.832L134.462 30.936V31.092L134.41 31.144L134.462 31.248C134.514 31.3 134.514 31.3 134.514 31.352C134.358 31.352 134.306 31.3 134.306 31.196C134.306 31.144 134.41 31.092 134.306 30.988L134.254 30.936ZM134.878 32.444C134.878 32.288 134.982 32.236 135.138 32.236H135.19C135.19 32.288 135.242 32.392 135.294 32.444C135.138 32.6 135.034 32.652 134.982 32.652C134.93 32.6 134.878 32.548 134.878 32.444ZM131.966 31.404C131.758 31.872 129.626 33.224 129.73 33.588L129.782 33.744C129.782 33.692 129.782 33.692 129.782 33.692V33.796C129.782 33.848 129.782 33.9 129.73 33.952C129.73 33.9 129.678 33.9 129.626 33.9C129.262 33.9 128.95 34.16 128.638 34.732C128.326 35.304 128.014 35.564 127.702 35.564C127.65 35.564 127.598 35.616 127.598 35.668C127.598 35.72 127.754 35.772 127.754 35.824C127.91 36.084 127.13 36.448 127.13 36.604C127.13 36.76 127.234 36.916 127.39 37.02C127.338 37.176 126.61 37.124 126.61 37.332C126.61 37.384 126.662 37.488 126.662 37.54C126.662 37.904 125.882 38.892 125.882 39.308C125.882 39.412 125.934 39.464 126.038 39.516C125.934 39.828 125.102 40.452 125.726 40.504C125.986 40.66 125.986 40.66 125.726 40.816C125.622 40.868 125.57 40.972 125.57 41.024C125.57 41.076 125.57 41.076 125.622 41.128V41.232C125.622 41.388 125.466 41.648 125.466 41.7C125.466 41.752 125.518 41.856 125.57 41.908L125.674 41.856C125.726 41.856 125.778 42.064 125.778 42.532C125.778 42.584 126.454 42.896 126.454 43.052C126.454 43.104 126.454 43.104 126.402 43.156L126.35 43.208L126.402 43.312C126.558 43.468 126.87 43.78 127.442 44.196C128.014 44.612 128.326 44.82 128.482 44.82H128.846H129.054C129.314 44.82 130.146 45.08 130.51 45.08C130.562 45.08 130.718 44.924 130.77 44.924H130.926C130.978 44.924 131.238 44.976 131.29 44.976C131.498 44.976 131.914 44.82 132.122 44.82L132.174 44.872H132.278C132.642 44.872 133.422 44.404 133.786 44.404C133.838 44.404 133.994 44.456 134.046 44.456C134.202 44.456 134.67 44.144 134.67 44.092C134.618 44.092 134.618 44.04 134.618 43.936H134.566C134.566 43.832 134.618 43.728 134.67 43.676L134.826 43.832L134.774 43.936C134.774 43.936 134.774 43.936 134.774 43.988C134.774 44.144 134.878 44.196 135.086 44.196C135.242 44.196 136.126 43.572 136.542 43.52L136.802 43.26C137.062 43.26 138.05 42.636 138.31 42.636H138.362L138.518 42.688H138.57L139.09 42.376L139.038 42.272C139.038 42.272 139.038 42.272 139.038 42.22L139.142 42.168C139.402 42.168 139.818 42.012 140.39 41.648C140.962 41.284 141.274 41.076 141.274 40.972C141.638 40.868 142.106 40.66 142.73 40.296L143.25 40.036C143.302 40.036 143.614 39.62 143.822 39.464C143.926 39.36 143.77 39.048 144.082 39.048H144.134C144.186 39.1 144.238 39.1 144.29 39.1L144.862 38.788V38.528L144.966 38.476H145.434C145.538 38.476 145.59 38.424 145.59 38.32V38.216C145.59 38.112 145.434 37.956 145.694 37.852L145.798 37.8H146.162C146.266 37.8 146.318 37.644 146.318 37.384V37.28L145.85 37.02H145.798C145.538 37.02 145.382 37.228 145.382 37.696C145.382 37.8 145.278 37.852 145.122 37.852L145.018 37.8C144.966 37.748 144.914 37.748 144.862 37.748C144.706 37.748 144.238 38.06 143.406 38.632C142.574 39.204 142.002 39.568 141.69 39.62C141.69 39.88 140.754 40.452 138.934 41.232C137.114 42.012 135.866 42.532 135.138 42.792L134.826 42.948C134.722 42.948 134.514 42.636 134.514 43.052C134.514 43.104 134.566 43.104 134.618 43.104C134.41 43.104 133.838 43.468 133.682 43.468C133.63 43.468 133.474 43.364 133.422 43.364C133.266 43.364 133.058 43.728 132.902 43.728C132.85 43.728 132.642 43.624 132.59 43.624L132.278 43.728C132.226 43.676 132.174 43.676 132.122 43.676C132.07 43.676 132.07 43.676 132.018 43.728L131.966 43.78C131.81 43.78 131.602 43.676 131.446 43.676L131.29 43.728C131.186 43.78 131.134 43.78 131.082 43.78C131.03 43.832 130.978 43.832 130.874 43.832C130.718 43.832 130.51 43.78 130.302 43.78L130.25 43.728V43.78H129.522V43.988C129.522 44.04 129.47 44.04 129.418 44.04H129.366C129.106 43.884 128.898 43.676 128.794 43.416C128.742 43.26 127.598 42.844 127.546 42.584L127.338 42.012V41.96C127.338 41.596 127.39 41.44 127.494 41.44C127.65 41.44 127.91 41.596 127.962 41.596V41.544C127.962 41.128 128.69 40.712 128.846 40.556C128.846 40.4 128.898 40.244 128.95 40.192C129.21 40.14 129.834 39.672 130.77 38.84C131.758 38.008 132.226 37.488 132.174 37.28L132.382 37.124L132.33 37.02C132.33 36.968 132.538 36.812 132.954 36.604C133.214 36.396 133.318 36.032 133.37 35.564L133.734 35.148C133.942 35.148 134.41 34.68 134.41 34.42C134.41 34.368 134.41 34.368 134.358 34.316V34.264C134.358 34.056 135.398 33.588 135.346 33.12L135.814 32.704C135.762 32.496 136.022 32.34 136.022 32.184L135.97 32.08C135.97 31.924 136.126 31.716 136.126 31.56C136.126 31.352 135.762 31.04 135.762 30.832L135.814 30.728C135.814 30.312 135.398 30.104 134.566 30.104C134.15 30.104 133.266 30.52 131.966 31.404ZM133.786 30.832L133.734 30.884V30.832H133.786ZM132.538 32.6C132.486 32.6 132.486 32.548 132.486 32.496C132.538 32.496 132.538 32.548 132.538 32.6ZM134.618 33.068C134.67 33.068 134.722 33.12 134.722 33.224C134.67 33.224 134.618 33.172 134.618 33.068ZM129.574 34.524H129.522V34.472H129.574V34.524ZM129.366 34.784H129.314V34.732H129.366V34.784ZM128.846 35.148V35.2V35.148ZM128.846 35.668C128.846 35.564 128.898 35.512 128.95 35.512C129.002 35.512 129.002 35.616 128.95 35.616L128.846 35.668ZM126.142 39.776V39.828V39.776ZM126.662 40.296H126.714H126.662Z" fill="#F1D8E7"/>
<path d="M145.503 42.792C145.295 42.792 145.295 42.48 145.451 42.48C145.607 42.48 145.555 42.792 145.503 42.792ZM148.935 35.408L148.987 35.356C149.143 35.356 149.195 35.408 149.195 35.512C149.195 35.564 149.195 35.564 149.143 35.564H148.883C148.831 35.564 148.779 35.512 148.779 35.46L148.831 35.408H148.935ZM149.455 31.404C149.455 31.352 149.507 31.3 149.611 31.248C149.663 31.248 149.663 31.3 149.715 31.352C149.715 31.456 149.663 31.508 149.559 31.508L149.455 31.404ZM164.015 37.332C163.911 37.332 163.859 37.28 163.859 37.124C164.223 37.124 164.171 37.332 164.015 37.332ZM171.815 7.744C172.075 7.744 172.699 7.536 172.907 7.536C173.375 7.536 173.687 7.692 173.947 7.952C173.947 8.108 173.895 8.264 173.895 8.316C173.895 8.42 173.895 8.472 173.947 8.472C173.999 8.68 174.051 8.784 174.051 8.836C174.051 8.992 173.687 9.356 173.687 9.408C173.687 9.46 173.791 9.668 173.791 9.824C173.791 9.876 173.427 10.032 173.427 10.24V10.292C173.427 10.344 173.427 10.396 173.479 10.5C173.479 10.656 173.219 10.656 173.219 10.708V11.02C172.855 11.176 172.387 11.852 172.439 12.216L171.659 13.308C171.191 13.984 170.983 14.4 170.983 14.452L170.931 14.504H170.671V14.816L170.515 15.024L169.839 15.648L169.579 16.116C169.475 16.22 168.279 17.572 168.279 17.624C168.279 17.676 168.175 17.78 168.019 17.936L167.967 18.04C167.863 18.3 166.667 19.132 166.667 19.392L166.719 19.444L166.771 19.496C166.771 19.548 166.303 19.964 165.419 20.744C164.535 21.524 164.067 21.992 164.067 22.096V22.2C164.119 22.252 164.119 22.252 164.119 22.304C164.119 22.356 164.067 22.408 164.015 22.408C163.755 22.46 163.131 22.98 162.195 23.968C161.259 24.956 160.791 25.424 160.739 25.424C160.583 25.58 160.219 25.84 159.647 26.256C159.075 26.62 158.763 26.984 158.711 27.244C158.243 27.556 157.931 27.764 158.139 27.972C157.983 28.024 157.671 28.18 157.255 28.492C157.047 28.544 156.371 29.012 156.371 29.22C156.371 29.272 156.683 29.376 156.371 29.376L156.267 29.324C155.747 29.324 154.863 30.52 154.551 30.832C154.187 30.832 153.719 31.664 153.355 31.612C153.199 31.82 152.835 32.184 152.159 32.756C151.535 33.328 151.171 33.588 151.015 33.588L150.963 33.536H150.807C150.651 33.536 150.183 33.9 149.403 34.68C148.623 35.408 148.155 35.772 147.999 35.772C147.947 35.72 147.895 35.72 147.895 35.668C147.895 35.304 148.571 34.628 148.571 34.472C148.571 34.42 148.467 34.264 148.467 34.108C148.467 33.9 148.831 33.432 148.831 33.172C148.831 33.12 148.675 32.912 148.675 32.86L148.727 32.808C148.779 32.808 148.987 32.912 149.039 32.912C149.091 32.912 149.143 32.808 149.143 32.6C149.351 32.444 149.767 31.664 150.027 31.508V31.196C150.859 30.364 151.275 29.74 151.275 29.272C151.275 29.22 151.171 29.116 151.171 29.064V29.012C151.379 29.012 151.483 28.804 151.483 28.596H151.743V28.544C151.743 28.336 151.483 28.336 151.639 28.18C151.899 28.024 152.523 27.088 152.783 27.036V26.828L152.835 26.776C153.043 26.672 153.147 26.516 153.147 26.308V26.204C153.147 25.944 153.979 25.268 153.979 25.112V24.904L154.083 24.852C154.135 24.8 154.187 24.8 154.187 24.748V24.54C154.187 24.488 154.395 24.436 154.395 24.384C154.395 24.124 154.759 23.916 154.915 23.656V23.604C154.915 23.552 154.863 23.448 154.863 23.396C154.863 23.24 155.695 22.928 155.695 22.72L155.643 22.616C155.643 22.616 155.643 22.616 155.643 22.564V22.512C155.903 22.356 156.631 21.264 156.579 21.004C156.735 21.004 156.839 20.952 156.943 20.796C156.943 20.536 157.255 20.328 157.203 20.068C157.359 19.86 157.983 19.704 158.035 19.548C158.711 18.352 159.231 17.78 159.491 17.78V17.728C159.439 17.676 159.439 17.624 159.439 17.572L159.491 17.52C159.543 17.468 159.595 17.468 159.595 17.416L159.543 17.26V17.208C159.543 17.052 159.595 16.948 159.751 16.896L159.855 16.948C159.907 17 159.959 17 160.011 17C160.115 17 160.167 16.948 160.167 16.792C160.219 16.324 161.207 16.012 161.207 15.648V15.492C161.207 15.44 161.363 15.232 161.363 15.18C161.363 15.076 161.311 15.024 161.259 14.972H161.311C161.363 14.972 161.571 15.18 161.727 15.18C161.883 15.18 161.883 14.764 162.039 14.764C162.091 14.764 162.195 14.816 162.247 14.816H162.299C162.507 14.816 162.611 14.608 162.611 14.244V14.088H162.819C163.027 13.776 165.055 12.008 165.055 11.852V11.488L165.107 11.436H165.315C165.523 11.176 166.823 10.448 166.823 10.344C166.823 10.188 166.771 10.188 166.615 10.188C166.563 10.136 166.511 10.136 166.511 10.084L166.563 10.032V9.98H166.615C166.771 9.98 167.031 10.136 167.187 10.136C167.291 10.136 167.551 9.928 168.019 9.564C168.487 9.2 168.799 8.992 168.903 8.94C169.527 8.784 171.087 7.9 171.711 7.744H171.815ZM161.883 13.672C161.883 13.62 161.935 13.62 161.987 13.62C162.091 13.62 162.143 13.672 162.143 13.776L162.091 13.828C161.935 13.828 161.883 13.776 161.883 13.672ZM166.459 20.328C166.251 20.328 166.251 20.12 166.459 20.12C166.615 20.12 166.615 20.328 166.459 20.328ZM173.479 6.704C173.479 6.756 173.479 6.756 173.531 6.808V6.85999L173.375 6.964L173.271 6.912L173.479 6.704ZM171.763 6.236C170.099 6.912 169.007 7.37999 168.487 7.64H168.435C168.383 7.64 168.279 7.58799 168.227 7.536C167.967 7.64 167.395 8.004 166.615 8.57599C165.835 9.148 165.471 9.564 165.419 9.72C165.055 9.668 164.171 10.448 164.171 10.708L163.911 10.968C163.703 11.02 162.663 12.112 161.831 12.996C161.051 13.88 159.855 15.18 159.803 15.336C159.647 15.648 159.491 16.168 159.179 16.168L158.919 16.428C158.763 16.792 158.243 17.52 157.359 18.508C156.475 19.496 156.059 20.068 156.059 20.276V20.432C156.059 20.484 155.435 21.264 154.187 22.824C152.939 24.384 152.315 25.32 152.315 25.58C152.315 25.632 152.315 25.632 152.367 25.684L152.419 25.736C152.419 25.788 152.107 25.736 152.055 25.892C151.847 26.256 151.691 26.516 151.639 26.672C151.483 26.828 151.171 27.4 150.703 28.336C150.235 29.22 149.819 29.792 149.559 30.052L149.299 30.364C149.247 30.416 149.143 30.52 148.987 30.78V30.884L149.039 30.936C149.039 31.144 148.467 31.612 148.467 31.872V31.976C148.519 32.028 148.519 32.028 148.519 32.08C148.519 32.288 147.947 32.6 147.895 32.86C147.895 33.12 147.323 33.692 147.115 33.9C147.167 34.368 146.855 35.2 146.127 36.396C145.451 37.54 145.087 38.112 145.087 38.164V39.204C145.087 39.36 144.983 40.088 144.827 40.348C144.463 42.012 144.255 42.896 144.255 42.948C144.359 43.052 144.359 43.52 144.255 44.04C144.255 46.484 144.931 47.94 146.231 48.408C147.167 48.616 147.791 48.72 148.051 48.72C149.195 48.72 151.067 48.044 153.615 46.744C153.667 46.692 154.551 45.756 155.019 45.756C155.071 45.756 155.071 45.704 155.071 45.652C155.071 45.6 155.019 45.444 155.019 45.392C155.071 45.392 155.279 45.444 155.331 45.444L156.059 44.872C156.423 44.872 156.943 44.456 156.995 44.196C157.047 44.04 158.295 43.364 158.295 43.156C158.295 43 158.035 42.948 158.035 42.896L158.139 42.792C158.191 42.844 158.295 42.896 158.451 42.896C158.659 42.896 159.127 42.584 159.127 42.428V42.22C159.127 42.168 160.011 41.804 160.063 41.44C160.063 41.336 161.311 40.66 161.415 40.452C161.467 40.088 162.611 39.256 162.767 38.892C163.027 38.788 163.807 38.164 164.171 38.06C164.535 37.488 164.795 37.228 164.899 37.176L165.159 37.124V37.072C165.159 36.812 164.743 36.396 164.483 36.448C164.327 36.448 164.379 36.604 164.067 36.604C163.911 36.76 163.755 37.072 163.651 37.072L163.599 37.02C163.547 36.968 163.547 36.968 163.495 36.968C163.547 36.968 163.547 37.02 163.547 37.072C163.755 37.02 159.335 40.868 159.075 40.972C158.555 41.232 158.035 42.324 157.463 42.22C156.527 43 154.863 44.56 153.719 45.08C153.511 45.132 152.991 45.548 152.159 46.224C151.379 46.9 150.235 47.42 148.779 47.732H148.311C146.907 47.732 145.867 47.004 145.295 45.548C145.139 45.132 145.191 44.924 145.451 44.56C145.451 44.508 145.399 44.3 145.399 44.248C145.399 43.624 146.075 42.064 146.075 41.388C146.127 41.128 146.543 40.14 146.543 39.724H146.751C146.907 39.724 146.959 39.464 146.959 38.892C146.959 38.788 147.219 38.476 147.323 38.372C147.583 38.112 148.051 37.644 148.727 37.072C149.455 36.5 149.975 36.084 150.339 35.876C150.807 35.72 151.743 34.784 152.159 34.576L152.991 33.952C154.083 33.068 154.863 32.34 154.863 31.976C154.863 31.924 154.759 31.768 154.759 31.716C154.759 31.56 154.811 31.508 154.967 31.508C155.019 31.508 155.227 31.612 155.279 31.612C155.539 31.612 156.007 30.936 156.059 30.936H156.631C156.787 30.936 156.787 30.78 156.631 30.624L156.527 30.52L156.787 30.208H157.099C157.723 29.584 159.075 28.492 159.439 28.232C159.439 27.556 159.491 27.868 159.855 27.504H160.011C160.167 27.504 160.271 27.452 160.271 27.348L160.219 27.296C160.167 27.244 160.167 27.192 160.167 27.14L160.739 26.776C161.519 26.36 162.455 25.632 162.455 25.164C162.455 25.06 162.299 24.852 162.507 24.852L162.611 24.904H162.715C162.767 24.904 163.027 24.54 163.079 24.488L163.131 24.436V24.176C163.131 24.124 164.327 23.5 164.379 23.292C164.587 23.084 166.303 21.472 166.303 21.368V21.108C166.303 20.952 166.615 20.952 166.615 20.9V20.692L166.979 20.484C167.187 20.328 167.291 20.224 167.291 20.12C166.823 20.016 167.655 19.756 167.863 19.548V19.236L168.539 18.56C169.007 18.144 169.267 17.936 169.267 17.884V17.832C169.215 17.78 169.215 17.728 169.215 17.676H169.371C169.423 17.676 169.579 17.468 169.891 17C170.203 16.532 170.411 16.272 170.515 16.22C170.775 16.22 170.931 16.116 170.931 15.856C170.931 15.804 170.879 15.596 170.879 15.544C171.087 15.336 171.711 15.18 171.451 15.076L171.399 15.024C171.399 14.972 171.919 14.296 172.907 12.944C173.895 11.54 174.415 10.708 174.415 10.344V10.032C174.415 9.876 174.779 9.512 174.779 9.356V9.252L174.727 9.2C174.727 9.148 174.831 9.044 174.987 8.94C174.675 8.628 174.935 8.264 174.935 7.952C174.935 6.964 173.895 6.184 172.855 6.184H172.803C172.647 6.184 171.919 6.236 171.763 6.236ZM169.995 7.224C169.943 7.172 169.943 7.172 169.943 7.12L170.099 7.068C170.099 7.172 170.047 7.224 169.995 7.224ZM167.707 8.212C167.707 8.16 167.707 8.108 167.759 8.108C167.863 8.108 167.915 8.16 167.915 8.212L167.811 8.264C167.759 8.264 167.707 8.264 167.707 8.212ZM166.303 10.136H166.407L166.355 10.188L166.303 10.136ZM164.691 11.644H164.847C164.847 11.696 164.847 11.696 164.795 11.696C164.743 11.696 164.691 11.696 164.691 11.644ZM172.335 12.892V12.996V12.892ZM171.139 14.556H171.191H171.139ZM170.359 16.064V16.012V16.064ZM156.423 21.16V21.212V21.16ZM163.911 23.032V23.084V23.032ZM163.911 23.136C163.911 23.188 163.963 23.24 164.015 23.24L163.911 23.136ZM154.759 23.344V23.396V23.344ZM154.239 23.76C154.239 23.708 154.343 23.708 154.343 23.76C154.343 23.916 154.239 23.916 154.239 23.76ZM151.587 27.244V27.4C151.535 27.4 151.483 27.348 151.483 27.192L151.587 27.244ZM151.743 27.816H151.691V27.764L151.743 27.816ZM150.859 29.584C150.703 29.584 150.651 29.532 150.651 29.428C150.703 29.428 150.807 29.48 150.859 29.584ZM156.423 30.52V30.624C156.371 30.624 156.319 30.572 156.319 30.52H156.423ZM148.779 32.132C148.831 32.08 148.935 32.028 148.935 32.184C148.831 32.184 148.779 32.184 148.779 32.132ZM148.311 33.692H148.363H148.311ZM150.287 35.304V35.356V35.304ZM149.507 35.408H149.559H149.507ZM160.947 40.504V40.4H160.999C160.999 40.452 160.999 40.504 160.947 40.504Z" fill="#F1D8E7"/>
<path d="M171.267 34.576C171.319 34.524 171.371 34.524 171.423 34.524L171.631 34.316C171.631 34.368 171.579 34.472 171.579 34.524C171.579 34.628 171.631 34.68 171.735 34.68C171.579 34.68 171.319 34.576 171.267 34.576C171.163 34.576 171.111 34.576 171.111 34.628L170.747 34.94L170.591 35.096L170.539 35.2L170.591 35.252V35.304C170.383 35.304 169.967 35.928 169.967 35.616H169.863C169.811 35.616 169.759 35.616 169.707 35.668L169.551 35.2C169.343 34.628 168.823 33.952 168.251 33.952C168.199 33.952 167.991 34.004 167.835 34.004C167.783 34.056 167.263 34.16 167.211 34.16C166.431 34.524 165.651 35.2 164.767 36.188C164.767 36.5 163.831 36.812 163.987 36.968L164.039 37.02C163.467 36.656 162.271 38.944 162.063 39.152C162.063 39.36 161.907 39.724 161.907 39.88C161.907 39.984 161.907 40.036 161.959 40.036C161.959 40.088 162.063 40.556 162.115 40.712C162.063 40.764 162.011 40.816 162.011 40.972C162.063 41.128 162.219 41.648 162.375 41.856C162.427 41.908 163.155 42.22 163.207 42.376C163.363 42.376 163.675 42.584 163.831 42.584C164.039 42.48 164.247 42.48 164.351 42.584L164.403 42.532L164.507 42.428L164.611 42.48C164.819 42.532 165.079 42.064 165.235 42.064H165.339L165.391 42.116C165.547 42.116 165.651 42.116 165.703 42.064C165.755 42.064 165.755 41.856 165.807 41.856L165.911 41.96C166.015 41.96 166.275 41.7 166.743 41.232C167.211 40.712 167.523 40.452 167.679 40.452C167.731 40.4 167.835 40.348 167.887 40.348L167.991 40.4C168.147 40.556 168.251 40.296 168.615 40.296C168.615 40.348 168.615 40.348 168.563 40.4C168.407 40.4 168.407 40.608 168.615 40.66C168.615 40.868 168.823 41.336 168.875 41.336C168.875 41.544 169.291 42.22 169.499 42.22H169.707C169.759 42.376 169.967 42.428 170.227 42.428L170.279 42.376H170.487C170.643 42.428 170.799 42.48 170.955 42.48C171.111 42.48 171.371 42.272 171.527 42.272C171.579 42.272 171.579 42.272 171.631 42.22L171.735 42.168C171.787 42.22 171.839 42.22 171.891 42.22C172.151 42.22 172.359 42.116 172.619 41.96V41.856C172.619 41.804 172.671 41.752 172.723 41.7C172.775 41.7 172.775 41.7 172.827 41.752H172.879C172.931 41.752 172.931 41.752 172.983 41.7C172.983 41.648 173.035 41.596 173.087 41.596L173.191 41.648C173.191 41.7 173.191 41.7 173.243 41.7C173.607 41.7 174.387 40.816 174.803 40.816C174.855 40.816 174.855 40.816 174.907 40.868L174.959 40.92C175.011 40.92 176.831 39.62 177.143 39.516C177.195 39.516 177.403 39.412 177.819 39.204C178.079 38.996 178.911 38.632 178.963 38.58C179.119 38.528 179.795 37.436 180.263 37.436C180.263 37.488 180.263 37.488 180.315 37.488C180.367 37.54 180.471 37.54 180.627 37.384C180.835 37.176 182.031 36.24 182.395 35.616C182.603 35.304 182.707 34.94 182.707 34.524C182.707 34.368 182.655 34.264 182.551 34.264L182.291 34.524L180.835 35.616L180.887 35.72V35.824V35.98C180.991 35.72 179.951 36.188 179.639 36.396C179.639 36.604 179.223 36.708 179.223 36.864C179.015 37.072 178.027 37.488 178.027 37.748C178.027 37.8 178.027 37.8 178.079 37.852V37.904C178.079 37.956 177.767 38.06 177.143 38.268C176.571 38.476 176.259 38.684 176.207 38.84C176.207 38.892 176.103 38.944 175.947 38.996H175.531C175.479 38.996 175.063 39.256 174.231 39.828C173.451 40.348 172.879 40.608 172.619 40.608H172.515L172.463 40.556C172.099 40.66 171.267 41.388 170.851 40.816H170.539C170.071 40.816 169.811 40.608 169.811 40.244C169.811 40.036 170.175 39.62 170.175 39.412V39.308L170.123 39.256C170.123 39.1 170.279 38.84 170.539 38.372L171.059 37.696C171.735 36.864 172.619 35.72 172.827 35.512V35.2C172.515 35.252 173.139 34.992 173.295 34.732C173.295 34.68 173.243 34.576 173.139 34.368H172.983C172.775 34.368 172.671 34.316 172.671 34.16H172.723L172.879 34.212C172.931 34.264 172.983 34.108 172.983 34.056C172.983 33.796 172.463 33.536 172.203 33.536C172.047 33.536 171.215 34.004 171.215 34.16V34.42C171.215 34.472 171.215 34.524 171.267 34.576ZM173.035 34.264V34.212V34.264ZM171.943 34.316C171.943 34.368 171.891 34.42 171.787 34.42C171.787 34.368 171.839 34.316 171.943 34.316ZM172.047 34.472L171.995 34.42L172.047 34.472ZM171.215 34.888V34.94V34.888ZM168.095 35.096C168.095 35.044 168.147 34.992 168.199 34.992C168.199 35.044 168.147 35.096 168.095 35.096ZM166.171 35.304C166.119 35.304 166.119 35.252 166.119 35.2C166.171 35.252 166.171 35.252 166.171 35.304ZM170.591 35.512C170.591 35.46 170.643 35.46 170.695 35.46C170.695 35.512 170.643 35.512 170.591 35.512ZM166.743 35.46V35.564V35.46ZM168.043 35.564H168.199C168.303 35.668 168.355 35.928 168.771 35.928L168.875 35.824H169.031C169.187 35.824 169.551 35.98 169.603 35.98L169.707 35.928L169.655 36.032V36.136H169.967C169.811 36.188 169.759 36.292 169.759 36.396C169.759 36.448 169.811 36.448 169.811 36.5C169.863 36.864 168.979 37.228 169.135 37.54L168.719 38.112C168.719 38.164 168.667 38.216 168.615 38.268L168.719 38.372L168.615 38.424C168.407 38.476 168.407 38.684 168.563 38.736L167.159 39.464L166.951 39.516C166.587 39.568 166.327 39.672 166.327 39.828L166.379 39.932C166.379 40.244 165.911 40.556 164.923 40.816C164.871 40.972 164.351 40.972 164.299 41.024H164.143C163.935 41.024 163.727 40.92 163.571 40.712C163.623 40.66 163.675 40.556 163.675 40.504L163.623 40.452C163.467 40.296 163.727 40.296 163.727 40.088C163.779 40.14 163.883 40.14 163.935 40.036L163.831 40.088C163.831 40.088 163.831 40.088 163.779 40.088C163.623 40.088 163.571 40.036 163.571 39.932C163.571 39.88 163.623 39.88 163.675 39.828L163.779 39.776C163.779 39.724 163.727 39.724 163.675 39.672H163.571C163.623 39.62 163.727 39.568 163.779 39.568C163.831 39.568 163.831 39.62 163.831 39.672V39.62C163.883 39.568 163.935 39.568 163.987 39.568H164.091L164.143 39.62L164.559 38.788L164.611 38.684C164.611 38.736 164.611 38.788 164.663 38.788C164.819 38.788 165.495 38.06 165.495 37.852C165.443 37.852 165.443 37.852 165.391 37.8C165.391 37.748 165.443 37.644 165.443 37.592C165.703 37.488 166.067 37.124 166.587 36.552C167.159 35.98 167.523 35.616 167.731 35.564H168.043ZM170.331 36.032C170.331 35.98 170.227 35.772 170.227 35.72C170.331 35.72 170.383 35.772 170.383 35.876C170.383 35.928 170.383 35.98 170.331 36.032ZM170.591 35.772V35.824H170.539L170.591 35.772ZM170.695 35.928C170.695 35.824 170.747 35.772 170.799 35.772C170.799 35.876 170.747 35.928 170.695 35.928ZM169.707 35.928C169.707 35.876 169.759 35.876 169.811 35.876C169.811 35.928 169.759 35.928 169.707 35.928ZM171.579 35.876H171.527H171.579ZM166.015 36.032C166.015 35.928 166.067 35.876 166.119 35.876V35.98C166.119 36.032 166.067 36.032 166.015 36.032ZM165.807 35.928C166.015 35.928 166.015 36.136 165.859 36.136C165.807 36.136 165.807 36.084 165.807 35.928ZM171.891 36.032V36.084V36.032ZM169.915 36.448C169.915 36.396 170.279 36.084 170.331 36.084C170.279 36.136 170.279 36.188 170.279 36.24C170.227 36.292 170.227 36.292 170.279 36.344C170.331 36.396 170.331 36.396 170.331 36.448L170.019 36.76C169.967 36.76 169.967 36.76 169.967 36.708L170.019 36.656C170.071 36.604 170.071 36.604 170.071 36.552C170.019 36.552 169.967 36.5 169.915 36.448ZM167.003 36.136V36.24C166.951 36.24 166.899 36.188 166.899 36.136H167.003ZM180.731 36.188V36.24V36.188ZM180.575 36.76C180.367 36.708 180.263 36.552 180.263 36.292L180.575 36.448V36.552V36.76ZM165.443 36.344V36.396V36.344ZM180.003 36.968C180.003 36.916 180.055 36.864 180.159 36.864C180.211 36.864 180.211 36.916 180.211 36.968H180.003ZM166.067 36.864V36.916V36.864ZM169.811 36.864H169.863H169.811ZM179.899 36.968C179.899 37.02 179.899 37.02 179.951 37.02H179.899V36.968ZM169.395 37.228H169.447V37.332H169.395V37.228ZM178.703 37.436C178.755 37.436 178.807 37.488 178.807 37.54C178.755 37.54 178.703 37.488 178.703 37.436ZM164.507 37.644V37.696H164.455L164.507 37.644ZM170.903 37.748C170.851 37.748 170.799 37.748 170.799 37.696H170.955C170.955 37.748 170.955 37.748 170.903 37.748ZM169.239 37.904C169.187 37.904 169.187 37.852 169.187 37.748H169.395L169.239 37.904ZM165.183 38.008V38.06V38.008ZM169.239 38.06V38.112V38.06ZM164.819 38.268H164.871H164.819ZM177.351 38.476V38.528V38.476ZM178.287 38.632C178.287 38.684 178.079 38.736 178.079 38.528C178.235 38.528 178.287 38.58 178.287 38.632ZM164.715 38.632C164.715 38.58 164.767 38.58 164.871 38.58C164.871 38.632 164.819 38.632 164.715 38.632ZM168.719 38.528V38.58V38.528ZM168.823 38.684H168.771H168.823ZM164.455 38.736V38.788V38.736ZM168.823 38.736H168.875V38.788L168.823 38.736ZM169.499 38.736V38.788V38.736ZM169.759 38.736V38.788V38.736ZM169.083 38.892V38.944V38.892ZM176.311 39.36C176.259 39.36 176.259 39.36 176.259 39.308L176.311 39.36ZM168.043 39.412C167.991 39.412 167.939 39.36 167.939 39.308C167.991 39.308 168.043 39.36 168.043 39.412ZM176.467 39.308V39.36V39.308ZM176.519 39.36V39.412V39.36ZM168.147 39.568C168.147 39.516 168.355 39.464 168.355 39.672C168.199 39.672 168.147 39.62 168.147 39.568ZM176.051 39.62C175.895 39.62 175.843 39.568 175.843 39.516H175.895C175.947 39.568 176.103 39.568 176.155 39.516V39.568C176.155 39.62 176.103 39.62 176.051 39.62ZM168.511 39.516C168.563 39.516 168.563 39.516 168.615 39.568C168.615 39.62 168.615 39.62 168.563 39.672C168.511 39.672 168.511 39.672 168.511 39.62V39.516ZM166.899 40.036C166.795 40.036 166.743 39.984 166.795 39.828C166.847 39.828 166.899 39.88 166.899 39.932V40.036ZM175.063 39.932C175.063 39.88 175.115 39.88 175.167 39.88C175.219 39.88 175.271 39.932 175.323 40.088L175.427 40.244C175.167 40.14 175.063 40.036 175.063 39.932ZM163.155 39.88C163.155 39.984 163.207 40.036 163.259 40.036C163.311 40.036 163.311 40.036 163.363 39.984L163.467 40.192C163.467 40.244 163.311 40.4 163.363 40.452C163.311 40.452 162.999 40.244 162.999 40.088L163.155 39.88ZM167.107 39.88H167.159H167.107ZM166.535 40.244H166.587H166.535ZM169.603 40.296C169.603 40.348 169.499 40.348 169.499 40.296H169.603ZM162.947 40.348V40.452V40.4V40.348ZM168.615 40.452C168.667 40.452 168.667 40.452 168.667 40.4L168.719 40.452L168.667 40.504L168.615 40.452ZM166.951 40.608H167.003V40.66H166.951V40.608ZM173.087 40.764V40.816V40.764ZM165.027 41.232V41.284V41.232ZM168.979 41.284H168.875H168.979ZM164.351 41.284V41.336V41.284ZM169.031 41.44V41.492V41.44ZM162.791 41.596H162.843C162.791 41.648 162.791 41.648 162.791 41.7V41.596ZM172.307 41.7V41.752V41.7ZM164.039 41.752V41.804V41.752ZM163.155 41.856V41.908V41.856ZM163.467 41.804V41.856V41.804ZM164.039 41.96C164.091 41.908 164.091 41.908 164.143 41.908V42.064C164.091 42.064 164.039 42.012 164.039 41.96Z" fill="#F1D8E7"/>
</g>
</g>
</svg>
