<svg width="335" height="126" viewBox="0 0 335 126" fill="none" xmlns="http://www.w3.org/2000/svg">
<g id="logo2">
<g id="logo2_2">
<path d="M76.2517 125V117.152H75.7477C74.8117 121.904 68.8357 124.28 57.6757 124.28C55.5877 124.28 54.1477 124.28 53.2837 124.208C50.3317 124.136 48.8917 121.184 48.8917 115.352V102.464H51.0517H53.4277C58.2517 102.464 61.3477 102.824 62.8597 103.544C64.3717 104.192 65.2357 106.136 65.3797 109.304H65.7397V94.832H65.3797C65.0917 97.928 64.4437 99.872 63.3637 100.664C62.2837 101.456 60.2677 101.816 57.3157 101.816H52.7077H51.0517H48.8917V75.608C58.7557 75.608 65.2357 76.184 68.2597 77.336C70.7077 78.272 72.2917 79.928 73.0117 82.376H73.4437V74.888H40.1797C41.1157 75.104 41.9077 75.536 42.5557 76.04C43.9237 77.264 44.6437 81.368 44.6437 88.496V109.016C44.6437 117.728 43.9237 122.696 42.5557 123.776C41.7637 124.424 40.8277 124.784 39.8917 125H76.2517Z" fill="#23262C"/>
<path d="M93.9361 125.72C99.4801 125.72 103.44 123.56 105.888 119.168H105.312C103.152 122.912 99.7681 124.784 95.0881 124.784C86.1601 124.784 83.4961 115.136 83.4961 108.08C83.4961 104.12 84.0721 100.736 85.5121 97.064C87.0241 93.392 90.2641 91.088 94.5841 91.088C97.1041 91.088 98.9761 92.312 100.272 94.832C100.776 95.552 101.352 96.704 101.856 97.28C102.432 97.784 102.936 98 103.728 98C105.312 98 106.104 97.352 106.104 96.128C106.104 91.808 97.7521 90.728 94.5121 90.728C89.3281 90.728 85.3681 92.384 82.7041 95.696C80.0401 99.008 78.6721 103.328 78.6721 108.584C78.6721 113.336 80.0401 117.368 82.7761 120.752C85.5841 124.064 89.2561 125.72 93.9361 125.72Z" fill="#23262C"/>
<path d="M106.919 72.8C108.719 73.16 110.087 74.024 111.023 75.392C111.959 77.48 112.391 90.08 112.391 113.336C112.391 118.592 112.031 121.832 111.383 123.2C110.807 124.136 109.871 124.784 108.647 125H120.311C119.087 124.784 118.223 124.208 117.719 123.272C117.071 122.192 116.783 119.168 116.783 114.272L116.855 104.264L116.783 97.568C117.863 96.056 119.519 94.688 121.679 93.464C123.911 92.24 126.143 91.592 128.375 91.592C132.047 91.592 134.639 93.536 135.791 96.416C136.943 99.224 137.303 101.672 137.303 104.336L137.375 112.832C137.375 118.52 137.015 121.976 136.295 123.2C135.863 124.064 134.999 124.64 133.703 125H145.439C144.143 124.64 143.279 124.064 142.847 123.272C142.127 121.976 141.767 118.736 141.767 113.48V103.328C141.767 95.624 137.519 90.512 128.807 90.512C124.415 90.512 119.591 93.248 116.783 96.2L116.495 72.224C114.263 72.224 111.023 72.44 106.919 72.8Z" fill="#23262C"/>
<path d="M162.206 91.448C166.022 91.448 169.046 93.896 170.486 97.352C171.998 100.808 172.79 104.048 172.862 107.144H151.118C151.478 103.904 152.198 100.736 153.854 97.28C155.51 93.824 158.462 91.448 162.206 91.448ZM177.686 107.864C177.614 103.184 176.102 99.224 173.294 95.84C170.486 92.456 166.67 90.728 161.846 90.728C156.662 90.728 152.702 92.456 149.894 95.984C147.158 99.512 145.79 103.688 145.79 108.656C145.79 113.408 147.302 117.44 150.398 120.752C153.494 124.064 157.598 125.72 162.71 125.72C168.758 125.72 174.806 122.408 177.182 116.936H176.75C173.87 121.616 168.686 124.784 163.79 124.784C155.294 124.784 151.046 119.168 151.046 107.864H177.686Z" fill="#23262C"/>
<path d="M174.533 91.52C176.765 92.384 178.133 93.32 179.213 95.552C180.077 97.064 180.293 97.424 180.941 99.368L181.733 101.24L191.813 125.216H195.917L203.693 105.56C205.493 101.024 206.933 97.712 208.085 95.624C209.309 93.536 210.677 92.168 212.261 91.592L200.525 91.52C201.029 91.592 202.757 92.024 203.549 92.312L204.845 92.96C205.781 93.464 206.141 94.256 206.069 95.408C205.853 97.208 204.125 101.888 201.029 109.52C197.933 117.152 196.277 121.472 195.917 122.48C195.845 122.192 195.125 120.68 193.829 117.872C192.605 115.064 191.381 112.4 190.157 109.808C189.005 107.144 187.925 104.408 186.917 101.456C185.909 98.504 185.405 96.416 185.405 95.12C185.405 93.176 186.269 91.952 187.925 91.52H174.533Z" fill="#23262C"/>
<path d="M225.104 91.448C228.92 91.448 231.944 93.896 233.384 97.352C234.896 100.808 235.688 104.048 235.76 107.144H214.016C214.376 103.904 215.096 100.736 216.752 97.28C218.408 93.824 221.36 91.448 225.104 91.448ZM240.584 107.864C240.512 103.184 239 99.224 236.192 95.84C233.384 92.456 229.568 90.728 224.744 90.728C219.56 90.728 215.6 92.456 212.792 95.984C210.056 99.512 208.688 103.688 208.688 108.656C208.688 113.408 210.2 117.44 213.296 120.752C216.392 124.064 220.496 125.72 225.608 125.72C231.656 125.72 237.704 122.408 240.08 116.936H239.648C236.768 121.616 231.584 124.784 226.688 124.784C218.192 124.784 213.944 119.168 213.944 107.864H240.584Z" fill="#23262C"/>
<path d="M240.744 91.304C242.472 91.664 243.84 92.528 244.776 93.896C245.136 94.76 245.496 95.84 245.568 97.496C245.784 99.152 245.856 100.232 245.856 102.752V109.52V113.336C245.856 118.592 245.496 121.832 244.776 123.2C244.272 124.136 243.336 124.784 242.112 125H253.776C252.552 124.784 251.688 124.208 251.184 123.272C250.536 122.192 250.248 119.168 250.248 114.272V110.168L250.392 107.36C250.464 104.984 250.752 103.328 251.04 101.096C251.76 97.064 253.272 93.752 256.08 93.752H256.296C257.952 93.752 259.32 94.184 260.256 95.12C261.192 96.056 261.912 96.488 262.416 96.56C263.928 96.56 265.08 95.48 265.152 93.968C265.224 92.528 262.92 91.232 260.832 91.016C255.288 91.016 251.76 93.896 250.32 99.656L250.248 90.728C247.944 90.728 244.776 90.944 240.744 91.304Z" fill="#23262C"/>
<path d="M265.302 91.304C267.03 91.664 268.398 92.528 269.334 93.896C269.694 94.76 270.054 95.84 270.126 97.496C270.342 99.152 270.414 100.232 270.414 102.752V109.52V113.336C270.414 118.592 270.054 121.832 269.334 123.2C268.83 124.136 267.894 124.784 266.67 125H278.334C277.11 124.784 276.246 124.208 275.742 123.272C275.094 122.192 274.806 119.168 274.806 114.272V110.168L274.95 107.36C275.022 104.984 275.31 103.328 275.598 101.096C276.318 97.064 277.83 93.752 280.638 93.752H280.854C282.51 93.752 283.878 94.184 284.814 95.12C285.75 96.056 286.47 96.488 286.974 96.56C288.486 96.56 289.638 95.48 289.71 93.968C289.782 92.528 287.478 91.232 285.39 91.016C279.846 91.016 276.318 93.896 274.878 99.656L274.806 90.728C272.502 90.728 269.334 90.944 265.302 91.304Z" fill="#23262C"/>
<path d="M294.037 93.896C294.397 94.76 294.685 95.84 294.901 97.496C295.117 99.152 295.189 100.232 295.189 102.752V109.52V113.336C295.189 118.592 294.829 121.832 294.109 123.2C293.605 124.136 292.669 124.784 291.445 125H303.109C301.813 124.712 300.949 124.136 300.517 123.272C299.941 122.192 299.653 119.168 299.653 114.272L299.725 104.264L299.653 90.728C297.277 90.728 294.109 90.944 290.077 91.304C291.877 91.664 293.173 92.528 294.037 93.896ZM291.085 84.032C293.461 83.96 295.765 83.168 297.925 81.8C300.085 80.432 301.597 78.632 302.461 76.544L296.701 76.112C296.125 78.704 293.461 81.728 290.869 83.456L291.085 84.032Z" fill="#23262C"/>
<path d="M304.881 114.848C304.881 120.896 310.497 125.072 320.937 125H334.689C333.393 124.712 332.529 124.136 332.097 123.272C331.521 122.12 331.233 119.312 331.233 114.848L331.305 101.888C331.305 98.36 330.297 95.552 328.209 93.536C325.905 91.664 323.169 90.728 319.929 90.728C316.545 90.728 307.689 92.096 307.689 96.56C307.689 98 308.409 98.72 309.849 98.72C311.793 98.72 312.873 96.776 313.449 94.976C314.025 93.176 316.041 91.232 319.281 91.232C322.521 91.232 324.825 92.6 325.761 95.12C326.697 97.496 326.913 99.512 326.913 102.608V105.344C324.897 104.624 322.809 104.264 320.721 104.264C316.041 104.264 312.225 105.272 309.273 107.36C306.321 109.448 304.881 111.896 304.881 114.848ZM321.297 104.84C322.953 104.84 324.753 105.128 326.841 105.704L326.769 114.344C326.769 118.88 326.409 121.976 325.617 123.488C324.969 124.208 323.385 124.568 320.937 124.568C311.793 124.568 309.705 118.952 309.705 114.848C309.705 112.256 310.569 109.952 312.369 107.936C314.169 105.848 317.193 104.84 321.297 104.84Z" fill="#23262C"/>
</g>
<g id="logo2_3">
<path d="M81.5261 0.46401C81.2381 0.608008 81.0941 0.680008 81.0221 0.680008C80.8781 0.680008 80.7341 0.680007 80.6621 0.608007C80.4461 0.824009 79.8701 0.896008 78.9341 0.896008C78.7181 0.968007 78.6461 1.18401 78.5741 1.18401C78.5741 1.32801 77.9981 1.18401 77.7821 1.18401H77.6381L77.4221 1.40001C77.2781 1.47201 76.8461 1.54401 76.1981 1.54401L75.7661 1.97601H75.3341C75.0461 1.97601 73.9661 2.48001 73.8941 2.69601C73.3901 2.62401 72.5261 3.27201 72.1661 3.27201C71.9501 3.48801 71.2301 3.77601 71.0141 4.06401C70.4381 4.06401 69.0701 4.78401 68.1341 5.57601C67.1981 6.36801 65.6861 7.52001 65.3981 7.73601C65.1101 7.66401 63.7421 8.52801 61.3661 10.328C61.0781 11.12 60.7901 11.48 60.4301 11.48L60.3581 11.408C60.2861 11.336 60.2861 11.336 60.2141 11.336C59.9261 11.696 58.8461 12.632 58.5581 12.632C58.2701 12.848 57.4061 13.928 56.8301 14.144C56.4701 14.504 53.5901 16.736 53.8781 17.096C53.3741 17.096 52.0781 18.248 50.0621 20.624V20.768L50.2061 20.696C50.2061 20.696 50.3501 20.696 50.3501 20.768C50.3501 20.912 50.2781 20.984 50.2061 20.984C50.1341 20.912 50.0621 20.912 49.9901 20.912C49.7741 20.912 48.9821 21.344 48.7661 21.56C48.7661 21.776 47.9021 22.712 46.2461 24.368C44.5901 26.024 43.6541 26.816 43.3661 26.744C43.2221 26.6 43.4381 25.88 43.4381 25.448C43.4381 25.376 43.6541 25.088 43.6541 24.872V24.296V24.08C43.6541 23.864 43.1501 23.648 43.1501 23.432L43.2221 23.288C43.2941 23.288 43.5101 23.36 42.5741 22.496H42.5021C42.2861 22.712 42.1421 22.784 42.0701 22.784L41.9981 22.712H41.7821C41.1341 23.288 40.8461 24.152 40.8461 25.376C40.8461 25.448 41.0621 25.736 41.0621 25.808C41.0621 26.168 40.4141 27.176 40.4141 27.464C40.4141 27.536 40.4861 27.752 40.4861 27.824C40.4861 28.328 39.8381 29.192 39.8381 29.552V29.696C39.9101 29.768 39.9101 29.84 39.9101 29.912C39.6221 30.416 39.3341 31.496 39.2621 31.784C38.7581 32.144 38.5421 32.432 38.4701 32.504L38.1821 33.08C37.9661 33.296 37.4621 33.728 36.5261 34.304C36.4541 34.376 36.3101 34.376 36.0941 34.376C36.0941 34.808 35.3021 35.816 33.7901 37.4C32.2781 38.984 31.4861 39.992 31.3421 40.352C31.2701 40.424 30.8381 40.856 29.9021 41.648C29.0381 42.44 28.6061 42.872 28.6061 43.016L28.7501 43.16H28.6781C28.3181 43.16 27.7421 43.592 27.0221 44.528C27.3101 44.744 22.5581 49.712 22.3421 50C22.0541 50.288 21.7661 51.656 21.3341 51.656C21.2621 51.656 21.0461 51.512 20.8301 51.512L20.6861 51.8C20.4701 52.16 20.0381 52.736 19.5341 52.808C19.3181 53.024 19.6061 53.096 19.6061 53.312C19.6061 53.456 19.4621 53.6 19.1741 53.816C19.1021 53.96 18.0941 55.328 16.0061 57.848C13.9181 60.368 12.9101 61.664 12.8381 61.664C12.7661 61.664 12.6221 61.664 12.5501 61.592C12.4061 62.096 11.7581 63.032 10.6781 64.4C9.59812 65.768 9.02212 66.56 9.02212 66.632L6.64612 70.52C6.57412 70.736 5.27812 71.816 5.27812 72.104V72.248L5.35012 72.392C5.35012 72.536 5.20612 72.752 4.99012 72.968C4.77412 73.112 4.12612 74.192 3.11812 76.28C2.11012 78.368 1.53412 79.52 1.39012 79.592V80.096C1.10212 80.456 1.03012 81.464 0.814119 81.752L0.31012 82.4V82.544C0.31012 82.616 0.454119 83.12 0.454119 83.336L0.382118 83.552C0.382118 83.624 0.454119 83.768 0.670118 83.984L0.59812 84.056C0.526119 84.128 0.526119 84.2 0.526119 84.272C0.526119 84.488 1.17412 84.416 1.17412 84.776C1.17412 84.848 1.03012 85.208 1.03012 85.424C1.03012 85.64 1.39012 85.784 2.03812 85.784C2.03812 85.712 2.11012 85.712 2.32612 85.712C2.90212 85.856 3.26212 85.856 4.12612 85.64C4.41412 85.568 4.77412 85.064 5.13412 84.992C5.49412 84.704 6.50212 84.2 6.79012 83.984C7.58212 83.336 10.3901 81.32 10.7501 80.456C10.8941 80.24 11.3981 79.808 12.1901 79.16C12.9821 78.584 13.4861 78.224 13.7021 78.008C13.7021 77.504 14.2781 77.216 14.5661 76.928C14.5661 76.712 14.9261 76.496 14.9261 76.28C14.9261 76.136 14.6381 76.064 15.1421 75.776C15.4301 75.56 15.9341 75.344 16.0061 75.272C16.5101 74.768 16.8701 74.264 16.9421 73.904C17.3741 73.256 17.8781 72.752 18.5261 72.248C18.5981 72.176 18.5981 71.744 18.6701 71.672C18.8861 71.456 20.3981 70.088 20.6141 69.8C20.6141 69.728 20.6141 69.656 20.5421 69.656V69.152C20.5421 69.008 20.8301 68.648 21.4061 68.144C21.9821 67.64 22.2701 67.352 22.3421 67.208C22.7021 66.416 23.2061 65.624 23.9261 64.904C24.5741 64.184 24.8621 63.608 24.9341 63.248C25.0061 62.96 26.0861 62.024 26.1581 61.952C26.2301 61.448 26.4461 61.16 26.8061 60.944L26.8781 60.872L26.9501 60.368C26.9501 60.152 27.2381 59.72 27.7421 59C28.2461 58.352 28.5341 57.92 28.5341 57.848L28.4621 57.704V57.488C28.8221 57.128 29.0381 56.984 29.1101 56.984H29.3261V56.408L29.3981 56.264L29.6861 55.688L30.8381 54.536C31.4141 53.96 31.7021 52.088 31.7741 51.872C31.8461 51.584 32.7101 51.44 32.9261 51.224C33.2141 50.936 33.5021 49.352 33.7181 49.064C34.2221 48.848 34.9421 47.264 35.3021 46.904C35.3021 46.832 35.3021 46.76 35.2301 46.688C35.1581 46.688 35.1581 46.616 35.1581 46.4C35.1581 45.608 35.3021 45.248 35.6621 45.248L35.8061 45.32H35.9501L36.0221 45.248V44.888C36.0221 44.816 36.3821 44.816 36.3821 44.6C36.4541 44.168 36.7421 43.448 37.3181 42.44C37.8941 41.36 38.1821 40.784 38.1821 40.64C38.1821 40.568 38.1101 40.496 38.0381 40.424L37.9661 40.28C37.9661 40.208 38.0381 40.208 38.1101 40.208L38.2541 40.28C38.2541 40.28 38.2541 40.28 38.3261 40.28L38.5421 39.704C38.8301 38.84 39.1901 37.688 39.4061 37.472L39.6941 37.112C39.6941 36.896 39.9821 36.176 40.5581 34.808C40.3421 34.448 41.0621 33.152 41.6381 32.072L42.0701 31.352C42.0701 31.136 41.9981 30.776 41.9981 30.704C41.9981 30.488 42.0701 30.416 42.1421 30.416L42.3581 30.488C42.4301 30.488 43.4381 29.408 43.7261 29.12C43.7981 29.048 44.0141 29.048 44.0861 28.832L44.4461 28.04C44.4461 27.824 44.5181 27.68 44.5901 27.68L44.6621 27.752L44.7341 27.824C44.8061 27.824 44.8061 27.824 44.8781 27.752C44.9501 27.536 46.1741 27.032 46.1741 26.528C46.1741 26.456 46.1021 26.312 46.1021 26.24C46.1741 26.24 46.2461 26.384 46.3181 26.384C46.8941 26.096 48.6941 24.08 48.7661 24.08C48.8381 24.08 48.9821 23.72 49.2701 23.72C49.5581 23.36 49.5581 23.216 49.7741 22.856C50.0621 22.496 50.5661 22.136 51.2141 21.848C51.5741 21.704 52.0781 21.272 52.5821 20.48C53.1581 19.688 53.5901 19.184 53.8061 18.968C54.3101 19.04 54.7421 18.68 55.2461 17.96C55.6061 17.96 56.4701 17.528 56.4701 17.168C56.4701 17.096 56.3981 16.808 56.3981 16.736C56.3981 16.664 56.4701 16.592 56.5421 16.52L57.1181 16.232C57.1901 16.16 57.6221 15.44 57.9101 15.44C57.9821 15.44 58.1981 15.584 58.2701 15.584C58.4861 15.584 59.2061 14.432 59.7101 14.36C60.0701 14.288 60.2141 14.072 60.2141 13.568L60.7901 13.064L61.2941 12.56C62.2301 12.344 63.5981 11.48 63.9581 10.616C64.2461 10.4 64.5341 10.328 64.7501 10.328C64.8221 10.328 64.8941 10.256 64.8941 10.184C64.8221 10.184 64.8221 10.112 64.7501 10.04L64.6781 9.96801C64.6781 9.89601 65.0381 9.68001 65.8301 9.24801C66.6221 8.81601 66.9821 8.60001 67.0541 8.60001L67.2701 8.67201C67.4861 8.67201 67.5581 8.16801 67.6301 8.16801C67.7021 8.24001 67.7741 8.24001 67.8461 8.24001C67.9181 8.24001 67.9901 8.24001 68.0621 8.16801C68.1341 8.16801 68.7821 7.66401 68.7821 7.59201C68.7821 7.52001 68.6381 7.16001 68.6381 7.08801C68.6381 6.94401 68.7101 6.87201 68.7821 6.87201H69.5741L70.2941 6.15201C70.3661 6.08001 70.5101 6.08001 70.7981 6.08001C70.8701 6.08001 71.0861 6.15201 71.1581 6.15201C71.5181 6.15201 72.0941 5.86401 72.8861 5.21601C73.6781 4.56801 74.2541 4.28001 74.4701 4.28001C74.5421 4.28001 74.7581 4.49601 74.8301 4.49601C75.6941 4.49601 76.2701 4.28001 76.5581 3.92001C76.5581 3.48801 76.6301 3.27201 76.7741 3.27201C76.9901 3.27201 77.1341 3.48801 77.2061 3.48801C77.4221 3.48801 77.7821 3.20001 77.9981 3.20001L78.1421 3.27201H78.2861C78.6461 3.27201 79.8701 2.76801 80.1581 2.76801C80.3741 2.76801 80.5901 2.84001 80.8781 2.98401C81.4541 2.76801 81.8141 2.55201 81.9581 2.33601C82.3181 2.48001 82.3901 2.76801 82.9661 2.48001H83.2541L83.4701 2.62401C83.5421 2.62401 83.6861 2.48001 83.9021 2.26401H84.0461C84.2621 2.48001 84.4061 2.12001 84.7661 2.26401L84.9101 2.33601L87.4301 2.62401C87.7901 2.69601 89.0141 3.56001 89.5901 3.56001C89.8781 3.48801 89.6621 3.27201 90.8861 4.13601L91.3901 4.64001C91.6061 4.85601 92.9021 5.43201 92.9021 5.72001V6.29601L93.4061 6.80001C93.4781 6.87201 93.6221 7.23201 93.8381 7.44801V8.09601C93.8381 8.38401 94.2701 8.45601 94.3421 8.52801C94.4861 9.46401 94.4861 10.04 94.4141 10.184C94.4141 10.256 94.4141 10.328 94.4861 10.4C94.4861 10.616 94.1261 11.048 94.1261 11.264C94.1261 11.336 94.1981 11.408 94.2701 11.48C94.4141 11.768 94.1261 12.2 94.1261 12.704L94.0541 14.144L93.8381 14.576C94.1261 14.936 93.4781 15.224 93.8381 15.8C93.8381 16.016 93.6941 16.304 93.3341 16.664L92.8301 17.168C92.8301 17.384 93.2621 17.6 93.2621 17.816C93.2621 18.32 93.0461 18.824 92.5421 19.472V20.048C92.5421 20.264 92.0381 20.552 92.0381 20.84C92.0381 20.912 92.1101 21.2 92.1101 21.272C92.1101 21.776 91.6061 22.28 91.6061 22.352C91.6781 22.928 91.3901 24.008 90.5981 25.52C90.5261 25.592 89.8061 26.24 89.7341 26.456C89.7341 26.528 89.9501 26.744 89.9501 26.816C89.9501 27.176 89.6621 27.608 89.0861 28.184C88.5101 28.76 88.2221 29.12 88.2221 29.192L88.5101 29.552C88.5101 30.056 87.6461 30.704 87.6461 31.28L86.9981 31.928C86.7821 32.144 86.0621 33.368 86.0621 33.44L86.2061 33.512C86.2781 33.584 86.2781 33.656 86.2781 33.728C86.2781 34.016 85.8461 34.088 85.7021 34.232C85.3421 34.736 84.9101 35.528 84.2621 36.752C83.6861 37.904 83.1821 38.768 82.7501 39.272C81.5981 40.208 81.0221 40.928 81.0221 41.432C81.0221 41.504 81.0941 41.504 81.1661 41.576L81.3101 41.648C81.3101 42.08 80.9501 41.864 80.8061 42.008C80.5901 42.368 79.7981 43.376 79.5821 43.88C79.5821 44.024 77.7821 45.824 77.7821 46.184L77.8541 46.328C77.9261 46.328 77.9261 46.328 77.9261 46.4L77.4221 47.048C76.6301 47.984 75.6941 49.28 75.6221 49.568L75.4781 49.856C74.9741 50.072 74.1821 50.936 73.0301 52.376C71.9501 53.744 71.2301 54.608 70.9421 54.896C70.7261 55.112 70.6541 55.616 70.3661 55.832C70.3661 55.904 70.0781 56.264 69.5021 56.84C68.9981 57.416 68.7101 57.848 68.6381 58.064C68.1341 58.064 67.9181 59.072 67.4141 59.072C67.3421 59.072 67.3421 59.072 67.2701 59H67.1981C66.9821 59 66.8381 59.144 66.8381 59.432L66.9101 59.648C66.9101 59.72 66.9101 59.792 66.9821 59.792C66.9821 60.152 66.1181 60.8 65.6141 60.8C65.6861 61.376 65.1821 62.096 64.2461 62.96C63.3101 63.824 62.5181 64.472 61.7981 64.832C61.7261 64.832 61.7261 64.832 61.7261 64.904V65.192L61.5821 65.264C61.5101 65.336 61.4381 65.408 61.4381 65.48V65.768C61.1501 65.768 60.9341 66.416 60.3581 66.488L60.0701 66.776C60.0701 66.776 59.4941 66.488 59.8541 66.848L59.9261 66.92C59.9261 67.28 59.4941 68 59.1341 68H58.8461V68.072C58.7741 68.288 58.2701 68.792 57.3341 69.656C56.3981 70.592 55.8221 71.024 55.6061 71.096C55.3181 71.24 55.1741 71.528 55.1741 72.032C55.1741 72.248 55.2461 72.392 55.3901 72.392C55.4621 72.392 55.6781 72.176 55.7501 72.176C55.8221 72.176 55.8941 72.176 55.8941 72.248C55.8941 72.32 55.8221 72.392 55.7501 72.392H55.5341C55.4621 72.392 55.4621 72.464 55.4621 72.536C55.4621 72.968 55.7501 73.184 56.3261 73.184C56.5421 73.184 56.9741 73.04 57.1901 73.04C57.2621 73.04 57.4781 73.184 57.5501 73.184C58.1261 73.184 59.4221 71.744 60.8621 69.728L61.9421 68.216C62.1581 67.856 63.0941 67.496 63.3101 67.28C63.3821 67.064 63.3821 66.704 63.4541 66.632C63.8141 66.2 64.6061 65.336 65.9741 63.968C67.3421 62.672 68.0621 62.024 68.1341 62.096L68.3501 61.88L68.8541 61.304C68.9981 61.088 69.1421 60.944 69.2141 60.944L72.6701 57.272C72.6701 57.2 72.8141 56.624 73.1021 56.408C73.6781 56.192 74.2541 55.76 74.9021 55.112C75.0461 54.608 75.2621 54.32 75.5501 54.176L76.1261 53.6L76.2701 53.384C76.7741 53.24 77.1341 52.88 77.4941 52.304C77.7821 52.232 78.2141 51.296 78.7181 51.296C78.7901 51.224 78.7901 50.936 78.8621 50.864C79.2221 50.288 81.2381 49.352 81.2381 48.488C81.2381 48.416 81.6701 48.272 81.6701 48.056C81.6701 47.984 81.5261 47.696 81.5261 47.624C81.5981 47.624 81.9581 47.912 82.1741 47.912C82.2461 47.84 82.2461 47.84 82.3181 47.84V47.264C82.3181 47.192 82.3901 47.12 82.5341 47.12H82.7501C82.9661 47.12 83.1101 47.048 83.1101 46.832V46.544C82.9661 46.472 82.8941 46.4 82.8941 46.328C82.8941 46.256 82.9661 46.184 83.1101 46.184L83.2541 46.256C83.3261 46.256 83.6141 45.896 83.6861 45.896L83.9741 45.968C84.0461 45.968 84.0461 45.968 84.1181 45.896C84.1181 45.824 83.9741 45.608 83.9741 45.536L84.0461 45.392H84.6941L85.5581 44.96L85.6301 44.816C85.4861 44.816 85.4141 44.744 85.4141 44.6C85.4141 44.384 86.1341 43.88 86.2061 43.592C86.2781 43.376 86.9261 43.016 87.1421 42.656C87.4301 42.584 87.7901 42.224 88.2941 41.648C88.6541 41.648 88.7981 41.576 88.7981 41.36C88.7981 41.288 88.7261 41.144 88.7261 41.072C88.7261 40.784 88.8701 40.64 89.2301 40.64L89.3741 40.712C89.4461 40.136 89.4461 40.136 90.0221 40.064L90.1661 39.992V39.56L91.1021 38.768C92.4701 37.688 94.1261 36.248 94.3421 35.96C94.5581 35.672 94.9901 35.456 95.2061 35.24C95.5661 34.736 96.9341 33.512 97.4381 32.864C98.3021 31.928 102.55 28.976 102.694 27.752L102.838 27.68L103.126 27.536L103.27 27.248C103.342 27.032 103.486 26.96 103.558 26.96L103.63 27.032H103.846C103.918 27.032 104.062 26.96 104.206 26.816V26.384L104.35 26.312C104.422 26.312 104.566 26.312 104.638 26.24L104.854 26.168L105.286 25.736C105.934 25.736 106.654 25.16 107.518 23.936C108.526 22.928 109.102 22.424 109.174 22.424H109.39L109.462 22.496C109.75 22.496 111.118 21.488 111.118 21.272C111.118 20.984 110.542 21.2 111.838 20.336C112.99 19.688 114.502 18.752 114.79 18.536C115.15 18.176 115.438 17.96 115.654 17.96H115.798L115.87 18.032C115.942 18.032 116.59 17.6 117.814 16.736C119.038 15.8 119.614 15.296 119.614 15.08C119.686 15.008 120.046 14.864 120.766 14.576C121.486 14.216 121.846 14.072 121.918 14.072L122.782 14C122.854 14 122.998 13.928 123.07 13.712C123.286 14.144 123.718 14 123.718 14.576C123.718 14.864 123.43 15.08 123.43 15.296C123.358 15.368 123.358 15.512 123.358 15.728V15.872C122.782 16.304 122.134 18.68 121.918 19.472C121.846 19.688 121.342 19.832 121.342 19.904C121.27 19.976 121.054 20.624 120.55 21.92C120.55 22.136 119.47 23.576 119.47 23.576L118.894 24.152C118.678 24.368 118.534 25.088 118.246 25.376C118.174 25.448 118.174 25.52 118.174 25.592V25.736L117.382 26.6C117.31 27.104 116.878 28.04 116.086 29.336C115.294 30.56 114.646 31.424 114.142 31.928C114.07 32 114.07 32.072 114.07 32.216L113.71 33.08C113.494 33.296 113.422 33.44 113.422 33.584L112.774 34.232C112.63 34.304 112.558 34.448 112.558 34.52C112.558 34.592 112.702 34.808 112.702 34.88L112.63 34.952L112.054 35.528C111.838 35.744 111.406 36.464 110.83 37.688C110.326 38.912 109.966 39.56 109.75 39.776L109.39 40.136L108.814 41.216C108.598 42.368 108.094 43.376 107.158 44.168C107.158 44.528 106.798 45.176 106.15 46.112C105.502 47.048 105.214 47.552 105.214 47.768L105.286 47.912C105.358 47.912 105.358 47.912 105.358 47.984C105.358 48.488 104.494 49.352 104.422 49.568L104.062 49.928C103.99 50.432 103.702 51.008 103.342 51.512C103.054 51.8 102.622 52.52 102.406 52.736C102.406 52.808 102.406 52.952 102.334 53.096L101.83 53.888C101.758 54.176 101.254 54.968 100.318 56.336C99.3821 57.632 98.9501 58.424 98.9501 58.64V59C98.8061 59.072 98.7341 59.144 98.7341 59.216L98.3021 60.008C98.2301 60.08 98.1581 60.08 98.0861 60.08C97.9421 60.152 97.8701 60.224 97.8701 60.368C97.8701 60.44 98.0141 60.656 98.0141 60.728C98.0141 61.448 96.7901 63.608 96.3581 64.184C96.1421 64.688 95.8541 65.912 95.6381 66.416C95.6381 66.488 95.6381 66.56 95.7101 66.632V66.704C95.7101 67.064 95.4221 67.856 95.2061 68.216V69.08L95.1341 69.224V69.872C95.0621 69.944 95.0621 70.16 95.0621 70.376C95.0621 71.528 95.6381 72.176 96.7901 72.248C97.0061 72.464 97.2221 72.608 97.2941 72.608C97.6541 72.608 97.8701 72.32 97.8701 71.672C97.8701 71.456 97.9421 71.384 98.1581 71.384L98.3741 71.456C98.5901 71.168 99.2381 71.24 99.3101 71.168C99.6701 70.88 100.318 70.232 101.254 69.224C102.19 68.288 102.622 67.64 102.622 67.352C102.622 66.776 102.406 66.488 102.046 66.488C101.47 66.488 100.174 67.928 99.8141 67.928H99.6701L99.1661 68.216L98.5181 68.936C98.1581 69.44 97.7981 69.728 97.5821 69.728C97.5101 69.656 97.4381 69.584 97.3661 69.368C97.3661 69.152 97.3661 69.08 97.2941 69.008V68.144C97.2941 67.856 97.8701 67.352 97.8701 66.992C97.7981 66.848 97.7981 66.776 97.7981 66.704C97.7981 66.344 98.2301 65.192 98.2301 64.688L98.3021 64.616C99.0941 64.256 99.6701 62.024 99.8861 61.736C99.9581 61.664 100.246 60.872 100.822 59.432C101.47 58.064 101.974 56.984 102.406 56.192C102.91 55.4 103.342 54.752 103.846 54.392V53.96L104.206 53.312C104.422 53.096 104.566 52.88 104.566 52.52C105.07 52.016 105.646 51.152 106.438 49.928C106.366 49.856 106.294 49.712 106.294 49.568L106.942 48.92V48.488C106.942 48.416 107.374 47.696 108.166 46.4C109.03 45.104 109.462 44.312 109.534 44.024C109.534 43.808 110.614 43.304 110.614 42.944C110.614 42.872 110.398 42.656 110.398 42.584C110.974 42.08 111.91 40.64 111.91 40.064L112.198 39.56C112.27 39.2 112.414 38.984 112.63 38.768C112.918 38.048 113.494 37.04 114.286 35.744C115.15 34.448 115.726 33.512 116.014 32.936L116.446 32.36C116.806 31.928 117.022 31.64 117.094 31.424C117.166 31.424 117.166 31.352 117.238 31.208L118.03 30.416C118.102 30.056 118.462 29.48 119.11 28.616C119.758 27.68 120.046 26.96 119.974 26.456C120.334 25.88 121.198 25.664 121.054 24.8C121.27 24.224 122.422 23.072 122.494 23C122.71 22.784 122.782 21.776 123.07 21.488C125.23 18.32 126.31 15.728 126.31 13.712C126.31 13.136 126.238 12.632 126.022 12.272C125.446 11.552 124.798 11.192 124.15 11.192C123.646 11.192 123.43 11.264 123.214 11.264C122.422 11.264 120.694 12.488 120.046 12.488H119.902C119.686 12.488 119.614 12.488 119.542 12.416C119.47 12.488 118.75 13.424 118.534 13.496C118.174 13.856 112.702 17.24 112.99 17.528L112.486 17.888C111.838 18.392 110.974 18.896 110.902 18.968L109.75 19.976C109.462 20.048 109.246 20.84 108.886 20.84C108.814 20.84 108.598 20.768 108.526 20.768L107.086 22.208C106.942 22.496 106.582 22.712 106.006 22.856C105.646 23.216 104.638 24.224 102.838 25.88C101.11 27.464 100.246 28.256 100.174 28.256L100.03 28.184H99.8861C99.5261 28.184 99.3821 28.328 99.3821 28.616C99.3821 28.76 99.3821 28.832 99.4541 28.904C99.4541 29.336 99.0941 29.768 98.3021 30.2L97.0781 30.992C96.6461 30.992 96.7901 31.28 96.4301 31.064H96.3581C96.2141 31.064 96.1421 31.064 96.1421 31.136C96.1421 31.424 96.8621 31.496 96.8621 31.712C96.8621 31.856 96.7901 31.928 96.5741 31.928C96.5021 31.856 96.4301 31.784 96.3581 31.784L90.2381 37.616C90.1661 37.688 89.8781 37.904 89.6621 38.192C89.1581 38.48 89.3021 38.552 89.3741 38.624V38.696C89.3741 38.768 89.0141 39.056 88.2221 39.704C87.4301 40.352 87.0701 40.712 87.0701 40.856C87.0701 41 87.0701 41.072 87.1421 41.144C87.1421 41.432 86.1341 41.432 86.1341 41.792C86.0621 41.792 86.0621 41.864 86.1341 42.008C86.1341 42.008 82.1021 44.888 81.8141 45.896C81.7421 45.896 81.7421 45.968 81.7421 46.04C81.7421 46.04 81.7421 46.04 81.6701 46.112L80.6621 47.192V47.408C80.6621 47.696 80.5901 47.84 80.5181 47.84C80.4461 47.84 80.3741 47.84 80.3021 47.768H80.1581C79.5821 47.768 79.2941 48.992 78.9341 48.992C78.6461 48.848 78.5021 48.92 78.0701 49.136C78.0701 48.488 79.0781 47.264 79.7261 47.264V47.048C79.6541 47.048 79.6541 46.976 79.6541 46.832C79.6541 46.616 79.7981 46.328 80.1581 45.968C80.5181 45.752 81.2381 44.744 82.4621 42.872C83.6861 41 84.4061 39.776 84.5501 39.272L85.1981 38.552C85.9181 37.832 86.2781 37.328 86.2781 37.112L86.2061 36.968C86.1341 36.968 86.1341 36.968 86.1341 36.896C86.4221 36.608 88.0061 33.584 88.1501 33.584L88.2221 33.656C88.8701 33.944 88.2941 33.08 88.9421 32.792V32.36C89.1581 32.144 89.9501 30.704 89.9501 30.416C89.9501 30.344 89.9501 30.272 89.8781 30.2L89.8061 30.128L89.8781 29.984C90.2381 29.624 91.3181 28.4 91.3181 27.68L91.2461 27.608C90.8861 27.536 91.5341 26.96 91.8941 26.6C92.1101 26.24 92.3981 25.664 92.7581 24.728C93.1181 23.792 93.3341 23.144 93.3341 22.784C93.6221 22.496 93.8381 22.28 93.9101 22.064C93.9101 21.488 94.4861 20.192 94.4861 19.688C94.4861 19.616 94.2701 19.4 94.2701 19.328C94.2701 19.04 94.7741 18.752 94.7741 18.464V18.32C94.6301 18.248 94.5581 18.176 94.5581 18.032C94.5581 17.816 95.1341 17.6 95.1341 17.384C95.0621 16.52 95.9261 14.36 95.9261 13.568V12.848C95.9981 12.776 95.9981 12.704 95.9981 12.632V12.488L95.9261 12.344C95.9261 11.768 96.1421 10.328 96.1421 9.82401V9.32001C95.8541 9.03201 95.9261 8.96001 95.9981 8.88801L96.0701 8.74401C96.0701 8.24001 95.2781 7.23201 95.2781 6.72801C95.2781 6.51201 95.5661 5.93601 95.2061 6.29601L95.1341 6.22401L94.6301 5.72001C94.3421 5.50401 94.1981 4.64001 94.1261 4.42401C93.4781 3.41601 91.7501 2.62401 90.8861 1.97601C90.8141 1.90401 90.8141 1.40001 90.5981 1.40001H89.8061C89.5901 1.40001 89.3021 1.25601 89.0861 1.25601C88.9421 1.25601 88.3661 0.82401 88.2221 0.680008C87.9341 0.608009 87.5021 0.608007 86.9261 0.608007C86.4221 0.608007 86.3501 0.320008 86.0621 0.46401L85.9901 0.536009C85.7021 0.536009 85.1261 0.320007 84.8381 0.320007C84.7661 0.320007 84.5501 0.39201 84.3341 0.39201C84.1181 0.39201 83.9021 0.392011 83.7581 0.320007H82.7501C82.5341 0.320007 82.0301 0.536009 81.7421 0.536009L81.5261 0.46401ZM119.614 12.992V13.064C119.542 13.064 119.47 13.064 119.398 12.992H119.614ZM116.662 15.944H116.734V16.016L116.662 15.944ZM54.8861 16.52V16.592V16.52ZM91.6061 25.088C91.6061 25.016 91.6781 24.944 91.8221 24.944C91.8221 25.088 91.8221 25.16 91.7501 25.16C91.6781 25.16 91.6061 25.16 91.6061 25.088ZM96.4301 32.432C96.2861 32.432 96.2861 32.36 96.3581 32.288L96.4301 32.432ZM39.9101 34.664H39.8381H39.9101ZM36.6701 35.024V35.096V35.024ZM37.0301 36.392C37.1021 36.392 37.3901 36.176 37.4621 36.176V36.248L37.3181 36.32C37.2461 36.392 37.2461 36.608 37.2461 37.04L36.6701 38.408C36.7421 39.056 35.4461 40.424 35.4461 41V41.72C34.6541 42.512 34.2941 42.944 34.2941 43.088C34.5821 43.376 34.5101 43.88 34.0061 44.312L34.0781 44.456C34.0781 44.456 34.0781 44.456 34.0781 44.528C34.0781 44.816 33.3581 45.176 33.3581 45.392C33.3581 45.464 33.4301 45.752 33.4301 45.824C33.4301 46.184 33.2141 46.688 32.7101 47.408C32.2061 48.056 31.9181 48.56 31.8461 48.776C31.7741 49.064 30.8381 49.856 30.8381 49.928V50.792L30.5501 51.296C30.5501 51.8 29.9021 52.16 29.8301 52.376C29.1821 53.24 28.7501 53.888 28.5341 54.248C28.5341 54.464 28.1741 54.896 27.5261 55.4C27.5981 55.76 27.3101 56.192 27.3101 56.408L26.7341 57.128C26.3741 57.776 25.7261 58.424 26.0861 58.352L26.1581 58.424C26.1581 58.712 25.3661 59.432 25.2941 59.504C25.2941 59.864 24.6461 60.584 24.5741 60.8L24.0701 61.376C24.1421 61.88 23.2061 62.456 23.2061 62.744C23.2061 62.816 23.3501 63.176 23.3501 63.248C23.3501 63.464 21.9821 64.112 21.9821 64.616C22.0541 64.616 22.0541 64.688 22.0541 64.76C22.0541 64.904 21.9821 64.976 21.8381 64.976L21.6941 64.904C21.6941 64.904 21.6941 64.904 21.6221 64.904C21.4061 64.904 21.1181 65.264 20.7581 65.984C20.3981 66.704 20.1101 67.136 19.8941 67.208C19.8941 67.352 19.6781 67.784 19.1741 68.432L18.2381 69.728C16.2221 71.744 14.8541 73.4 14.0621 74.768C13.8461 74.984 11.0381 78.08 10.8941 78.08V78.008H10.7501C10.7501 78.656 9.09412 79.592 9.02212 79.664V79.736C8.95012 79.808 8.95012 79.808 8.95012 79.88C8.95012 79.952 8.95012 80.024 8.87812 80.024H8.51812L6.43012 82.04L6.14212 81.896C5.92612 81.896 5.49412 82.184 4.84612 82.76C4.19812 83.336 3.62212 83.624 3.26212 83.624C3.04612 83.624 2.90212 83.552 2.83012 83.48L2.97412 83.336V82.904C2.97412 82.832 2.83012 82.832 2.75812 82.904H2.68612C2.25412 82.904 2.83012 82.328 2.83012 82.112V81.896C2.68612 81.392 3.04612 81.536 3.04612 81.032C3.04612 80.96 2.97412 80.672 2.97412 80.6C2.97412 80.384 3.47812 79.952 3.47812 79.88C3.69412 79.376 4.63012 77.72 6.35812 74.768C6.35812 74.552 6.07012 74.408 6.07012 74.12C6.07012 74.048 6.79012 73.112 6.86212 72.824C6.93412 72.536 7.65412 72.176 7.72612 71.816L8.01412 71.528C8.08612 71.456 8.08612 71.456 8.08612 71.384V70.736L8.15812 70.664C8.80612 70.016 10.0301 68 10.8941 67.208C10.8941 66.92 11.5421 66.272 11.5421 65.984C11.4701 65.984 11.4701 65.912 11.4701 65.768C11.5421 65.624 11.9741 65.12 12.7661 64.328L12.8381 64.256V63.824L13.3421 63.32C13.9181 62.744 14.6381 61.808 14.6381 61.16C14.6381 61.088 14.6381 61.088 14.7101 61.016C15.2141 61.016 15.5021 60.944 15.5021 60.8V60.368C15.8621 60.224 16.4381 59.72 17.0861 58.856C17.1581 58.784 17.1581 58.712 17.1581 58.496C17.3741 58.352 17.5181 58.136 17.5901 57.848C17.3021 57.56 17.5181 57.56 17.6621 57.56L17.8061 57.632C18.3821 57.632 19.6061 55.976 19.6061 55.4C19.8221 55.256 19.9661 55.04 20.0381 54.752C20.3261 54.536 20.7581 54.032 20.9741 53.744C21.3341 52.736 21.6941 52.232 22.0541 52.232H22.5581L22.7021 51.944L22.9181 51.44L23.0621 51.152C24.2141 50.504 24.8621 49.928 25.0061 49.496C24.9341 48.92 25.9421 47.696 26.5901 47.192L27.0221 47.048V46.832L26.7341 46.688C26.6621 46.688 26.6621 46.616 26.6621 46.544C26.6621 46.472 26.7341 46.184 26.8061 45.896C26.8781 45.896 26.8781 46.256 26.9501 46.256C27.2381 46.256 27.3101 46.472 27.5261 46.472C27.7421 46.4 28.1021 45.464 28.7501 45.104C28.9661 45.032 29.3261 44.6 29.9741 43.808C30.6221 43.016 30.9821 42.656 31.0541 42.584L31.9901 41.576C32.4221 41.144 32.7821 40.712 32.9981 40.28L33.5021 39.704L36.0221 37.112L36.7421 36.32C36.8141 36.32 36.8861 36.32 36.9581 36.392H37.0301ZM38.6141 36.32V36.392V36.32ZM31.5581 40.352V40.424V40.352ZM82.5341 41.576C82.3181 41.576 82.3181 41.432 82.6061 41.432C82.6061 41.504 82.6061 41.576 82.5341 41.576ZM36.8861 42.728V42.8V42.728ZM27.0941 45.176L27.0221 45.248V45.176H27.0941ZM76.5581 49.136C76.4861 49.064 76.4861 48.992 76.7021 48.992C76.7741 48.992 76.7741 48.992 76.7741 49.064C76.7741 49.208 76.7741 49.28 76.7021 49.28C76.6301 49.28 76.5581 49.208 76.5581 49.136ZM32.8541 49.136H32.9261C32.9261 49.208 32.9261 49.208 32.8541 49.28V49.136ZM77.9981 49.424C77.9981 49.856 77.4941 50.576 77.4941 50.072C77.6381 49.712 77.7821 49.496 77.9981 49.424ZM75.6941 50H75.7661V50.072L75.6941 50ZM13.5581 62.168H13.6301H13.5581ZM19.5341 69.512H19.6781V69.656H19.4621L19.5341 69.512ZM1.67812 79.736C1.67812 79.52 1.82212 79.448 2.18212 79.448H2.32612V79.52C2.03812 79.664 1.82212 79.736 1.67812 79.736ZM6.21412 82.328H6.35812L6.21412 82.4V82.328Z" fill="#7789AE"/>
<path d="M111.109 54.68C111.181 54.608 111.325 54.536 111.541 54.536C111.541 54.752 111.469 54.824 111.253 54.824C111.181 54.824 111.109 54.752 111.109 54.68ZM111.613 54.248C111.613 54.032 111.829 53.888 112.189 53.888C112.405 53.888 112.549 53.96 112.549 54.104C112.549 54.176 112.549 54.248 112.477 54.248L111.973 54.464C111.973 54.536 111.973 54.536 111.901 54.536C111.685 54.536 111.613 54.464 111.613 54.248ZM111.973 52.88C111.973 52.736 112.189 52.664 112.693 52.664C112.765 52.664 112.765 52.736 112.765 52.88V53.024C112.549 53.024 112.333 53.24 112.261 53.24C112.045 53.24 111.973 53.096 111.973 52.88ZM113.269 51.584C113.269 51.44 113.413 51.368 113.773 51.368C113.845 51.368 113.917 51.44 113.917 51.512V51.584L113.701 51.728H113.629C113.413 51.728 113.269 51.656 113.269 51.584ZM114.133 50.36C114.205 50.36 114.277 50.432 114.277 50.504C114.277 50.576 114.205 50.648 114.061 50.792C114.061 50.576 113.773 50.576 113.773 50.792C113.629 50.792 113.557 50.72 113.557 50.504C113.629 50.576 113.701 50.576 113.773 50.576L113.917 50.36L113.989 50.432L114.061 50.36H114.133ZM115.645 48.488C115.645 48.272 116.221 48.272 116.221 48.56C116.221 48.632 116.149 48.704 116.077 48.704C115.789 48.704 115.645 48.632 115.645 48.488ZM116.941 45.968C116.653 45.968 115.573 47.12 115.357 47.48L113.773 49.064C113.773 49.136 113.773 49.208 113.845 49.28C113.773 49.424 113.485 49.856 112.909 50.504C112.333 51.152 112.045 51.656 112.045 52.088H112.117C112.045 52.376 110.461 53.672 110.461 54.536L110.533 54.68C110.533 54.68 110.533 54.68 110.533 54.752L110.029 55.4L109.957 56.12C109.885 56.336 109.309 56.768 109.309 56.84L109.381 56.984C109.597 57.2 109.237 57.2 109.237 57.488V58.136C109.237 58.352 108.949 58.784 108.949 58.856C109.237 59.504 109.453 59.648 109.741 60.08H110.173C110.173 60.224 110.173 60.296 110.245 60.296V60.368C110.461 60.368 110.461 60.08 110.677 60.08C110.821 60.08 110.965 60.152 111.037 60.368H111.109C111.469 60.368 111.829 59.792 111.829 59.432C111.829 59.144 110.893 59.288 110.893 59C110.893 58.928 111.109 58.784 111.109 58.712V57.992V57.632C111.109 57.56 111.037 57.488 110.965 57.416C111.037 57.2 111.397 57.056 111.469 56.84V56.696C111.469 56.48 111.325 56.336 111.325 56.12C111.325 56.048 111.973 55.832 111.973 55.616C111.973 55.544 111.901 55.544 111.829 55.472L111.757 55.4V55.328C112.333 54.896 112.981 54.104 113.629 52.88C114.349 51.656 114.853 50.864 115.213 50.504L115.789 49.928C115.861 49.856 115.933 49.712 116.149 49.568C115.933 49.28 116.437 48.488 116.797 48.488V48.416H116.581V48.344L117.517 47.48L118.237 46.76C118.813 46.832 119.749 45.824 119.749 45.248C119.749 44.672 119.245 44.024 118.669 44.024C118.597 44.024 118.021 44.528 116.941 45.536V45.968ZM118.885 24.512C118.237 24.512 118.309 25.376 118.669 25.952L118.957 26.384C118.957 26.816 119.245 27.032 119.749 27.032V26.96H119.965C120.469 26.96 121.045 28.184 121.261 28.184C121.477 28.184 122.341 27.464 122.341 27.176V27.104C121.981 26.6 121.189 26.024 121.045 25.448C120.613 25.232 120.469 25.376 120.325 24.872L118.885 24.512ZM120.325 25.88C120.109 25.88 120.037 25.808 120.037 25.736C120.253 25.736 120.325 25.808 120.325 25.88ZM117.013 46.832V46.76H117.157C117.157 46.832 117.085 46.832 117.013 46.832ZM116.437 47.12H116.293C116.293 47.048 116.365 46.976 116.437 46.976V47.12ZM116.797 47.336C116.797 47.48 116.797 47.552 116.725 47.624C116.509 47.624 116.509 47.336 116.797 47.336ZM116.941 48.272L116.869 48.344C116.869 48.416 116.869 48.416 116.941 48.416L117.013 48.344L116.941 48.272ZM114.565 48.992V49.064V48.992ZM115.357 49.208C115.285 49.208 115.285 49.064 115.357 49.064V49.208ZM114.421 49.28H114.349C114.421 49.208 114.421 49.208 114.421 49.136V49.28ZM115.069 49.352C114.925 49.208 115.285 49.28 115.285 49.352C115.285 49.424 115.213 49.496 115.141 49.496C115.069 49.424 115.069 49.424 115.069 49.352ZM114.421 49.712C114.277 49.712 114.205 49.64 114.205 49.568L114.349 49.352L114.421 49.712ZM115.717 49.496C115.717 49.568 115.717 49.712 115.645 49.784C115.573 49.784 115.501 49.712 115.717 49.496ZM114.061 50.144L113.989 50.216V50.144H114.061ZM112.693 52.448C112.693 52.232 112.837 52.232 112.837 52.448C112.837 52.52 112.837 52.52 112.765 52.52L112.693 52.448ZM113.629 52.376V52.448V52.376ZM110.533 57.704C110.461 57.704 110.389 57.632 110.389 57.488C110.461 57.488 110.533 57.56 110.533 57.704Z" fill="#7789AE"/>
<path d="M126.686 43.88C126.686 43.808 126.758 43.808 126.902 43.808C126.974 43.808 127.046 44.024 127.118 44.096C127.046 44.168 126.974 44.168 126.902 44.168C126.758 44.168 126.686 44.096 126.686 43.88ZM137.486 35.6C137.558 35.528 137.63 35.528 137.702 35.528H137.918V35.6L137.846 35.672C137.846 35.744 137.558 35.816 137.486 35.6ZM141.806 42.008C141.734 42.008 141.662 41.72 141.95 41.72L142.022 41.792C142.022 41.936 141.95 42.008 141.806 42.008ZM119.054 60.296C119.126 60.224 119.414 60.224 119.486 60.296C119.27 60.512 119.054 60.512 119.054 60.296ZM121.934 48.848C121.934 48.776 122.006 48.776 122.222 48.704L122.366 48.776L122.51 48.848C122.366 48.992 122.222 49.064 122.078 49.064C122.006 49.064 121.934 48.992 121.934 48.848ZM122.366 50.792C122.222 50.792 122.15 50.72 122.15 50.648C122.438 50.648 122.582 50.648 122.582 50.72V50.792H122.366ZM125.966 45.392C125.966 44.888 126.542 44.96 126.542 45.176C126.542 45.392 126.398 45.536 126.11 45.536C126.038 45.536 125.966 45.464 125.966 45.392ZM123.806 65.552C123.806 65.336 124.022 65.192 124.382 65.192C124.454 65.192 124.526 65.264 124.526 65.336C124.526 65.552 124.31 65.696 123.95 65.696H123.806V65.552ZM139.79 32.504C139.286 32.864 138.422 33.296 137.27 33.8C136.838 34.16 136.478 34.376 136.262 34.52H136.478C136.55 34.52 136.622 34.808 136.334 34.808V34.736H136.19C135.902 34.808 134.75 35.6 132.734 37.256C130.718 38.912 129.638 39.848 129.494 40.136L125.462 44.168C124.31 45.32 123.59 46.184 123.59 46.472H123.662C123.662 46.544 123.662 46.544 123.734 46.544L122.582 47.696C122.582 47.912 122.582 47.984 122.51 48.056C122.294 48.128 121.43 48.92 121.43 48.992V49.064L121.502 49.136C121.43 49.208 121.43 49.208 121.43 49.28C121.358 49.352 121.286 49.424 121.07 49.496L119.342 52.376C119.27 52.88 118.334 53.168 118.766 53.24V53.312C118.766 53.384 118.478 54.176 118.478 54.392C118.118 54.608 117.974 55.04 117.974 55.616V55.76L118.046 55.832C118.046 56.048 117.614 56.408 117.614 56.696C117.614 56.696 117.614 56.768 117.686 56.84C117.758 57.128 117.47 57.992 117.47 58.208C117.47 58.424 117.542 58.568 117.614 58.784L117.686 58.856C117.686 59.072 117.326 59.432 117.326 59.504C117.326 59.72 117.758 60.152 117.758 60.44V61.16V61.448C117.686 61.448 117.686 61.52 117.686 61.592C117.686 61.808 117.758 61.88 117.974 61.88C117.974 61.808 118.046 61.808 118.19 61.808L118.262 61.88C118.262 61.952 118.262 61.952 118.19 61.952L118.046 62.024C118.046 62.456 118.478 63.032 119.342 63.824C120.206 64.616 120.854 65.048 121.358 65.192C121.718 65.408 123.446 66.056 124.238 66.272L125.174 66.344H128.414C128.486 66.344 128.99 65.984 129.278 65.984H130.574C130.862 65.984 131.366 65.552 131.87 65.552C137.054 63.752 140.51 62.24 142.166 61.088C143.534 60.152 144.614 59.576 145.262 59.288L147.566 57.776C148.79 56.912 149.726 56.192 150.302 55.688L150.878 55.112C150.95 55.04 151.022 55.04 151.238 55.04H151.67C151.886 55.04 152.102 54.104 152.462 53.888C152.534 53.816 153.11 52.952 153.11 52.88V52.808L152.678 52.592H152.606L151.886 53.24L149.366 55.328C148.862 55.688 147.998 56.192 146.918 56.84L144.686 58.208C142.598 59.72 141.518 60.44 141.446 60.44C137.342 62.528 134.318 63.752 132.518 63.968C129.998 64.256 128.486 64.472 127.91 64.688H126.902C126.83 64.688 126.758 64.688 126.686 64.76C125.894 64.688 124.814 64.328 123.518 63.824C122.294 63.32 121.43 62.888 120.998 62.384L120.134 61.088C120.134 61.016 120.422 60.944 120.422 60.728C120.422 60.656 120.35 60.584 120.206 60.512V60.44C120.134 60.44 120.134 60.512 120.062 60.584V60.656L119.558 60.44C119.774 60.368 119.918 60.296 119.99 60.296L120.062 60.44H120.134C120.134 60.224 120.206 59.864 120.206 59.792C120.206 59.432 119.918 58.784 119.918 58.496V58.424C120.134 58.352 120.278 58.136 120.278 57.848C120.278 57.776 119.918 57.416 119.918 57.128C119.918 56.84 120.638 56.984 120.638 56.768C120.638 56.696 120.566 56.696 120.494 56.624L120.422 56.552C120.422 56.48 120.494 56.408 120.566 56.336V55.904L120.638 55.76L120.494 55.616C120.494 55.544 120.566 55.472 120.638 55.4C120.71 55.328 120.782 55.184 120.782 55.112C120.71 54.968 120.71 54.896 120.71 54.824C120.71 54.608 121.07 54.608 121.07 54.536C121.07 54.248 120.566 54.248 120.566 54.176C120.638 54.104 121.142 53.96 121.142 53.744C121.142 53.672 120.926 53.312 120.926 53.096L121.07 53.024H121.502C121.718 53.024 122.078 51.656 122.15 51.584C122.294 51.584 122.438 51.512 122.582 51.368C122.87 50.864 123.014 50.504 123.086 50.144C123.302 49.928 123.878 48.992 124.166 48.704V48.416C124.166 48.056 125.534 47.336 125.534 47.12L125.318 47.048C125.39 46.832 125.822 46.4 126.614 45.752C127.406 45.104 127.838 44.6 127.838 44.312C127.766 44.24 127.766 44.168 127.766 44.096C127.766 44.024 128.198 43.952 128.198 43.736C128.198 43.52 127.694 43.16 127.694 42.872C127.694 42.656 128.126 42.728 128.126 42.8V43.304C128.126 43.376 128.198 43.376 128.27 43.376C128.63 43.376 128.99 43.088 129.35 42.584C129.35 42.152 129.494 41.936 129.782 41.936C130.07 41.936 130.142 42.224 130.43 41.936L130.502 41.576C130.718 41.36 131.438 41 131.654 40.712C131.654 40.496 131.726 40.352 131.798 40.28C132.086 40.136 132.374 40.064 132.662 39.992L132.59 39.848C132.518 39.848 132.518 39.848 132.518 39.776C132.518 39.56 132.734 39.488 133.238 39.488C133.454 39.416 134.606 38.408 134.606 38.336V38.264C134.534 38.192 134.462 38.12 134.462 38.048H134.534C134.606 38.048 134.678 38.192 134.894 38.12L136.838 36.824L136.982 36.68H137.342C137.558 36.68 138.422 35.672 138.638 35.672H139.142L140.078 35.096C140.726 34.664 141.23 34.448 141.446 34.448C141.518 34.448 141.734 34.52 141.95 34.52L142.022 34.448L142.094 34.376H142.382L142.526 34.52C142.598 34.592 142.598 34.664 142.598 34.736C142.67 34.736 142.67 34.736 142.742 34.664L142.814 34.52H142.958C143.318 34.52 143.894 35.024 143.894 35.384V35.6C143.894 35.672 144.11 35.888 144.11 36.104C144.11 37.256 142.67 39.056 142.238 39.92C142.094 40.064 141.518 40.208 141.518 40.352L141.59 40.568L140.51 41.36C139.862 41.792 139.502 42.008 139.358 42.008C139.142 42.008 138.926 41.72 138.854 41.72C138.638 41.72 138.566 41.864 138.566 42.08C138.566 42.152 138.566 42.224 138.638 42.296L138.71 42.368C138.71 42.584 138.494 42.728 138.494 42.8C138.566 42.8 138.71 42.656 138.782 42.656C139.43 42.656 138.494 43.16 138.494 43.376C138.494 43.592 138.566 43.664 138.782 43.664H138.998L139.358 44.096C139.574 44.384 139.79 44.528 140.006 44.528C140.222 44.528 140.294 43.88 140.582 43.88H141.518V43.736C141.446 43.736 141.374 43.664 141.374 43.592L141.518 43.52C141.806 43.448 141.734 43.304 141.662 43.232V43.16C141.662 43.088 142.454 42.872 142.454 42.584C142.454 42.512 142.454 42.512 142.382 42.44V42.296C142.382 42.08 142.958 41.36 144.182 39.992C145.406 38.624 145.982 37.832 145.982 37.544V37.184C145.982 37.112 146.846 36.176 146.846 35.816C146.846 35.6 146.774 35.24 146.774 35.024C146.414 34.448 145.766 33.296 145.262 32.792C144.614 32.792 143.966 32.504 143.39 31.928H143.102C142.814 31.928 142.166 31.856 141.878 31.856C141.374 31.856 140.366 32.576 139.79 32.504ZM135.326 36.68V36.752V36.68ZM132.086 39.056V38.984C132.158 38.984 132.158 38.984 132.158 39.056L132.086 39.128V39.056ZM127.694 43.88V43.952V43.88ZM126.974 44.384H127.046H126.974ZM124.67 46.904C124.67 46.976 124.742 47.048 124.814 47.048C124.814 46.976 124.742 46.904 124.67 46.904ZM123.374 48.632H123.518L123.374 48.776C123.158 48.776 123.158 48.632 123.374 48.632ZM121.214 52.016C121.142 52.016 121.07 51.944 121.07 51.872H121.286L121.214 52.016ZM120.062 53.312V53.24H120.134C120.134 53.312 120.134 53.312 120.062 53.312ZM120.566 53.384C120.494 53.384 120.422 53.312 120.35 53.24C120.494 53.24 120.566 53.312 120.566 53.384ZM119.63 54.824L119.558 54.968C119.486 54.968 119.486 54.896 119.486 54.824H119.63ZM118.046 56.552L118.118 56.48L118.262 56.552L118.19 56.624L118.118 56.552H118.046Z" fill="#7789AE"/>
<path d="M163.003 47.336C163.075 47.264 163.147 47.264 163.219 47.264L163.507 46.976C163.507 47.048 163.435 47.192 163.435 47.264C163.435 47.408 163.507 47.48 163.651 47.48C163.435 47.48 163.075 47.336 163.003 47.336C162.859 47.336 162.787 47.336 162.787 47.408L162.283 47.84L162.067 48.056L161.995 48.2L162.067 48.272V48.344C161.779 48.344 161.203 49.208 161.203 48.776H161.059C160.987 48.776 160.915 48.776 160.843 48.848L160.627 48.2C160.339 47.408 159.619 46.472 158.827 46.472C158.755 46.472 158.467 46.544 158.251 46.544C158.179 46.616 157.459 46.76 157.387 46.76C156.307 47.264 155.227 48.2 154.003 49.568C154.003 50 152.707 50.432 152.923 50.648L152.995 50.72C152.203 50.216 150.547 53.384 150.259 53.672C150.259 53.96 150.043 54.464 150.043 54.68C150.043 54.824 150.043 54.896 150.115 54.896C150.115 54.968 150.259 55.616 150.331 55.832C150.259 55.904 150.187 55.976 150.187 56.192C150.259 56.408 150.475 57.128 150.691 57.416C150.763 57.488 151.771 57.92 151.843 58.136C152.059 58.136 152.491 58.424 152.707 58.424C152.995 58.28 153.283 58.28 153.427 58.424L153.499 58.352L153.643 58.208L153.787 58.28C154.075 58.352 154.435 57.704 154.651 57.704H154.795L154.867 57.776C155.083 57.776 155.227 57.776 155.299 57.704C155.371 57.704 155.371 57.416 155.443 57.416L155.587 57.56C155.731 57.56 156.091 57.2 156.739 56.552C157.387 55.832 157.819 55.472 158.035 55.472C158.107 55.4 158.251 55.328 158.323 55.328L158.467 55.4C158.683 55.616 158.827 55.256 159.331 55.256C159.331 55.328 159.331 55.328 159.259 55.4C159.043 55.4 159.043 55.688 159.331 55.76C159.331 56.048 159.619 56.696 159.691 56.696C159.691 56.984 160.267 57.92 160.555 57.92H160.843C160.915 58.136 161.203 58.208 161.563 58.208L161.635 58.136H161.923C162.139 58.208 162.355 58.28 162.571 58.28C162.787 58.28 163.147 57.992 163.363 57.992C163.435 57.992 163.435 57.992 163.507 57.92L163.651 57.848C163.723 57.92 163.795 57.92 163.867 57.92C164.227 57.92 164.515 57.776 164.875 57.56V57.416C164.875 57.344 164.947 57.272 165.019 57.2C165.091 57.2 165.091 57.2 165.163 57.272H165.235C165.307 57.272 165.307 57.272 165.379 57.2C165.379 57.128 165.451 57.056 165.523 57.056L165.667 57.128C165.667 57.2 165.667 57.2 165.739 57.2C166.243 57.2 167.323 55.976 167.899 55.976C167.971 55.976 167.971 55.976 168.043 56.048L168.115 56.12C168.187 56.12 170.707 54.32 171.139 54.176C171.211 54.176 171.499 54.032 172.075 53.744C172.435 53.456 173.587 52.952 173.659 52.88C173.875 52.808 174.811 51.296 175.459 51.296C175.459 51.368 175.459 51.368 175.531 51.368C175.603 51.44 175.747 51.44 175.963 51.224C176.251 50.936 177.907 49.64 178.411 48.776C178.699 48.344 178.843 47.84 178.843 47.264C178.843 47.048 178.771 46.904 178.627 46.904L178.267 47.264L176.251 48.776L176.323 48.92V49.064V49.28C176.467 48.92 175.027 49.568 174.595 49.856C174.595 50.144 174.019 50.288 174.019 50.504C173.731 50.792 172.363 51.368 172.363 51.728C172.363 51.8 172.363 51.8 172.435 51.872V51.944C172.435 52.016 172.003 52.16 171.139 52.448C170.347 52.736 169.915 53.024 169.843 53.24C169.843 53.312 169.699 53.384 169.483 53.456H168.907C168.835 53.456 168.259 53.816 167.107 54.608C166.027 55.328 165.235 55.688 164.875 55.688H164.731L164.659 55.616C164.155 55.76 163.003 56.768 162.427 55.976H161.995C161.347 55.976 160.987 55.688 160.987 55.184C160.987 54.896 161.491 54.32 161.491 54.032V53.888L161.419 53.816C161.419 53.6 161.635 53.24 161.995 52.592L162.715 51.656C163.651 50.504 164.875 48.92 165.163 48.632V48.2C164.731 48.272 165.595 47.912 165.811 47.552C165.811 47.48 165.739 47.336 165.595 47.048H165.379C165.091 47.048 164.947 46.976 164.947 46.76H165.019L165.235 46.832C165.307 46.904 165.379 46.688 165.379 46.616C165.379 46.256 164.659 45.896 164.299 45.896C164.083 45.896 162.931 46.544 162.931 46.76V47.12C162.931 47.192 162.931 47.264 163.003 47.336ZM165.451 46.904V46.832V46.904ZM163.939 46.976C163.939 47.048 163.867 47.12 163.723 47.12C163.723 47.048 163.795 46.976 163.939 46.976ZM164.083 47.192L164.011 47.12L164.083 47.192ZM162.931 47.768V47.84V47.768ZM158.611 48.056C158.611 47.984 158.683 47.912 158.755 47.912C158.755 47.984 158.683 48.056 158.611 48.056ZM155.947 48.344C155.875 48.344 155.875 48.272 155.875 48.2C155.947 48.272 155.947 48.272 155.947 48.344ZM162.067 48.632C162.067 48.56 162.139 48.56 162.211 48.56C162.211 48.632 162.139 48.632 162.067 48.632ZM156.739 48.56V48.704V48.56ZM158.539 48.704H158.755C158.899 48.848 158.971 49.208 159.547 49.208L159.691 49.064H159.907C160.123 49.064 160.627 49.28 160.699 49.28L160.843 49.208L160.771 49.352V49.496H161.203C160.987 49.568 160.915 49.712 160.915 49.856C160.915 49.928 160.987 49.928 160.987 50C161.059 50.504 159.835 51.008 160.051 51.44L159.475 52.232C159.475 52.304 159.403 52.376 159.331 52.448L159.475 52.592L159.331 52.664C159.043 52.736 159.043 53.024 159.259 53.096L157.315 54.104L157.027 54.176C156.523 54.248 156.163 54.392 156.163 54.608L156.235 54.752C156.235 55.184 155.587 55.616 154.219 55.976C154.147 56.192 153.427 56.192 153.355 56.264H153.139C152.851 56.264 152.563 56.12 152.347 55.832C152.419 55.76 152.491 55.616 152.491 55.544L152.419 55.472C152.203 55.256 152.563 55.256 152.563 54.968C152.635 55.04 152.779 55.04 152.851 54.896L152.707 54.968C152.707 54.968 152.707 54.968 152.635 54.968C152.419 54.968 152.347 54.896 152.347 54.752C152.347 54.68 152.419 54.68 152.491 54.608L152.635 54.536C152.635 54.464 152.563 54.464 152.491 54.392H152.347C152.419 54.32 152.563 54.248 152.635 54.248C152.707 54.248 152.707 54.32 152.707 54.392V54.32C152.779 54.248 152.851 54.248 152.923 54.248H153.067L153.139 54.32L153.715 53.168L153.787 53.024C153.787 53.096 153.787 53.168 153.859 53.168C154.075 53.168 155.011 52.16 155.011 51.872C154.939 51.872 154.939 51.872 154.867 51.8C154.867 51.728 154.939 51.584 154.939 51.512C155.299 51.368 155.803 50.864 156.523 50.072C157.315 49.28 157.819 48.776 158.107 48.704H158.539ZM161.707 49.352C161.707 49.28 161.563 48.992 161.563 48.92C161.707 48.92 161.779 48.992 161.779 49.136C161.779 49.208 161.779 49.28 161.707 49.352ZM162.067 48.992V49.064H161.995L162.067 48.992ZM162.211 49.208C162.211 49.064 162.283 48.992 162.355 48.992C162.355 49.136 162.283 49.208 162.211 49.208ZM160.843 49.208C160.843 49.136 160.915 49.136 160.987 49.136C160.987 49.208 160.915 49.208 160.843 49.208ZM163.435 49.136H163.363H163.435ZM155.731 49.352C155.731 49.208 155.803 49.136 155.875 49.136V49.28C155.875 49.352 155.803 49.352 155.731 49.352ZM155.443 49.208C155.731 49.208 155.731 49.496 155.515 49.496C155.443 49.496 155.443 49.424 155.443 49.208ZM163.867 49.352V49.424V49.352ZM161.131 49.928C161.131 49.856 161.635 49.424 161.707 49.424C161.635 49.496 161.635 49.568 161.635 49.64C161.563 49.712 161.563 49.712 161.635 49.784C161.707 49.856 161.707 49.856 161.707 49.928L161.275 50.36C161.203 50.36 161.203 50.36 161.203 50.288L161.275 50.216C161.347 50.144 161.347 50.144 161.347 50.072C161.275 50.072 161.203 50 161.131 49.928ZM157.099 49.496V49.64C157.027 49.64 156.955 49.568 156.955 49.496H157.099ZM176.107 49.568V49.64V49.568ZM175.891 50.36C175.603 50.288 175.459 50.072 175.459 49.712L175.891 49.928V50.072V50.36ZM154.939 49.784V49.856V49.784ZM175.099 50.648C175.099 50.576 175.171 50.504 175.315 50.504C175.387 50.504 175.387 50.576 175.387 50.648H175.099ZM155.803 50.504V50.576V50.504ZM160.987 50.504H161.059H160.987ZM174.955 50.648C174.955 50.72 174.955 50.72 175.027 50.72H174.955V50.648ZM160.411 51.008H160.483V51.152H160.411V51.008ZM173.299 51.296C173.371 51.296 173.443 51.368 173.443 51.44C173.371 51.44 173.299 51.368 173.299 51.296ZM153.643 51.584V51.656H153.571L153.643 51.584ZM162.499 51.728C162.427 51.728 162.355 51.728 162.355 51.656H162.571C162.571 51.728 162.571 51.728 162.499 51.728ZM160.195 51.944C160.123 51.944 160.123 51.872 160.123 51.728H160.411L160.195 51.944ZM154.579 52.088V52.16V52.088ZM160.195 52.16V52.232V52.16ZM154.075 52.448H154.147H154.075ZM171.427 52.736V52.808V52.736ZM172.723 52.952C172.723 53.024 172.435 53.096 172.435 52.808C172.651 52.808 172.723 52.88 172.723 52.952ZM153.931 52.952C153.931 52.88 154.003 52.88 154.147 52.88C154.147 52.952 154.075 52.952 153.931 52.952ZM159.475 52.808V52.88V52.808ZM159.619 53.024H159.547H159.619ZM153.571 53.096V53.168V53.096ZM159.619 53.096H159.691V53.168L159.619 53.096ZM160.555 53.096V53.168V53.096ZM160.915 53.096V53.168V53.096ZM159.979 53.312V53.384V53.312ZM169.987 53.96C169.915 53.96 169.915 53.96 169.915 53.888L169.987 53.96ZM158.539 54.032C158.467 54.032 158.395 53.96 158.395 53.888C158.467 53.888 158.539 53.96 158.539 54.032ZM170.203 53.888V53.96V53.888ZM170.275 53.96V54.032V53.96ZM158.683 54.248C158.683 54.176 158.971 54.104 158.971 54.392C158.755 54.392 158.683 54.32 158.683 54.248ZM169.627 54.32C169.411 54.32 169.339 54.248 169.339 54.176H169.411C169.483 54.248 169.699 54.248 169.771 54.176V54.248C169.771 54.32 169.699 54.32 169.627 54.32ZM159.187 54.176C159.259 54.176 159.259 54.176 159.331 54.248C159.331 54.32 159.331 54.32 159.259 54.392C159.187 54.392 159.187 54.392 159.187 54.32V54.176ZM156.955 54.896C156.811 54.896 156.739 54.824 156.811 54.608C156.883 54.608 156.955 54.68 156.955 54.752V54.896ZM168.259 54.752C168.259 54.68 168.331 54.68 168.403 54.68C168.475 54.68 168.547 54.752 168.619 54.968L168.763 55.184C168.403 55.04 168.259 54.896 168.259 54.752ZM151.771 54.68C151.771 54.824 151.843 54.896 151.915 54.896C151.987 54.896 151.987 54.896 152.059 54.824L152.203 55.112C152.203 55.184 151.987 55.4 152.059 55.472C151.987 55.472 151.555 55.184 151.555 54.968L151.771 54.68ZM157.243 54.68H157.315H157.243ZM156.451 55.184H156.523H156.451ZM160.699 55.256C160.699 55.328 160.555 55.328 160.555 55.256H160.699ZM151.483 55.328V55.472V55.4V55.328ZM159.331 55.472C159.403 55.472 159.403 55.472 159.403 55.4L159.475 55.472L159.403 55.544L159.331 55.472ZM157.027 55.688H157.099V55.76H157.027V55.688ZM165.523 55.904V55.976V55.904ZM154.363 56.552V56.624V56.552ZM159.835 56.624H159.691H159.835ZM153.427 56.624V56.696V56.624ZM159.907 56.84V56.912V56.84ZM151.267 57.056H151.339C151.267 57.128 151.267 57.128 151.267 57.2V57.056ZM164.443 57.2V57.272V57.2ZM152.995 57.272V57.344V57.272ZM151.771 57.416V57.488V57.416ZM152.203 57.344V57.416V57.344ZM152.995 57.56C153.067 57.488 153.067 57.488 153.139 57.488V57.704C153.067 57.704 152.995 57.632 152.995 57.56Z" fill="#7789AE"/>
<path d="M179.174 53.168C179.174 53.096 179.174 53.024 179.246 53.024C179.318 53.024 179.39 53.096 179.39 53.24L179.318 53.312C179.246 53.384 179.174 53.312 179.174 53.168ZM180.614 51.656C180.614 51.44 180.686 51.368 180.83 51.368C180.902 51.368 180.974 51.44 181.046 51.512C180.974 51.656 180.902 51.728 180.758 51.728L180.686 51.656H180.614ZM181.262 46.472C182.054 45.608 182.99 45.032 183.926 44.744C183.998 44.744 184.142 44.384 184.214 44.384H184.718C184.934 44.384 185.438 43.592 185.942 43.592C186.086 43.592 186.158 43.664 186.158 43.736C186.086 43.808 186.014 43.88 185.798 43.952C185.726 43.952 185.726 43.952 185.654 43.88H185.582C185.294 43.88 185.798 44.24 185.798 44.528C185.798 44.672 185.51 44.888 185.006 45.104C184.934 45.248 184.934 45.536 184.934 45.896C184.718 46.4 183.926 46.688 183.926 47.336C183.854 47.264 183.71 47.336 183.638 47.552C183.638 47.624 183.638 47.696 183.566 47.696L183.494 47.624H183.422C183.35 47.624 183.35 47.624 183.35 47.696L183.278 48.416C182.99 48.848 182.414 49.352 181.622 49.928C181.334 50.216 179.174 52.52 177.518 54.032C176.006 55.544 176.15 55.256 175.862 55.04C175.286 54.68 176.078 54.536 176.078 53.888V53.744L176.006 53.672C176.222 53.456 176.294 53.168 176.15 52.952C176.15 52.592 177.302 51.152 177.662 50.936V50.648C177.734 50.576 178.238 50.144 179.102 49.208C179.966 48.272 180.398 47.696 180.398 47.552L180.326 47.48C179.894 47.408 180.758 46.832 181.262 46.472ZM181.478 51.152C181.19 51.152 181.262 50.72 181.334 50.72C181.478 50.72 181.55 50.792 181.55 51.008L181.478 51.152ZM182.198 43.736C182.198 43.664 182.27 43.664 182.414 43.664L182.558 43.736C182.558 43.88 182.486 43.952 182.414 43.952C182.27 43.952 182.198 43.88 182.198 43.736ZM183.638 43.016C183.71 43.016 183.71 43.016 183.71 42.944L183.782 42.8H184.142C184.214 42.8 184.214 42.872 184.214 43.088C184.142 43.16 184.07 43.16 183.926 43.16L183.638 43.232C183.422 43.232 183.35 43.16 183.35 43.016L183.422 42.872C183.494 42.872 183.566 42.944 183.638 43.016ZM183.782 47.768H183.854C183.926 47.768 183.998 47.84 183.998 47.912C183.998 48.272 183.71 48.2 183.71 48.128V47.984L183.782 47.768ZM184.43 42.368C184.43 42.296 184.574 42.224 184.862 42.224C184.862 42.512 184.79 42.656 184.718 42.656H184.646L184.43 42.44V42.368ZM184.934 43.52C184.934 43.304 185.006 43.232 185.078 43.232C185.366 43.232 185.366 43.664 185.006 43.664C184.934 43.664 184.934 43.592 184.934 43.52ZM185.582 42.296C185.582 42.224 185.654 42.152 185.726 42.152L185.87 42.296V42.512L185.798 42.584L185.87 42.728C185.942 42.8 185.942 42.8 185.942 42.872C185.726 42.872 185.654 42.8 185.654 42.656C185.654 42.584 185.798 42.512 185.654 42.368L185.582 42.296ZM186.446 44.384C186.446 44.168 186.59 44.096 186.806 44.096H186.878C186.878 44.168 186.95 44.312 187.022 44.384C186.806 44.6 186.662 44.672 186.59 44.672C186.518 44.6 186.446 44.528 186.446 44.384ZM182.414 42.944C182.126 43.592 179.174 45.464 179.318 45.968L179.39 46.184C179.39 46.112 179.39 46.112 179.39 46.112V46.256C179.39 46.328 179.39 46.4 179.318 46.472C179.318 46.4 179.246 46.4 179.174 46.4C178.67 46.4 178.238 46.76 177.806 47.552C177.374 48.344 176.942 48.704 176.51 48.704C176.438 48.704 176.366 48.776 176.366 48.848C176.366 48.92 176.582 48.992 176.582 49.064C176.798 49.424 175.718 49.928 175.718 50.144C175.718 50.36 175.862 50.576 176.078 50.72C176.006 50.936 174.998 50.864 174.998 51.152C174.998 51.224 175.07 51.368 175.07 51.44C175.07 51.944 173.99 53.312 173.99 53.888C173.99 54.032 174.062 54.104 174.206 54.176C174.062 54.608 172.91 55.472 173.774 55.544C174.134 55.76 174.134 55.76 173.774 55.976C173.63 56.048 173.558 56.192 173.558 56.264C173.558 56.336 173.558 56.336 173.63 56.408V56.552C173.63 56.768 173.414 57.128 173.414 57.2C173.414 57.272 173.486 57.416 173.558 57.488L173.702 57.416C173.774 57.416 173.846 57.704 173.846 58.352C173.846 58.424 174.782 58.856 174.782 59.072C174.782 59.144 174.782 59.144 174.71 59.216L174.638 59.288L174.71 59.432C174.926 59.648 175.358 60.08 176.15 60.656C176.942 61.232 177.374 61.52 177.59 61.52H178.094H178.382C178.742 61.52 179.894 61.88 180.398 61.88C180.47 61.88 180.686 61.664 180.758 61.664H180.974C181.046 61.664 181.406 61.736 181.478 61.736C181.766 61.736 182.342 61.52 182.63 61.52L182.702 61.592H182.846C183.35 61.592 184.43 60.944 184.934 60.944C185.006 60.944 185.222 61.016 185.294 61.016C185.51 61.016 186.158 60.584 186.158 60.512C186.086 60.512 186.086 60.44 186.086 60.296H186.014C186.014 60.152 186.086 60.008 186.158 59.936L186.374 60.152L186.302 60.296C186.302 60.296 186.302 60.296 186.302 60.368C186.302 60.584 186.446 60.656 186.734 60.656C186.95 60.656 188.174 59.792 188.75 59.72L189.11 59.36C189.47 59.36 190.838 58.496 191.198 58.496H191.27L191.486 58.568H191.558L192.278 58.136L192.206 57.992C192.206 57.992 192.206 57.992 192.206 57.92L192.35 57.848C192.71 57.848 193.286 57.632 194.078 57.128C194.87 56.624 195.302 56.336 195.302 56.192C195.806 56.048 196.454 55.76 197.318 55.256L198.038 54.896C198.11 54.896 198.542 54.32 198.83 54.104C198.974 53.96 198.758 53.528 199.19 53.528H199.262C199.334 53.6 199.406 53.6 199.478 53.6L200.27 53.168V52.808L200.414 52.736H201.062C201.206 52.736 201.278 52.664 201.278 52.52V52.376C201.278 52.232 201.062 52.016 201.422 51.872L201.566 51.8H202.07C202.214 51.8 202.286 51.584 202.286 51.224V51.08L201.638 50.72H201.566C201.206 50.72 200.99 51.008 200.99 51.656C200.99 51.8 200.846 51.872 200.63 51.872L200.486 51.8C200.414 51.728 200.342 51.728 200.27 51.728C200.054 51.728 199.406 52.16 198.254 52.952C197.102 53.744 196.31 54.248 195.878 54.32C195.878 54.68 194.582 55.472 192.062 56.552C189.542 57.632 187.814 58.352 186.806 58.712L186.374 58.928C186.23 58.928 185.942 58.496 185.942 59.072C185.942 59.144 186.014 59.144 186.086 59.144C185.798 59.144 185.006 59.648 184.79 59.648C184.718 59.648 184.502 59.504 184.43 59.504C184.214 59.504 183.926 60.008 183.71 60.008C183.638 60.008 183.35 59.864 183.278 59.864L182.846 60.008C182.774 59.936 182.702 59.936 182.63 59.936C182.558 59.936 182.558 59.936 182.486 60.008L182.414 60.08C182.198 60.08 181.91 59.936 181.694 59.936L181.478 60.008C181.334 60.08 181.262 60.08 181.19 60.08C181.118 60.152 181.046 60.152 180.902 60.152C180.686 60.152 180.398 60.08 180.11 60.08L180.038 60.008V60.08H179.03V60.368C179.03 60.44 178.958 60.44 178.886 60.44H178.814C178.454 60.224 178.166 59.936 178.022 59.576C177.95 59.36 176.366 58.784 176.294 58.424L176.006 57.632V57.56C176.006 57.056 176.078 56.84 176.222 56.84C176.438 56.84 176.798 57.056 176.87 57.056V56.984C176.87 56.408 177.878 55.832 178.094 55.616C178.094 55.4 178.166 55.184 178.238 55.112C178.598 55.04 179.462 54.392 180.758 53.24C182.126 52.088 182.774 51.368 182.702 51.08L182.99 50.864L182.918 50.72C182.918 50.648 183.206 50.432 183.782 50.144C184.142 49.856 184.286 49.352 184.358 48.704L184.862 48.128C185.15 48.128 185.798 47.48 185.798 47.12C185.798 47.048 185.798 47.048 185.726 46.976V46.904C185.726 46.616 187.166 45.968 187.094 45.32L187.742 44.744C187.67 44.456 188.03 44.24 188.03 44.024L187.958 43.88C187.958 43.664 188.174 43.376 188.174 43.16C188.174 42.872 187.67 42.44 187.67 42.152L187.742 42.008C187.742 41.432 187.166 41.144 186.014 41.144C185.438 41.144 184.214 41.72 182.414 42.944ZM184.934 42.152L184.862 42.224V42.152H184.934ZM183.206 44.6C183.134 44.6 183.134 44.528 183.134 44.456C183.206 44.456 183.206 44.528 183.206 44.6ZM186.086 45.248C186.158 45.248 186.23 45.32 186.23 45.464C186.158 45.464 186.086 45.392 186.086 45.248ZM179.102 47.264H179.03V47.192H179.102V47.264ZM178.814 47.624H178.742V47.552H178.814V47.624ZM178.094 48.128V48.2V48.128ZM178.094 48.848C178.094 48.704 178.166 48.632 178.238 48.632C178.31 48.632 178.31 48.776 178.238 48.776L178.094 48.848ZM174.35 54.536V54.608V54.536ZM175.07 55.256H175.142H175.07Z" fill="#7789AE"/>
<path d="M201.158 58.712C200.87 58.712 200.869 58.28 201.085 58.28C201.301 58.28 201.23 58.712 201.158 58.712ZM205.91 48.488L205.982 48.416C206.198 48.416 206.27 48.488 206.27 48.632C206.27 48.704 206.269 48.704 206.197 48.704H205.837C205.765 48.704 205.693 48.632 205.693 48.56L205.766 48.488H205.91ZM206.63 42.944C206.63 42.872 206.702 42.8 206.846 42.728C206.918 42.728 206.918 42.8 206.99 42.872C206.99 43.016 206.917 43.088 206.773 43.088L206.63 42.944ZM226.79 51.152C226.646 51.152 226.574 51.08 226.574 50.864C227.078 50.864 227.006 51.152 226.79 51.152ZM237.59 10.184C237.95 10.184 238.814 9.89601 239.102 9.89601C239.75 9.89601 240.182 10.112 240.542 10.472C240.542 10.688 240.469 10.904 240.469 10.976C240.469 11.12 240.47 11.192 240.542 11.192C240.614 11.48 240.686 11.624 240.686 11.696C240.686 11.912 240.182 12.416 240.182 12.488C240.182 12.56 240.326 12.848 240.326 13.064C240.326 13.136 239.822 13.352 239.822 13.64V13.712C239.822 13.784 239.821 13.856 239.893 14C239.893 14.216 239.534 14.216 239.534 14.288V14.72C239.03 14.936 238.381 15.872 238.453 16.376L237.374 17.888C236.726 18.824 236.438 19.4 236.438 19.472L236.365 19.544H236.005V19.976L235.79 20.264L234.854 21.128L234.493 21.776C234.349 21.92 232.693 23.792 232.693 23.864C232.693 23.936 232.549 24.08 232.333 24.296L232.262 24.44C232.118 24.8 230.462 25.952 230.462 26.312L230.533 26.384L230.605 26.456C230.605 26.528 229.958 27.104 228.734 28.184C227.51 29.264 226.861 29.912 226.861 30.056V30.2C226.933 30.272 226.934 30.272 226.934 30.344C226.934 30.416 226.862 30.488 226.79 30.488C226.43 30.56 225.565 31.28 224.27 32.648C222.974 34.016 222.325 34.664 222.253 34.664C222.037 34.88 221.534 35.24 220.742 35.816C219.95 36.32 219.517 36.824 219.445 37.184C218.797 37.616 218.366 37.904 218.654 38.192C218.438 38.264 218.006 38.48 217.43 38.912C217.142 38.984 216.206 39.632 216.206 39.92C216.206 39.992 216.638 40.136 216.206 40.136L216.061 40.064C215.341 40.064 214.118 41.72 213.686 42.152C213.182 42.152 212.533 43.304 212.029 43.232C211.813 43.52 211.31 44.024 210.374 44.816C209.51 45.608 209.006 45.968 208.79 45.968L208.717 45.896H208.501C208.285 45.896 207.637 46.4 206.557 47.48C205.477 48.488 204.829 48.992 204.613 48.992C204.541 48.92 204.469 48.92 204.469 48.848C204.469 48.344 205.406 47.408 205.406 47.192C205.406 47.12 205.262 46.904 205.262 46.688C205.262 46.4 205.766 45.752 205.766 45.392C205.766 45.32 205.549 45.032 205.549 44.96L205.622 44.888C205.694 44.888 205.981 45.032 206.053 45.032C206.125 45.032 206.197 44.888 206.197 44.6C206.485 44.384 207.061 43.304 207.421 43.088V42.656C208.573 41.504 209.15 40.64 209.15 39.992C209.15 39.92 209.005 39.776 209.005 39.704V39.632C209.293 39.632 209.438 39.344 209.438 39.056H209.798V38.984C209.798 38.696 209.438 38.696 209.654 38.48C210.014 38.264 210.878 36.968 211.238 36.896V36.608L211.309 36.536C211.597 36.392 211.742 36.176 211.742 35.888V35.744C211.742 35.384 212.893 34.448 212.893 34.232V33.944L213.038 33.872C213.11 33.8 213.182 33.8 213.182 33.728V33.44C213.182 33.368 213.469 33.296 213.469 33.224C213.469 32.864 213.973 32.576 214.189 32.216V32.144C214.189 32.072 214.117 31.928 214.117 31.856C214.117 31.64 215.27 31.208 215.27 30.92L215.197 30.776C215.197 30.776 215.197 30.776 215.197 30.704V30.632C215.557 30.416 216.565 28.904 216.493 28.544C216.709 28.544 216.853 28.472 216.997 28.256C216.997 27.896 217.429 27.608 217.357 27.248C217.573 26.96 218.438 26.744 218.51 26.528C219.446 24.872 220.165 24.08 220.525 24.08V24.008C220.453 23.936 220.454 23.864 220.454 23.792L220.525 23.72C220.597 23.648 220.669 23.648 220.669 23.576L220.598 23.36V23.288C220.598 23.072 220.669 22.928 220.885 22.856L221.029 22.928C221.101 23 221.173 23 221.245 23C221.389 23 221.462 22.928 221.462 22.712C221.534 22.064 222.902 21.632 222.902 21.128V20.912C222.902 20.84 223.118 20.552 223.118 20.48C223.118 20.336 223.045 20.264 222.973 20.192H223.046C223.118 20.192 223.406 20.48 223.622 20.48C223.838 20.48 223.837 19.904 224.053 19.904C224.125 19.904 224.27 19.976 224.342 19.976H224.413C224.701 19.976 224.846 19.688 224.846 19.184V18.968H225.133C225.421 18.536 228.229 16.088 228.229 15.872V15.368L228.301 15.296H228.59C228.878 14.936 230.678 13.928 230.678 13.784C230.678 13.568 230.605 13.568 230.389 13.568C230.317 13.496 230.245 13.496 230.245 13.424L230.318 13.352V13.28H230.389C230.605 13.28 230.966 13.496 231.182 13.496C231.326 13.496 231.685 13.208 232.333 12.704C232.981 12.2 233.413 11.912 233.557 11.84C234.421 11.624 236.581 10.4 237.445 10.184H237.59ZM223.837 18.392C223.837 18.32 223.91 18.32 223.982 18.32C224.126 18.32 224.197 18.392 224.197 18.536L224.126 18.608C223.91 18.608 223.837 18.536 223.837 18.392ZM230.173 27.608C229.885 27.608 229.885 27.32 230.173 27.32C230.389 27.32 230.389 27.608 230.173 27.608ZM239.893 8.74401C239.893 8.81601 239.894 8.81601 239.965 8.88801V8.96001L239.749 9.10401L239.605 9.03201L239.893 8.74401ZM237.518 8.09601C235.214 9.03201 233.702 9.68001 232.982 10.04H232.91C232.837 10.04 232.694 9.96801 232.622 9.89601C232.262 10.04 231.469 10.544 230.389 11.336C229.309 12.128 228.806 12.704 228.734 12.92C228.23 12.848 227.005 13.928 227.005 14.288L226.646 14.648C226.358 14.72 224.918 16.232 223.766 17.456C222.686 18.68 221.03 20.48 220.958 20.696C220.742 21.128 220.526 21.848 220.094 21.848L219.734 22.208C219.518 22.712 218.798 23.72 217.574 25.088C216.35 26.456 215.773 27.248 215.773 27.536V27.752C215.773 27.824 214.91 28.904 213.182 31.064C211.454 33.224 210.589 34.52 210.589 34.88C210.589 34.952 210.589 34.952 210.661 35.024L210.734 35.096C210.734 35.168 210.301 35.096 210.229 35.312C209.941 35.816 209.726 36.176 209.654 36.392C209.438 36.608 209.005 37.4 208.357 38.696C207.709 39.92 207.133 40.712 206.773 41.072L206.413 41.504C206.341 41.576 206.198 41.72 205.982 42.08V42.224L206.053 42.296C206.053 42.584 205.262 43.232 205.262 43.592V43.736C205.334 43.808 205.333 43.808 205.333 43.88C205.333 44.168 204.541 44.6 204.469 44.96C204.469 45.32 203.677 46.112 203.389 46.4C203.461 47.048 203.029 48.2 202.021 49.856C201.085 51.44 200.581 52.232 200.581 52.304V53.744C200.581 53.96 200.437 54.968 200.221 55.328C199.717 57.632 199.43 58.856 199.43 58.928C199.574 59.072 199.574 59.72 199.43 60.44C199.43 63.824 200.365 65.84 202.165 66.488C203.461 66.776 204.326 66.92 204.686 66.92C206.27 66.92 208.861 65.984 212.389 64.184C212.461 64.112 213.685 62.816 214.333 62.816C214.405 62.816 214.406 62.744 214.406 62.672C214.406 62.6 214.333 62.384 214.333 62.312C214.405 62.312 214.694 62.384 214.766 62.384L215.773 61.592C216.277 61.592 216.998 61.016 217.07 60.656C217.142 60.44 218.87 59.504 218.87 59.216C218.87 59 218.51 58.928 218.51 58.856L218.654 58.712C218.726 58.784 218.869 58.856 219.085 58.856C219.373 58.856 220.021 58.424 220.021 58.208V57.92C220.021 57.848 221.246 57.344 221.318 56.84C221.318 56.696 223.045 55.76 223.189 55.472C223.261 54.968 224.845 53.816 225.061 53.312C225.421 53.168 226.501 52.304 227.005 52.16C227.509 51.368 227.87 51.008 228.014 50.936L228.374 50.864V50.792C228.374 50.432 227.797 49.856 227.438 49.928C227.221 49.928 227.293 50.144 226.861 50.144C226.645 50.36 226.43 50.792 226.286 50.792L226.214 50.72C226.142 50.648 226.142 50.648 226.07 50.648C226.142 50.648 226.141 50.72 226.141 50.792C226.429 50.72 220.309 56.048 219.949 56.192C219.229 56.552 218.509 58.064 217.717 57.92C216.421 59 214.117 61.16 212.533 61.88C212.245 61.952 211.526 62.528 210.374 63.464C209.294 64.4 207.709 65.12 205.693 65.552H205.046C203.102 65.552 201.661 64.544 200.869 62.528C200.653 61.952 200.725 61.664 201.085 61.16C201.085 61.088 201.014 60.8 201.014 60.728C201.014 59.864 201.949 57.704 201.949 56.768C202.021 56.408 202.598 55.04 202.598 54.464H202.885C203.101 54.464 203.173 54.104 203.173 53.312C203.173 53.168 203.534 52.736 203.678 52.592C204.038 52.232 204.686 51.584 205.622 50.792C206.63 50 207.35 49.424 207.854 49.136C208.502 48.92 209.798 47.624 210.374 47.336L211.525 46.472C213.037 45.248 214.117 44.24 214.117 43.736C214.117 43.664 213.973 43.448 213.973 43.376C213.973 43.16 214.046 43.088 214.262 43.088C214.334 43.088 214.621 43.232 214.693 43.232C215.053 43.232 215.701 42.296 215.773 42.296H216.566C216.782 42.296 216.782 42.08 216.566 41.864L216.421 41.72L216.781 41.288H217.214C218.078 40.424 219.95 38.912 220.454 38.552C220.454 37.616 220.525 38.048 221.029 37.544H221.245C221.462 37.544 221.605 37.472 221.605 37.328L221.533 37.256C221.461 37.184 221.462 37.112 221.462 37.04L222.253 36.536C223.333 35.96 224.63 34.952 224.63 34.304C224.63 34.16 224.413 33.872 224.701 33.872L224.846 33.944H224.99C225.062 33.944 225.421 33.44 225.493 33.368L225.566 33.296V32.936C225.566 32.864 227.222 32 227.294 31.712C227.582 31.424 229.958 29.192 229.958 29.048V28.688C229.958 28.472 230.389 28.472 230.389 28.4V28.112L230.893 27.824C231.181 27.608 231.326 27.464 231.326 27.32C230.678 27.176 231.83 26.816 232.118 26.528V26.096L233.053 25.16C233.701 24.584 234.061 24.296 234.061 24.224V24.152C233.989 24.08 233.99 24.008 233.99 23.936H234.206C234.278 23.936 234.494 23.648 234.926 23C235.358 22.352 235.646 21.992 235.79 21.92C236.15 21.92 236.365 21.776 236.365 21.416C236.365 21.344 236.294 21.056 236.294 20.984C236.582 20.696 237.445 20.48 237.085 20.336L237.014 20.264C237.014 20.192 237.734 19.256 239.102 17.384C240.47 15.44 241.189 14.288 241.189 13.784V13.352C241.189 13.136 241.693 12.632 241.693 12.416V12.272L241.622 12.2C241.622 12.128 241.766 11.984 241.982 11.84C241.55 11.408 241.91 10.904 241.91 10.472C241.91 9.10401 240.469 8.02401 239.029 8.02401H238.958C238.742 8.02401 237.733 8.09601 237.518 8.09601ZM235.07 9.46401C234.998 9.39201 234.997 9.39201 234.997 9.32001L235.214 9.24801C235.214 9.39201 235.142 9.46401 235.07 9.46401ZM231.902 10.832C231.902 10.76 231.901 10.688 231.973 10.688C232.117 10.688 232.189 10.76 232.189 10.832L232.046 10.904C231.974 10.904 231.902 10.904 231.902 10.832ZM229.958 13.496H230.102L230.029 13.568L229.958 13.496ZM227.725 15.584H227.941C227.941 15.656 227.942 15.656 227.87 15.656C227.798 15.656 227.725 15.656 227.725 15.584ZM238.309 17.312V17.456V17.312ZM236.654 19.616H236.725H236.654ZM235.574 21.704V21.632V21.704ZM216.277 28.76V28.832V28.76ZM226.646 31.352V31.424V31.352ZM226.646 31.496C226.646 31.568 226.718 31.64 226.79 31.64L226.646 31.496ZM213.973 31.784V31.856V31.784ZM213.253 32.36C213.253 32.288 213.397 32.288 213.397 32.36C213.397 32.576 213.253 32.576 213.253 32.36ZM209.581 37.184V37.4C209.509 37.4 209.438 37.328 209.438 37.112L209.581 37.184ZM209.798 37.976H209.725V37.904L209.798 37.976ZM208.574 40.424C208.358 40.424 208.285 40.352 208.285 40.208C208.357 40.208 208.502 40.28 208.574 40.424ZM216.277 41.72V41.864C216.205 41.864 216.133 41.792 216.133 41.72H216.277ZM205.693 43.952C205.765 43.88 205.91 43.808 205.91 44.024C205.766 44.024 205.693 44.024 205.693 43.952ZM205.046 46.112H205.117H205.046ZM207.781 48.344V48.416V48.344ZM206.701 48.488H206.773H206.701ZM222.542 55.544V55.4H222.613C222.613 55.472 222.614 55.544 222.542 55.544Z" fill="#7789AE"/>
<path d="M236.831 47.336C236.903 47.264 236.975 47.264 237.047 47.264L237.335 46.976C237.335 47.048 237.263 47.192 237.263 47.264C237.263 47.408 237.335 47.48 237.479 47.48C237.263 47.48 236.903 47.336 236.831 47.336C236.687 47.336 236.615 47.336 236.615 47.408L236.111 47.84L235.895 48.056L235.823 48.2L235.895 48.272V48.344C235.607 48.344 235.031 49.208 235.031 48.776H234.887C234.815 48.776 234.743 48.776 234.671 48.848L234.455 48.2C234.167 47.408 233.447 46.472 232.655 46.472C232.583 46.472 232.295 46.544 232.079 46.544C232.007 46.616 231.287 46.76 231.215 46.76C230.135 47.264 229.055 48.2 227.831 49.568C227.831 50 226.535 50.432 226.751 50.648L226.823 50.72C226.031 50.216 224.375 53.384 224.087 53.672C224.087 53.96 223.871 54.464 223.871 54.68C223.871 54.824 223.871 54.896 223.943 54.896C223.943 54.968 224.087 55.616 224.159 55.832C224.087 55.904 224.015 55.976 224.015 56.192C224.087 56.408 224.303 57.128 224.519 57.416C224.591 57.488 225.599 57.92 225.671 58.136C225.887 58.136 226.319 58.424 226.535 58.424C226.823 58.28 227.111 58.28 227.255 58.424L227.327 58.352L227.471 58.208L227.615 58.28C227.903 58.352 228.263 57.704 228.479 57.704H228.623L228.695 57.776C228.911 57.776 229.055 57.776 229.127 57.704C229.199 57.704 229.199 57.416 229.271 57.416L229.415 57.56C229.559 57.56 229.919 57.2 230.567 56.552C231.215 55.832 231.647 55.472 231.863 55.472C231.935 55.4 232.079 55.328 232.151 55.328L232.295 55.4C232.511 55.616 232.655 55.256 233.159 55.256C233.159 55.328 233.159 55.328 233.087 55.4C232.871 55.4 232.871 55.688 233.159 55.76C233.159 56.048 233.447 56.696 233.519 56.696C233.519 56.984 234.095 57.92 234.383 57.92H234.671C234.743 58.136 235.031 58.208 235.391 58.208L235.463 58.136H235.751C235.967 58.208 236.183 58.28 236.399 58.28C236.615 58.28 236.975 57.992 237.191 57.992C237.263 57.992 237.263 57.992 237.335 57.92L237.479 57.848C237.551 57.92 237.623 57.92 237.695 57.92C238.055 57.92 238.343 57.776 238.703 57.56V57.416C238.703 57.344 238.775 57.272 238.847 57.2C238.919 57.2 238.919 57.2 238.991 57.272H239.063C239.135 57.272 239.135 57.272 239.207 57.2C239.207 57.128 239.279 57.056 239.351 57.056L239.495 57.128C239.495 57.2 239.495 57.2 239.567 57.2C240.071 57.2 241.151 55.976 241.727 55.976C241.799 55.976 241.799 55.976 241.871 56.048L241.943 56.12C242.015 56.12 244.535 54.32 244.967 54.176C245.039 54.176 245.327 54.032 245.903 53.744C246.263 53.456 247.415 52.952 247.487 52.88C247.703 52.808 248.639 51.296 249.287 51.296C249.287 51.368 249.287 51.368 249.359 51.368C249.431 51.44 249.575 51.44 249.791 51.224C250.079 50.936 251.735 49.64 252.239 48.776C252.527 48.344 252.671 47.84 252.671 47.264C252.671 47.048 252.599 46.904 252.455 46.904L252.095 47.264L250.079 48.776L250.151 48.92V49.064V49.28C250.295 48.92 248.855 49.568 248.423 49.856C248.423 50.144 247.847 50.288 247.847 50.504C247.559 50.792 246.191 51.368 246.191 51.728C246.191 51.8 246.191 51.8 246.263 51.872V51.944C246.263 52.016 245.831 52.16 244.967 52.448C244.175 52.736 243.743 53.024 243.671 53.24C243.671 53.312 243.527 53.384 243.311 53.456H242.735C242.663 53.456 242.087 53.816 240.935 54.608C239.855 55.328 239.063 55.688 238.703 55.688H238.559L238.487 55.616C237.983 55.76 236.831 56.768 236.255 55.976H235.823C235.175 55.976 234.815 55.688 234.815 55.184C234.815 54.896 235.319 54.32 235.319 54.032V53.888L235.247 53.816C235.247 53.6 235.463 53.24 235.823 52.592L236.543 51.656C237.479 50.504 238.703 48.92 238.991 48.632V48.2C238.559 48.272 239.423 47.912 239.639 47.552C239.639 47.48 239.567 47.336 239.423 47.048H239.207C238.919 47.048 238.775 46.976 238.775 46.76H238.847L239.063 46.832C239.135 46.904 239.207 46.688 239.207 46.616C239.207 46.256 238.487 45.896 238.127 45.896C237.911 45.896 236.759 46.544 236.759 46.76V47.12C236.759 47.192 236.759 47.264 236.831 47.336ZM239.279 46.904V46.832V46.904ZM237.767 46.976C237.767 47.048 237.695 47.12 237.551 47.12C237.551 47.048 237.623 46.976 237.767 46.976ZM237.911 47.192L237.839 47.12L237.911 47.192ZM236.759 47.768V47.84V47.768ZM232.439 48.056C232.439 47.984 232.511 47.912 232.583 47.912C232.583 47.984 232.511 48.056 232.439 48.056ZM229.775 48.344C229.703 48.344 229.703 48.272 229.703 48.2C229.775 48.272 229.775 48.272 229.775 48.344ZM235.895 48.632C235.895 48.56 235.967 48.56 236.039 48.56C236.039 48.632 235.967 48.632 235.895 48.632ZM230.567 48.56V48.704V48.56ZM232.367 48.704H232.583C232.727 48.848 232.799 49.208 233.375 49.208L233.519 49.064H233.735C233.951 49.064 234.455 49.28 234.527 49.28L234.671 49.208L234.599 49.352V49.496H235.031C234.815 49.568 234.743 49.712 234.743 49.856C234.743 49.928 234.815 49.928 234.815 50C234.887 50.504 233.663 51.008 233.879 51.44L233.303 52.232C233.303 52.304 233.231 52.376 233.159 52.448L233.303 52.592L233.159 52.664C232.871 52.736 232.871 53.024 233.087 53.096L231.143 54.104L230.855 54.176C230.351 54.248 229.991 54.392 229.991 54.608L230.063 54.752C230.063 55.184 229.415 55.616 228.047 55.976C227.975 56.192 227.255 56.192 227.183 56.264H226.967C226.679 56.264 226.391 56.12 226.175 55.832C226.247 55.76 226.319 55.616 226.319 55.544L226.247 55.472C226.031 55.256 226.391 55.256 226.391 54.968C226.463 55.04 226.607 55.04 226.679 54.896L226.535 54.968C226.535 54.968 226.535 54.968 226.463 54.968C226.247 54.968 226.175 54.896 226.175 54.752C226.175 54.68 226.247 54.68 226.319 54.608L226.463 54.536C226.463 54.464 226.391 54.464 226.319 54.392H226.175C226.247 54.32 226.391 54.248 226.463 54.248C226.535 54.248 226.535 54.32 226.535 54.392V54.32C226.607 54.248 226.679 54.248 226.751 54.248H226.895L226.967 54.32L227.543 53.168L227.615 53.024C227.615 53.096 227.615 53.168 227.687 53.168C227.903 53.168 228.839 52.16 228.839 51.872C228.767 51.872 228.767 51.872 228.695 51.8C228.695 51.728 228.767 51.584 228.767 51.512C229.127 51.368 229.631 50.864 230.351 50.072C231.143 49.28 231.647 48.776 231.935 48.704H232.367ZM235.535 49.352C235.535 49.28 235.391 48.992 235.391 48.92C235.535 48.92 235.607 48.992 235.607 49.136C235.607 49.208 235.607 49.28 235.535 49.352ZM235.895 48.992V49.064H235.823L235.895 48.992ZM236.039 49.208C236.039 49.064 236.111 48.992 236.183 48.992C236.183 49.136 236.111 49.208 236.039 49.208ZM234.671 49.208C234.671 49.136 234.743 49.136 234.815 49.136C234.815 49.208 234.743 49.208 234.671 49.208ZM237.263 49.136H237.191H237.263ZM229.559 49.352C229.559 49.208 229.631 49.136 229.703 49.136V49.28C229.703 49.352 229.631 49.352 229.559 49.352ZM229.271 49.208C229.559 49.208 229.559 49.496 229.343 49.496C229.271 49.496 229.271 49.424 229.271 49.208ZM237.695 49.352V49.424V49.352ZM234.959 49.928C234.959 49.856 235.463 49.424 235.535 49.424C235.463 49.496 235.463 49.568 235.463 49.64C235.391 49.712 235.391 49.712 235.463 49.784C235.535 49.856 235.535 49.856 235.535 49.928L235.103 50.36C235.031 50.36 235.031 50.36 235.031 50.288L235.103 50.216C235.175 50.144 235.175 50.144 235.175 50.072C235.103 50.072 235.031 50 234.959 49.928ZM230.927 49.496V49.64C230.855 49.64 230.783 49.568 230.783 49.496H230.927ZM249.935 49.568V49.64V49.568ZM249.719 50.36C249.431 50.288 249.287 50.072 249.287 49.712L249.719 49.928V50.072V50.36ZM228.767 49.784V49.856V49.784ZM248.927 50.648C248.927 50.576 248.999 50.504 249.143 50.504C249.215 50.504 249.215 50.576 249.215 50.648H248.927ZM229.631 50.504V50.576V50.504ZM234.815 50.504H234.887H234.815ZM248.783 50.648C248.783 50.72 248.783 50.72 248.855 50.72H248.783V50.648ZM234.239 51.008H234.311V51.152H234.239V51.008ZM247.127 51.296C247.199 51.296 247.271 51.368 247.271 51.44C247.199 51.44 247.127 51.368 247.127 51.296ZM227.471 51.584V51.656H227.399L227.471 51.584ZM236.327 51.728C236.255 51.728 236.183 51.728 236.183 51.656H236.399C236.399 51.728 236.399 51.728 236.327 51.728ZM234.023 51.944C233.951 51.944 233.951 51.872 233.951 51.728H234.239L234.023 51.944ZM228.407 52.088V52.16V52.088ZM234.023 52.16V52.232V52.16ZM227.903 52.448H227.975H227.903ZM245.255 52.736V52.808V52.736ZM246.551 52.952C246.551 53.024 246.263 53.096 246.263 52.808C246.479 52.808 246.551 52.88 246.551 52.952ZM227.759 52.952C227.759 52.88 227.831 52.88 227.975 52.88C227.975 52.952 227.903 52.952 227.759 52.952ZM233.303 52.808V52.88V52.808ZM233.447 53.024H233.375H233.447ZM227.399 53.096V53.168V53.096ZM233.447 53.096H233.519V53.168L233.447 53.096ZM234.383 53.096V53.168V53.096ZM234.743 53.096V53.168V53.096ZM233.807 53.312V53.384V53.312ZM243.815 53.96C243.743 53.96 243.743 53.96 243.743 53.888L243.815 53.96ZM232.367 54.032C232.295 54.032 232.223 53.96 232.223 53.888C232.295 53.888 232.367 53.96 232.367 54.032ZM244.031 53.888V53.96V53.888ZM244.103 53.96V54.032V53.96ZM232.511 54.248C232.511 54.176 232.799 54.104 232.799 54.392C232.583 54.392 232.511 54.32 232.511 54.248ZM243.455 54.32C243.239 54.32 243.167 54.248 243.167 54.176H243.239C243.311 54.248 243.527 54.248 243.599 54.176V54.248C243.599 54.32 243.527 54.32 243.455 54.32ZM233.015 54.176C233.087 54.176 233.087 54.176 233.159 54.248C233.159 54.32 233.159 54.32 233.087 54.392C233.015 54.392 233.015 54.392 233.015 54.32V54.176ZM230.783 54.896C230.639 54.896 230.567 54.824 230.639 54.608C230.711 54.608 230.783 54.68 230.783 54.752V54.896ZM242.087 54.752C242.087 54.68 242.159 54.68 242.231 54.68C242.303 54.68 242.375 54.752 242.447 54.968L242.591 55.184C242.231 55.04 242.087 54.896 242.087 54.752ZM225.599 54.68C225.599 54.824 225.671 54.896 225.743 54.896C225.815 54.896 225.815 54.896 225.887 54.824L226.031 55.112C226.031 55.184 225.815 55.4 225.887 55.472C225.815 55.472 225.383 55.184 225.383 54.968L225.599 54.68ZM231.071 54.68H231.143H231.071ZM230.279 55.184H230.351H230.279ZM234.527 55.256C234.527 55.328 234.383 55.328 234.383 55.256H234.527ZM225.311 55.328V55.472V55.4V55.328ZM233.159 55.472C233.231 55.472 233.231 55.472 233.231 55.4L233.303 55.472L233.231 55.544L233.159 55.472ZM230.855 55.688H230.927V55.76H230.855V55.688ZM239.351 55.904V55.976V55.904ZM228.191 56.552V56.624V56.552ZM233.663 56.624H233.519H233.663ZM227.255 56.624V56.696V56.624ZM233.735 56.84V56.912V56.84ZM225.095 57.056H225.167C225.095 57.128 225.095 57.128 225.095 57.2V57.056ZM238.271 57.2V57.272V57.2ZM226.823 57.272V57.344V57.272ZM225.599 57.416V57.488V57.416ZM226.031 57.344V57.416V57.344ZM226.823 57.56C226.895 57.488 226.895 57.488 226.967 57.488V57.704C226.895 57.704 226.823 57.632 226.823 57.56Z" fill="#7789AE"/>
</g>
</g>
</svg>
